<?xml version="1.0" encoding="utf-8"?>
<!-- Generator: Adobe Illustrator 22.0.1, SVG Export Plug-In . SVG Version: 6.00 Build 0)  -->
<svg version="1.1" id="Calque_1" xmlns="http://www.w3.org/2000/svg" xmlns:xlink="http://www.w3.org/1999/xlink" x="0px" y="0px"
	 viewBox="0 0 703 866.5" style="enable-background:new 0 0 703 866.5;" xml:space="preserve">
<style type="text/css">
	.st0{fill:#00848B;}
</style>
<path transform="matrix( 1, 0, 0, 1, 0,0) " class="st0" d="M312.2,418.5c-6.5,3.6-12.2,7.8-17,12.5c-2.7,2.7-6.6,9.6-11.8,20.7
	c-0.4,1.2-0.9,2.5-1.3,4c9.5,5.8,19.6,10.7,30.4,14.8l1.5,0.5c0.5,0.2,1,0.4,1.5,0.5c0,0,0,0,0,0c0.1,0,0.2,0,0.3,0
	c0.2,0,0.5,0.1,0.8,0.3c0.2,0.1,0.4,0.2,0.5,0.3c0,0,0,0,0,0.1c0.1,0.1,0.3,0.1,0.5,0.2c2.9,1,4.5,1.6,5,1.8c3.1,1.6,6.2,2,9.4,1
	c1-0.4,1.8-0.9,2.3-1.3c1-0.9,1.7-2.4,2-4.5c2.1-0.8,3.6-1.5,4.3-2.2c0.6-0.4,1-1.1,1.3-1.9c0.4-0.8,0.4-1.5,0.1-2.1
	c3-0.6,5.1-1.5,6.3-2.8c1.6-1.3,2.2-3.2,1.9-5.7c-0.1-2-0.9-3.8-2.5-5.5c1.3-1,2.3-2.2,2.9-3.7c0-0.9,0-1.6,0-2.1
	c7.8-2.4,17.7-8.9,29.8-19.5c-0.6,0.1-1.3,0.3-2,0.6c-0.9,0.4-1.8,0.8-2.5,1.2c-1.9,0.6-3.5,0.9-4.7,1l-18.5,6.2l-2.8-2
	c-1.4,2.5-3.6,4.6-6.7,6.4c-3,1.8-5.3,4.1-6.8,6.9c-1.6,2.8-2.5,4.2-2.7,4.1c-0.6-7.7,0.5-15.8,3.4-24.2c-0.6-0.1-1.2-0.4-1.9-0.7
	c-3.3-1.7-8.3-4.2-15-7.3c-1.1-0.6-2.1-0.6-3,0C315.9,416.6,314.3,417.4,312.2,418.5 M250.9,333.1c-0.8,0.2-1.4,1-1.8,2.4
	c-0.7,1.6-1.2,2.5-1.6,2.7c-0.9,0.6-1.9,0.4-3.2-0.6c-1.3-1-2.1-1.5-2.4-1.5c-0.3,0-0.7,0.2-1,0.5c-0.3,0.3-0.7,0.8-1.3,1.5
	c-0.4,0.5-1.3,2-2.6,4.4c-1.3,2.4-2.4,3.8-3.3,4.3c-0.9,0.5-1.8,0.6-2.9,0.2c-1-0.4-1.8-1.2-2.1-2.5c-0.5-2.5-1.2-3.6-2.1-3.2
	c-0.7,0.4-1.6,1.5-2.7,3.5c-1.1,1.6-2.3,2.7-3.5,3.2c-0.5,0.1-1,0.2-1.6,0.1c-0.9-0.2-1.8-1.3-2.5-3.4c-0.4-0.7-1-1.3-1.8-1.8
	c-0.8-0.4-1.6-0.6-2.5-0.5c-1.2,0.1-2.3,0.6-3.3,1.3c-1,0.7-1.9,2-2.8,3.8c2.5,13.1,6.5,25.4,11.9,37c9.9,3.2,23.4-2.4,40.6-16.8
	c6.3-12.7,10.7-22.1,13.3-28.4c1.1-2.6,2.7-5.1,4.8-7.5c-2.1-0.6-4-0.3-5.5,0.9c-0.5,0.3-1.2,0.9-2,1.8c-1.1,0.9-2.1,1.3-2.8,1
	c-0.6-0.1-1.4-0.6-2.3-1.6l-1.9-2.2c-0.7,0-1.3,0.5-1.7,1.6c-0.6,1.1-1.1,1.7-1.5,1.9c-0.8,0.6-2,0.3-3.7-1
	C253.3,333.2,251.9,332.8,250.9,333.1 M533.2,678.7c0-7.2-2.3-13.8-6.9-19.8c-5.1-6.6-11.1-10-18-10.3c-13.5-0.6-20.9,3-22.3,10.8
	c-1.9,11.8-2.8,26.2-2.8,43.4v20.8c-0.1,10.2-0.4,18.9-0.9,26.3c-0.2,0.9-0.5,3.1-1,6.8c-0.6,3.3-0.9,5.8-0.9,7.8
	c0,6.4,2.8,10.2,8.4,11.5c0.9,0.4,2,0.2,3.3-0.4c1.3-0.6,2.1-1,2.5-1c1.6-6.3,2.8-14.7,3.5-25.3c1-13.9,1.7-22.5,2-25.7
	c5.5,4.7,13.8,13,25,25c10.1,10.7,18.5,18.7,25.3,24c6.1-1.6,9.1-3.9,9.1-6.8c0-0.5-0.2-1-0.6-1.6c-3.7-6.2-9.9-13.2-18.7-21.2
	c-13.8-12.5-20.8-18.8-20.8-19c-2.1-1.7-4.1-3.3-6.2-4.9c-2.6-2.3-4-4.3-4-6c0-1.5,1.1-2.9,3.3-4.2c5.6-3.1,10.4-7.3,14.2-12.6
	C531,690.6,533.1,684.6,533.2,678.7 M500,675.9c0-4,0.3-7.5,1-10.8c0.8-1.9,2.7-2.9,5.8-2.9c3.9,0,6.9,1.1,8.8,3.2
	c1.9,2.1,3,4.5,3.4,7.3c0.2,1.8,0,3.8-0.4,6.1c-1.4,7.3-7.4,14.9-18,22.7c0.3-3.4,0.3-7.7,0-12.9C500.2,681.8,500,677.6,500,675.9
	 M623.7,649.7c0.9-0.5,1.4-1.3,1.4-2.4c0-0.6-0.3-1.7-0.8-3.1c-0.4-1.4-0.7-2.4-0.9-2.9c-4.7-2.7-8.7-4-12-4c-0.9,0-1.7,0.1-2.5,0.3
	c-6,1.6-12.2,3.2-18.5,4.8c-7.1,1.9-13,4.1-17.6,6.6c-4.1,1.6-8.2,3.2-12.3,4.8c-4.3,2.1-6.5,5-6.8,8.6c0,4,3.5,6.7,10.5,8.1
	c-0.8,11.2-1.3,17.5-1.4,19c-0.7,0.1-2,0.8-3.8,2c-1.6,1-2.4,2-2.5,3.2c-0.4,2.3,1.2,4.6,4.8,7.1c-1.1,8.7-1.1,18.7,0,29.8
	c0.4,3.7,2.1,7.1,5,10.2c2.9,3,6.1,4.9,9.6,5.8c11.4,3.1,24.7,4.3,40,3.8c2-0.1,3.6-1,4.7-2.8c1.1-1.7,1.4-3.6,1-5.5
	c-1.2-6.1-3.6-8.8-7.3-8.1c-0.7,0-1.6,0.5-2.7,1.5c-1.2,0.9-2.3,1.4-3.3,1.4c-14.8,0.6-25.1-1.2-31.1-5.4c-1-2-1.5-4.9-1.5-8.6
	c0-5.5,1.2-12.9,3.7-22.4c3.6-1.3,8.3-2.1,14.2-2.2c7.2-0.1,12.1-0.5,14.7-1.1c1.6,0.1,2.9-0.4,4-1.5c1.3-1.7,2.2-2.6,2.5-2.8
	c0.9-0.5,1.3-1.2,1.3-2c0-0.8-0.9-2.4-2.6-5c-2.5-1.5-5.6-2.2-9.2-2.2c-1.9,0-4.9,0.3-9,1c-4.1,0.5-7,0.8-9,0.8
	c-2.6,0-4.9-0.3-6.9-1c0.4-11.4,1.2-18.8,2.4-22.2c4.7-1.8,11.6-3.9,20.7-6.5C612.1,653.9,619,651.6,623.7,649.7 M169.2,675.7
	c1.1-5.8,2.2-11.5,3.4-17.3c0.7-6.9-0.2-12.4-2.8-16.7c-1.3-1.6-2.9-2.7-4.8-3.2c-2.5-0.8-4.4-0.3-5.6,1.4
	c-6.3,7.7-14.2,19-23.6,33.8c-11,17-18.8,28.7-23.4,35.3c-0.6,0.1-1.4,0.1-2.6,0.3c-3.8,0.4-6.1,0.8-6.8,1.4c-1,0.6-1.6,1.2-1.9,1.7
	c-0.1,0.8,0.5,2.3,1.9,4.5c1.5,2,2.2,3.1,2,3.4c-2.2,5.2-6.9,12.2-14.1,21.1c-6.2,7.7-9.9,14.1-10.9,19.4c-0.6,2.7,1.1,5.4,5.1,8
	c3.1,2,5.6,2,7.5,0c3.8-4.7,8.4-11.7,13.8-21c6.1-10.2,10.4-17.1,12.9-20.8c3.8-1.9,8.5-2.5,14.2-1.6c4.5,0.8,9.2,1.6,14,2.5
	c0.1,7.5-0.3,16.8-1.4,27.8c-1.4,10,1,16.5,7.3,19.7c0.9,0.3,2.7-0.3,5.5-1.8c2.9-1.3,4.9-3.4,5.9-6.3c0.4-1.6,0.6-3.6,0.5-6.1
	C164.5,738.3,165.9,709.9,169.2,675.7 M148.1,714c-9.2-2.4-14.9-3.7-17.1-3.9c6.5-10.5,13.6-20.9,21.1-31.1
	c-0.4,5.7-0.9,11.5-1.4,17.5C150,703,149.2,708.8,148.1,714 M268,650.2c-0.3-1.3-1.1-2.2-2.5-2.8c-0.4-0.1-1.6-0.4-3.6-1
	c-1.5-0.4-2.8-0.7-4.1-0.7c-3.2,0-5,1.4-5.4,4.1c-4.1,34-7,59.5-8.9,76.3c-4.8-8.6-10.1-21.2-15.8-37.7c-6-17.5-10.9-30.1-14.9-37.8
	c-4.2-3.3-7.4-4.9-9.6-4.8c-4.5,0-6.9,1.5-7,4.4c-0.3,3.2-1.7,20.2-4,51c-1.5,20.3-2.2,37.1-2.2,50.4c0,7.8,0.1,15.3,0.4,22.4
	c0.1,2.1,0.2,4.2,0.3,6.3c0.4,2.5,1.4,4,3.1,4.5c0.6,0.3,1.8,1,3.8,2c1.3,0.6,2.4,0.9,3.3,0.9c1,0,2-0.4,3-1.3
	c2.2-1.4,3.3-3.9,3.2-7.5c-0.6-10.1-0.9-20-0.9-29.5c0-20.2,1.1-39.3,3.2-57.4c0.2-1,0.5-1.8,0.8-2.2c13.6,34.8,24.3,59.9,32.1,75.3
	c2.7,5.4,6,8.1,10,8.1c2.1,0,3.9-0.8,5.4-2.3c1.6-1.6,2.4-3.4,2.3-5.5c-0.3-4.3-0.4-8.6-0.4-13c0-13.6,1-30.6,3.1-51
	C264.6,684.2,266.3,667.1,268,650.2 M309,657.5c-0.3,0-0.8,0.2-1.3,0.6c-2.4-1.5-4.9-2.3-7.3-2.3c-3.1,0-5.2,1.2-6.5,3.7
	c0.2,3.2,0.3,6.4,0.3,9.7c0,1.8,0,3.8,0,6c-0.4,8.2-1.4,19.1-3,32.5c-2.1,17-3.1,29.9-3.1,38.7c0,4.9,0.2,9.5,0.6,14
	c0.6,4.5,3.5,6.8,8.8,7c3.9,0.1,6.4-1.6,7.6-5.1c-0.1-3.2-0.2-6.5-0.2-9.8c0-8.9,0.9-22,2.7-39.3c1.8-16.7,2.6-29.3,2.6-38
	c0-0.3,0-0.7,0-1.2c0-3.9-0.1-7.7-0.3-11.4C309.7,659.2,309.3,657.5,309,657.5 M384.8,645.6c0-2.1-0.5-3.5-1.4-4.2
	c-2.9-2.1-6.1-3.2-9.7-3.2c-8.2,0-16.2,4.5-23.8,13.6c-13.1,15.7-19.6,34.8-19.6,57.4c0,4.2,0.2,8.5,0.6,12.9
	c1.7,14.4,2.8,22.5,3.4,24.5c0.8,2.8,2.2,5.8,4,8.9c2,3.1,3.8,6.2,5.5,9.1c7,11.6,13.6,19.1,19.8,22.5c3.4,1.5,5.9,2.3,7.5,2.5
	c1.6,0.4,3.1-0.2,4.4-1.7c1.4-1.7,2-3.6,2-5.8c0-2.1-1-3.6-3-4.7c-1.9-0.8-3.8-1.6-5.8-2.5c-4.5-2.6-8.3-7-11.5-13.2
	c-1.3-2.6-3.4-7.9-6.3-16.1c-3.5-9.8-5.3-20.3-5.3-31.4c0-23.8,7.1-43.2,21.2-58.2c1.5-1.5,5.1-2.8,11-4
	C382.5,651.1,384.8,649,384.8,645.6 M441.8,656.3c-1.1-6-3.3-10.5-6.8-13.6c-1.4-1.1-3.1-1.6-4.9-1.6c-2.4,0-4,0.8-4.6,2.5
	c-3.3,8-7.1,19.6-11.3,34.6c-4.9,17.3-8.5,29-10.9,35.3l0.1-0.3c-1.3,0.4-2.8,1-4.4,1.8c-1.6,0.8-2.7,1.5-3.3,2.3
	c-0.6,0.7-0.9,1.4-0.9,2.1c0,0.6,0.9,1.7,2.8,3.2c1.8,1.4,2.8,2.5,3.1,3.1c-0.8,4.5-3.2,11.3-7,20.6c-3.3,8.1-4.7,14.6-4.3,19.4
	c0.2,2.3,2.5,4.2,6.8,5.7c3.2,1,5.3,0.3,6.3-1.9c2-4.9,4.1-12,6.4-21.2c2.3-10,4.3-17.5,6-22.5l10-3.7c6.1-1.4,10.8-1.5,14.1-0.5
	c2.3,6.5,4.4,14.5,6.3,24.1c1.7,8.9,5.6,13.9,11.8,15.2c0.8,0.1,2.3-0.8,4.4-2.8c2.1-1.8,3.2-3.9,3.2-6.5c0-1.6-0.4-3.5-1.2-5.5
	c-6.8-19.4-13.4-44-19.7-73.9C443.2,666.8,442.4,661.6,441.8,656.3 M436,709.8c-8.7,0-14,0.2-16,0.5c2.9-10.5,6.1-21,9.8-31.6
	c1.2,5.1,2.5,10.2,3.8,15.3C434.7,699.8,435.5,705.1,436,709.8 M311.3,631.4c0.6-4.8-0.5-8.2-3.3-10.3c-2.1-0.5-3.7-0.8-4.7-1
	c-0.9-0.2-1.9-0.3-2.8-0.3c-0.9,0-1.7,0.1-2.5,0.3c-1.8,0.5-3.1,1.5-4,3.2c0.2,3.2-1.1,5.5,0.3,9.6c0,0.1,1.6,1.9,4.6,5.2
	c0.2,0.2,0.4,0.4,0.6,0.6c3.3,3.5,5.4,4.8,6.5,3.9C308.9,640,310.7,636.2,311.3,631.4 M316.6,358.1c-0.3-1.8-1-3.2-2-4.3
	c-1.2-1.3-2.7-1.9-4.4-2c-1.6-0.3-3.1,0-4.7,0.9c-1.5,0.8-2.5,1.9-3.1,3.5c-0.7,1.3-0.9,2.8-0.6,4.5c0.4,1.7,1.2,3.2,2.3,4.3
	c1.2,0.8,2.7,1.3,4.4,1.5c1.8,0.2,3.5-0.2,4.9-1.3c1.3-0.6,2.1-1.6,2.5-3.2C316.7,360.8,316.9,359.5,316.6,358.1 M278.1,297.5
	l3.3,8.8l19.8,12.1C294.6,306.5,286.9,299.5,278.1,297.5 M391.1,305.2c0.3,1.7,1,3.1,2.1,4.1c1.3,1.1,2.9,1.7,4.7,1.7
	c1.7,0.3,3.3,0,4.7-0.9c1.2-0.8,2.1-1.9,2.7-3.3c0.4-1.3,0.6-2.7,0.5-4.3c-0.4-1.7-1.2-3.1-2.5-4.3c-1-1.3-2.4-1.9-4.2-2
	c-1.5-0.4-3-0.1-4.6,0.9c-1.6,1.1-2.7,2.2-3.3,3.5C390.7,302,390.6,303.5,391.1,305.2 M479.7,507.7c16.4-10.3,27.9-13.9,34.4-10.8
	c-7-12.9-14.7-17.3-22.8-13.2c-18,9-34.6,22.8-49.9,41.5l-18.6,18.6L479.7,507.7 M445.7,510.8c8.2-9.9,15.1-16.3,20.7-19.2
	c-17.2-1.9-29.6,4.6-37.1,19.7c-0.3,0.6-5,11.3-14,32C427.4,531.3,437.5,520.5,445.7,510.8 M487,136.6c37.9,14,72.1,37.5,94.7,70.5
	c8.3,11.8,14.6,20.6,19.1,26.3c4.9,6,10,10.3,15.3,12.6c-3.8-11.8-8.4-23.5-13.9-35.1C579,164.3,543.3,128.6,495,103.7
	c-54.9-27.8-112.1-37.3-171.7-28.4c-60,8.9-110.9,34.5-152.7,76.8c-63.3,64.1-89.2,144.6-65.6,235.5
	c26.3,101.3,92.2,162.4,185.6,189.2c8.2,2.7,16.6,5,25.4,7c4.4,1,8.7,1.6,13.1,1.7c14.1,2,27.7,2.6,40.8,2c2.2-0.2,4.6-0.4,7.5-0.8
	c6.2-0.7,12.3-1.7,18.3-3.2c1.2-0.4,2.3-0.7,3.2-1c9.4-2.4,18.3-5.7,26.8-9.9c7.6-3.7,15.1-8,22.3-12.9
	c15.7-10.6,27.3-18.4,34.9-23.2c14-8.4,32.5-15.3,55.4-20.7c0.3-3.5-0.4-6.6-2.1-9.3c-1.7-2.6-4.9-4-9.5-4.2
	c-15.3-1.5-29.8,2-43.4,10.7l-38.3,24c-8.4,5.3-17.9,9-28.3,10.9c-10.5,1.9-18.9,2.3-25.2,1.4c-12.2-1.9-24.3-4.4-35.7-9.3
	c-3.8-1.6-9.4-3.6-10.8-7.9c-1.6-4.6,2.7-8.7,6-11.3c8.6-3.9,14.8-7.3,18.8-10.3c4.9-3.6,25.7-18.4,19.2-26.8
	c-2.3-2.9-8-2.9-11.1-1.9c-1-0.2-4.6,1.6-10.9,5.4c-2.4,1.2-5.6,3.1-9.5,5.6c-4.2,1.7-7.5,3-9.9,3.8c-7.7,0.8-19.6,2-35.8,3.5
	c-13.6,1.7-25.2,1.7-34.7,0c-10.7-1.3-20.8-4.7-30.1-10.2c-12.6-7.1-22.3-14.3-29-21.7c-12.5-14.5-20-24.2-22.8-29.1
	c-18.8-32.1-29.9-56.3-33.2-72.6c-5.1-25.2-5.8-49.5-1.9-72.8c3.4-21.6,10.5-42.5,21.1-62.7c8.3-15.5,18.5-29.6,30.5-42.3
	c1.2-1.2,0.5-0.4-1.9,2.3c49.2-46.8,102.9-70,152.9-71.7C413.1,117.6,449.1,122.7,487,136.6 M496.4,168.8c-1.5,0.2-3.1,0.4-4.9,0.7
	c-9.3,1.2-18.4,4.9-27.4,7.4c-10.2,2.8-20.5,5.1-31.1,5.8c-4.1,0.3-8.7,0.1-11.3-3.1c-1-1.2-1.6-2.7-2.3-4.2
	c-3.2-6.2-9.7-10.2-16.4-12c-8.6-2.3-17.8-1.7-26.7-1.6c-0.7,0-1.4,0-2.1,0c-11.4,1.5-17.1,6.5-17,15.1c-3.9,0.2-10.2,1.3-18.8,3.4
	c-8.6,2.1-25,4.5-49.3,7.4c-12.7,1.5-26.3,9.7-36.2,17.3c-11.6,9-20.9,20.5-28.4,33c-5.1,8.6-9.7,17.6-12.5,27.3
	c-5.5,19.1-10.7,41-8.8,61c0.1,5.3,0.6,10.4,1.4,15.4l0.3-0.2c1.1-1.1,2.3-2,3.5-2.9c1.4-0.6,2.9-0.9,4.5-0.9c1.3,0,2.6,0.4,3.8,1.3
	c1.5,1,2.5,2.2,3,3.5c0.3,0.9,0.7,0.9,1.3,0l2.2-3.1c2-2.8,3.8-3.8,5.5-3c0.9,0.3,1.7,1.3,2.4,2.9c0.6,1.9,1.2,2.9,1.6,3.2
	c1-2.3,2.2-4.6,3.8-6.7c1-1.4,2.1-2.5,3.2-3.1c1.3-0.7,2.5-0.8,3.5-0.4c0.4,0.2,0.8,0.3,1.1,0.3c0.3,0.1,0.6,0.1,1,0
	c0.3,0,0.7-0.3,1.2-1c1.1-1.2,2.1-2.1,3.2-2.8c1.3-0.9,2.7-1.1,4.1-0.6l1.6,0.9c0.8,0.7,1.4,1.3,2,1.9c0.3-1,0.7-1.8,1.2-2.5
	l1.1-1.3c0.9-0.8,2.2-1,3.8-0.9c1.3,0.4,2.3,1.3,2.9,2.7c0.2,0.5,0.4,0.8,0.7,0.9c0.3,0.1,1.3-0.5,2.9-1.6c1.6-1.2,3.3-1.6,5-1.3
	c1.5,0.1,3.1,0.6,4.9,1.3c1.2-1.2,2.8-2.6,4.9-4.3c-0.6-0.6-1.7-1.5-3.1-2.9c-1.1-0.8-2.4-1.8-4.1-3c-1.9-1.1-3.7-2-5.3-2.9
	c-0.1,0-0.2-0.1-0.3-0.2c-0.1,0-0.1,0-0.2,0l-0.8-0.4c-0.4-0.2-0.9-0.4-1.4-0.7c-1.4-0.6-3.5-1.3-6.1-2.1c-1.6-0.6-3.2-1.1-4.8-1.6
	c-10.3-2.3-16.5-6.7-18.7-13.2c13.2,1.9,21.7,3.4,25.5,4.4c7.5,1.7,12.5,3.3,15,4.9c-1.7-3.6-2.9-6.7-3.7-9.5l-15-4.9
	c2-1.6,3.2-2.5,3.6-2.5c1.2-0.1,2.5-0.1,4-0.1c2,0,3.7,0,5-0.1c-0.2-1.1-0.6-3.3-1.3-6.4c-0.8-3.8-1-6.3-0.9-7.4
	c0.2-1.2,0.6-2.5,1.3-3.6c1.3-2.8,4-4.5,8.1-5.2c3.6-0.5,7.4-0.1,11.6,1.2l24.3,9.6c0.7,0.4,1.5,0.8,2.3,1.1l1.9,1.2l4.3,4.3l1-0.9
	c4.1-2.7,8.5-5.1,13-7.1c3.6-1.8,7.6-2.9,11.8-3.2c1-0.1,2-0.2,3.2-0.3v0c9.7-0.7,17.2,0.2,22.5,2.7c2.6,1.4,4.8,2.5,6.7,3.2
	c3.4,0.9,6.1,1.6,8.1,2.1c2.8,1.1,5.2,2.2,7.3,3.1c2,0.8,4.1,2.1,6.1,3.7c1.2,0.8,3.1,2.2,5.8,4.3c4.6,3.5,10,7,16.2,10.6
	c4.9,2.8,9.9,6.2,15.1,10.1c7.1,5.3,13.7,11.4,20.5,17.1c6.1,5.2,13.7,9.5,18.7,15.8c1.6,1.7,2.7,3.8,3.1,6.3c0.1,1,0.3,2.6,0.5,4.7
	c0,1.9,0.1,3.5,0.4,4.8c0,0.1,0.1,1,0.3,2.7c0.1,1.2,0.2,2,0.5,2.3c1.3,1.7,1.6,3.2,0.8,4.6c-0.3,1.1-1.2,1.9-2.5,2.6
	c-1.2,0.6-2,1.4-2.5,2.3l-4.3,0.1c-3.1,0.5-10.1,0.5-21-0.1c6,6.4,11.9,9,17.8,7.6c5.9-1.2,7.3-0.5,4.3,2c-3.1,2.8-5.2,4.5-6.3,5.1
	l-1.8,1.1c-2.1,0.8-3.7,1.2-4.8,1c-1.1-0.1-1.9-0.2-2.3-0.2c-0.4,0-0.9-0.2-1.5-0.4c-0.6-0.2-1.5-0.4-2.8-0.4h-0.1
	c-3,0-6.7,0.2-11.2,0.5l0,0.1c-1.2,5-3.7,9.1-7.7,12.3c-0.9,0.9-2,1.8-3.3,2.5l-3.6,1.6c-3.8,1.6-7.8,2.5-12.1,2.7l-29.8,0.6
	c0-0.1,0.1-0.3,0.3-0.5l18.4-2h0.8l6.2-0.8c1.2-0.1,2.4-0.3,3.7-0.4c4.4-0.5,9.1-2,14.2-4.6c0.9-0.6,1.8-1.3,2.7-2.1
	c4.1-5,6.3-9.2,6.5-12.4l0.3-0.8l0.1-0.4c0.2-1,0.3-2,0.3-2.9c0.1-2,0-3.8-0.3-5.5c-0.1-1.2-0.3-2.1-0.6-2.9c-0.7-2.9-1.6-5-2.8-6.3
	c-15.4-20.3-31.1-39.8-51.8-55.2c-16.8-12.5-36.8-22.8-57.8-25.6l-6.9-0.8l-1.6-0.6l-0.4-0.3c-1.7-1.6-2.8-2.7-3.5-3.4l-1.5-1.2
	l-27-12.7l-2.6-0.6c-4.3-1.1-8.1-0.9-11.5,0.6c-0.4,0.3-0.7,0.5-0.9,0.6c-0.2,0.1-0.7,0.9-1.5,2.3c-0.8,1.4-0.9,3.7-0.3,6.9l1.6,8.9
	h0.3c3,0,7.4,0.7,13.4,2.1c6,2,9.7,3.6,11.3,4.8c4.4,3.2,8,6.1,11,8.8c3.9,4.2,7,8.8,9.3,14c2.7,5.6,6,11.6,10,17.9
	c3,4.6,6.5,9.5,10.5,14.5c3.2,3.7,7.1,8.1,11.8,13.2c1.6,1.6,3.8,4,6.7,7c2.6,2.8,8.6,11.5,18.1,25.9c4.1,6.3,7.7,12.8,10.9,19.5
	c4.9,1.7,10.5,3.8,16.8,6.3c2.7,1.1,6.2,2.5,10.5,4.3c4.3,2.1,7.7,3.6,10.1,4.6c7.5,3.3,15,5.5,22.5,6.6c7.9,0.9,11.1-1.6,9.5-7.5
	c16.5,2.3,28.3,0.7,35.2-4.8c4.6-3.5,8.7-7.6,12.5-12.4c2-2.5,3.9-5.2,5.7-8.2c5.4-12.8,1.7-24.5-11-35.3
	c4.4-10.2,4.3-19.5-0.3-28.1c-5.2-8.9-9.2-15.9-12-20.9c-19.9-35.8-41-70.8-60.8-106.5c-0.4-0.9-0.4-1.4,0-1.5
	c0-0.3,0.5-0.4,1.4-0.4c2.6-0.4,5.5-0.9,8.8-1.5c2.1-0.4,5.2-1.2,9.3-2.3c6.4-1.4,13.3-3.6,20.5-6.5c9.2-3.8,17.4-8.5,24.5-14.3
	c2.8-2,5.1-4,6.9-6.1c2.4-2.3,4.3-4.6,5.6-7c1.3-1.9,1.7-3.5,1.2-4.9c-0.8-1.3-2.4-1.9-4.8-2C499.7,168.7,498.1,168.7,496.4,168.8
	 M425.1,259.9c1.7,0,3.2,0.8,4.5,2.3c0.9,1.1,1.6,2.4,2,4c0.1,1.5-0.1,3-0.6,4.4c-0.8,1.4-1.8,2.4-3,3.2c-1.3,0.9-2.8,1.3-4.5,1.3
	c-1.7-0.2-3.2-0.9-4.4-2c-1.2-1.1-2-2.6-2.5-4.3c-0.1-1.5,0-2.9,0.5-4.4c0.6-1.5,1.6-2.7,3.2-3.5C421.7,260,423.3,259.7,425.1,259.9
	 M355.8,319c1.2,1.2,1.9,2.6,2,4.3c0.3,1.5,0.1,2.9-0.7,4.1c-0.4,1.5-1.3,2.6-2.6,3.4c-1.3,0.7-2.9,1-4.8,1c-1.7,0-3.1-0.5-4.1-1.6
	c-1.2-1.1-2.1-2.5-2.5-4.3c-0.4-1.5-0.1-3,0.7-4.6c0.4-1.6,1.4-2.7,3-3.5c1.5-0.9,3-1.2,4.6-0.9C353.1,317,354.6,317.7,355.8,319
	 M272.1,280L272.1,280L272.1,280C272,279.9,272,279.9,272.1,280z"/>
</svg>
