<?xml version="1.0" encoding="UTF-8" standalone="no"?>
<!-- Generator: Adobe Illustrator 24.0.2, SVG Export Plug-In . SVG Version: 6.00 Build 0)  -->

<svg
   xmlns:dc="http://purl.org/dc/elements/1.1/"
   xmlns:cc="http://creativecommons.org/ns#"
   xmlns:rdf="http://www.w3.org/1999/02/22-rdf-syntax-ns#"
   xmlns:svg="http://www.w3.org/2000/svg"
   xmlns="http://www.w3.org/2000/svg"
   xmlns:sodipodi="http://sodipodi.sourceforge.net/DTD/sodipodi-0.dtd"
   xmlns:inkscape="http://www.inkscape.org/namespaces/inkscape"
   version="1.1"
   x="0px"
   y="0px"
   viewBox="0 0 352 352"
   xml:space="preserve"
   id="svg3835"
   sodipodi:docname="animal-welfare-conception.svg"
   inkscape:version="0.92.4 5da689c313, 2019-01-14"
   width="352"
   height="352"><metadata
   id="metadata3841"><rdf:RDF><cc:Work
       rdf:about=""><dc:format>image/svg+xml</dc:format><dc:type
         rdf:resource="http://purl.org/dc/dcmitype/StillImage" /><dc:title></dc:title></cc:Work></rdf:RDF></metadata><defs
   id="defs3839" /><sodipodi:namedview
   pagecolor="#ffffff"
   bordercolor="#666666"
   borderopacity="1"
   objecttolerance="10"
   gridtolerance="10"
   guidetolerance="10"
   inkscape:pageopacity="0"
   inkscape:pageshadow="2"
   inkscape:window-width="941"
   inkscape:window-height="1025"
   id="namedview3837"
   showgrid="false"
   inkscape:zoom="0.37918601"
   inkscape:cx="405.86567"
   inkscape:cy="-183.28226"
   inkscape:window-x="10"
   inkscape:window-y="41"
   inkscape:window-maximized="0"
   inkscape:current-layer="Calque_1"
   inkscape:pagecheckerboard="true" />
<style
   type="text/css"
   id="style3803">
	.st0{fill:none;stroke:#FFFFFF;stroke-width:4;stroke-linecap:round;stroke-miterlimit:10;}
	.st1{fill:none;stroke:#FFFFFF;stroke-width:3;stroke-linecap:round;stroke-miterlimit:10;}
	.st2{fill:#FFFFFF;}
	.st3{fill:none;stroke:#000000;stroke-width:3;stroke-linecap:round;stroke-miterlimit:10;}
</style>
<g
   id="Calque_1"
   transform="translate(0,-48)">
	
	<path
   class="st0"
   d="m 2022.95,503.43 c 0,0 -16.45,21.33 -33.98,0"
   id="path3807"
   inkscape:connector-curvature="0"
   style="fill:none;stroke:#ffffff;stroke-width:4;stroke-linecap:round;stroke-miterlimit:10" />
	
	<g
   id="g4752"
   transform="translate(-35.656406,29.84)"><path
     inkscape:connector-curvature="0"
     style="fill:#ffffff;fill-opacity:1"
     id="path3809"
     d="m 241.84,367.46 c -0.73,0 -1.09,0 -1.82,0 l -104.35,-9.12 c -10.58,-1.09 -18.61,-9.85 -18.61,-20.43 v -69.32 c 0,-2.19 -1.46,-3.65 -2.19,-4.38 C 82.04,235.75 62.7,194.16 62.7,152.2 62.7,79.96 121.44,20.86 194.04,20.86 c 68.59,0 124.41,51.44 130.61,119.67 0,1.82 0.73,3.65 1.46,5.11 l 30.65,46.7 c 4.74,7.3 5.11,16.42 1.09,24.08 -4.02,7.66 -12.04,12.4 -20.8,12.4 h -11.68 v 42.69 c 0,16.78 -13.5,30.28 -30.28,30.28 h -32.47 v 44.88 c 0,5.84 -2.55,11.31 -6.57,14.96 -3.99,4.01 -9.1,5.83 -14.21,5.83 z M 194.05,40.92 c -61.66,0 -111.28,49.62 -111.28,111.28 0,35.75 17.15,72.6 45.24,96.68 5.84,5.11 9.12,12.04 9.12,19.34 v 69.32 l 104.71,9.85 0.73,-49.62 c 0,-8.76 6.93,-15.69 15.69,-15.69 h 36.48 c 5.84,0 10.22,-4.74 10.22,-10.22 v -49.25 c 0,-7.66 6.2,-13.86 13.86,-13.86 h 17.88 c 1.82,0 2.92,-1.09 3.28,-1.82 0.36,-0.73 0.73,-2.19 0,-3.65 l -31.01,-47.07 c -2.55,-4.38 -4.01,-8.76 -4.38,-13.86 C 299.49,84.34 252.06,40.92 194.05,40.92 Z" /><path
     inkscape:connector-curvature="0"
     id="path3811"
     d="m 169.28906,68.388672 c -2.0005,-0.02135 -3.92703,0.142422 -5.73828,0.560547 -12.42,2.86 -22.62031,3.910469 -32.57031,11.730469 -4.48,3.519999 -27.66984,18.660156 -24.33985,26.410152 2.12001,4.97 25.00008,-12.749059 29.58008,-15.289059 9.87,-5.48 23.15914,-3.240859 32.36914,1.369141 -11.64,12.769998 -19.18945,25.049378 -25.43945,41.109378 -5.82,14.97 -13.95109,25.38054 -26.87109,34.56054 13.04,5.99 24.42078,9.97047 34.30078,20.23047 12.29,12.77 24.59086,25.52907 36.88086,38.28907 5.06,-13.69 7.7989,-24.51024 9.3789,-38.99024 0.51,-4.67 8.84079,-10.90844 11.30078,-15.14844 2.78001,-4.8 -0.32109,-12.09031 8.37891,-12.82031 6.68,-0.56 11.89125,-0.46102 18.53125,0.45899 4.83,0.66999 15.69883,0.35101 19.29883,3.04101 10.8,8.05 3.14133,27.36039 13.36133,34.65039 0.61,-8.34 1.58984,-16.66015 2.83984,-24.91016 0.41,-2.69999 4.46977,-11.14132 3.25977,-13.36132 -2.09,-3.85 -18.01024,-13.08961 -19.49024,-14.84961 -1.49,-1.77 1.29008,-6.74977 2.83008,-5.00977 1.04,1.18 -0.35023,1.10961 1.25977,4.09961 0.79,1.46 15.19031,12.72961 19.07031,10.59961 1.47,-0.81 2.09937,-2.11828 2.85937,-3.73828 3.49,-7.37 -0.7889,-17.82094 -4.1289,-22.21094 C 260.14094,113.10992 242.66,98.65 225.75,83.5 c -9.65,-8.64 -17.98055,-7.309531 -29.81055,-9.769531 -7.93812,-1.6575 -17.98155,-5.24928 -26.65039,-5.341797 z m 35.56055,35.480468 h 15.98047 c 0,0 -7.64047,11.38 -15.98047,0 z"
     style="fill:#ffffff;fill-opacity:1" /></g>
	
	
</g>

</svg>