<?xml version="1.0" encoding="UTF-8" standalone="no"?>
<svg
   xmlns:dc="http://purl.org/dc/elements/1.1/"
   xmlns:cc="http://creativecommons.org/ns#"
   xmlns:rdf="http://www.w3.org/1999/02/22-rdf-syntax-ns#"
   xmlns:svg="http://www.w3.org/2000/svg"
   xmlns="http://www.w3.org/2000/svg"
   xmlns:sodipodi="http://sodipodi.sourceforge.net/DTD/sodipodi-0.dtd"
   xmlns:inkscape="http://www.inkscape.org/namespaces/inkscape"
   version="1.1"
   x="0px"
   y="0px"
   viewBox="0 0 352 352"
   xml:space="preserve"
   id="svg3835"
   sodipodi:docname="animal-welfare-conception.svg"
   inkscape:version="1.0 (4035a4fb49, 2020-05-01)"
   width="352"
   height="352"><metadata
   id="metadata3841"><rdf:RDF><cc:Work
       rdf:about=""><dc:format>image/svg+xml</dc:format><dc:type
         rdf:resource="http://purl.org/dc/dcmitype/StillImage" /><dc:title /></cc:Work></rdf:RDF></metadata><defs
   id="defs3839" /><sodipodi:namedview
   pagecolor="#ffffff"
   bordercolor="#666666"
   borderopacity="1"
   objecttolerance="10"
   gridtolerance="10"
   guidetolerance="10"
   inkscape:pageopacity="0"
   inkscape:pageshadow="2"
   inkscape:window-width="1920"
   inkscape:window-height="1049"
   id="namedview3837"
   showgrid="false"
   inkscape:zoom="1.516744"
   inkscape:cx="244.49718"
   inkscape:cy="225.04564"
   inkscape:window-x="1920"
   inkscape:window-y="31"
   inkscape:window-maximized="0"
   inkscape:current-layer="Calque_1"
   inkscape:pagecheckerboard="true"
   inkscape:document-rotation="0" />
<style
   type="text/css"
   id="style3803">
	.st0{fill:none;stroke:#FFFFFF;stroke-width:4;stroke-linecap:round;stroke-miterlimit:10;}
	.st1{fill:none;stroke:#FFFFFF;stroke-width:3;stroke-linecap:round;stroke-miterlimit:10;}
	.st2{fill:#FFFFFF;}
	.st3{fill:none;stroke:#000000;stroke-width:3;stroke-linecap:round;stroke-miterlimit:10;}
</style>
<g
   id="Calque_1"
   transform="translate(0,-48)">
	
	<path
   class="st0"
   d="m 2022.95,503.43 c 0,0 -16.45,21.33 -33.98,0"
   id="path3807"
   inkscape:connector-curvature="0"
   style="fill:none;stroke:#ffffff;stroke-width:4;stroke-linecap:round;stroke-miterlimit:10" />
	
	
	
	
<path
   transform="translate(0,48)"
   d="M 0 0 L 0 9.6816406 L 0 19.361328 L 2.9667969 19.361328 C 5.7184711 19.361328 6.0742509 19.477555 7.3964844 20.484375 C 8.1826749 21.103957 9.1844454 22.227138 9.6132812 22.962891 C 10.328002 24.240779 10.363281 24.743774 10.363281 35.199219 L 10.363281 46.082031 L 8.46875 48.210938 L 6.5761719 50.341797 L 3.2871094 50.341797 L 0 50.341797 L 0 175.80664 L 0 301.27148 L 3.109375 301.27148 C 6.5757694 301.27148 7.5758979 301.73719 9.3984375 304.29297 L 10.363281 305.64844 L 10.363281 316.49023 C 10.363281 326.86823 10.328005 327.3725 9.6132812 328.65039 C 9.1844454 329.38614 8.1826749 330.50737 7.3964844 331.12695 C 6.0742509 332.13377 5.7184711 332.25 2.9667969 332.25 L 0 332.25 L 0 342.125 L 0 352 L 176 352 L 352 352 L 352 341.93164 L 352 331.86328 L 349.17773 331.86328 C 346.53326 331.86328 346.24585 331.78676 344.81641 330.625 C 342.02897 328.30157 341.99414 328.03089 341.99414 316.375 L 341.99414 306.07422 L 342.92383 304.48633 C 343.45988 303.6344 344.53023 302.47147 345.31641 301.89062 C 346.56717 301.0387 347.17501 300.88477 349.39062 300.88477 L 352 300.88477 L 352 175.61328 L 352 50.341797 L 349.49805 50.341797 C 347.99713 50.341797 346.56787 50.108619 345.99609 49.798828 C 344.8883 49.179246 342.99426 47.049711 342.38672 45.810547 C 342.13659 45.268413 341.99414 41.472589 341.99414 34.541016 L 341.99414 24.125 L 343.06641 22.498047 C 344.74602 19.980995 345.99607 19.361328 349.24805 19.361328 L 352 19.361328 L 352 9.6816406 L 352 0 L 176 0 L 0 0 z M 43.169922 19.361328 C 48.994895 19.361328 49.030701 19.362658 50.388672 20.408203 C 51.139129 21.027785 52.175478 22.189091 52.675781 23.041016 L 53.603516 24.550781 L 53.603516 35.083984 L 53.603516 45.578125 L 52.53125 47.205078 C 50.56577 50.148092 49.958183 50.341797 43.025391 50.341797 C 37.16468 50.341797 36.91504 50.302762 35.771484 49.412109 C 35.128238 48.908699 34.198944 47.902107 33.734375 47.205078 L 32.876953 45.925781 L 32.876953 34.851562 L 32.876953 23.814453 L 34.021484 22.304688 C 36.129912 19.51657 36.630228 19.361328 43.169922 19.361328 z M 88.554688 19.361328 C 94.165246 19.361328 94.415253 19.400701 95.666016 20.330078 C 96.41647 20.833488 97.452238 21.99607 97.988281 22.886719 L 98.988281 24.511719 L 98.988281 35.044922 L 98.988281 45.578125 L 97.916016 47.205078 C 95.950536 50.148092 95.342948 50.341797 88.410156 50.341797 C 82.549445 50.341797 82.299806 50.302762 81.15625 49.412109 C 80.513003 48.908699 79.58371 47.902107 79.119141 47.205078 L 78.261719 45.925781 L 78.261719 34.851562 L 78.261719 23.814453 L 79.40625 22.304688 C 81.514678 19.51657 82.014993 19.361328 88.554688 19.361328 z M 132.15234 19.361328 C 136.61935 19.361328 138.2261 19.478673 138.97656 19.943359 C 139.54834 20.25315 140.58606 21.221018 141.30078 22.150391 L 142.58594 23.777344 L 142.58594 34.851562 L 142.58594 45.925781 L 141.72852 47.205078 C 141.26395 47.902107 140.33466 48.908699 139.69141 49.412109 C 138.54786 50.302758 138.29821 50.341797 132.4375 50.341797 C 125.50471 50.341797 124.89712 50.148092 122.93164 47.205078 L 121.85938 45.578125 L 121.85938 35.044922 L 121.85938 24.511719 L 122.86133 22.886719 C 123.39738 21.99607 124.39718 20.872212 125.07617 20.330078 C 126.29119 19.439429 126.57752 19.400052 132.15234 19.361328 z M 170.21094 19.361328 L 176.17773 19.361328 L 182.14648 19.361328 L 183.57617 20.484375 C 184.36236 21.103957 185.36219 22.227138 185.79102 22.962891 C 186.50574 24.240779 186.54297 24.744294 186.54297 34.8125 C 186.54297 46.623281 186.54175 46.58511 183.96875 48.947266 L 182.46875 50.341797 L 176.03516 50.341797 L 169.60352 50.341797 L 167.70898 48.210938 L 165.81445 46.082031 L 165.81445 35.162109 C 165.81445 22.770471 165.81436 22.808147 168.70898 20.523438 L 170.21094 19.361328 z M 214.52344 19.361328 L 220.49219 19.361328 L 226.45898 19.361328 L 227.88867 20.484375 C 228.67486 21.103957 229.67469 22.227138 230.10352 22.962891 C 230.81824 24.240779 230.85547 24.744294 230.85547 34.8125 C 230.85547 46.623281 230.85425 46.58511 228.28125 48.947266 L 226.78125 50.341797 L 220.34766 50.341797 L 213.91602 50.341797 L 212.02148 48.210938 L 210.12695 46.082031 L 210.12695 35.199219 C 210.12695 24.743774 210.16415 24.240779 210.87891 22.962891 C 211.30774 22.227138 212.30755 21.103957 213.09375 20.484375 L 214.52344 19.361328 z M 265.05469 19.361328 C 269.5217 19.361328 271.16556 19.517397 271.91602 19.943359 C 272.48779 20.25315 273.52356 21.221018 274.23828 22.150391 L 275.52539 23.777344 L 275.52539 34.851562 L 275.52539 45.925781 L 274.66797 47.205078 C 274.2034 47.902107 273.27411 48.908699 272.63086 49.412109 C 271.48731 50.302758 271.23571 50.341797 265.375 50.341797 C 258.44221 50.341797 257.83462 50.148092 255.86914 47.205078 L 254.79883 45.578125 L 254.79883 34.966797 L 254.79883 24.357422 L 255.69141 22.923828 C 256.19171 22.149351 257.19153 21.027785 257.90625 20.408203 C 259.19275 19.362658 259.22972 19.361328 265.05469 19.361328 z M 308.33008 19.361328 C 312.79709 19.361328 314.40579 19.478673 315.15625 19.943359 C 315.72802 20.25315 316.76381 21.221018 317.47852 22.150391 L 318.76562 23.777344 L 318.76562 34.851562 L 318.76562 45.925781 L 317.9082 47.205078 C 317.44362 47.902107 316.51431 48.908699 315.87109 49.412109 C 314.7275 50.302758 314.47791 50.341797 308.61719 50.341797 C 301.6844 50.341797 301.07681 50.148092 299.11133 47.205078 L 298.03906 45.578125 L 298.03906 35.083984 L 298.03906 24.550781 L 298.9668 23.041016 C 299.46711 22.189091 300.46887 21.02617 301.18359 20.445312 C 302.50582 19.399767 302.57658 19.400052 308.33008 19.361328 z M 165.14062 69.167969 C 207.42362 69.167969 241.8342 100.87839 245.65625 142.93945 C 245.65625 144.06141 246.10663 145.18981 246.55664 146.08984 L 265.45117 174.87891 C 268.37319 179.37906 268.60122 185.00058 266.12305 189.72266 C 263.64488 194.44474 258.70097 197.36719 253.30078 197.36719 L 246.09961 197.36719 L 246.09961 223.68359 C 246.09961 234.02778 237.77779 242.34961 227.43359 242.34961 L 207.41797 242.34961 L 207.41797 270.01562 C 207.41797 273.61575 205.84536 276.98821 203.36719 279.23828 C 200.90752 281.71029 197.75753 282.83203 194.60742 282.83203 L 193.48438 282.83203 L 129.1582 277.21094 C 122.63605 276.539 117.68555 271.13738 117.68555 264.61523 L 117.68555 221.88281 C 117.68555 220.53277 116.78596 219.63361 116.33594 219.18359 C 96.097559 201.63914 84.173828 175.99946 84.173828 150.13281 C 84.173828 105.59974 120.38564 69.167969 165.14062 69.167969 z M 165.14648 81.533203 C 127.13556 81.533203 96.546875 112.12189 96.546875 150.13281 C 96.546875 172.17125 107.1192 194.88807 124.43555 209.73242 C 128.03568 212.88253 130.05664 217.15415 130.05664 221.6543 L 130.05664 264.38867 L 194.60742 270.46094 L 195.05664 239.87109 C 195.05664 234.47091 199.32833 230.19922 204.72852 230.19922 L 227.2168 230.19922 C 230.81693 230.19922 233.51758 227.27664 233.51758 223.89844 L 233.51758 193.53906 C 233.51758 188.81698 237.34042 184.99414 242.0625 184.99414 L 253.08398 184.99414 C 254.20594 184.99414 254.88354 184.32306 255.10547 183.87305 C 255.3274 183.42303 255.55549 182.52308 255.10547 181.62305 L 235.99023 152.60547 C 234.41826 149.90538 233.51715 147.20449 233.28906 144.06055 C 230.14512 108.29971 200.90732 81.533203 165.14648 81.533203 z M 149.88281 98.466797 C 155.2268 98.523837 161.41701 100.73799 166.31055 101.75977 C 173.60327 103.27626 178.73866 102.45699 184.6875 107.7832 C 195.11183 117.12257 205.88841 126.0352 215.79492 135.93555 C 217.8539 138.6418 220.49129 145.0856 218.33984 149.62891 C 217.87133 150.62757 217.48432 151.43426 216.57812 151.93359 C 214.18625 153.24665 205.30928 146.29847 204.82227 145.39844 C 203.82977 143.55522 204.68604 143.59851 204.04492 142.87109 C 203.09557 141.79845 201.38225 144.86785 202.30078 145.95898 C 203.21314 147.04395 213.02801 152.73991 214.31641 155.11328 C 215.06232 156.48182 212.55939 161.68712 212.30664 163.35156 C 211.53606 168.43736 210.93073 173.56576 210.55469 178.70703 C 204.25447 174.21304 208.97613 162.3082 202.31836 157.3457 C 200.0991 155.68742 193.39937 155.88372 190.42188 155.4707 C 186.32857 154.90355 183.116 154.84423 178.99805 155.18945 C 173.63485 155.63946 175.54579 160.13279 173.83203 163.0918 C 172.31554 165.70559 167.17963 169.55082 166.86523 172.42969 C 165.89122 181.35603 164.20326 188.02746 161.08398 196.4668 C 153.50768 188.60077 145.92591 180.73548 138.34961 172.86328 C 132.25899 166.53841 125.24178 164.08322 117.20312 160.39062 C 125.16778 154.73152 130.18173 148.31435 133.76953 139.08594 C 137.6224 129.1856 142.27558 121.61633 149.45117 113.74414 C 143.77357 110.90226 135.58055 109.52219 129.49609 112.90039 C 126.67271 114.4662 112.56862 125.38803 111.26172 122.32422 C 109.20891 117.54666 123.50388 108.21291 126.26562 106.04297 C 132.39942 101.22226 138.68927 100.57557 146.3457 98.8125 C 147.46226 98.55474 148.64958 98.453597 149.88281 98.466797 z M 171.80469 120.33984 C 176.94597 127.35515 181.6543 120.33984 181.6543 120.33984 L 171.80469 120.33984 z M 43.169922 301.27148 C 48.923425 301.27148 49.458375 301.34817 50.458984 302.08398 C 51.03076 302.54866 51.996582 303.6344 52.568359 304.48633 L 53.603516 306.03516 L 53.603516 316.5293 L 53.603516 327.0625 L 52.675781 328.65039 C 52.139741 329.50232 51.067441 330.66328 50.28125 331.24414 C 48.851806 332.21224 48.671687 332.25 43.025391 332.25 L 37.273438 332.25 L 35.84375 331.12695 C 32.806188 328.76479 32.876953 329.07591 32.876953 316.76172 C 32.876953 306.30628 32.912236 305.76421 33.626953 304.48633 C 34.055785 303.7893 34.949342 302.74364 35.664062 302.24023 C 36.914825 301.31086 37.166267 301.27148 43.169922 301.27148 z M 88.554688 301.27148 C 94.30819 301.27148 94.843141 301.34817 95.84375 302.08398 C 96.415526 302.54866 97.381349 303.6344 97.953125 304.48633 L 98.988281 306.03516 L 98.988281 316.5293 L 98.988281 327.0625 L 98.060547 328.65039 C 97.524508 329.50232 96.452207 330.66328 95.666016 331.24414 C 94.236572 332.21224 94.056452 332.25 88.410156 332.25 L 82.658203 332.25 L 81.228516 331.12695 C 78.190953 328.76479 78.261719 329.07591 78.261719 316.76172 C 78.261719 306.30628 78.297002 305.76421 79.011719 304.48633 C 79.440551 303.7893 80.334107 302.74364 81.048828 302.24023 C 82.299591 301.31086 82.551032 301.27148 88.554688 301.27148 z M 125.96875 301.27148 L 132.22266 301.27148 C 138.29778 301.27148 138.51233 301.31083 139.79883 302.24023 C 140.51355 302.74364 141.40711 303.7893 141.83594 304.48633 C 142.55066 305.76421 142.58594 306.30628 142.58594 316.76172 C 142.58594 329.07591 142.65868 328.76479 139.62109 331.12695 L 138.19141 332.25 L 132.4375 332.25 C 126.79121 332.25 126.61303 332.21226 125.18359 331.24414 C 124.39739 330.66328 123.3251 329.50232 122.78906 328.65039 L 121.85938 327.0625 L 121.85938 316.64453 C 121.85938 304.94992 121.85907 304.91192 124.64648 302.43359 L 125.96875 301.27148 z M 176.17773 301.27148 L 182.46875 301.27148 L 183.96875 302.66602 C 186.54175 305.02818 186.54297 304.99 186.54297 316.80078 L 186.54297 327.37109 L 185.61328 328.80469 C 185.11297 329.61789 184.07721 330.702 183.29102 331.24414 C 181.96879 332.21224 181.75314 332.25 176.14258 332.25 C 169.56715 332.25 168.81704 331.98012 166.85156 329.03711 L 165.81445 327.48828 L 165.81445 316.56836 L 165.81445 305.68555 L 166.67383 304.4082 C 167.1384 303.71117 168.06574 302.70458 168.70898 302.20117 C 169.85254 301.31052 170.06686 301.27148 176.17773 301.27148 z M 220.5625 301.27148 L 226.92383 301.27148 L 228.38867 302.70508 C 230.85446 305.14468 230.85547 305.06744 230.85547 316.80078 C 230.85547 326.86898 230.81828 327.3725 230.10352 328.65039 C 229.67469 329.38614 228.67486 330.50737 227.88867 331.12695 L 226.45898 332.25 L 220.5625 332.25 C 213.87986 332.25 213.12954 332.01885 211.16406 329.03711 L 210.12695 327.48828 L 210.12695 316.68359 L 210.12695 305.8418 L 211.09375 304.4082 C 213.09497 301.38774 213.45102 301.27148 220.5625 301.27148 z M 258.87109 301.27148 L 265.16211 301.27148 C 271.27297 301.27148 271.48731 301.31049 272.63086 302.20117 C 273.27411 302.70458 274.2034 303.71117 274.66797 304.4082 L 275.52539 305.68555 L 275.52539 316.5293 C 275.52539 328.84349 275.52548 328.80514 272.63086 331.08984 L 271.12891 332.25 L 265.375 332.25 C 259.76444 332.25 259.55133 332.21226 258.19336 331.24414 C 257.40717 330.702 256.33487 329.57883 255.79883 328.76562 L 254.79883 327.29492 L 254.79883 316.76172 C 254.79883 304.98967 254.7981 305.02818 257.37109 302.66602 L 258.87109 301.27148 z M 302.14844 301.27148 L 308.40234 301.27148 C 314.47747 301.27148 314.69201 301.31083 315.97852 302.24023 C 316.69322 302.74364 317.58682 303.7893 318.01562 304.48633 C 318.73037 305.76421 318.76562 306.305 318.76562 316.83789 L 318.76562 327.83594 L 317.47852 329.46289 C 315.40585 332.09611 314.90513 332.25 308.47266 332.25 C 302.96931 332.25 302.79077 332.21226 301.36133 331.24414 C 300.57513 330.66328 299.50284 329.50232 298.9668 328.65039 L 298.03906 327.0625 L 298.03906 316.64453 C 298.03906 304.94992 298.03876 304.91192 300.82617 302.43359 L 302.14844 301.27148 z "
   style="fill:#ffffff;fill-opacity:1;stroke:none;stroke-width:0.0372"
   id="path1357" /></g>

</svg>
