<?xml version="1.0" encoding="UTF-8" standalone="no"?>
<svg
   xmlns:dc="http://purl.org/dc/elements/1.1/"
   xmlns:cc="http://creativecommons.org/ns#"
   xmlns:rdf="http://www.w3.org/1999/02/22-rdf-syntax-ns#"
   xmlns:svg="http://www.w3.org/2000/svg"
   xmlns="http://www.w3.org/2000/svg"
   xmlns:sodipodi="http://sodipodi.sourceforge.net/DTD/sodipodi-0.dtd"
   xmlns:inkscape="http://www.inkscape.org/namespaces/inkscape"
   height="352"
   width="352"
   inkscape:version="1.0 (4035a4fb49, 2020-05-01)"
   sodipodi:docname="animal-welfare-conception.svg"
   id="svg3835"
   xml:space="preserve"
   viewBox="0 0 352 352"
   y="0px"
   x="0px"
   version="1.1"><metadata
   id="metadata3841"><rdf:RDF><cc:Work
       rdf:about=""><dc:format>image/svg+xml</dc:format><dc:type
         rdf:resource="http://purl.org/dc/dcmitype/StillImage" /><dc:title></dc:title></cc:Work></rdf:RDF></metadata><defs
   id="defs3839" /><sodipodi:namedview
   inkscape:document-rotation="0"
   inkscape:pagecheckerboard="true"
   inkscape:current-layer="Calque_1"
   inkscape:window-maximized="0"
   inkscape:window-y="41"
   inkscape:window-x="2885"
   inkscape:cy="-183.28226"
   inkscape:cx="-101.80074"
   inkscape:zoom="0.37918601"
   showgrid="false"
   id="namedview3837"
   inkscape:window-height="1025"
   inkscape:window-width="941"
   inkscape:pageshadow="2"
   inkscape:pageopacity="0"
   guidetolerance="10"
   gridtolerance="10"
   objecttolerance="10"
   borderopacity="1"
   bordercolor="#666666"
   pagecolor="#ffffff" />
<style
   id="style3803"
   type="text/css">
	.st0{fill:none;stroke:#FFFFFF;stroke-width:4;stroke-linecap:round;stroke-miterlimit:10;}
	.st1{fill:none;stroke:#FFFFFF;stroke-width:3;stroke-linecap:round;stroke-miterlimit:10;}
	.st2{fill:#FFFFFF;}
	.st3{fill:none;stroke:#000000;stroke-width:3;stroke-linecap:round;stroke-miterlimit:10;}
</style>
<g
   transform="translate(0,-48)"
   id="Calque_1">
	
	<path
   style="fill:none;stroke:#ffffff;stroke-width:4;stroke-linecap:round;stroke-miterlimit:10"
   inkscape:connector-curvature="0"
   id="path3807"
   d="m 2022.95,503.43 c 0,0 -16.45,21.33 -33.98,0"
   class="st0" />
	
	
	
	
<g
   style="fill:#ffffff;fill-opacity:1"
   transform="matrix(0.03675127,0,0,-0.03872387,-54.024361,436.78767)"
   fill="#000000"
   stroke="none"
   id="g1359"><path
     style="fill:#ffffff;fill-opacity:1;stroke-width:0.986091"
     d="m 1470,9790 v -250 h 80.7072 c 74.8729,0 84.5967,-3 120.5746,-29 21.3922,-16 48.6187,-45 60.2873,-64 19.4475,-33 20.4198,-46 20.4198,-316 v -281 l -51.5359,-55 -51.5359,-55 H 1559.4586 1470 V 5500 2260 h 84.5967 c 94.3204,0 121.5469,-12 171.1381,-78 l 26.2541,-35 v -280 c 0,-268 -0.9723,-281 -20.4198,-314 -11.6686,-19 -38.8951,-48 -60.2873,-64 -35.9779,-26 -45.7017,-29 -120.5746,-29 H 1470 V 1205 950 H 6258.9502 11047.9 v 260 260 h -76.817 c -71.956,0 -79.735,2 -118.63,32 -75.846,60 -76.818,67 -76.818,368 v 266 l 25.282,41 c 14.586,22 43.757,52 65.149,67 34.033,22 50.564,26 110.851,26 h 70.983 v 3235 3235 h -68.066 c -40.84,0 -79.735,6 -95.293,14 -30.143,16 -81.679,71 -98.21,103 -6.806,14 -10.696,112 -10.696,291 v 269 l 29.171,42 c 45.702,65 79.735,81 168.221,81 h 74.873 v 250 250 H 6258.9502 1470 Z m 1371.0497,-277 c 20.4199,-16 48.6188,-46 62.232,-68 l 25.2818,-39 v -272 -271 l -29.1713,-42 c -53.4806,-76 -70.011,-81 -258.6519,-81 -159.4696,0 -166.2762,1 -197.3923,24 -17.5027,13 -42.7845,39 -55.4254,57 l -23.337,33 v 286 285 l 31.116,39 c 57.3702,72 70.9835,76 248.9282,76 158.4972,0 159.4696,0 196.4199,-27 z m 1232,2 c 20.4198,-13 48.6187,-43 63.2044,-66 l 27.2265,-42 v -272 -272 l -29.1713,-42 c -53.4806,-76 -70.011,-81 -258.6519,-81 -159.4696,0 -166.2762,1 -197.3923,24 -17.5027,13 -42.7845,39 -55.4254,57 l -23.337,33 v 286 285 l 31.116,39 c 57.3702,72 70.9835,76 248.9282,76 152.663,0 159.4696,-1 193.5028,-25 z m 1178.5193,10 c 15.558,-8 43.7569,-33 63.2044,-57 l 35.0055,-42 v -286 -286 l -23.337,-33 c -12.6409,-18 -37.9227,-44 -55.4254,-57 -31.116,-23 -37.9227,-24 -197.3923,-24 -188.6409,0 -205.1713,5 -258.6519,81 l -29.1713,42 v 272 272 l 27.2265,42 c 14.5857,23 41.8122,52 60.2873,66 33.0608,23 40.8398,24 192.5304,25 121.547,0 165.3039,-3 185.7238,-15 z m 1213.5248,-14 c 21.3923,-16 48.6188,-45 60.2873,-64 19.4475,-33 20.4199,-46 20.4199,-306 0,-305 0,-304 -70.0111,-365 l -40.8398,-36 h -175.0276 -175.0276 l -51.5359,55 -51.5359,55 v 282 c 0,320 0,319 78.7624,378 l 40.8398,30 h 162.3867 162.3868 z m 1205.7458,0 c 21.3923,-16 48.6188,-45 60.2873,-64 19.4475,-33 20.4199,-46 20.4199,-306 0,-305 0,-304 -70.0111,-365 l -40.8397,-36 h -175.0276 -175.0277 l -51.5359,55 -51.5359,55 v 281 c 0,270 0.9724,283 20.4199,316 11.6685,19 38.895,48 60.2873,64 l 38.895,29 h 162.3868 162.3867 z m 1197.9668,14 c 15.558,-8 43.7569,-33 63.2045,-57 l 35.0055,-42 v -286 -286 l -23.337,-33 c -12.6409,-18 -37.9227,-44 -55.4255,-57 -31.116,-23 -37.9226,-24 -197.3922,-24 -188.6409,0 -205.1713,5 -258.6519,81 l -29.1713,42 v 274 274 l 24.3094,37 c 13.6132,20 40.8398,49 60.2873,65 35.0055,27 35.9779,27 194.4751,27 121.547,0 166.2762,-4 186.6961,-15 z m 1176.5746,0 c 15.558,-8 43.757,-33 63.204,-57 l 35.006,-42 v -286 -286 l -23.337,-33 c -12.641,-18 -37.923,-44 -55.425,-57 -31.117,-23 -37.923,-24 -197.3928,-24 -188.6408,0 -205.1712,5 -258.6519,81 l -29.1713,42 v 271 272 l 25.2818,39 c 13.6133,22 40.8398,52 60.2873,67 35.9779,27 37.9227,27 194.4751,28 121.547,0 165.3038,-3 185.7238,-15 z M 2842.9944,2239 c 15.558,-12 41.8122,-40 57.3702,-62 l 28.1989,-40 v -271 -272 l -25.2818,-41 c -14.5856,-22 -43.7569,-52 -65.1491,-67 -38.8951,-25 -43.7569,-26 -197.3923,-26 h -156.5525 l -38.895,29 c -82.6519,61 -80.7072,53 -80.7072,371 0,270 0.9724,284 20.4199,317 11.6685,18 35.9779,45 55.4254,58 34.0332,24 40.8398,25 204.1989,25 156.5525,0 171.1381,-2 198.3646,-21 z m 1234.9171,0 c 15.558,-12 41.8122,-40 57.3702,-62 l 28.1989,-40 v -271 -272 l -25.2818,-41 c -14.5856,-22 -43.7569,-52 -65.1491,-67 -38.8951,-25 -43.7569,-26 -197.3923,-26 h -156.5525 l -38.895,29 c -82.6519,61 -80.7072,53 -80.7072,371 0,270 0.9724,284 20.4199,317 11.6685,18 35.9779,45 55.4254,58 34.0332,24 40.8398,25 204.1989,25 156.5525,0 171.1381,-2 198.3646,-21 z m 1196.0221,-4 c 19.4475,-13 43.7569,-40 55.4254,-58 19.4475,-33 20.4199,-47 20.4199,-317 0,-318 1.9448,-310 -80.7072,-371 l -38.895,-29 h -156.5525 c -153.6353,0 -158.4972,1 -197.3922,26 -21.3923,15 -50.5636,45 -65.1492,67 l -25.2818,41 v 269 c 0,302 0,303 75.8453,367 l 35.9779,30 H 5067.79 c 165.3038,0 171.1381,-1 206.1436,-25 z m 1201.8563,-11 c 70.0111,-61 70.0111,-60 70.0111,-365 v -273 l -25.2818,-37 c -13.6133,-21 -41.8121,-49 -63.2044,-63 -35.9779,-25 -41.8122,-26 -194.4751,-26 -178.9172,0 -199.3371,7 -252.8177,83 l -28.1989,40 v 282 281 l 23.337,33 c 12.6409,18 37.9227,44 55.4254,57 31.116,23 36.9503,24 203.2265,24 h 171.1381 z m 1208.663,-1 c 67.0939,-63 67.0939,-61 67.0939,-364 0,-260 -0.9724,-273 -20.4199,-306 -11.6685,-19 -38.895,-48 -60.2873,-64 l -38.895,-29 h -160.442 c -181.8342,0 -202.2541,6 -255.7348,83 l -28.1989,40 v 279 280 l 26.2542,37 c 54.453,78 64.1767,81 257.6795,81 h 173.0829 z m 1203.801,13 c 17.5028,-13 42.7846,-39 55.4255,-57 l 23.337,-33 v -280 c 0,-318 0,-317 -78.7625,-376 l -40.8397,-30 h -156.5525 c -152.663,0 -158.4972,1 -195.4475,26 -21.3923,14 -50.5636,43 -65.1492,64 l -27.2265,38 v 272 c 0,304 0,303 70.011,364 l 40.8398,36 h 171.1381 c 166.2763,0 172.1105,-1 203.2265,-24 z m 1179.4921,-1 c 19.447,-13 43.757,-40 55.425,-58 19.448,-33 20.42,-47 20.42,-319 v -284 l -35.006,-42 c -56.397,-68 -70.011,-72 -245.0383,-72 -149.7458,0 -154.6077,1 -193.5027,26 -21.3923,15 -50.5636,45 -65.1492,67 l -25.2818,41 v 269 c 0,302 0,303 75.8453,367 l 35.9779,30 h 170.1658 c 165.304,0 171.138,-1 206.144,-25 z"
     id="path1357" /></g><g
   style="fill:#008db2;fill-opacity:1"
   transform="matrix(0.6164599,0,0,0.6164599,45.522313,104.30815)"
   id="g4752"><path
     d="m 241.84,367.46 c -0.73,0 -1.09,0 -1.82,0 l -104.35,-9.12 c -10.58,-1.09 -18.61,-9.85 -18.61,-20.43 v -69.32 c 0,-2.19 -1.46,-3.65 -2.19,-4.38 C 82.04,235.75 62.7,194.16 62.7,152.2 62.7,79.96 121.44,20.86 194.04,20.86 c 68.59,0 124.41,51.44 130.61,119.67 0,1.82 0.73,3.65 1.46,5.11 l 30.65,46.7 c 4.74,7.3 5.11,16.42 1.09,24.08 -4.02,7.66 -12.04,12.4 -20.8,12.4 h -11.68 v 42.69 c 0,16.78 -13.5,30.28 -30.28,30.28 h -32.47 v 44.88 c 0,5.84 -2.55,11.31 -6.57,14.96 -3.99,4.01 -9.1,5.83 -14.21,5.83 z M 194.05,40.92 c -61.66,0 -111.28,49.62 -111.28,111.28 0,35.75 17.15,72.6 45.24,96.68 5.84,5.11 9.12,12.04 9.12,19.34 v 69.32 l 104.71,9.85 0.73,-49.62 c 0,-8.76 6.93,-15.69 15.69,-15.69 h 36.48 c 5.84,0 10.22,-4.74 10.22,-10.22 v -49.25 c 0,-7.66 6.2,-13.86 13.86,-13.86 h 17.88 c 1.82,0 2.92,-1.09 3.28,-1.82 0.36,-0.73 0.73,-2.19 0,-3.65 l -31.01,-47.07 c -2.55,-4.38 -4.01,-8.76 -4.38,-13.86 C 299.49,84.34 252.06,40.92 194.05,40.92 Z"
     id="path3809"
     style="fill:#008db2;fill-opacity:1"
     inkscape:connector-curvature="0" /><path
     style="fill:#008db2;fill-opacity:1"
     d="m 169.28906,68.388672 c -2.0005,-0.02135 -3.92703,0.142422 -5.73828,0.560547 -12.42,2.86 -22.62031,3.910469 -32.57031,11.730469 -4.48,3.519999 -27.66984,18.660156 -24.33985,26.410152 2.12001,4.97 25.00008,-12.749059 29.58008,-15.289059 9.87,-5.48 23.15914,-3.240859 32.36914,1.369141 -11.64,12.769998 -19.18945,25.049378 -25.43945,41.109378 -5.82,14.97 -13.95109,25.38054 -26.87109,34.56054 13.04,5.99 24.42078,9.97047 34.30078,20.23047 12.29,12.77 24.59086,25.52907 36.88086,38.28907 5.06,-13.69 7.7989,-24.51024 9.3789,-38.99024 0.51,-4.67 8.84079,-10.90844 11.30078,-15.14844 2.78001,-4.8 -0.32109,-12.09031 8.37891,-12.82031 6.68,-0.56 11.89125,-0.46102 18.53125,0.45899 4.83,0.66999 15.69883,0.35101 19.29883,3.04101 10.8,8.05 3.14133,27.36039 13.36133,34.65039 0.61,-8.34 1.58984,-16.66015 2.83984,-24.91016 0.41,-2.69999 4.46977,-11.14132 3.25977,-13.36132 -2.09,-3.85 -18.01024,-13.08961 -19.49024,-14.84961 -1.49,-1.77 1.29008,-6.74977 2.83008,-5.00977 1.04,1.18 -0.35023,1.10961 1.25977,4.09961 0.79,1.46 15.19031,12.72961 19.07031,10.59961 1.47,-0.81 2.09937,-2.11828 2.85937,-3.73828 3.49,-7.37 -0.7889,-17.82094 -4.1289,-22.21094 C 260.14094,113.10992 242.66,98.65 225.75,83.5 c -9.65,-8.64 -17.98055,-7.309531 -29.81055,-9.769531 -7.93812,-1.6575 -17.98155,-5.24928 -26.65039,-5.341797 z m 35.56055,35.480468 h 15.98047 c 0,0 -7.64047,11.38 -15.98047,0 z"
     id="path3811"
     inkscape:connector-curvature="0" /></g></g>

</svg>
