<?xml version="1.0" encoding="UTF-8" standalone="no"?>
<svg
   xmlns:dc="http://purl.org/dc/elements/1.1/"
   xmlns:cc="http://creativecommons.org/ns#"
   xmlns:rdf="http://www.w3.org/1999/02/22-rdf-syntax-ns#"
   xmlns:svg="http://www.w3.org/2000/svg"
   xmlns="http://www.w3.org/2000/svg"
   xmlns:sodipodi="http://sodipodi.sourceforge.net/DTD/sodipodi-0.dtd"
   xmlns:inkscape="http://www.inkscape.org/namespaces/inkscape"
   version="1.1"
   x="0px"
   y="0px"
   viewBox="0 0 352 352.00001"
   xml:space="preserve"
   id="svg1291"
   sodipodi:docname="aniphi.svg"
   width="352"
   height="352"
   inkscape:version="1.0 (4035a4fb49, 2020-05-01)"><metadata
   id="metadata1297"><rdf:RDF><cc:Work
       rdf:about=""><dc:format>image/svg+xml</dc:format><dc:type
         rdf:resource="http://purl.org/dc/dcmitype/StillImage" /><dc:title></dc:title></cc:Work></rdf:RDF></metadata><defs
   id="defs1295">
	
	
	
	
	
	
	
	
	
	
	
	
</defs><sodipodi:namedview
   inkscape:document-rotation="0"
   pagecolor="#ffffff"
   bordercolor="#666666"
   borderopacity="1"
   objecttolerance="10"
   gridtolerance="10"
   guidetolerance="10"
   inkscape:pageopacity="0"
   inkscape:pageshadow="2"
   inkscape:window-width="1920"
   inkscape:window-height="1049"
   id="namedview1293"
   showgrid="false"
   inkscape:pagecheckerboard="true"
   inkscape:zoom="1.065833"
   inkscape:cx="272.28354"
   inkscape:cy="347.9987"
   inkscape:window-x="3286"
   inkscape:window-y="31"
   inkscape:window-maximized="1"
   inkscape:current-layer="g2413" />
<style
   type="text/css"
   id="style1081">
	.st0{display:none;}
	.st1{display:inline;}
	.st2{fill:#06848B;}
	.st3{display:inline;fill:#06848B;}
	.st4{display:inline;fill-rule:evenodd;clip-rule:evenodd;fill:#06848B;}
	.st5{fill:none;}
	.st6{font-family:'Verveine-Regular';}
	.st7{font-size:60px;}
</style>
<g
   id="Calque_2">
</g>
<g
   class="st0"
   id="Calque_1_1_">
		<g
   id="g1118"
   class="st1">
			<g
   id="g1092"
   class="st0">
				<g
   id="g1086"
   class="st1">
					<path
   id="path1084"
   d="M 146.8,125.7 H 143 l -16.4,16.4 c -1.4,1.4 -3.5,1.4 -4.9,0 l -16.4,-16.4 h -3.8 c -6.3,0 -11.5,5.2 -11.5,11.5 v 30.3 c 4.2,2.4 6.6,4.2 12.5,6.6 v -22.6 c 0,-1.7 1.4,-3.5 3.5,-3.5 1.7,0 3.5,1.7 3.5,3.5 v 24.7 c 10.1,2.4 19.9,2.8 29.6,0 v -25.1 c 0,-1.7 1.7,-3.5 3.5,-3.5 2.1,0 3.5,1.7 3.5,3.5 v 22.6 c 3.8,-1 9.8,-4.9 12.5,-6.6 V 136.8 C 158.3,131 153,125.7 146.8,125.7 Z m -19.2,38 c 0,2.1 -1.7,3.5 -3.5,3.5 -1.7,0 -3.5,-1.4 -3.5,-3.5 v -3.5 c 0,-1.7 1.7,-3.5 3.5,-3.5 1.7,0 3.5,1.7 3.5,3.5 z"
   class="st2" />
				</g>
				<g
   id="g1090"
   class="st1">
					<path
   id="path1088"
   d="m 124.1,59.9 c -32.7,0 -59.2,26.5 -59.2,59.2 0,26.1 14.6,38.3 17.8,42.8 0,0 0,0 0.3,0 v -24.7 c 0,-10.1 8.4,-18.5 18.5,-18.5 h 5.2 c 1,0 1.7,0.3 2.4,1 l 15,15 15,-15 c 0.7,-0.7 1.4,-1 2.4,-1 h 5.2 c 10.1,0 18.5,8.4 18.5,18.5 v 24.4 c 0.3,-0.3 0.7,-0.7 0.7,-0.7 11.1,-11.1 17.4,-25.8 17.4,-41.8 0,-32.7 -26.4,-59.2 -59.2,-59.2 z"
   class="st2" />
				</g>
			</g>
			<g
   id="g1116">
				<g
   id="g1096">
					<path
   id="path1094"
   d="m 79.9,70 c -1.7,1.7 -3.5,3.1 -4.9,4.9 L 63.2,63 c -4.5,5.2 -15,7.3 -24,7.3 C 27,70.3 12.7,66.8 12.7,57.4 12.7,46.6 19,37.5 28,33.4 25.2,30.6 23.5,26.8 23.5,23 c 0,-8.4 7,-15.3 15.3,-15.3 8.3,0 15.3,7 15.3,15.3 0,4.2 -1.7,8 -4.5,10.4 8.4,3.9 14.6,12.2 15.3,21.6 z"
   class="st2" />
				</g>
				<g
   id="g1102">
					<path
   id="path1098"
   d="m 235.6,214.2 c 0,9.4 -14.3,12.9 -26.1,12.9 -12.2,0 -26.5,-3.5 -26.5,-12.9 0,-8.4 4.2,-16 10.4,-20.9 l -25.1,-25.1 c 1.7,-1.4 3.5,-3.1 4.9,-4.9 l 21.9,21.9 c -0.7,-1.7 -1,-3.8 -1,-5.6 0,-3.8 1.4,-7.7 3.8,-10.4 2.1,-2.1 5.6,-4.9 11.5,-4.9 8.4,0 15.3,7 15.3,15.3 0,4.2 -1.7,8 -4.5,10.4 9.1,4.4 15.4,13.4 15.4,24.2 z"
   class="st2" />
					<path
   id="path1100"
   d="m 263.8,300.7 c 0,9.4 -14.3,12.9 -26.1,12.9 -12.2,0 -26.5,-3.5 -26.5,-12.9 0,-8.4 8,-20.9 15.3,-24.3 -1.9,-1.6 -3.2,-4.7 -3.2,-4.7 -0.7,-1.7 -1,-3.8 -1,-5.6 0,-3.8 1.4,-7.7 3.8,-10.4 2.1,-2.1 5.6,-4.9 11.5,-4.9 8.4,0 15.3,7 15.3,15.3 0,4.2 -1.7,8 -4.5,10.4 9.1,4.4 15.4,13.4 15.4,24.2 z"
   class="st2" />
				</g>
				<g
   id="g1106">
					<path
   id="path1104"
   d="m 79.9,168.6 -25.1,24.7 c 6.3,4.9 10.4,12.2 10.4,20.9 0,9.4 -14.3,12.9 -26.5,12.9 -12.2,0 -26.5,-3.5 -26.5,-12.9 0,-10.8 6.3,-19.9 15.3,-24 -2.8,-2.8 -4.5,-6.6 -4.5,-10.4 0,-8.4 7,-15.3 15.3,-15.3 8.3,0 15.3,7 15.3,15.3 0,2.1 -0.3,3.8 -1,5.6 l 21.6,-21.6 c 2.2,1.6 4,3 5.7,4.8 z"
   class="st2" />
				</g>
				<g
   id="g1110">
					<path
   id="path1108"
   d="M 82.7,162"
   class="st2" />
				</g>
				<g
   id="g1114">
					<path
   id="path1112"
   d="m 235.6,57.5 c 0,9.4 -14.3,12.9 -26.1,12.9 -9.4,0 -19.9,-2.1 -24.4,-7.3 l -11.8,11.8 c -1.4,-1.7 -3.1,-3.5 -4.9,-4.9 L 183,55.4 c 0.7,-9.8 7,-17.8 15.3,-21.6 -2.8,-2.8 -4.5,-6.6 -4.5,-10.4 0,-8.4 7,-15.3 15.3,-15.3 8.3,0 15.3,7 15.3,15.3 0,4.2 -1.7,8 -4.5,10.4 9.4,3.8 15.7,12.9 15.7,23.7 z"
   class="st2" />
				</g>
			</g>
		</g>
		<g
   id="g1124"
   class="st1">
			<path
   id="path1120"
   d="m 137.5,96.5 c 0,0 -1.6,2.2 -3.5,2.3 0,0 0,0 -0.1,0 -1.2,0 -2.3,-0.8 -3.5,-2.3 -0.3,-0.3 -0.7,-0.4 -1.1,-0.2 -0.3,0.3 -0.4,0.7 -0.2,1.1 1.4,2 3,2.9 4.7,2.9 h 0.1 c 2.8,-0.1 4.7,-2.9 4.8,-3 0.2,-0.4 0.1,-0.8 -0.2,-1.1 -0.3,-0.2 -0.8,-0.1 -1,0.3 z"
   class="st2" />
			<path
   id="path1122"
   d="m 124,57.5 c -33.3,0 -60.4,27 -60.4,60.4 0,33.4 27,60.4 60.4,60.4 33.3,0 60.4,-27 60.4,-60.4 0,-33.4 -27.1,-60.4 -60.4,-60.4 z m 43.6,66.1 c -2,1.1 -9.5,-4.8 -9.9,-5.5 -0.8,-1.6 -0.1,-1.5 -0.7,-2.1 -0.8,-0.9 -2.2,1.7 -1.5,2.6 0.8,0.9 9,5.7 10.1,7.7 0.6,1.2 -1.5,5.5 -1.7,6.9 -0.7,4.3 -1.2,8.6 -1.5,13 -5.3,-3.8 -1.3,-13.8 -6.9,-18 -1.9,-1.4 -7.5,-1.2 -10,-1.6 -3.5,-0.5 -6.2,-0.5 -9.6,-0.2 -4.5,0.4 -2.9,4.2 -4.4,6.7 -1.3,2.2 -5.6,5.4 -5.9,7.9 -0.8,7.5 -2.2,13.2 -4.9,20.3 -6.4,-6.6 -12.8,-13.3 -19.2,-19.9 -5.1,-5.3 -11.1,-7.4 -17.8,-10.5 6.7,-4.8 10.9,-10.2 14,-18 3.3,-8.4 7.2,-14.7 13.2,-21.4 -4.8,-2.4 -11.7,-3.6 -16.8,-0.7 -2.4,1.3 -14.3,10.5 -15.4,8 -1.7,-4.3 10.3,-12.1 12.7,-14 5.2,-4.1 10.5,-4.6 16.9,-6.1 5,-1.2 11.8,1.4 16.8,2.5 6.2,1.3 10.5,0.6 15.5,5.1 8.8,7.9 17.9,15.4 26.2,23.7 1.7,2.3 4,7.7 2.1,11.5 -0.2,0.9 -0.6,1.6 -1.3,2.1 z"
   class="st2" />
		</g>
	</g><g
   class="st0"
   id="Calque_2_3_">
		<g
   id="g1131"
   class="st1">
			<path
   id="path1127"
   d="m 53.2,92.1 14.5,12.7 c -3.5,6.6 -5.4,14.1 -5.4,22.1 0,15.2 7.1,28.7 18.3,37.4 l -19.3,19.3 c 1,1.9 5.5,6.3 7,6.9 l 20.8,-20.8 c 6.2,3 13.2,4.7 20.6,4.7 10.4,0 20.1,-3.4 27.9,-9.1 l 11.6,13 c 2.4,-1.2 7,-5.1 7.5,-6.3 l -11.9,-13.3 c 7.6,-8.4 12.2,-19.5 12.2,-31.7 0,-1.1 -0.1,-2.2 -0.1,-3.3 l 46.6,-14.4 c 0.3,-4 -3.3,-10 -3.2,-9.3 l -44.9,13.8 C 152.1,102.1 144.3,92.2 134.1,86.1 L 142,61.3 c 0.7,0.1 -6.2,-2.8 -9.3,-2.7 L 125,82.1 C 120.2,80.5 115,79.6 109.7,79.6 95.1,79.6 82,86.2 73.3,96.7 L 60.1,85 m 86,43 c -0.3,0.7 -0.6,1.2 -1.2,1.6 -1.6,0.9 -7.6,-3.8 -7.9,-4.4 -0.7,-1.2 -0.1,-1.2 -0.5,-1.7 -0.6,-0.7 -1.8,1.4 -1.2,2.1 0.6,0.7 7.3,4.6 8.1,6.2 0.5,0.9 -1.2,4.4 -1.4,5.6 -0.5,3.4 -0.9,6.9 -1.2,10.4 -4.3,-3 -1.1,-11.1 -5.6,-14.4 -1.5,-1.1 -6,-1 -8,-1.3 -2.8,-0.4 -4.9,-0.4 -7.7,-0.2 -3.6,0.3 -2.3,3.3 -3.5,5.3 -1,1.8 -4.5,4.4 -4.7,6.3 -0.7,6 -1.8,10.5 -3.9,16.2 -5.1,-5.3 -10.2,-10.6 -15.4,-16 -4.1,-4.3 -8.9,-5.9 -14.3,-8.4 5.4,-3.8 8.8,-8.2 11.2,-14.4 2.6,-6.7 5.8,-11.8 10.6,-17.1 -3.8,-1.9 -9.4,-2.9 -13.5,-0.6 -1.9,1.1 -11.4,8.4 -12.3,6.4 -1.4,-3.2 8.3,-9.5 10.1,-11 4.1,-3.3 8.4,-3.7 13.6,-4.9 4,-0.9 9.4,1.1 13.5,2 4.9,1 8.4,0.5 12.4,4.1 7,6.3 14.3,12.3 21,19 1.5,1.8 3.3,6.1 1.8,9.2 z"
   class="st2" />
			<path
   id="path1129"
   d="m 120.8,107.8 c 0,0 -1.3,1.8 -2.8,1.8 v 0 c -0.9,0 -1.9,-0.6 -2.8,-1.9 -0.2,-0.3 -0.6,-0.3 -0.9,-0.1 -0.3,0.2 -0.3,0.6 -0.1,0.9 1.1,1.6 2.4,2.4 3.8,2.4 0,0 0,0 0.1,0 2.2,0 3.8,-2.3 3.8,-2.4 0.2,-0.3 0.1,-0.7 -0.2,-0.9 -0.3,-0.1 -0.7,0 -0.9,0.2 z"
   class="st2" />
		</g>
		<circle
   id="circle1133"
   r="43.700001"
   cy="343.39999"
   cx="256.60001" />
	</g><g
   class="st0"
   id="Calque_2_2_">
		<g
   id="g1140"
   class="st1">
			<path
   id="path1136"
   d="m 215.7,70.5 c -10.7,0 -19.5,8.8 -19.5,19.5 0,0.7 0,1.3 0.1,2 l -44.9,13.8 C 148.1,94.1 140.3,84.2 130.1,78.1 L 138,53.3 c 0.7,0.1 1.4,0.1 2.1,0.1 13.4,0 24.4,-11 24.4,-24.4 0,-13.4 -11,-24.4 -24.4,-24.4 v 0 c -13.4,0 -24.4,11 -24.4,24.4 0,9.3 5.3,17.5 13,21.6 L 121,74.1 C 116.2,72.5 111,71.6 105.7,71.6 91.1,71.6 78,78.2 69.3,88.7 L 56.1,77 c 2,-3.3 3.2,-7.2 3.2,-11.4 0,-12.1 -9.9,-22 -22,-22 -12.1,0 -22,9.9 -22,22 0,12.1 9.9,22 22,22 4.4,0 8.5,-1.3 11.9,-3.5 l 14.5,12.7 c -3.5,6.6 -5.4,14.1 -5.4,22.1 0,15.2 7.1,28.7 18.3,37.4 l -19.3,19.3 c -4.3,-3 -9.5,-4.8 -15.1,-4.8 -14.8,0 -26.9,12.1 -26.9,26.9 0,14.8 12.1,26.9 26.9,26.9 14.8,0 26.9,-12.1 26.9,-26.9 0,-5.7 -1.8,-10.8 -4.8,-15.2 l 20.8,-20.8 c 6.2,3 13.2,4.7 20.6,4.7 10.4,0 20.1,-3.4 27.9,-9.1 l 11.6,13 c -3.3,4.2 -5.3,9.4 -5.3,15.1 0,13.4 11,24.4 24.4,24.4 13.4,0 24.4,-11 24.4,-24.4 0,-13.4 -11,-24.4 -24.4,-24.4 -4.2,0 -8.1,1.1 -11.6,3 l -11.9,-13.3 c 7.6,-8.4 12.2,-19.5 12.2,-31.7 0,-1.1 -0.1,-2.2 -0.1,-3.3 l 46.6,-14.4 c 3.5,5.1 9.4,8.4 16,8.4 10.7,0 19.5,-8.8 19.5,-19.5 0,-10.7 -8.6,-19.7 -19.3,-19.7 z M 142.1,120 c -0.3,0.7 -0.6,1.2 -1.2,1.6 -1.6,0.9 -7.6,-3.8 -7.9,-4.4 -0.7,-1.2 -0.1,-1.2 -0.5,-1.7 -0.6,-0.7 -1.8,1.4 -1.2,2.1 0.6,0.7 7.3,4.6 8.1,6.2 0.5,0.9 -1.2,4.4 -1.4,5.6 -0.5,3.4 -0.9,6.9 -1.2,10.4 -4.3,-3 -1.1,-11.1 -5.6,-14.4 -1.5,-1.1 -6,-1 -8,-1.3 -2.8,-0.4 -4.9,-0.4 -7.7,-0.2 -3.6,0.3 -2.3,3.3 -3.5,5.3 -1,1.8 -4.5,4.4 -4.7,6.3 -0.7,6 -1.8,10.5 -3.9,16.2 -5.1,-5.3 -10.2,-10.6 -15.4,-16 -4.1,-4.3 -8.9,-5.9 -14.3,-8.4 5.4,-3.8 8.8,-8.2 11.2,-14.4 2.6,-6.7 5.8,-11.8 10.6,-17.1 -3.8,-1.9 -9.4,-2.9 -13.5,-0.6 -1.9,1.1 -11.4,8.4 -12.3,6.4 -1.4,-3.2 8.3,-9.5 10.1,-11 4.1,-3.3 8.4,-3.7 13.6,-4.9 4,-0.9 9.4,1.1 13.5,2 4.9,1 8.4,0.5 12.4,4.1 7,6.3 14.3,12.3 21,19 1.5,1.8 3.3,6.1 1.8,9.2 z"
   class="st2" />
			<path
   id="path1138"
   d="m 116.8,99.8 c 0,0 -1.3,1.8 -2.8,1.8 v 0 c -0.9,0 -1.9,-0.6 -2.8,-1.9 -0.2,-0.3 -0.6,-0.3 -0.9,-0.1 -0.3,0.2 -0.3,0.6 -0.1,0.9 1.1,1.6 2.4,2.4 3.8,2.4 0,0 0,0 0.1,0 2.2,0 3.8,-2.3 3.8,-2.4 0.2,-0.3 0.1,-0.7 -0.2,-0.9 -0.3,-0.1 -0.7,0 -0.9,0.2 z"
   class="st2" />
		</g>
		<circle
   id="circle1142"
   r="43.700001"
   cy="343.39999"
   cx="256.60001" />
	</g><g
   class="st0"
   id="Calque_3">
		<g
   id="g1257"
   class="st1">
			<path
   id="path1145"
   d="m 71.7,48.3 c 9.8,0 17.8,-8 17.8,-17.8 0,-9.8 -8,-17.8 -17.8,-17.8 -9.8,0 -17.8,8 -17.8,17.8 0,9.8 8,17.8 17.8,17.8 z m 0,-3.6 c -7.8,0 -14.2,-6.4 -14.2,-14.2 0,-0.6 0.1,-1.2 0.1,-1.8 h 13.2 c 1,0 1.9,-0.4 2.5,-1.1 l 1.5,-1.5 c 1.4,-1.4 3.7,-1.4 5,0 l 1.5,1.5 c 0.7,0.7 1.6,1 2.5,1 h 2 c 0.1,0.6 0.1,1.2 0.1,1.8 0,7.9 -6.4,14.3 -14.2,14.3 z"
   class="st2" />
			<path
   id="path1147"
   d="m 85.9,110.5 c 0,22.6 18.3,40.9 40.9,40.9 22.6,0 40.9,-18.3 40.9,-40.9 0,-22.6 -18.3,-40.9 -40.9,-40.9 -22.6,0 -40.9,18.3 -40.9,40.9 z m 27.7,-34.9 c 1.4,1.5 4.6,3.4 11.8,3.4 7.8,0 11.9,-2.3 13.8,-3.8 4.7,1.7 9,4.2 12.7,7.5 h -10 c -0.9,0 -1.6,0.5 -2,1.3 -0.5,1.2 -2.1,1.7 -3.2,0.9 l -0.8,-0.5 c -0.5,-0.4 -1.2,-0.5 -1.8,-0.3 l -9.1,2.6 c -0.6,0.2 -1.1,0.6 -1.4,1.1 l -1.9,4 c -0.2,0.4 -0.5,0.7 -0.9,1 l -4,2.2 c -0.7,0.4 -1.1,1.1 -1.1,1.9 V 97 c 0,1.2 1,2.2 2.2,2.2 h 6.6 c 0.9,0 1.5,0.7 1.5,1.5 0,0.9 0.7,1.5 1.5,1.5 h 1.7 c 0.9,0 1.5,-0.7 1.5,-1.5 v -1.8 l 6,3.4 0.3,3.5 -1.9,-1.9 h -8.4 c -4.7,0 -9.2,1.8 -12.5,5.1 -1.1,1 -1.7,2.4 -1.7,3.9 0,1.5 0.6,2.9 1.6,3.9 l 0.3,0.3 c 1,1 2.4,1.6 3.9,1.6 h 2.9 c 1.5,0 2.8,1.2 2.8,2.8 v 1.3 l -2.4,7.5 c -0.5,1.7 -0.1,3.6 1.2,4.9 v 0 c 0.9,0.9 2.1,1.4 3.4,1.4 4.2,0 8,-2.5 9.6,-6.4 l 1,-2.5 c 2.3,-5.5 3.5,-11.4 3.5,-17.3 h 1.3 c 0.9,0 1.7,-0.8 1.7,-1.7 v -1.3 c 0,-0.9 0.8,-1.7 1.7,-1.7 0.9,0 1.7,-0.8 1.7,-1.7 v -4.4 l 10.5,10.5 c 1.8,1.8 4.3,2.9 6.9,3.1 -1.1,15 -11,27.5 -24.5,32.4 -1.3,-1.5 -4.4,-3.6 -11.9,-3.6 -7.5,0 -11.6,2.1 -13.6,3.6 -2,-0.7 -4,-1.6 -5.8,-2.7 v -3.2 c 0,-1.1 -0.3,-2.1 -0.8,-3 l -4.3,-7.5 c -0.5,-0.9 -0.8,-2 -0.8,-3 V 123 c 0,-1.7 -0.7,-3.2 -1.9,-4.4 -1.1,-1.1 -2.6,-1.7 -4.2,-1.7 H 90.1 C 90,116.4 89.9,116 89.9,115.5 l 3.5,-3.3 c 2.2,-2.1 3.7,-4.9 4.2,-7.9 0.7,-4.3 3.3,-8 7.1,-10 l 3.2,-1.7 c 1.7,-0.9 2.8,-2.7 2.8,-4.6 0,-2.9 -2.3,-5.2 -5.2,-5.2 H 102 c 3.3,-3.1 7.2,-5.5 11.6,-7.2 z"
   class="st2" />
			<path
   id="path1149"
   d="m 226.4,90.9 c 0,-4.9 -4,-8.9 -8.9,-8.9 -4.9,0 -8.9,4 -8.9,8.9 0,0.6 0.1,1.2 0.2,1.8 -0.1,0 -0.1,0 -0.2,0 -9.8,0 -17.8,8 -17.8,17.8 0,9.8 8,17.8 17.8,17.8 9.8,0 17.8,-8 17.8,-17.8 0,-4.6 -1.7,-8.7 -4.5,-11.9 2.7,-1.5 4.5,-4.3 4.5,-7.7 z m -17.7,33.8 c -7.5,0 -13.6,-5.8 -14.2,-13.1 8.6,-0.9 12.5,-6.3 14.2,-10.4 1.6,5 5.3,11.1 14,11.5 -1.1,6.8 -7,12 -14,12 z"
   class="st2" />
			<path
   id="path1151"
   d="m 62.6,118.7 c 0.3,2 0.5,4 0.5,6.1 0,1.6 1.3,2.9 2.9,2.9 1.6,0 2.9,-1.3 2.9,-2.9 0,-3.2 -0.4,-6.5 -1,-9.3 0.5,0.2 1.1,0.5 1.7,0.7 0.3,0.1 0.6,0.2 0.9,0.2 1.2,0 2.3,-0.7 2.7,-1.9 0.5,-1.5 -0.3,-3.1 -1.8,-3.6 -4.8,-1.6 -5.6,-5.7 -5.6,-5.8 0,-0.2 -0.1,-0.3 -0.1,-0.4 C 63.1,96.1 54.5,92.9 51.4,92 50,89.7 47.3,87.7 42.7,87.7 c -5.6,0 -8.3,2.9 -10.5,5.3 -1.9,2.1 -3.1,3.4 -6.2,3.4 -1.6,0 -2.9,1.3 -2.9,2.9 0,1.6 1.3,2.9 2.9,2.9 1.2,0 2.3,-0.2 3.2,-0.4 -1.3,0.9 -2.5,1.4 -3.2,1.4 -1.6,0 -2.9,1.3 -2.9,2.9 0,1.6 1.3,2.9 2.9,2.9 0.9,0 1.9,-0.2 3,-0.6 0,0.1 0,0.2 0,0.2 -1.2,0.8 -2.3,1.2 -2.9,1.2 -1.6,0 -2.9,1.3 -2.9,2.9 0,1.6 1.3,2.9 2.9,2.9 1,0 2.1,-0.2 3.2,-0.7 -2.2,1.9 -4.8,3.2 -6.9,3.2 -1.6,0 -2.9,1.3 -2.9,2.9 0,1.6 1.3,2.9 2.9,2.9 2.8,0 5.8,-1.1 8.4,-2.9 -1.2,1.6 -2.7,2.8 -4.4,3.4 -1.5,0.5 -2.2,2.2 -1.7,3.7 0.4,1.2 1.5,1.9 2.7,1.9 0.3,0 0.7,-0.1 1,-0.2 2.7,-1 5.1,-2.8 7,-5.3 3.1,2.5 7,4 11.3,4 7,-0.2 12.9,-4.1 15.9,-9.8 z m -15.8,6 c -3.6,0 -6.9,-1.4 -9.4,-3.6 -1.1,-1 -2.1,-2.2 -2.9,-3.5 -0.4,-0.7 -0.8,-1.4 -1.1,-2.2 -0.3,-0.8 -0.6,-1.7 -0.7,-2.6 -0.1,-0.7 -0.2,-1.4 -0.2,-2.1 0,-0.1 0,-0.2 0,-0.3 0,-0.4 0,-0.8 0.1,-1.2 0.2,0 0.5,0 0.7,0 1.3,-0.1 2.5,-0.3 3.6,-0.6 0.9,-0.3 1.8,-0.6 2.6,-1 4.4,-2.3 6.2,-6.5 6.9,-9.9 0.2,3 1.1,6.3 3.7,7.6 1.5,0.7 2.6,1.9 3.1,3.4 0.8,2.5 2.6,5.9 7.1,6.4 -2,5.6 -7.3,9.6 -13.5,9.6 z"
   class="st2" />
			<path
   id="path1153"
   d="m 149.4,35.8 h 1.8 c 1,0 1.8,-0.8 1.8,-1.8 0,-1 -0.8,-1.8 -1.8,-1.8 h -1.8 c -1,0 -1.8,0.8 -1.8,1.8 0,1 0.8,1.8 1.8,1.8 z"
   class="st2" />
			<path
   id="path1155"
   d="m 96,35.8 h 1.8 c 1,0 1.8,-0.8 1.8,-1.8 0,-1 -0.8,-1.8 -1.8,-1.8 H 96 c -1,0 -1.8,0.8 -1.8,1.8 0,1 0.8,1.8 1.8,1.8 z"
   class="st2" />
			<path
   id="path1157"
   d="m 113.8,35.8 h 1.8 c 1,0 1.8,-0.8 1.8,-1.8 0,-1 -0.8,-1.8 -1.8,-1.8 h -1.8 c -1,0 -1.8,0.8 -1.8,1.8 0,1 0.8,1.8 1.8,1.8 z"
   class="st2" />
			<path
   id="path1159"
   d="m 122.7,35.8 h 1.8 c 1,0 1.8,-0.8 1.8,-1.8 0,-1 -0.8,-1.8 -1.8,-1.8 h -1.8 c -1,0 -1.8,0.8 -1.8,1.8 0,1 0.8,1.8 1.8,1.8 z"
   class="st2" />
			<path
   id="path1161"
   d="m 131.6,35.8 h 1.8 c 1,0 1.8,-0.8 1.8,-1.8 0,-1 -0.8,-1.8 -1.8,-1.8 h -1.8 c -1,0 -1.8,0.8 -1.8,1.8 0,1 0.8,1.8 1.8,1.8 z"
   class="st2" />
			<path
   id="path1163"
   d="m 140.5,35.8 h 1.8 c 1,0 1.8,-0.8 1.8,-1.8 0,-1 -0.8,-1.8 -1.8,-1.8 h -1.8 c -1,0 -1.8,0.8 -1.8,1.8 0,1 0.8,1.8 1.8,1.8 z"
   class="st2" />
			<path
   id="path1165"
   d="m 104.9,35.8 h 1.8 c 1,0 1.8,-0.8 1.8,-1.8 0,-1 -0.8,-1.8 -1.8,-1.8 h -1.8 c -1,0 -1.8,0.8 -1.8,1.8 0,1 0.8,1.8 1.8,1.8 z"
   class="st2" />
			<path
   id="path1167"
   d="m 135.7,181.7 h -1.8 c -1,0 -1.8,0.8 -1.8,1.8 0,1 0.8,1.8 1.8,1.8 h 1.8 c 1,0 1.8,-0.8 1.8,-1.8 0,-1 -0.8,-1.8 -1.8,-1.8 z"
   class="st2" />
			<path
   id="path1169"
   d="M 126.8,181.7 H 125 c -1,0 -1.8,0.8 -1.8,1.8 0,1 0.8,1.8 1.8,1.8 h 1.8 c 1,0 1.8,-0.8 1.8,-1.8 0,-1 -0.8,-1.8 -1.8,-1.8 z"
   class="st2" />
			<path
   id="path1171"
   d="m 117.9,181.7 h -1.8 c -1,0 -1.8,0.8 -1.8,1.8 0,1 0.8,1.8 1.8,1.8 h 1.8 c 1,0 1.8,-0.8 1.8,-1.8 0,-1 -0.8,-1.8 -1.8,-1.8 z"
   class="st2" />
			<path
   id="path1173"
   d="m 144.6,181.7 h -1.8 c -1,0 -1.8,0.8 -1.8,1.8 0,1 0.8,1.8 1.8,1.8 h 1.8 c 1,0 1.8,-0.8 1.8,-1.8 0,-1 -0.8,-1.8 -1.8,-1.8 z"
   class="st2" />
			<path
   id="path1175"
   d="m 100.2,181.7 h -1.8 c -1,0 -1.8,0.8 -1.8,1.8 0,1 0.8,1.8 1.8,1.8 h 1.8 c 1,0 1.8,-0.8 1.8,-1.8 0,-1 -0.9,-1.8 -1.8,-1.8 z"
   class="st2" />
			<path
   id="path1177"
   d="m 109,181.7 h -1.8 c -1,0 -1.8,0.8 -1.8,1.8 0,1 0.8,1.8 1.8,1.8 h 1.8 c 1,0 1.8,-0.8 1.8,-1.8 0,-1 -0.8,-1.8 -1.8,-1.8 z"
   class="st2" />
			<path
   id="path1179"
   d="m 153.5,181.7 h -1.8 c -1,0 -1.8,0.8 -1.8,1.8 0,1 0.8,1.8 1.8,1.8 h 1.8 c 1,0 1.8,-0.8 1.8,-1.8 0,-1 -0.8,-1.8 -1.8,-1.8 z"
   class="st2" />
			<path
   id="path1181"
   d="m 82.4,105.2 h -1.8 c -1,0 -1.8,0.8 -1.8,1.8 0,1 0.8,1.8 1.8,1.8 h 1.8 c 1,0 1.8,-0.8 1.8,-1.8 0,-1 -0.9,-1.8 -1.8,-1.8 z"
   class="st2" />
			<path
   id="path1183"
   d="m 71.7,108.7 h 1.8 c 1,0 1.8,-0.8 1.8,-1.8 0,-1 -0.8,-1.8 -1.8,-1.8 h -1.8 c -1,0 -1.8,0.8 -1.8,1.8 0,1 0.8,1.8 1.8,1.8 z"
   class="st2" />
			<path
   id="path1185"
   d="m 173.1,105.2 c -1,0 -1.8,0.8 -1.8,1.8 0,1 0.8,1.8 1.8,1.8 h 1.8 c 1,0 1.8,-0.8 1.8,-1.8 0,-1 -0.8,-1.8 -1.8,-1.8 z"
   class="st2" />
			<path
   id="path1187"
   d="m 185.5,107 c 0,-1 -0.8,-1.8 -1.8,-1.8 H 182 c -1,0 -1.8,0.8 -1.8,1.8 0,1 0.8,1.8 1.8,1.8 h 1.8 c 0.9,-0.1 1.7,-0.9 1.7,-1.8 z"
   class="st2" />
			<path
   id="path1189"
   d="m 59.1,152 c 0.3,0.6 0.9,1 1.6,1 0.3,0 0.5,-0.1 0.8,-0.2 0.9,-0.4 1.2,-1.5 0.8,-2.4 l -0.8,-1.6 c -0.4,-0.9 -1.5,-1.2 -2.4,-0.8 -0.9,0.4 -1.2,1.5 -0.8,2.4 z"
   class="st2" />
			<path
   id="path1191"
   d="m 55.2,144 c 0.3,0.6 0.9,1 1.6,1 0.3,0 0.5,-0.1 0.8,-0.2 0.9,-0.4 1.2,-1.5 0.8,-2.4 l -0.8,-1.6 c -0.4,-0.9 -1.5,-1.2 -2.4,-0.8 -0.9,0.4 -1.2,1.5 -0.8,2.4 z"
   class="st2" />
			<path
   id="path1193"
   d="m 63.1,160 c 0.3,0.6 0.9,1 1.6,1 0.3,0 0.5,-0.1 0.8,-0.2 0.9,-0.4 1.2,-1.5 0.8,-2.4 l -0.8,-1.6 c -0.4,-0.9 -1.5,-1.2 -2.4,-0.8 -0.9,0.4 -1.2,1.5 -0.8,2.4 z"
   class="st2" />
			<path
   id="path1195"
   d="m 53.6,132.9 c -0.4,-0.9 -1.5,-1.2 -2.4,-0.8 -0.9,0.4 -1.2,1.5 -0.8,2.4 l 0.8,1.6 c 0.3,0.6 0.9,1 1.6,1 0.3,0 0.5,-0.1 0.8,-0.2 0.9,-0.4 1.2,-1.5 0.8,-2.4 z"
   class="st2" />
			<path
   id="path1197"
   d="m 185.4,165 c 0.3,0.1 0.5,0.2 0.8,0.2 0.7,0 1.3,-0.4 1.6,-1 l 0.5,-0.9 c 0.4,-0.9 0.1,-1.9 -0.8,-2.4 -0.9,-0.4 -1.9,-0.1 -2.4,0.8 l -0.5,0.9 c -0.4,0.9 -0.1,2 0.8,2.4 z"
   class="st2" />
			<path
   id="path1199"
   d="m 199.3,136.9 c -0.9,-0.4 -1.9,-0.1 -2.4,0.8 l -0.8,1.6 c -0.4,0.9 -0.1,1.9 0.8,2.4 0.3,0.1 0.5,0.2 0.8,0.2 0.7,0 1.3,-0.4 1.6,-1 l 0.8,-1.6 c 0.4,-0.9 0,-1.9 -0.8,-2.4 z"
   class="st2" />
			<path
   id="path1201"
   d="m 193,149.7 c 0.3,0.1 0.5,0.2 0.8,0.2 0.7,0 1.3,-0.4 1.6,-1 l 0.8,-1.6 c 0.4,-0.9 0.1,-1.9 -0.8,-2.4 -0.9,-0.4 -1.9,-0.1 -2.4,0.8 l -0.8,1.6 c -0.5,0.9 -0.1,2 0.8,2.4 z"
   class="st2" />
			<path
   id="path1203"
   d="m 203.2,129 c -0.9,-0.4 -1.9,-0.1 -2.4,0.8 l -0.8,1.6 c -0.4,0.9 -0.1,1.9 0.8,2.4 0.3,0.1 0.5,0.2 0.8,0.2 0.7,0 1.3,-0.4 1.6,-1 l 0.8,-1.6 c 0.4,-0.9 0.1,-2 -0.8,-2.4 z"
   class="st2" />
			<path
   id="path1205"
   d="m 191.4,152.9 c -0.9,-0.4 -1.9,-0.1 -2.4,0.8 l -0.8,1.6 c -0.4,0.9 -0.1,1.9 0.8,2.4 0.3,0.1 0.5,0.2 0.8,0.2 0.7,0 1.3,-0.4 1.6,-1 l 0.8,-1.6 c 0.4,-0.9 0.1,-2 -0.8,-2.4 z"
   class="st2" />
			<path
   id="path1207"
   d="m 194.6,74.1 c 0.3,0.6 0.9,1 1.6,1 0.3,0 0.5,-0.1 0.8,-0.2 0.9,-0.4 1.2,-1.5 0.8,-2.4 L 197,71 c -0.4,-0.9 -1.5,-1.2 -2.4,-0.8 -0.9,0.4 -1.2,1.5 -0.8,2.4 z"
   class="st2" />
			<path
   id="path1209"
   d="m 192.2,67.2 c 0.3,0 0.5,-0.1 0.8,-0.2 0.9,-0.4 1.2,-1.5 0.8,-2.4 L 193,63 c -0.4,-0.9 -1.5,-1.2 -2.4,-0.8 -0.9,0.4 -1.2,1.5 -0.8,2.4 l 0.8,1.6 c 0.3,0.6 1,1 1.6,1 z"
   class="st2" />
			<path
   id="path1211"
   d="m 188.3,59.2 c 0.3,0 0.5,-0.1 0.8,-0.2 0.9,-0.4 1.2,-1.5 0.8,-2.4 L 189.1,55 c -0.4,-0.9 -1.5,-1.2 -2.4,-0.8 -0.9,0.4 -1.2,1.5 -0.8,2.4 l 0.8,1.6 c 0.3,0.6 0.9,1 1.6,1 z"
   class="st2" />
			<path
   id="path1213"
   d="m 198.5,82.1 c 0.3,0.6 0.9,1 1.6,1 0.3,0 0.5,-0.1 0.8,-0.2 0.9,-0.4 1.2,-1.5 0.8,-2.4 l -0.8,-1.6 c -0.4,-0.9 -1.5,-1.2 -2.4,-0.8 -0.9,0.4 -1.2,1.5 -0.8,2.4 z"
   class="st2" />
			<path
   id="path1215"
   d="m 202.3,89.9 c 0.3,0.6 0.9,1 1.6,1 0.3,0 0.5,-0.1 0.8,-0.2 0.9,-0.4 1.2,-1.5 0.8,-2.4 l -0.7,-1.4 c -0.4,-0.9 -1.5,-1.2 -2.4,-0.8 -0.9,0.4 -1.2,1.5 -0.8,2.4 z"
   class="st2" />
			<path
   id="path1217"
   d="m 155.5,145.7 c -0.5,-0.8 -1.6,-1 -2.5,-0.5 -0.8,0.5 -1,1.6 -0.5,2.5 l 1,1.5 c 0.3,0.5 0.9,0.8 1.5,0.8 0.3,0 0.7,-0.1 1,-0.3 0.8,-0.5 1,-1.6 0.5,-2.5 z"
   class="st2" />
			<path
   id="path1219"
   d="m 160.4,153.1 c -0.5,-0.8 -1.6,-1 -2.5,-0.5 -0.8,0.5 -1,1.6 -0.5,2.5 l 1,1.5 c 0.3,0.5 0.9,0.8 1.5,0.8 0.3,0 0.7,-0.1 1,-0.3 0.8,-0.5 1,-1.6 0.5,-2.5 z"
   class="st2" />
			<path
   id="path1221"
   d="m 167.7,167.5 c -0.8,0.5 -1,1.6 -0.5,2.5 l 0.5,0.7 c 0.3,0.5 0.9,0.8 1.5,0.8 0.3,0 0.7,-0.1 1,-0.3 0.8,-0.5 1,-1.6 0.5,-2.5 l -0.5,-0.7 c -0.6,-0.8 -1.7,-1 -2.5,-0.5 z"
   class="st2" />
			<path
   id="path1223"
   d="m 165.7,164.5 c 0.8,-0.5 1,-1.6 0.5,-2.5 l -1,-1.5 c -0.5,-0.8 -1.6,-1 -2.5,-0.5 -0.8,0.5 -1,1.6 -0.5,2.5 l 1,1.5 c 0.3,0.5 0.9,0.8 1.5,0.8 0.4,0 0.7,-0.1 1,-0.3 z"
   class="st2" />
			<path
   id="path1225"
   d="m 96.9,152.6 c -0.8,-0.5 -1.9,-0.3 -2.5,0.5 l -1,1.5 c -0.5,0.8 -0.3,1.9 0.5,2.5 0.3,0.2 0.6,0.3 1,0.3 0.6,0 1.1,-0.3 1.5,-0.8 l 1,-1.5 c 0.6,-0.8 0.3,-1.9 -0.5,-2.5 z"
   class="st2" />
			<path
   id="path1227"
   d="m 89.6,160.6 -1,1.5 c -0.5,0.8 -0.3,1.9 0.5,2.5 0.3,0.2 0.6,0.3 1,0.3 0.6,0 1.1,-0.3 1.5,-0.8 l 1,-1.5 c 0.5,-0.8 0.3,-1.9 -0.5,-2.5 -0.9,-0.6 -2,-0.3 -2.5,0.5 z"
   class="st2" />
			<path
   id="path1229"
   d="m 101.8,145.2 c -0.8,-0.5 -1.9,-0.3 -2.5,0.5 l -1,1.5 c -0.5,0.8 -0.3,1.9 0.5,2.5 0.3,0.2 0.6,0.3 1,0.3 0.6,0 1.1,-0.3 1.5,-0.8 l 1,-1.5 c 0.6,-0.8 0.3,-1.9 -0.5,-2.5 z"
   class="st2" />
			<path
   id="path1231"
   d="m 88.4,58.6 1.1,1.4 c 0.4,0.4 0.9,0.7 1.4,0.7 0.4,0 0.8,-0.1 1.1,-0.4 0.8,-0.6 0.9,-1.7 0.3,-2.5 l -1.1,-1.4 c -0.6,-0.8 -1.7,-0.9 -2.5,-0.3 -0.8,0.6 -0.9,1.7 -0.3,2.5 z"
   class="st2" />
			<path
   id="path1233"
   d="m 95,66.9 c 0.4,0.4 0.9,0.7 1.4,0.7 0.4,0 0.8,-0.1 1.1,-0.4 0.8,-0.6 0.9,-1.7 0.3,-2.5 L 96.7,63.3 C 96.1,62.5 95,62.4 94.2,63 c -0.8,0.6 -0.9,1.7 -0.3,2.5 z"
   class="st2" />
			<path
   id="path1235"
   d="m 86.5,53.3 c 0.8,-0.6 0.9,-1.7 0.3,-2.5 l -1.1,-1.4 c -0.6,-0.8 -1.7,-0.9 -2.5,-0.3 -0.8,0.6 -0.9,1.7 -0.3,2.5 L 84,53 c 0.4,0.4 0.9,0.7 1.4,0.7 0.4,0 0.7,-0.2 1.1,-0.4 z"
   class="st2" />
			<path
   id="path1237"
   d="m 99.4,72.5 1.1,1.4 c 0.4,0.4 0.9,0.7 1.4,0.7 0.4,0 0.8,-0.1 1.1,-0.4 0.8,-0.6 0.9,-1.7 0.3,-2.5 l -1.1,-1.4 c -0.6,-0.8 -1.7,-0.9 -2.5,-0.3 -0.7,0.6 -0.9,1.8 -0.3,2.5 z"
   class="st2" />
			<path
   id="path1239"
   d="m 160.7,58 v 0 c -0.6,0.9 -0.3,2 0.5,2.5 0.3,0.2 0.6,0.3 0.9,0.3 0.6,0 1.2,-0.3 1.5,-0.8 0.5,-0.8 0.3,-1.9 -0.5,-2.5 -0.8,-0.5 -1.9,-0.3 -2.4,0.5 z"
   class="st2" />
			<path
   id="path1241"
   d="m 156.3,68 c 0.3,0.2 0.6,0.3 1,0.3 0.6,0 1.1,-0.3 1.5,-0.8 l 1,-1.5 c 0.5,-0.8 0.3,-1.9 -0.5,-2.5 -0.8,-0.5 -1.9,-0.3 -2.5,0.5 l -1,1.5 c -0.6,0.8 -0.3,1.9 0.5,2.5 z"
   class="st2" />
			<path
   id="path1243"
   d="m 151.9,71.5 -1,1.5 c -0.5,0.8 -0.3,1.9 0.5,2.5 0.3,0.2 0.6,0.3 1,0.3 0.6,0 1.1,-0.3 1.5,-0.8 l 1,-1.5 c 0.5,-0.8 0.3,-1.9 -0.5,-2.5 -0.9,-0.6 -2,-0.4 -2.5,0.5 z"
   class="st2" />
			<path
   id="path1245"
   d="m 61.3,74.4 c 0.3,0.1 0.5,0.2 0.8,0.2 0.7,0 1.3,-0.4 1.6,-1 L 64.5,72 c 0.4,-0.9 0.1,-1.9 -0.8,-2.4 -0.9,-0.4 -1.9,-0.1 -2.4,0.8 L 60.5,72 c -0.4,0.9 0,2 0.8,2.4 z"
   class="st2" />
			<path
   id="path1247"
   d="m 53.5,90.4 c 0.3,0.1 0.5,0.2 0.8,0.2 0.7,0 1.3,-0.4 1.6,-1 L 56.7,88 C 57.1,87.1 56.8,86.1 55.9,85.6 55,85.2 54,85.5 53.5,86.4 L 52.7,88 c -0.5,0.9 -0.1,1.9 0.8,2.4 z"
   class="st2" />
			<path
   id="path1249"
   d="m 65.3,66.4 c 0.3,0.1 0.5,0.2 0.8,0.2 0.7,0 1.3,-0.4 1.6,-1 L 68.5,64 c 0.4,-0.9 0.1,-1.9 -0.8,-2.4 -0.9,-0.4 -1.9,-0.1 -2.4,0.8 L 64.5,64 c -0.5,0.9 -0.1,2 0.8,2.4 z"
   class="st2" />
			<path
   id="path1251"
   d="m 59.8,77.6 c -0.9,-0.4 -1.9,-0.1 -2.4,0.8 L 56.6,80 c -0.4,0.9 -0.1,1.9 0.8,2.4 0.3,0.1 0.5,0.2 0.8,0.2 0.7,0 1.3,-0.4 1.6,-1 L 60.6,80 c 0.4,-0.9 0,-2 -0.8,-2.4 z"
   class="st2" />
			<path
   id="path1253"
   d="m 69.2,58.5 c 0.3,0.1 0.5,0.2 0.8,0.2 0.7,0 1.3,-0.4 1.6,-1 l 0.8,-1.6 c 0.4,-0.9 0.1,-1.9 -0.8,-2.4 -0.9,-0.4 -1.9,-0.1 -2.4,0.8 l -0.8,1.6 C 68,57 68.3,58 69.2,58.5 Z"
   class="st2" />
			<path
   id="path1255"
   d="m 203,34.5 c -1.7,-2.9 -4,-5.6 -6,-8.3 -1.1,-1.5 -2.2,-3.1 -3.3,-4.6 -0.6,-0.8 -2.6,-1.1 -3.5,-1.5 5.3,-1 10.7,-1.3 13.3,-6.8 -1.9,0.6 -5.1,2.3 -7.1,2 -3.1,-0.5 -6.1,-1 -9.2,-1.5 -1.8,-0.3 -5.2,-3.1 -6.9,-2.5 -1.7,0.6 -1.9,0.5 -2.3,2.2 -0.4,1.4 -0.8,2.8 -1.1,4.2 -2.2,-1 -5.1,-3.4 -7.1,-1.8 -1.1,0.8 0.9,5.1 1.2,6.7 -0.6,0.2 -2.5,0.6 -4.7,1.1 -2.2,0.5 -1,0.1 -4.9,1.3 v 0 c -1.6,0.5 -2.8,0.9 -2.8,1.2 -0.1,1.3 -1.2,5.3 -0.5,6.4 0.7,1.1 1.3,2.2 2,3.2 2.6,4.3 5.2,8.6 7.8,12.9 0.5,0.9 1.2,2.1 2.9,4.7 0.9,1.4 1.7,2.8 2.6,4.2 0.3,0.5 1.7,2.1 1.7,2.7 0,-0.8 1.5,-2.3 1.9,-2.9 1.1,-1.6 2.2,-3.2 3.3,-4.8 1.2,-1.8 2.2,-4 4.1,-4.9 2.7,-1.3 4.8,-3.1 7.7,-2.2 3.2,0.9 4.5,1.3 7.6,0.5 -1.6,-1.7 -1.9,-2.3 -3.6,-4 1.8,1.1 2.2,1.1 3.9,2.2 1.7,1 2.5,-0.1 4.2,-1 4.1,-2.1 0.2,-6.4 -1.2,-8.7 z m -12,-3.2 c -2.8,0 -2.8,-4.3 0,-4.3 2.8,0 2.8,4.3 0,4.3 z"
   class="st2" />
		</g>
		<path
   id="path1259"
   d="m 212.3,193.1 c -4.9,-4.9 -10.3,-9.4 -15.5,-14.1 -3,-2.7 -5.5,-2.2 -9.2,-3 -3,-0.6 -7,-2.2 -10,-1.5 -3.8,0.9 -7,1.2 -10,3.6 -1.4,1.1 -8.5,5.7 -7.5,8.1 0.7,1.5 7.7,-3.9 9.1,-4.7 3,-1.7 7.1,-1 10,0.4 -3.6,3.9 -5.9,7.7 -7.8,12.7 -1.8,4.6 -4.3,7.8 -8.3,10.6 4,1.8 7.5,3.1 10.6,6.2 3.8,3.9 7.6,7.9 11.4,11.8 1.6,-4.2 2.4,-7.5 2.9,-12 0.2,-1.4 2.7,-3.4 3.5,-4.7 0.9,-1.5 -0.1,-3.7 2.6,-3.9 2.1,-0.2 3.7,-0.1 5.7,0.1 1.5,0.2 4.8,0.1 5.9,0.9 3.3,2.5 1,8.4 4.1,10.7 0.2,-2.6 0.5,-5.1 0.9,-7.7 0.1,-0.8 1.4,-3.4 1,-4.1 -0.6,-1.2 -5.5,-4 -6,-4.6 -0.5,-0.5 0.4,-2.1 0.9,-1.5 0.3,0.4 -0.1,0.3 0.4,1.3 0.2,0.4 4.7,3.9 5.9,3.3 0.5,-0.2 0.6,-0.7 0.9,-1.2 0.8,-2.1 -0.5,-5.3 -1.5,-6.7 z m -16.7,-7.5 c 0,0.1 -1.2,1.7 -2.8,1.8 0,0 0,0 -0.1,0 -1,0 -1.9,-0.6 -2.8,-1.7 -0.2,-0.2 -0.1,-0.5 0.1,-0.6 0.2,-0.2 0.5,-0.1 0.6,0.1 0.7,0.9 1.4,1.4 2,1.4 v 0 c 1.2,0 2.1,-1.3 2.1,-1.4 0.1,-0.2 0.4,-0.3 0.6,-0.1 0.4,0 0.5,0.3 0.3,0.5 z"
   class="st3" />
		<path
   id="path1261"
   d="m 87.5,189.4 c -0.2,-1.3 -0.9,-2.3 -2,-2.8 -3,-1.3 -5.4,-3.1 -7.8,-4.9 -1.6,-1.2 -3.2,-2.4 -5,-3.4 -0.6,-0.3 -1.2,-0.6 -1.8,-0.9 l 3.7,-7 5.5,-3 c 0.4,-0.2 0.6,-0.5 0.8,-0.9 l 4.4,-11 c 0.4,-0.9 -0.1,-2 -1,-2.3 -0.9,-0.4 -2,0.1 -2.3,1 l -1.8,4.6 -7.2,-5.2 c -0.8,-0.6 -1.9,-0.4 -2.5,0.4 -0.6,0.8 -0.4,1.9 0.4,2.5 l 7.9,5.7 -1,2.4 -3.7,2.1 -1.7,-3.6 c -0.4,-0.9 -1.5,-1.3 -2.4,-0.8 -0.9,0.4 -1.3,1.5 -0.8,2.4 l 2.1,4.5 -3.9,7.4 c -0.7,-0.1 -1.4,-0.1 -2.1,-0.1 -0.5,0 -1,0.1 -1.5,0.2 l -4,-7.5 2.1,-4.5 c 0.4,-0.9 0,-2 -0.8,-2.4 -0.9,-0.4 -2,0 -2.4,0.8 l -1.7,3.6 -3.7,-2.1 -1,-2.4 7.9,-5.7 c 0.8,-0.6 1,-1.7 0.4,-2.5 -0.6,-0.8 -1.7,-1 -2.5,-0.4 l -7.2,5.2 -1.8,-4.6 c -0.4,-0.9 -1.4,-1.4 -2.3,-1 -0.9,0.4 -1.4,1.4 -1,2.3 l 4.4,11 c 0,0.1 0.1,0.1 0.1,0.2 l 2.5,1.7 3.7,2.1 4.1,7.6 c -0.5,0.4 -1.1,0.8 -1.6,1.3 -2.2,2.2 -4,4.3 -5.9,6.4 -2.1,2.4 -3.2,3.8 -3.9,4.4 -1.9,1.4 -3.5,1.8 -6.1,2.6 -0.9,0.2 -1.6,0.4 -1.9,0.8 -0.4,0.7 0,2 1.9,4.4 3,3.9 14.6,13.5 21.3,18.8 0.5,-0.7 1,-1.6 1.6,-2.7 0.4,-0.7 1.1,-2.1 1.6,-4 0.8,-2.8 0.9,-5.2 1.4,-8.8 0.1,-1.4 0.3,-2.7 0.8,-3.6 0.4,-0.7 1,-1.2 2,-1.1 l 11.3,0.3 c 1.2,0 2.3,-0.7 3.1,-1.8 0.5,-0.8 1,-1.7 1.2,-2.7 0.2,-1 0.3,-2.1 0.1,-3 z m -15.7,-2.9 c -1.1,0 -1.9,-0.9 -1.9,-1.9 0,-1 0.9,-1.9 1.9,-1.9 1.1,0 1.9,0.9 1.9,1.9 0.1,1 -0.8,1.9 -1.9,1.9 z"
   class="st4" />
	</g><g
   id="g2413"
   transform="matrix(1.1279067,0,0,1.1279067,-1.381392,-1.0232533)"><g
     id="g2426"
     transform="matrix(1.3684403,0,0,1.3684403,-14.541665,-3.7064013)"
     style="fill:#ffffff;fill-opacity:1"><path
       id="path1264"
       d="m 238.9,112 c 0,9.4 -14.3,12.9 -26.1,12.9 -12.2,0 -26.5,-3.5 -26.5,-12.9 0,-8.4 8,-20.9 15.3,-24.3 -1.9,-1.6 -3.2,-4.7 -3.2,-4.7 -0.7,-1.7 -1,-3.8 -1,-5.6 0,-3.8 1.4,-7.7 3.8,-10.4 2.1,-2.1 5.6,-4.9 11.5,-4.9 8.4,0 15.3,7 15.3,15.3 0,4.2 -1.7,8 -4.5,10.4 9.1,4.4 15.4,13.4 15.4,24.2 z"
       class="st2"
       style="fill:#ffffff;fill-opacity:1" /><path
       id="path1266"
       d="M 76.6,199.1 C 76.6,208.5 62.3,212 50.5,212 38.3,212 24,208.5 24,199.1 c 0,-8.4 8,-20.9 15.3,-24.3 -1.9,-1.6 -3.2,-4.7 -3.2,-4.7 -0.7,-1.7 -1,-3.8 -1,-5.6 0,-3.8 1.4,-7.7 3.8,-10.4 2.1,-2.1 5.6,-4.9 11.5,-4.9 8.4,0 15.3,7 15.3,15.3 0,4.2 -1.7,8 -4.5,10.4 9.1,4.4 15.4,13.4 15.4,24.2 z"
       class="st2"
       style="fill:#ffffff;fill-opacity:1" /><path
       id="path1268"
       d="m 64.8,88.3 c 0,9.4 -14.3,12.9 -26.1,12.9 -12.2,0 -26.5,-3.5 -26.5,-12.9 0,-8.4 8,-20.9 15.3,-24.3 -1.9,-1.6 -3.2,-4.7 -3.2,-4.7 -0.7,-1.7 -1,-3.8 -1,-5.6 0,-3.8 1.4,-7.7 3.8,-10.4 2.1,-2.1 5.6,-4.9 11.5,-4.9 8.4,0 15.3,7 15.3,15.3 0,4.2 -1.7,8 -4.5,10.4 9.1,4.4 15.4,13.4 15.4,24.2 z"
       class="st2"
       style="fill:#ffffff;fill-opacity:1" /><path
       id="path1270"
       d="m 173,57.9 c 0,9.4 -14.3,12.9 -26.1,12.9 -12.2,0 -26.5,-3.5 -26.5,-12.9 0,-8.4 8,-20.9 15.3,-24.3 -1.9,-1.6 -3.2,-4.7 -3.2,-4.7 -0.7,-1.7 -1,-3.8 -1,-5.6 0,-3.8 1.4,-7.7 3.8,-10.4 2.1,-2.1 5.6,-4.9 11.5,-4.9 8.4,0 15.3,7 15.3,15.3 0,4.2 -1.7,8 -4.5,10.4 9.1,4.4 15.4,13.4 15.4,24.2 z"
       class="st2"
       style="fill:#ffffff;fill-opacity:1" /><path
       id="path1272"
       d="m 189.8,213.9 c 0,9.4 -14.3,12.9 -26.1,12.9 -12.2,0 -26.5,-3.5 -26.5,-12.9 0,-8.4 8,-20.9 15.3,-24.3 -1.9,-1.6 -3.2,-4.7 -3.2,-4.7 -0.7,-1.7 -1,-3.8 -1,-5.6 0,-3.8 1.4,-7.7 3.8,-10.4 2.1,-2.1 5.6,-4.9 11.5,-4.9 8.4,0 15.3,7 15.3,15.3 0,4.2 -1.7,8 -4.5,10.4 9.1,4.4 15.4,13.4 15.4,24.2 z"
       class="st2"
       style="fill:#ffffff;fill-opacity:1" /><g
       id="g1288"
       style="fill:#ffffff;fill-opacity:1">
		<path
   id="path1278"
   d="m 108.9,124.2 c -0.2,-0.2 -0.4,-0.3 -0.7,-0.3 -0.2,0 -0.5,0 -0.7,0.1 -0.2,0.1 -0.4,0.3 -0.5,0.5 -0.1,0.2 -0.2,0.5 -0.1,0.7 0.1,0.3 0.2,0.5 0.4,0.6 0.2,0.2 0.4,0.2 0.6,0.2 0.3,0 0.5,0 0.7,-0.1 0.2,-0.1 0.3,-0.3 0.4,-0.5 0.1,-0.2 0.1,-0.4 0.1,-0.6 0.1,-0.2 0,-0.4 -0.2,-0.6 z"
   class="st2"
   style="fill:#ffffff;fill-opacity:1" />
		<polygon
   id="polygon1280"
   points=""
   class="st2"
   style="fill:#ffffff;fill-opacity:1" />
		<path
   id="path1282"
   d="m 119.5,115.3 c -0.3,0 -0.5,0 -0.7,0.1 -0.2,0.1 -0.4,0.3 -0.5,0.5 -0.1,0.2 -0.1,0.4 -0.1,0.7 0.1,0.3 0.2,0.5 0.4,0.6 0.2,0.2 0.4,0.3 0.7,0.3 0.3,0 0.5,-0.1 0.7,-0.2 0.2,-0.1 0.3,-0.3 0.5,-0.5 0.1,-0.2 0.1,-0.4 0.1,-0.7 -0.1,-0.2 -0.2,-0.4 -0.3,-0.6 -0.4,-0.1 -0.6,-0.2 -0.8,-0.2 z"
   class="st2"
   style="fill:#ffffff;fill-opacity:1" />
		<path
   id="path1284"
   d="m 200.3,100 -44.9,13.8 C 152.1,102.1 144.3,92.2 134.1,86.1 L 142,61.3 c 0.7,0.1 -6.2,-2.8 -9.3,-2.7 L 125,82.1 C 120.2,80.5 115,79.6 109.7,79.6 95.1,79.6 82,86.2 73.3,96.7 L 60.1,85 l -6.9,7.1 14.5,12.7 c -3.5,6.6 -5.4,14.1 -5.4,22.1 0,15.2 7.1,28.7 18.3,37.4 l -19.3,19.3 c 1,1.9 5.5,6.3 7,6.9 l 20.8,-20.8 c 6.2,3 13.2,4.7 20.6,4.7 10.4,0 20.1,-3.4 27.9,-9.1 l 11.6,13 c 2.4,-1.2 7,-5.1 7.5,-6.3 l -11.9,-13.3 c 7.6,-8.4 12.2,-19.5 12.2,-31.7 0,-1.1 -0.1,-2.2 -0.1,-3.3 l 46.6,-14.4 c 0.3,-4 -3.3,-10 -3.2,-9.3 z m -54.1,11.2 c -0.7,-0.9 -1.6,-2.2 -2.9,-4 -3.4,-5 -8.6,-8.6 -14.4,-10.7 -5.8,-2.1 -11.2,-2.9 -18.8,-2.6 -7.6,0.3 -15.8,3.8 -23.2,10.9 0.4,-0.4 0.5,-0.5 0.3,-0.3 -1.8,1.9 -3.4,4.1 -4.6,6.4 -1.6,3.1 -2.7,6.2 -3.2,9.5 -0.6,3.6 -0.5,7.2 0.3,11.1 0.5,2.5 2.2,6.2 5,11 0.4,0.7 1.6,2.2 3.5,4.4 1,1.1 2.5,2.2 4.4,3.3 1.4,0.8 2.9,1.4 4.6,1.5 1.4,0.3 3.2,0.3 5.3,0 2.5,-0.2 4.3,-0.4 5.4,-0.5 0.4,-0.1 0.9,-0.3 1.5,-0.6 0.6,-0.4 1.1,-0.7 1.5,-0.8 1,-0.6 1.5,-0.9 1.6,-0.8 0.5,-0.1 1.3,-0.2 1.7,0.3 1,1.3 -2.2,3.5 -2.9,4.1 -0.6,0.4 -1.5,1 -2.8,1.6 -0.5,0.4 -1.1,1 -0.9,1.7 0.2,0.6 1.1,1 1.6,1.2 1.7,0.7 3.6,1.1 5.4,1.4 1,0.1 2.2,0.1 3.8,-0.2 1.6,-0.3 3,-0.8 4.3,-1.7 l 5.8,-3.6 c 2.1,-1.3 4.3,-1.9 6.6,-1.6 0.7,0 1.2,0.2 1.5,0.6 0.2,0.4 0.4,0.9 0.3,1.4 -3.5,0.8 -6.3,1.9 -8.4,3.1 -1.2,0.7 -2.9,1.9 -5.3,3.5 -1.1,0.7 -2.2,1.4 -3.4,2 -1.3,0.6 -2.6,1.1 -4.1,1.5 -0.1,0 -0.3,0.1 -0.5,0.2 -0.9,0.2 -1.8,0.4 -2.8,0.5 -0.4,0.1 -0.8,0.1 -1.1,0.1 -2,0.1 -4.1,0 -6.2,-0.3 -0.7,0 -1.3,-0.1 -2,-0.3 -1.3,-0.3 -2.6,-0.7 -3.9,-1.1 C 85,159.3 75,150.1 71,134.7 c -3.6,-13.8 0.3,-26 10,-35.8 6.3,-6.4 14.1,-10.3 23.2,-11.7 9.1,-1.3 17.8,0.1 26.1,4.3 7.3,3.8 12.8,9.2 16.3,16.3 0.8,1.8 1.5,3.5 2.1,5.3 -1,-0.3 -1.8,-0.9 -2.5,-1.9 z m -38.1,33.6 c 0,0.4 -0.1,0.7 -0.3,0.9 -0.2,0.2 -0.5,0.3 -1,0.4 0,0.1 0,0.2 0,0.3 0,0.1 -0.1,0.2 -0.2,0.3 -0.1,0.1 -0.3,0.2 -0.6,0.3 -0.1,0.3 -0.2,0.6 -0.3,0.7 -0.1,0.1 -0.2,0.1 -0.4,0.2 -0.5,0.1 -1,0.1 -1.4,-0.2 -0.1,0 -0.3,-0.1 -0.8,-0.3 0,0 -0.1,0 -0.1,0 0,0 0,0 0,0 0,0 -0.1,0 -0.1,0 0,0 -0.1,0 -0.1,0 0,0 0,0 0,0 0,0 0,0 0,0 -0.1,0 -0.2,-0.1 -0.2,-0.1 l -0.2,-0.1 c -1.6,-0.6 -3.2,-1.4 -4.6,-2.2 0.1,-0.2 0.1,-0.4 0.2,-0.6 0.8,-1.7 1.4,-2.7 1.8,-3.1 0.7,-0.7 1.6,-1.3 2.6,-1.9 0.3,-0.2 0.6,-0.3 0.7,-0.4 0.1,-0.1 0.3,-0.1 0.5,0 1,0.5 1.8,0.8 2.3,1.1 0.1,0.1 0.2,0.1 0.3,0.1 -0.4,1.3 -0.6,2.5 -0.5,3.7 0,0 0.2,-0.2 0.4,-0.6 0.2,-0.4 0.6,-0.8 1,-1 0.5,-0.3 0.8,-0.6 1,-1 l 0.4,0.3 2.8,-0.9 c 0.2,0 0.4,-0.1 0.7,-0.2 0.1,-0.1 0.2,-0.1 0.4,-0.2 0.1,-0.1 0.2,-0.1 0.3,-0.1 -1.8,1.6 -3.3,2.6 -4.5,3 0,0.1 0,0.2 0,0.3 -0.1,0.2 -0.2,0.4 -0.4,0.6 0.2,0.2 0.3,0.4 0.3,0.7 z M 97.6,122.3 97.1,121 c 1.3,0.3 2.5,1.4 3.5,3.2 z m 3.2,7.6 c 0.1,-0.2 0.2,-0.4 0.5,-0.5 0.2,-0.1 0.5,-0.2 0.7,-0.1 0.3,0 0.5,0.1 0.7,0.3 0.2,0.2 0.3,0.4 0.3,0.6 0.1,0.2 0,0.4 -0.1,0.6 -0.1,0.2 -0.2,0.4 -0.4,0.5 -0.2,0.2 -0.5,0.2 -0.7,0.2 -0.3,0 -0.5,-0.1 -0.7,-0.2 -0.2,-0.2 -0.3,-0.4 -0.3,-0.7 -0.1,-0.3 -0.1,-0.5 0,-0.7 z m 11.5,6.3 c -1.4,-2.2 -2.4,-3.5 -2.8,-3.9 -0.4,-0.5 -0.8,-0.8 -1,-1.1 -0.7,-0.8 -1.3,-1.4 -1.8,-2 -0.6,-0.8 -1.2,-1.5 -1.6,-2.2 -0.6,-1 -1.1,-1.9 -1.5,-2.7 -0.3,-0.8 -0.8,-1.5 -1.4,-2.1 -0.4,-0.4 -1,-0.9 -1.7,-1.3 -0.2,-0.2 -0.8,-0.4 -1.7,-0.7 -0.9,-0.2 -1.6,-0.3 -2,-0.3 v 0 l -0.3,-1.4 c -0.1,-0.5 -0.1,-0.8 0,-1 0.1,-0.2 0.2,-0.3 0.2,-0.3 0,0 0.1,-0.1 0.1,-0.1 0.5,-0.2 1.1,-0.3 1.7,-0.1 l 0.4,0.1 4.1,1.9 0.2,0.2 c 0.1,0.1 0.3,0.3 0.5,0.5 h 0.1 l 0.2,0.1 1,0.1 c 3.2,0.4 6.2,2 8.8,3.9 3.1,2.3 5.5,5.3 7.9,8.4 0.2,0.2 0.3,0.5 0.4,1 0.1,0.1 0.1,0.3 0.1,0.4 0.1,0.3 0.1,0.5 0,0.8 0,0.1 0,0.3 0,0.4 v 0.1 l -0.1,0.1 c 0,0.5 -0.4,1.1 -1,1.9 -0.1,0.1 -0.3,0.2 -0.4,0.3 -0.8,0.4 -1.5,0.6 -2.2,0.7 -0.2,0 -0.4,0 -0.6,0.1 l -0.9,0.1 h -0.1 l -2.8,0.3 c 0,0 0,0.1 0,0.1 l 4.5,-0.1 c 0.6,0 1.2,-0.2 1.8,-0.4 l 0.5,-0.2 c 0.2,-0.1 0.4,-0.2 0.5,-0.4 0.6,-0.5 1,-1.1 1.2,-1.9 v 0 c 0.7,-0.1 1.3,-0.1 1.7,-0.1 v 0 c 0.2,0 0.3,0 0.4,0.1 0.1,0 0.2,0.1 0.2,0.1 0.1,0 0.2,0 0.3,0 0.2,0 0.4,0 0.7,-0.2 l 0.3,-0.2 c 0.2,-0.1 0.5,-0.3 1,-0.8 0.5,-0.4 0.2,-0.5 -0.7,-0.3 -0.9,0.2 -1.8,-0.2 -2.7,-1.2 1.7,0.1 2.7,0.1 3.2,0 h 0.7 c 0.1,-0.1 0.2,-0.2 0.4,-0.3 0.2,-0.1 0.3,-0.2 0.4,-0.4 0.1,-0.2 0.1,-0.4 -0.1,-0.7 0,-0.1 -0.1,-0.2 -0.1,-0.4 0,-0.3 0,-0.4 0,-0.4 0,-0.2 -0.1,-0.4 -0.1,-0.7 0,-0.3 -0.1,-0.6 -0.1,-0.7 -0.1,-0.4 -0.2,-0.7 -0.5,-0.9 -0.8,-1 -1.9,-1.6 -2.8,-2.4 -1,-0.9 -2,-1.8 -3.1,-2.6 -0.8,-0.6 -1.6,-1.1 -2.3,-1.5 -0.9,-0.6 -1.8,-1.1 -2.5,-1.6 -0.4,-0.3 -0.7,-0.5 -0.9,-0.7 -0.3,-0.2 -0.6,-0.4 -0.9,-0.6 -0.3,-0.1 -0.7,-0.3 -1.1,-0.5 -0.3,-0.1 -0.7,-0.2 -1.2,-0.3 -0.3,-0.1 -0.6,-0.3 -1,-0.5 -0.8,-0.4 -1.9,-0.5 -3.4,-0.4 v 0 c -0.2,0 -0.3,0 -0.5,0 -0.6,0 -1.2,0.2 -1.8,0.5 -0.7,0.3 -1.3,0.7 -2,1.1 l -0.1,0.1 -0.7,-0.6 -0.3,-0.2 c -0.1,-0.1 -0.3,-0.1 -0.4,-0.2 l -3.7,-1.5 c -0.6,-0.2 -1.2,-0.3 -1.8,-0.2 -0.6,0.1 -1,0.4 -1.2,0.8 -0.1,0.2 -0.2,0.4 -0.2,0.6 0,0.2 0,0.5 0.1,1.1 0.1,0.5 0.2,0.8 0.2,1 -0.2,0 -0.5,0 -0.8,0 -0.2,0 -0.4,0 -0.6,0 -0.1,0 -0.2,0.1 -0.5,0.4 l 2.3,0.7 c 0.1,0.4 0.3,0.9 0.6,1.4 -0.4,-0.2 -1.1,-0.5 -2.3,-0.7 -0.6,-0.1 -1.9,-0.4 -3.9,-0.7 0.3,1 1.3,1.7 2.8,2 0.2,0.1 0.5,0.2 0.7,0.2 0.4,0.1 0.7,0.2 0.9,0.3 0.1,0 0.1,0.1 0.2,0.1 l 0.1,0.1 c 0,0 0,0 0,0 0,0 0,0 0,0 0.2,0.1 0.5,0.3 0.8,0.4 0.2,0.2 0.5,0.3 0.6,0.5 0.2,0.2 0.4,0.4 0.5,0.4 -0.3,0.2 -0.6,0.5 -0.7,0.6 -0.3,-0.1 -0.5,-0.2 -0.7,-0.2 -0.3,-0.1 -0.5,0 -0.8,0.2 -0.2,0.2 -0.4,0.3 -0.4,0.3 0,0 -0.1,-0.1 -0.1,-0.1 -0.1,-0.2 -0.2,-0.4 -0.4,-0.4 -0.2,0 -0.4,0 -0.6,0.1 l -0.2,0.2 c -0.1,0.1 -0.1,0.2 -0.2,0.4 -0.1,-0.1 -0.2,-0.2 -0.3,-0.3 l -0.2,-0.1 c -0.2,-0.1 -0.4,0 -0.6,0.1 -0.2,0.1 -0.3,0.2 -0.5,0.4 -0.1,0.1 -0.1,0.1 -0.2,0.1 -0.1,0 -0.1,0 -0.1,0 -0.1,0 -0.1,0 -0.2,0 -0.2,-0.1 -0.3,0 -0.5,0.1 -0.2,0.1 -0.3,0.3 -0.5,0.5 -0.2,0.3 -0.4,0.7 -0.6,1 -0.1,0 -0.1,-0.2 -0.2,-0.5 -0.1,-0.2 -0.2,-0.4 -0.4,-0.4 -0.3,-0.1 -0.5,0 -0.8,0.4 l -0.3,0.5 c -0.1,0.1 -0.1,0.1 -0.2,0 -0.1,-0.2 -0.2,-0.4 -0.5,-0.5 -0.2,-0.1 -0.4,-0.2 -0.6,-0.2 -0.2,0 -0.5,0 -0.7,0.1 -0.2,0.1 -0.4,0.3 -0.5,0.4 v 0 c -0.1,-0.8 -0.2,-1.5 -0.2,-2.3 -0.3,-3 0.5,-6.4 1.3,-9.3 0.4,-1.5 1.1,-2.8 1.9,-4.1 1.1,-1.9 2.6,-3.7 4.3,-5 1.5,-1.2 3.6,-2.4 5.5,-2.6 3.7,-0.4 6.2,-0.8 7.5,-1.1 1.3,-0.3 2.3,-0.5 2.9,-0.5 0,-1.3 0.9,-2.1 2.6,-2.3 0.1,0 0.2,0 0.3,0 1.3,0 2.7,-0.1 4.1,0.2 1,0.3 2,0.9 2.5,1.8 0.1,0.2 0.2,0.4 0.4,0.6 0.4,0.5 1.1,0.5 1.7,0.5 1.6,-0.1 3.2,-0.5 4.7,-0.9 1.4,-0.4 2.7,-0.9 4.2,-1.1 0.3,0 0.5,-0.1 0.7,-0.1 0.3,0 0.5,0 0.7,0 0.4,0 0.6,0.1 0.7,0.3 0.1,0.2 0,0.5 -0.2,0.7 -0.2,0.4 -0.5,0.7 -0.9,1.1 -0.3,0.3 -0.6,0.6 -1,0.9 -1.1,0.9 -2.3,1.6 -3.7,2.2 -1.1,0.4 -2.1,0.8 -3.1,1 -0.4,0.1 -0.7,0.2 -0.9,0.2 0.1,0.2 0.1,0.5 0,0.7 0,0.1 -0.5,0.7 -1.3,1.4 2.8,4.9 5.7,9.8 8.4,14.8 0.4,0.8 1,1.8 1.8,3.2 0.7,1.3 0.7,2.7 0,4.3 1.9,1.6 2.5,3.4 1.7,5.4 -0.3,0.5 -0.6,0.9 -0.9,1.2 -0.6,0.7 -1.2,1.4 -1.9,1.9 -1,0.8 -2.8,1.1 -5.3,0.7 0.2,0.9 -0.2,1.3 -1.4,1.1 -1.1,-0.2 -2.3,-0.5 -3.4,-1 -0.4,-0.2 -0.9,-0.4 -1.5,-0.7 -0.6,-0.3 -1.2,-0.5 -1.6,-0.7 -1,-0.4 -1.8,-0.7 -2.6,-1 0.1,-1 -0.4,-2 -1.1,-2.9 z m 2,-14.8 c 0.1,-0.2 0.3,-0.4 0.5,-0.5 0.2,-0.1 0.5,-0.2 0.7,-0.1 0.3,0 0.5,0.1 0.6,0.3 0.2,0.2 0.3,0.4 0.4,0.7 0,0.2 0,0.5 -0.1,0.6 -0.1,0.2 -0.2,0.4 -0.4,0.5 -0.2,0.1 -0.5,0.2 -0.7,0.1 -0.3,0 -0.5,-0.1 -0.7,-0.3 -0.2,-0.2 -0.3,-0.4 -0.3,-0.6 -0.1,-0.2 -0.1,-0.4 0,-0.7 z m -17.4,4.8 c -0.3,0.4 -0.6,0.8 -0.7,1.1 -0.4,0.9 -1.1,2.4 -2,4.3 -2.6,2.2 -4.7,3 -6.2,2.5 -0.8,-1.8 -1.4,-3.6 -1.8,-5.6 0.1,-0.3 0.3,-0.5 0.4,-0.6 0.2,-0.1 0.3,-0.2 0.5,-0.2 0.1,0 0.3,0 0.4,0.1 0.1,0.1 0.2,0.2 0.3,0.3 0.1,0.3 0.2,0.5 0.4,0.5 0.1,0 0.2,0 0.2,0 0.2,-0.1 0.4,-0.2 0.5,-0.5 0.2,-0.3 0.3,-0.5 0.4,-0.5 0.1,-0.1 0.3,0.1 0.3,0.5 0.1,0.2 0.2,0.3 0.3,0.4 0.2,0.1 0.3,0 0.4,0 0.1,-0.1 0.3,-0.3 0.5,-0.6 0.2,-0.4 0.3,-0.6 0.4,-0.7 0.1,-0.1 0.2,-0.2 0.2,-0.2 0.1,0 0.1,-0.1 0.2,-0.1 0.1,0 0.2,0.1 0.4,0.2 0.2,0.2 0.4,0.2 0.5,0.1 0.1,0 0.1,-0.2 0.2,-0.4 0.1,-0.2 0.2,-0.3 0.3,-0.4 0.2,0 0.4,0 0.6,0.2 0.3,0.2 0.4,0.2 0.6,0.1 0.1,0 0.1,-0.1 0.2,-0.3 0.1,-0.2 0.2,-0.2 0.3,-0.2 l 0.3,0.3 c 0.1,0.2 0.3,0.2 0.3,0.2 0.1,0 0.3,0 0.4,-0.2 0.1,-0.1 0.2,-0.2 0.3,-0.3 0.3,-0.1 0.5,-0.1 0.9,0 z m 23.2,27.2 c 1.1,-2.3 3,-3.3 5.6,-3 -0.8,0.4 -1.9,1.4 -3.1,2.9 -1.2,1.5 -2.8,3.1 -4.6,4.9 1.4,-3 2.1,-4.7 2.1,-4.8 z m 1.8,2.2 c 2.3,-2.8 4.8,-4.9 7.6,-6.3 1.2,-0.6 2.4,0 3.5,2 -1,-0.5 -2.7,0.1 -5.2,1.6 l -8.7,5.5 z"
   class="st2"
   style="fill:#ffffff;fill-opacity:1" />
		<path
   id="path1286"
   d="m 120,108.7 c 0.2,-0.2 0.4,-0.4 0.6,-0.6 -0.2,0 -0.4,0.1 -0.5,0.1 -0.1,0 -0.2,0 -0.2,0.1 -0.1,0 -0.1,0.1 0,0.2 0,0 0,0.1 0.1,0.2 z"
   class="st2"
   style="fill:#ffffff;fill-opacity:1" />
	</g></g></g>
</svg>
