<?xml version="1.0" encoding="UTF-8" standalone="no"?>
<svg
   xmlns:dc="http://purl.org/dc/elements/1.1/"
   xmlns:cc="http://creativecommons.org/ns#"
   xmlns:rdf="http://www.w3.org/1999/02/22-rdf-syntax-ns#"
   xmlns:svg="http://www.w3.org/2000/svg"
   xmlns="http://www.w3.org/2000/svg"
   xmlns:sodipodi="http://sodipodi.sourceforge.net/DTD/sodipodi-0.dtd"
   xmlns:inkscape="http://www.inkscape.org/namespaces/inkscape"
   width="352px"
   height="352px"
   enable-background="new 122.5 0 352 352"
   version="1.1"
   viewBox="122.5 0 352 352"
   xml:space="preserve"
   id="svg62"
   sodipodi:docname="dairy-goats.svg"
   inkscape:version="1.0 (4035a4fb49, 2020-05-01)"><defs
     id="defs66" /><sodipodi:namedview
     pagecolor="#ffffff"
     bordercolor="#666666"
     borderopacity="1"
     objecttolerance="10"
     gridtolerance="10"
     guidetolerance="10"
     inkscape:pageopacity="0"
     inkscape:pageshadow="2"
     inkscape:window-width="1920"
     inkscape:window-height="1049"
     id="namedview64"
     showgrid="false"
     inkscape:zoom="0.67045455"
     inkscape:cx="-64.135592"
     inkscape:cy="176"
     inkscape:window-x="1920"
     inkscape:window-y="31"
     inkscape:window-maximized="1"
     inkscape:current-layer="svg62"
     inkscape:document-rotation="0"
     inkscape:pagecheckerboard="true" /><metadata
     id="metadata2"><rdf:RDF><cc:Work
         rdf:about=""><dc:format>image/svg+xml</dc:format><dc:type
           rdf:resource="http://purl.org/dc/dcmitype/StillImage" /><dc:title /></cc:Work></rdf:RDF></metadata><g
     display="none"
     id="g6"><rect
       x="109"
       y="-15"
       width="420"
       height="384.5"
       display="inline"
       fill="#D81350"
       id="rect4" /></g><g
     display="none"
     id="g14"><path
       d="m280.15 112.9c-1.483-7.136-10.494-26.179-5.571-29.942 9.244-7.073 22.036 3.679 32.001 8.149 1.717-6.297 3.428-12.592 5.15-18.889 2.051-7.536 2.981-7.06 10.528-9.938 7.392-2.823 22.99 9.948 30.994 11.252 13.718 2.239 27.435 4.475 41.15 6.71 8.778 1.429 23.23-6.477 31.799-9.075-11.633 24.7-35.865 26.054-59.815 30.601 4.082 1.605 13.208 3.157 15.787 6.691 5.005 6.856 10.017 13.716 15.021 20.569 8.993 12.321 19.184 24.334 26.97 37.471 6.11 10.306 23.641 30.012 5.967 39.544-7.758 4.182-11.469 9.119-19.062 4.453-7.911-4.856-9.793-4.814-17.705-9.674 7.388 7.563 8.758 10.228 16.137 17.788-14.129 3.454-20.066 1.672-34.269-2.298-13.076-3.656-22.551 4.331-34.693 10.057-8.852 4.172-13.153 14.193-18.627 22.111-4.939 7.156-9.871 14.319-14.745 21.518-1.859 2.75-8.474 9.59-8.474 13.133 0-2.798-6.28-9.744-7.735-12.104-6.224-10.058-12.373-20.158-18.533-30.26-13.833-22.716-27.605-45.467-41.37-68.227-2.938-4.863-5.881-9.729-8.813-14.592-3.003-4.973 1.746-22.734 2.222-28.8 0.346-4.269 49.089-14.38 55.686-16.248zm89.948 20.176c-12.404 0-12.412 19.24 0 19.24 12.405-1e-3 12.405-19.24 0-19.24-5.314 0 5.318 0 0 0z"
       display="inline"
       id="path8" /><g
       transform="translate(0 -952.36)"
       display="inline"
       id="g12"><path
         d="m199.55 1014.7c-2.47 0.233-4.564 2.543-4.554 5.024v20.103c-0.028 1.81 1.007 3.598 2.59 4.474 0.224 18.726 1.43 36.184-4.945 48.211-8.892 14.988-12.433 30.313-13.661 43.42-1.776 20.152-1.584 47.884-1.57 89.904 0.527 5.493 5.119 9.891 9.892 9.973h80.708c5.524-0.516 9.813-5.105 9.893-9.893-2e-3 -42.067-0.08-69.896-2.041-90.061-1.92-19.74-5.868-32.446-13.582-43.031-6.053-12.107-4.784-29.708-4.554-48.524 1.583-0.877 2.619-2.666 2.59-4.475v-20.102c0-2.631-2.393-5.025-5.025-5.025-19.403 0-39.11 0-55.741 2e-3zm8.087 30.151h40.039c-0.084 4.174-0.291 8.373-0.392 12.563h-39.254c-0.096-4.199-0.31-8.385-0.393-12.563zm0.314 22.613h39.333c0.202 10.549 1.468 20.759 6.045 29.915 8.427 13.904 11.354 27.592 12.563 39.417 1.871 19.24 1.959 46.985 1.96 88.885v0.077h-0.077-80.316c0.951-29.687-0.807-60.415 1.571-88.962 1.979-14.333 4.968-29.377 12.404-39.337 4.916-9.147 6.266-19.423 6.517-29.995z"
         stroke="#fff"
         stroke-miterlimit="10"
         stroke-width="2.8347"
         id="path10" /></g></g><g
     display="none"
     id="g32"><g
       display="inline"
       id="g30"><path
         d="m253.83 82.534c-2.288 0-4.143 1.855-4.143 4.143v61.138c0 0.339-8e-3 0.671-0.024 1.011h-8.263v-62.149c0-2.288-1.856-4.143-4.143-4.143s-4.143 1.855-4.143 4.143v62.149h-8.287v-62.149c0-2.288-1.856-4.143-4.143-4.143-2.288 0-4.144 1.855-4.144 4.143v62.149h-8.262c-0.017-0.34-0.025-0.671-0.025-1.011v-61.138c0-2.288-1.856-4.143-4.143-4.143-2.288 0-4.144 1.855-4.144 4.143v61.138c0 1.898 0.191 3.771 0.406 5.635v9e-3c0.903 7.68 3.58 15.039 7.748 21.279 5.502 8.263 8.419 17.883 8.419 27.811v66.434c0 6.853 5.577 12.429 12.43 12.429s12.429-5.576 12.429-12.429v-66.434c0-9.928 2.917-19.548 8.428-27.811 4.16-6.248 6.836-13.607 7.74-21.279 0.215-1.866 0.406-3.738 0.406-5.636v-61.146c1e-3 -2.287-1.855-4.143-4.142-4.143z"
         id="path16" /><path
         d="m256.56 147.82v-35.184c-0.431 0.226-0.974 0.465-1.746 0.983-0.924-1.558-0.781-2.536-3.706-2.712v36.905c0 0.363-8e-3 0.717-0.026 1.08l-0.065 1.348h-11.03v-31.125c-0.37 2.337-0.642 4.768-1.724 6.686-0.976 1.729-2.25 3.17-3.727 4.4v20.04h-11.122v-14.821c-1.793 0.476-3.625 0.868-5.452 1.202v13.619h-2.832c8.257 9.204 19.788 18.012 31.613 26.805 0.599-1.05 1.234-2.084 1.909-3.097 4.037-6.063 6.634-13.207 7.511-20.658 0.201-1.735 0.397-3.589 0.397-5.471z"
         id="path18" /><path
         d="m206.84 138.03l-0.395-0.079c0.126 0.251 0.263 0.502 0.395 0.752v-0.673z"
         id="path20" /><path
         d="m209.67 137.95v5.428c0.929 1.355 1.943 2.699 3.029 4.035h2.423v-10.302c-1.876 0.299-3.714 0.569-5.452 0.839z"
         id="path22" /><path
         d="M231.7,132.16c-1.682,0.973-3.518,1.766-5.452,2.415v12.833h5.452V132.16z"
         id="path24" /><path
         d="m438.19 150.37c-0.779-6.657-12.238-15.608-16.59-20.203-11.535-12.147-27.861-20.559-40.427-31.813-5.978-5.355-9.597-12.55-18.313-14.363-8.692-1.815-17.788-1.065-26.657-1.065-3.904 0-6.374 3.688-10.53 4.798-7.466 1.988-3.389-1.847-9.176-4.798-1.352-0.689-9.856-0.633-10.676 0.49-2.376 3.272-4.089 6.809-5.952 10.399-1.489-2.763-3.091-3.969-5.642-5.668-2.837-1.885-3.324 0.499-5.423 2.896-3.254 3.704-7.504 6.208-10.816 10.224-2.16-2.396-12.367-5.196-16.065-5.365-0.735-0.034-1.71 0.265-2.532 0.711v51.209c0 2.032-0.214 4.059-0.415 5.799-0.93 7.896-3.685 15.468-7.968 21.902-0.703 1.054-1.359 2.131-1.975 3.228 16.7 12.391 33.591 24.802 42.311 38.303 18 27.873 33.495 48.056 67.41 62.59 15.402 6.605 7.544-6.738 12.591-8.254 2.519-0.755 13.695-3.736 11.298-6.563-1.561-1.839-4.142-3.248-6.067-4.679-2.63-1.959-0.195-3.307 1.465-5.776 3.649-5.42 6.267-4.774 4.028-11.575-1.726-5.289-3.468-7.743-7.107-11.993 5.806 0 9.865 0.035 5.443-8.599-2.291-4.479 2.236-3.729 5.274-4.299 3.035-0.574-2.619-5.04-3.993-7.025-4.272-6.19-5.592-1.29-1.006-7.591 4.596-6.308 2.557-5.671-1.703-8.929-4.176-3.199-6.602-3.383-5.574-8.546 0.794-3.979 8.438-3.529 12.066-4.068 4.336-0.642 7.468-3.103 10.947-5.724 3.013-2.287 7.162-1.427 9.685 0.634 4.177 3.421 5.221 3.026 10.72 2.597 2.997-0.227 7.003-2.839 8.636-5.293 2.926-4.382 1.206-4.816-1.782-9.072 6.307 0.844 7.77 2.047 12.039-2.583 4.132-4.464 3.206-5.78 2.476-11.936zm-73.542-23.886c-5.382 0-9.742-4.36-9.742-9.739 0-5.383 4.36-9.746 9.742-9.746 5.38 0 9.734 4.363 9.734 9.746 3e-3 5.382-4.354 9.739-9.734 9.739z"
         id="path26" /><path
         d="m242.82 147.41h5.452v-36.475c-0.29 0.015-0.579 0.029-0.9 0.051-2.066 0.136-3.513 0.696-4.552 1.538v34.886z"
         id="path28" /></g></g><g
     display="none"
     id="g36"><path
       d="m412.71 278.19c-2.11-15.284-8.02-41.303-13.066-45.74-0.3-0.263-65.797-29.795-65.797-29.795 7.623-9.399 12.812-20.387 14.987-28.426 5.68-3.813 7.999-16.228 6.377-24.758l48.978-4.832c1.842-0.181 3.283-1.666 3.412-3.512 0.13-1.847-1.094-3.518-2.893-3.952l-48.121-11.678c-0.299-8.633-2.568-33.202-18.26-49.292-9.316-9.552-21.69-14.396-36.776-14.396-15.097 0-27.342 4.851-36.395 14.419-15.157 16.024-16.752 40.44-16.808 49.224l-53.043 11.706c-1.824 0.402-3.083 2.073-2.97 3.937 0.113 1.865 1.565 3.37 3.425 3.548l53.171 5.125c-1.339 9.207 1.663 21.243 6.547 24.53 1.522 5.666 5.56 18.105 13.899 28.951 0 0-66.613 28.881-66.944 29.205-4.691 4.568-10.724 33.363-13.103 45.528-0.216 1.113 0.078 2.264 0.796 3.141 0.721 0.877 1.796 1.382 2.93 1.382h215.89c1.098 0 2.141-0.475 2.862-1.302 0.72-0.828 1.047-1.925 0.899-3.013zm-51.681-24.658h9.692v23.216h-137.8v-23.216h10.603c1.188 0 2.15-0.965 2.15-2.15v-29.619l14.829-6.41v36.029c0 1.188 0.962 2.15 2.151 2.15h79.25c1.188 0 2.15-0.965 2.15-2.15v-36.071l14.828 6.382v29.689c-1e-3 1.188 0.959 2.15 2.147 2.15zm-83.451-45.636c7.206 6.442 15.288 9.713 24.092 9.713 8.11 0 16.279-3.567 23.853-10.356 0.177 0.113 4.998 2.233 4.998 2.233-1.611 9.104-9.791 16.06-19.635 16.06h-19.095c-10.12 0-17.952-6.449-19.28-15.381-6e-3 2e-3 4.899-2.161 5.067-2.269zm-15.158-37.097c-0.316-1.321-1.316-2.374-2.623-2.756-0.216-0.065-1.03-0.724-1.875-2.846-2.098-5.277-0.138-16.58 0.139-17.239 16.703 0.947 71.424 0.923 87.905-0.072 0.322 0.666 2.485 11.195 0.574 16.675-0.871 2.505-1.767 3.319-2.006 3.407-1.334 0.382-2.352 1.459-2.658 2.812-1.809 7.982-16.447 42.534-40.207 42.534-25.649-4e-3 -38.181-38.068-39.249-42.515zm-8.422 85.871c-4.032 0-7.311 3.281-7.311 7.313s3.279 7.313 7.311 7.313 7.311-3.281 7.311-7.313-3.279-7.313-7.311-7.313zm97.466 0c-4.03 0-7.309 3.281-7.309 7.313s3.278 7.313 7.309 7.313c4.032 0 7.312-3.281 7.312-7.313s-3.28-7.313-7.312-7.313z"
       display="inline"
       id="path34" /></g><g
     display="none"
     id="g40"><path
       d="m403.97 222.96c-3.972-3.973-63.995-19.358-66.341-21.509-1.185-1.384-1.917-8.54-1.644-15.505 44.261-44.708 45.203-74.4 38.129-91.478-8.953-21.615-38.236-35.89-72.352-35.89-35.289 0-62.656 14.833-71.971 37.317-7.034 16.981-6.377 46.231 36.355 89.386 0.684 7.407 0.298 15.097-0.854 16.561-2.477 2.321-63.296 17.445-66.965 21.114-5.583 5.581-8.893 40.587-10.055 55.382-0.084 1.072 0.283 2.131 1.011 2.922 0.73 0.789 1.757 1.238 2.833 1.238h219.21c1.088 0 2.129-0.46 2.861-1.269 0.73-0.807 1.085-1.888 0.98-2.971-1.452-14.711-5.456-49.56-11.195-55.298zm-51.892-9.073l0.086 16.102-26.709 18.286c-0.199 0.135-10.322 32.044-10.322 32.044l-10.785-18.01c0.158-0.144 30.645-53.997 30.645-53.997 3.494 1.389 9.77 3.373 17.085 5.575zm-50.316-15.502c-26.335 0-43.145-38.735-43.145-65.403 0-16.587 7.958-22.339 11.306-22.801 1.747 4.145 8.272 13.356 31.801 13.356 23.549 0 30.146-9.229 31.915-13.359 3.175 0.439 10.633 6.217 10.633 21.718 1e-3 26.469-16.955 66.489-42.51 66.489zm-27.622-9.642c7.434 8.459 16.751 14.01 27.625 14.01 10.267 0 19.19-5.416 26.429-13.675-0.023 5.629 0.513 13.017 3.148 16.814l-29.58 51.633-30.26-51.137c2.702-3.86 2.939-11.631 2.638-17.645zm-6.308 20.051l36.446 71.583h-7.396s-18.546-31.941-18.753-32.087l-25.777-18.105 0.601-16.518c6.341-1.89 11.71-3.601 14.879-4.873z"
       display="inline"
       id="path38" /></g><path
     transform="translate(122.5)"
     d="M 0 0 L 0 9.6816406 L 0 19.361328 L 2.9667969 19.361328 C 5.7184669 19.361328 6.0742444 19.477555 7.3964844 20.484375 C 8.1826744 21.103957 9.1844512 22.227138 9.6132812 22.962891 C 10.328001 24.240779 10.363281 24.743774 10.363281 35.199219 L 10.363281 46.082031 L 8.46875 48.210938 L 6.5761719 50.341797 L 3.2871094 50.341797 L 0 50.341797 L 0 175.80664 L 0 301.27148 L 3.109375 301.27148 C 6.575775 301.27148 7.5759075 301.73719 9.3984375 304.29297 L 10.363281 305.64844 L 10.363281 316.49023 C 10.363281 326.86823 10.328041 327.3725 9.6132812 328.65039 C 9.1844512 329.38614 8.1826744 330.50737 7.3964844 331.12695 C 6.0742444 332.13377 5.7184669 332.25 2.9667969 332.25 L 0 332.25 L 0 342.125 L 0 352 L 176 352 L 352 352 L 352 341.93164 L 352 331.86328 L 349.17773 331.86328 C 346.53326 331.86328 346.24585 331.78676 344.81641 330.625 C 342.02897 328.30157 341.99414 328.03089 341.99414 316.375 L 341.99414 306.07422 L 342.92383 304.48633 C 343.45988 303.6344 344.53023 302.47147 345.31641 301.89062 C 346.56717 301.0387 347.175 300.88477 349.39062 300.88477 L 352 300.88477 L 352 175.61328 L 352 50.341797 L 349.49805 50.341797 C 347.99713 50.341797 346.56787 50.108619 345.99609 49.798828 C 344.8883 49.179246 342.99426 47.049711 342.38672 45.810547 C 342.13659 45.268413 341.99414 41.472589 341.99414 34.541016 L 341.99414 24.125 L 343.06641 22.498047 C 344.74602 19.980995 345.99607 19.361328 349.24805 19.361328 L 352 19.361328 L 352 9.6816406 L 352 0 L 176 0 L 0 0 z M 43.169922 19.361328 C 48.994902 19.361328 49.030702 19.362658 50.388672 20.408203 C 51.139132 21.027785 52.175481 22.189091 52.675781 23.041016 L 53.603516 24.550781 L 53.603516 35.083984 L 53.603516 45.578125 L 52.53125 47.205078 C 50.56577 50.148092 49.958181 50.341797 43.025391 50.341797 C 37.164681 50.341797 36.915044 50.302762 35.771484 49.412109 C 35.128234 48.908699 34.198945 47.902107 33.734375 47.205078 L 32.876953 45.925781 L 32.876953 34.851562 L 32.876953 23.814453 L 34.021484 22.304688 C 36.129904 19.516569 36.630232 19.361328 43.169922 19.361328 z M 88.554688 19.361328 C 94.165247 19.361328 94.415246 19.400701 95.666016 20.330078 C 96.416466 20.833488 97.452241 21.99607 97.988281 22.886719 L 98.988281 24.511719 L 98.988281 35.044922 L 98.988281 45.578125 L 97.916016 47.205078 C 95.950536 50.148092 95.342946 50.341797 88.410156 50.341797 C 82.549446 50.341797 82.29981 50.302762 81.15625 49.412109 C 80.51301 48.908699 79.583711 47.902107 79.119141 47.205078 L 78.261719 45.925781 L 78.261719 34.851562 L 78.261719 23.814453 L 79.40625 22.304688 C 81.51467 19.516569 82.014998 19.361328 88.554688 19.361328 z M 132.15234 19.361328 C 136.61935 19.361328 138.2261 19.478673 138.97656 19.943359 C 139.54834 20.25315 140.58606 21.221018 141.30078 22.150391 L 142.58594 23.777344 L 142.58594 34.851562 L 142.58594 45.925781 L 141.72852 47.205078 C 141.26395 47.902107 140.33466 48.908699 139.69141 49.412109 C 138.54786 50.302758 138.29821 50.341797 132.4375 50.341797 C 125.50471 50.341797 124.89712 50.148092 122.93164 47.205078 L 121.85938 45.578125 L 121.85938 35.044922 L 121.85938 24.511719 L 122.86133 22.886719 C 123.39738 21.99607 124.39718 20.872212 125.07617 20.330078 C 126.29119 19.439429 126.57752 19.400052 132.15234 19.361328 z M 170.21094 19.361328 L 176.17773 19.361328 L 182.14648 19.361328 L 183.57617 20.484375 C 184.36236 21.103957 185.36219 22.227138 185.79102 22.962891 C 186.50574 24.240779 186.54297 24.744294 186.54297 34.8125 C 186.54297 46.623281 186.54175 46.58511 183.96875 48.947266 L 182.46875 50.341797 L 176.03516 50.341797 L 169.60352 50.341797 L 167.70898 48.210938 L 165.81445 46.082031 L 165.81445 35.162109 C 165.81445 22.770471 165.81436 22.808147 168.70898 20.523438 L 170.21094 19.361328 z M 214.52344 19.361328 L 220.49219 19.361328 L 226.45898 19.361328 L 227.88867 20.484375 C 228.67486 21.103957 229.67469 22.227138 230.10352 22.962891 C 230.81824 24.240779 230.85547 24.744294 230.85547 34.8125 C 230.85547 46.623281 230.85425 46.58511 228.28125 48.947266 L 226.78125 50.341797 L 220.34766 50.341797 L 213.91602 50.341797 L 212.02148 48.210938 L 210.12695 46.082031 L 210.12695 35.199219 C 210.12695 24.743774 210.16415 24.240779 210.87891 22.962891 C 211.30774 22.227138 212.30755 21.103957 213.09375 20.484375 L 214.52344 19.361328 z M 265.05469 19.361328 C 269.5217 19.361328 271.16556 19.517397 271.91602 19.943359 C 272.48779 20.25315 273.52356 21.221018 274.23828 22.150391 L 275.52539 23.777344 L 275.52539 34.851562 L 275.52539 45.925781 L 274.66797 47.205078 C 274.2034 47.902107 273.27411 48.908699 272.63086 49.412109 C 271.48731 50.302758 271.23571 50.341797 265.375 50.341797 C 258.44221 50.341797 257.83462 50.148092 255.86914 47.205078 L 254.79883 45.578125 L 254.79883 34.966797 L 254.79883 24.357422 L 255.69141 22.923828 C 256.19171 22.149351 257.19153 21.027785 257.90625 20.408203 C 259.19275 19.362658 259.22972 19.361328 265.05469 19.361328 z M 308.33008 19.361328 C 312.79709 19.361328 314.40579 19.478673 315.15625 19.943359 C 315.72802 20.25315 316.76381 21.221018 317.47852 22.150391 L 318.76562 23.777344 L 318.76562 34.851562 L 318.76562 45.925781 L 317.9082 47.205078 C 317.44362 47.902107 316.51431 48.908699 315.87109 49.412109 C 314.7275 50.302758 314.47791 50.341797 308.61719 50.341797 C 301.6844 50.341797 301.07681 50.148092 299.11133 47.205078 L 298.03906 45.578125 L 298.03906 35.083984 L 298.03906 24.550781 L 298.9668 23.041016 C 299.46711 22.189091 300.46887 21.026171 301.18359 20.445312 C 302.50582 19.399767 302.57658 19.400052 308.33008 19.361328 z M 71.546875 73.431641 C 86.972675 73.432569 105.25113 73.432569 123.24805 73.431641 C 125.68931 73.431641 127.91016 75.653411 127.91016 78.09375 L 127.91016 96.738281 C 127.93706 98.416188 126.97702 100.07522 125.50781 100.88867 C 125.29448 118.34112 124.11612 134.66684 129.73047 145.89648 C 136.88546 155.71441 140.54829 167.50106 142.33008 185.81055 C 144.14987 204.51425 144.22066 230.32523 144.22266 269.34375 C 144.14846 273.78477 140.17057 278.04092 135.04688 278.51953 L 60.1875 278.51953 C 55.76039 278.44347 51.500529 274.36446 51.011719 269.26953 C 50.998729 230.29461 50.82145 204.5725 52.46875 185.88086 C 53.60776 173.72369 56.891052 159.50928 65.138672 145.60742 C 71.051692 134.45198 69.932369 118.25961 69.724609 100.89062 C 68.256319 100.07811 67.298219 98.419068 67.324219 96.740234 L 67.324219 78.09375 C 67.314939 75.792542 69.255875 73.64971 71.546875 73.433594 L 71.546875 73.431641 z M 165.43359 86.566406 C 175.90499 86.678637 188.02901 91.018532 197.62109 93.015625 C 211.9088 95.98744 221.97436 94.384644 233.62695 104.82031 C 254.04566 123.1094 275.15017 140.57146 294.5625 159.97266 C 297.75878 167.94759 303.75929 177.89491 299.55664 186.80664 C 294.68523 197.13008 286.56167 190.80915 277.10547 188.25195 C 279.66268 195.0554 288.98145 192.6229 291.66016 197.55273 C 293.1201 200.23423 288.21786 210.42259 287.7207 213.6875 C 286.22181 223.65106 285.0287 233.69644 284.29688 243.76758 C 271.95421 234.96066 281.2059 211.64715 268.16016 201.92383 C 263.81003 198.67839 250.68955 199.0695 244.85352 198.25977 C 236.8452 197.1458 230.54166 197.03251 222.48047 197.70312 C 211.97431 198.57871 215.72651 207.37992 212.36328 213.18164 C 209.38683 218.30347 199.33063 225.83541 198.71289 231.47852 C 196.80403 248.97271 193.48754 262.03046 187.37695 278.56836 C 173.40275 264.0534 159.42518 249.53839 145.44727 235.02344 C 145.29144 213.91465 144.85252 198.26978 143.63281 185.73047 C 142.48545 173.93689 140.59167 164.92091 137.54102 157.36523 C 144.39177 142.0999 152.72753 129.50165 164.58789 116.49023 C 153.80439 111.09291 138.3865 108.39127 126.5957 114.25977 C 126.62075 112.07079 126.66148 109.85523 126.70508 107.61523 C 126.74307 105.64794 126.78169 103.65963 126.80859 101.6543 C 128.32417 100.519 129.2513 98.677323 129.2207 96.785156 L 129.2207 95.267578 C 138.17881 91.12058 147.632 89.752287 158.49805 87.246094 C 160.68708 86.741052 163.01712 86.540507 165.43359 86.566406 z M 79.048828 101.40039 C 79.125808 105.27562 79.323109 109.15998 79.412109 113.05469 L 115.82227 113.05469 C 115.91595 109.16833 116.10765 105.27191 116.18555 101.40039 L 79.048828 101.40039 z M 114.77539 104.67383 C 114.74289 105.66907 114.71293 106.66306 114.67773 107.66016 C 114.6276 109.04496 114.57896 110.4316 114.53906 111.81641 L 105.32227 111.81641 C 108.74393 109.07741 112.11708 106.60403 114.77539 104.67383 z M 221.125 121.29297 C 212.61859 121.29297 221.125 140.45508 221.125 140.45508 C 235.30326 140.45508 235.30326 121.29204 221.125 121.29297 z M 79.339844 122.375 C 79.107034 132.18087 77.853742 141.71313 73.294922 150.19727 C 66.397792 159.4355 63.626596 173.38927 61.791016 186.68359 C 59.585336 213.16186 61.216074 241.66356 60.333984 269.19922 L 134.82812 269.19922 L 134.90039 269.19922 L 134.90039 269.12695 C 134.89947 230.26333 134.81744 204.52932 133.08203 186.68359 C 131.96064 175.71552 129.246 163.01946 121.42969 150.12305 C 117.18437 141.63056 116.00963 132.15954 115.82227 122.375 L 79.339844 122.375 z M 92.8125 123.68945 L 112.25 123.68945 C 102.6185 130.14508 91.358102 136.98659 89.763672 133.25977 C 88.626522 130.61073 90.0568 127.24654 92.8125 123.68945 z M 129.92578 175.0918 C 130.90433 179.51984 131.43211 183.51962 131.77344 186.86523 C 132.72601 196.6507 133.17832 208.69565 133.39258 224.18359 C 123.79633 217.33469 113.1662 213.28496 101.41992 207.88672 C 114.30892 198.73105 123.24106 188.54473 129.92578 175.0918 z M 43.169922 301.27148 C 48.923432 301.27148 49.458384 301.34817 50.458984 302.08398 C 51.030764 302.54866 51.996589 303.6344 52.568359 304.48633 L 53.603516 306.03516 L 53.603516 316.5293 L 53.603516 327.0625 L 52.675781 328.65039 C 52.139741 329.50232 51.06744 330.66328 50.28125 331.24414 C 48.8518 332.21224 48.671681 332.25 43.025391 332.25 L 37.273438 332.25 L 35.84375 331.12695 C 32.80619 328.76479 32.876953 329.07591 32.876953 316.76172 C 32.876953 306.30628 32.912193 305.76421 33.626953 304.48633 C 34.055783 303.7893 34.949343 302.74364 35.664062 302.24023 C 36.914832 301.31086 37.166272 301.27148 43.169922 301.27148 z M 88.554688 301.27148 C 94.308198 301.27148 94.84314 301.34817 95.84375 302.08398 C 96.41552 302.54866 97.381355 303.6344 97.953125 304.48633 L 98.988281 306.03516 L 98.988281 316.5293 L 98.988281 327.0625 L 98.060547 328.65039 C 97.524507 329.50232 96.452206 330.66328 95.666016 331.24414 C 94.236566 332.21224 94.056456 332.25 88.410156 332.25 L 82.658203 332.25 L 81.228516 331.12695 C 78.190946 328.76479 78.261719 329.07591 78.261719 316.76172 C 78.261719 306.30628 78.296959 305.76421 79.011719 304.48633 C 79.440549 303.7893 80.334108 302.74364 81.048828 302.24023 C 82.299588 301.31086 82.551037 301.27148 88.554688 301.27148 z M 125.96875 301.27148 L 132.22266 301.27148 C 138.29778 301.27148 138.51233 301.31083 139.79883 302.24023 C 140.51355 302.74364 141.40711 303.7893 141.83594 304.48633 C 142.55066 305.76421 142.58594 306.30628 142.58594 316.76172 C 142.58594 329.07591 142.65868 328.76479 139.62109 331.12695 L 138.19141 332.25 L 132.4375 332.25 C 126.79121 332.25 126.61303 332.21226 125.18359 331.24414 C 124.39739 330.66328 123.3251 329.50232 122.78906 328.65039 L 121.85938 327.0625 L 121.85938 316.64453 C 121.85938 304.94992 121.85907 304.91192 124.64648 302.43359 L 125.96875 301.27148 z M 176.17773 301.27148 L 182.46875 301.27148 L 183.96875 302.66602 C 186.54175 305.02818 186.54297 304.99 186.54297 316.80078 L 186.54297 327.37109 L 185.61328 328.80469 C 185.11297 329.61789 184.07721 330.702 183.29102 331.24414 C 181.96879 332.21224 181.75314 332.25 176.14258 332.25 C 169.56715 332.25 168.81704 331.98012 166.85156 329.03711 L 165.81445 327.48828 L 165.81445 316.56836 L 165.81445 305.68555 L 166.67383 304.4082 C 167.1384 303.71117 168.06574 302.70458 168.70898 302.20117 C 169.85254 301.31052 170.06686 301.27148 176.17773 301.27148 z M 220.5625 301.27148 L 226.92383 301.27148 L 228.38867 302.70508 C 230.85446 305.14468 230.85547 305.06744 230.85547 316.80078 C 230.85547 326.86898 230.81828 327.3725 230.10352 328.65039 C 229.67469 329.38614 228.67486 330.50737 227.88867 331.12695 L 226.45898 332.25 L 220.5625 332.25 C 213.87986 332.25 213.12954 332.01885 211.16406 329.03711 L 210.12695 327.48828 L 210.12695 316.68359 L 210.12695 305.8418 L 211.09375 304.4082 C 213.09497 301.38774 213.45102 301.27148 220.5625 301.27148 z M 258.87109 301.27148 L 265.16211 301.27148 C 271.27297 301.27148 271.48731 301.31049 272.63086 302.20117 C 273.27411 302.70458 274.2034 303.71117 274.66797 304.4082 L 275.52539 305.68555 L 275.52539 316.5293 C 275.52539 328.84349 275.52548 328.80514 272.63086 331.08984 L 271.12891 332.25 L 265.375 332.25 C 259.76444 332.25 259.55133 332.21226 258.19336 331.24414 C 257.40717 330.702 256.33487 329.57883 255.79883 328.76562 L 254.79883 327.29492 L 254.79883 316.76172 C 254.79883 304.98967 254.7981 305.02818 257.37109 302.66602 L 258.87109 301.27148 z M 302.14844 301.27148 L 308.40234 301.27148 C 314.47747 301.27148 314.69201 301.31083 315.97852 302.24023 C 316.69322 302.74364 317.58682 303.7893 318.01562 304.48633 C 318.73037 305.76421 318.76562 306.305 318.76562 316.83789 L 318.76562 327.83594 L 317.47852 329.46289 C 315.40585 332.09611 314.90513 332.25 308.47266 332.25 C 302.96931 332.25 302.79077 332.21226 301.36133 331.24414 C 300.57513 330.66328 299.50284 329.50232 298.9668 328.65039 L 298.03906 327.0625 L 298.03906 316.64453 C 298.03906 304.94992 298.03876 304.91192 300.82617 302.43359 L 302.14844 301.27148 z "
     style="fill:#ffffff;fill-opacity:1;stroke:none;stroke-width:0.0372"
     id="path1357" /></svg>
