<?xml version="1.0" encoding="UTF-8" standalone="no"?>
<svg
   xmlns:dc="http://purl.org/dc/elements/1.1/"
   xmlns:cc="http://creativecommons.org/ns#"
   xmlns:rdf="http://www.w3.org/1999/02/22-rdf-syntax-ns#"
   xmlns:svg="http://www.w3.org/2000/svg"
   xmlns="http://www.w3.org/2000/svg"
   xmlns:sodipodi="http://sodipodi.sourceforge.net/DTD/sodipodi-0.dtd"
   xmlns:inkscape="http://www.inkscape.org/namespaces/inkscape"
   width="352px"
   height="352px"
   enable-background="new 122.5 0 352 352"
   version="1.1"
   viewBox="122.5 0 352 352"
   xml:space="preserve"
   id="svg66"
   sodipodi:docname="dairy-cows.svg"
   inkscape:version="1.0 (4035a4fb49, 2020-05-01)"><defs
     id="defs70" /><sodipodi:namedview
     pagecolor="#ffffff"
     bordercolor="#666666"
     borderopacity="1"
     objecttolerance="10"
     gridtolerance="10"
     guidetolerance="10"
     inkscape:pageopacity="0"
     inkscape:pageshadow="2"
     inkscape:window-width="1920"
     inkscape:window-height="1049"
     id="namedview68"
     showgrid="false"
     inkscape:zoom="1.8963318"
     inkscape:cx="230.31729"
     inkscape:cy="187.21838"
     inkscape:window-x="1920"
     inkscape:window-y="31"
     inkscape:window-maximized="0"
     inkscape:current-layer="svg66"
     inkscape:document-rotation="0"
     inkscape:pagecheckerboard="true" /><metadata
     id="metadata2"><rdf:RDF><cc:Work
         rdf:about=""><dc:format>image/svg+xml</dc:format><dc:type
           rdf:resource="http://purl.org/dc/dcmitype/StillImage" /><dc:title /></cc:Work></rdf:RDF></metadata><path
     transform="translate(122.5)"
     d="M 0.40039062 -0.078125 L 0.40039062 9.6035156 L 0.40039062 19.283203 L 3.3671875 19.283203 C 6.1188575 19.283203 6.474635 19.39943 7.796875 20.40625 C 8.583065 21.025832 9.5848419 22.149013 10.013672 22.884766 C 10.728392 24.162654 10.763672 24.667602 10.763672 35.123047 L 10.763672 46.003906 L 8.8691406 48.132812 L 6.9765625 50.263672 L 3.6875 50.263672 L 0.40039062 50.263672 L 0.40039062 175.72852 L 0.40039062 301.19336 L 3.5097656 301.19336 C 6.9761656 301.19336 7.9762881 301.65906 9.7988281 304.21484 L 10.763672 305.57031 L 10.763672 316.41211 C 10.763672 326.79011 10.728432 327.29438 10.013672 328.57227 C 9.5848419 329.30802 8.583065 330.4312 7.796875 331.05078 C 6.474635 332.0576 6.1188575 332.17383 3.3671875 332.17383 L 0.40039062 332.17383 L 0.40039062 342.04688 L 0.40039062 351.92188 L 176.40039 351.92188 L 352.40039 351.92188 L 352.40039 341.85352 L 352.40039 331.78516 L 349.57812 331.78516 C 346.93365 331.78516 346.64624 331.70864 345.2168 330.54688 C 342.42936 328.22345 342.39453 327.95277 342.39453 316.29688 L 342.39453 305.99609 L 343.32422 304.4082 C 343.86028 303.55627 344.93062 302.39335 345.7168 301.8125 C 346.96756 300.96057 347.57539 300.80664 349.79102 300.80664 L 352.40039 300.80664 L 352.40039 175.53516 L 352.40039 50.263672 L 349.89844 50.263672 C 348.39752 50.263672 346.96826 50.030494 346.39648 49.720703 C 345.28869 49.101121 343.39465 46.971586 342.78711 45.732422 C 342.53698 45.190288 342.39453 41.394464 342.39453 34.462891 L 342.39453 24.046875 L 343.4668 22.419922 C 345.14641 19.90287 346.39646 19.283203 349.64844 19.283203 L 352.40039 19.283203 L 352.40039 9.6035156 L 352.40039 -0.078125 L 176.40039 -0.078125 L 0.40039062 -0.078125 z M 43.570312 19.283203 C 49.395293 19.283203 49.431093 19.284533 50.789062 20.330078 C 51.539523 20.94966 52.575872 22.110966 53.076172 22.962891 L 54.003906 24.472656 L 54.003906 35.005859 L 54.003906 45.5 L 52.931641 47.126953 C 50.966161 50.069967 50.358571 50.263672 43.425781 50.263672 C 37.565071 50.263672 37.315435 50.224637 36.171875 49.333984 C 35.528625 48.830574 34.599336 47.823982 34.134766 47.126953 L 33.277344 45.847656 L 33.277344 34.773438 L 33.277344 23.736328 L 34.421875 22.226562 C 36.530305 19.438444 37.030623 19.283203 43.570312 19.283203 z M 88.955078 19.283203 C 94.565638 19.283203 94.815636 19.322576 96.066406 20.251953 C 96.816856 20.755363 97.852632 21.917945 98.388672 22.808594 L 99.388672 24.433594 L 99.388672 34.966797 L 99.388672 45.5 L 98.316406 47.126953 C 96.350926 50.069967 95.743337 50.263672 88.810547 50.263672 C 82.949837 50.263672 82.700201 50.224637 81.556641 49.333984 C 80.913401 48.830574 79.984101 47.823982 79.519531 47.126953 L 78.662109 45.847656 L 78.662109 34.773438 L 78.662109 23.736328 L 79.806641 22.226562 C 81.915061 19.438444 82.415388 19.283203 88.955078 19.283203 z M 132.55273 19.283203 C 137.01974 19.283203 138.62649 19.400548 139.37695 19.865234 C 139.94872 20.175025 140.98645 21.142893 141.70117 22.072266 L 142.98633 23.699219 L 142.98633 34.773438 L 142.98633 45.847656 L 142.12891 47.126953 C 141.66434 47.823982 140.73505 48.830574 140.0918 49.333984 C 138.94825 50.224633 138.6986 50.263672 132.83789 50.263672 C 125.9051 50.263672 125.29751 50.069967 123.33203 47.126953 L 122.25977 45.5 L 122.25977 34.966797 L 122.25977 24.433594 L 123.26172 22.808594 C 123.79776 21.917945 124.79757 20.794087 125.47656 20.251953 C 126.69158 19.361304 126.97791 19.321927 132.55273 19.283203 z M 170.61133 19.283203 L 176.57812 19.283203 L 182.54688 19.283203 L 183.97656 20.40625 C 184.76275 21.025832 185.76258 22.149013 186.19141 22.884766 C 186.90613 24.162654 186.94336 24.666169 186.94336 34.734375 C 186.94336 46.545156 186.94214 46.506985 184.36914 48.869141 L 182.86914 50.263672 L 176.43555 50.263672 L 170.00391 50.263672 L 168.10938 48.132812 L 166.21484 46.003906 L 166.21484 35.083984 C 166.21484 22.692346 166.21476 22.730021 169.10938 20.445312 L 170.61133 19.283203 z M 214.92383 19.283203 L 220.89258 19.283203 L 226.85938 19.283203 L 228.28906 20.40625 C 229.07525 21.025832 230.07508 22.149013 230.50391 22.884766 C 231.21863 24.162654 231.25586 24.666169 231.25586 34.734375 C 231.25586 46.545156 231.25464 46.506985 228.68164 48.869141 L 227.18164 50.263672 L 220.74805 50.263672 L 214.31641 50.263672 L 212.42188 48.132812 L 210.52734 46.003906 L 210.52734 35.123047 C 210.52734 24.667602 210.56454 24.162654 211.2793 22.884766 C 211.70813 22.149013 212.70794 21.025832 213.49414 20.40625 L 214.92383 19.283203 z M 265.45508 19.283203 C 269.92208 19.283203 271.56595 19.439272 272.31641 19.865234 C 272.88818 20.175025 273.92395 21.142893 274.63867 22.072266 L 275.92578 23.699219 L 275.92578 34.773438 L 275.92578 45.847656 L 275.06836 47.126953 C 274.6038 47.823982 273.6745 48.830574 273.03125 49.333984 C 271.88769 50.224633 271.6361 50.263672 265.77539 50.263672 C 258.8426 50.263672 258.23501 50.069967 256.26953 47.126953 L 255.19922 45.5 L 255.19922 34.890625 L 255.19922 24.279297 L 256.0918 22.845703 C 256.5921 22.071226 257.59192 20.94966 258.30664 20.330078 C 259.59314 19.284533 259.6301 19.283203 265.45508 19.283203 z M 308.73047 19.283203 C 313.19748 19.283203 314.80618 19.400548 315.55664 19.865234 C 316.12841 20.175025 317.16421 21.142893 317.87891 22.072266 L 319.16602 23.699219 L 319.16602 34.773438 L 319.16602 45.847656 L 318.30859 47.126953 C 317.84401 47.823982 316.9147 48.830574 316.27148 49.333984 C 315.12789 50.224633 314.8783 50.263672 309.01758 50.263672 C 302.08479 50.263672 301.47721 50.069967 299.51172 47.126953 L 298.43945 45.5 L 298.43945 35.005859 L 298.43945 24.472656 L 299.36719 22.962891 C 299.8675 22.110966 300.86926 20.949999 301.58398 20.369141 C 302.90622 19.323596 302.97697 19.321927 308.73047 19.283203 z M 193.0293 69.236328 C 200.67833 69.116612 213.62814 79.340699 220.5918 80.480469 C 233.76045 82.638967 246.92996 84.794603 260.09766 86.951172 C 268.52475 88.329409 282.39951 80.704929 290.625 78.199219 C 279.458 102.02179 256.19375 103.32742 233.20117 107.71289 C 237.11999 109.26088 245.88152 110.7566 248.35742 114.16602 C 253.16138 120.77847 257.97241 127.39435 262.77734 134.00391 C 271.41084 145.88819 281.19517 157.47517 288.66992 170.14453 C 294.53567 180.08443 311.36495 199.0908 294.39844 208.28516 C 286.95057 212.3186 283.38908 217.08033 276.09961 212.58008 C 268.50487 207.89562 266.69728 207.93639 259.10156 203.25 C 266.19422 210.54337 267.50973 213.11384 274.59375 220.40625 C 261.02956 223.73755 255.32958 222.01842 241.69531 218.18945 C 229.14203 214.66332 220.04624 222.36608 208.38867 227.88867 C 199.89053 231.91247 195.76103 241.57811 190.50586 249.21484 C 185.76429 256.1176 181.02876 263.02644 176.34961 269.96875 C 174.56397 272.62106 168.21484 279.21763 168.21484 282.63477 C 168.21484 279.93713 162.1859 273.23711 160.78906 270.96094 C 157.03633 264.86834 153.31487 258.75736 149.59766 252.64258 C 149.52566 222.83929 149.18742 202.2193 147.65234 186.36523 C 145.76589 166.87411 141.93029 154.66965 134.42578 144.2832 C 131.58891 138.52624 130.50556 131.28725 130.14844 123.27148 C 139.58643 121.00496 147.98038 119.14075 150.41211 118.44922 C 148.98744 111.56672 140.33825 93.201591 145.06445 89.572266 C 153.93892 82.750523 166.21852 93.120431 175.78516 97.431641 C 177.43256 91.358332 179.07635 85.2862 180.73047 79.212891 C 182.69948 71.943632 183.59259 72.402717 190.83789 69.626953 C 191.50318 69.371698 192.23802 69.248708 193.0293 69.236328 z M 73.039062 69.644531 L 126.55078 69.644531 C 129.07757 69.644531 131.375 71.952696 131.375 74.490234 L 131.375 93.878906 C 131.40284 95.623644 130.40839 97.349467 128.88867 98.195312 C 128.66787 116.3429 127.4507 133.31722 133.26172 144.99414 C 140.66735 155.20313 144.45754 167.45929 146.30078 186.49805 C 148.18336 205.94672 148.25777 232.78673 148.25977 273.35938 C 148.18297 277.97729 144.0649 282.40272 138.76172 282.90039 L 61.279297 282.90039 C 56.697097 282.82131 52.289133 278.57912 51.783203 273.28125 C 51.769763 232.75394 51.586006 206.0084 53.291016 186.57227 C 54.469926 173.93087 57.86971 159.14893 66.40625 144.69336 C 72.52641 133.0936 71.367394 116.2561 71.152344 98.195312 C 69.632624 97.350432 68.639116 95.626562 68.666016 93.880859 L 68.666016 74.492188 C 68.656416 72.09932 70.667802 69.871207 73.039062 69.646484 L 73.039062 69.644531 z M 80.802734 98.726562 C 80.882424 102.75615 81.087488 106.79391 81.179688 110.84375 L 118.86523 110.84375 C 118.96219 106.80259 119.15963 102.75229 119.24023 98.726562 L 80.802734 98.726562 z M 81.103516 120.53516 C 80.862556 130.7316 79.567136 140.64277 74.847656 149.46484 C 67.708916 159.07103 64.839343 173.58045 62.939453 187.4043 C 60.656513 214.93721 62.344631 244.57461 61.431641 273.20703 L 138.53711 273.20703 L 138.60938 273.20703 L 138.60938 273.13281 C 138.60842 232.72125 138.52473 205.96082 136.72852 187.4043 C 135.56785 175.99936 132.75809 162.79876 124.66797 149.38867 C 120.27394 140.55793 119.05915 130.70942 118.86523 120.53516 L 81.103516 120.53516 z M 117.74023 126.35547 C 118.21736 133.71925 119.56118 142.16442 123.45312 149.98633 L 123.50781 150.08398 C 132.19699 164.48652 134.44284 178.35418 135.37695 187.52539 C 136.47522 198.87439 136.93197 213.13619 137.12109 232.03125 C 125.81873 213.35416 114.54725 194.66308 103.28711 175.95898 C 100.46656 171.26873 97.640962 166.57598 94.826172 161.88477 C 91.943222 157.08842 96.502014 139.95697 96.958984 134.10742 C 97.107794 132.25273 106.68267 129.25469 117.74023 126.35547 z M 236.76367 137.9082 C 224.85553 137.9082 224.84785 156.46484 236.76367 156.46484 C 248.67277 156.46291 248.67277 137.9082 236.76367 137.9082 z M 43.570312 301.19336 C 49.323823 301.19336 49.858765 301.272 50.859375 302.00781 C 51.431155 302.47249 52.39697 303.55627 52.96875 304.4082 L 54.003906 305.95703 L 54.003906 316.45117 L 54.003906 326.98438 L 53.076172 328.57227 C 52.540132 329.4242 51.467831 330.58516 50.681641 331.16602 C 49.252191 332.13412 49.072071 332.17383 43.425781 332.17383 L 37.673828 332.17383 L 36.244141 331.05078 C 33.206581 328.68862 33.277344 328.99778 33.277344 316.68359 C 33.277344 306.22815 33.312584 305.68608 34.027344 304.4082 C 34.456174 303.71117 35.349733 302.66552 36.064453 302.16211 C 37.315223 301.23274 37.566663 301.19336 43.570312 301.19336 z M 88.955078 301.19336 C 94.708588 301.19336 95.243541 301.272 96.244141 302.00781 C 96.815921 302.47249 97.781746 303.55627 98.353516 304.4082 L 99.388672 305.95703 L 99.388672 316.45117 L 99.388672 326.98438 L 98.460938 328.57227 C 97.924897 329.4242 96.852596 330.58516 96.066406 331.16602 C 94.636956 332.13412 94.456847 332.17383 88.810547 332.17383 L 83.058594 332.17383 L 81.628906 331.05078 C 78.591336 328.68862 78.662109 328.99778 78.662109 316.68359 C 78.662109 306.22815 78.697349 305.68608 79.412109 304.4082 C 79.840939 303.71117 80.734499 302.66552 81.449219 302.16211 C 82.699989 301.23274 82.951428 301.19336 88.955078 301.19336 z M 126.36914 301.19336 L 132.62305 301.19336 C 138.69817 301.19336 138.91272 301.23271 140.19922 302.16211 C 140.91394 302.66552 141.8075 303.71117 142.23633 304.4082 C 142.95105 305.68608 142.98633 306.22815 142.98633 316.68359 C 142.98633 328.99778 143.05908 328.68862 140.02148 331.05078 L 138.5918 332.17383 L 132.83789 332.17383 C 127.1916 332.17383 127.01342 332.13414 125.58398 331.16602 C 124.79778 330.58516 123.72549 329.4242 123.18945 328.57227 L 122.25977 326.98438 L 122.25977 316.56641 C 122.25977 304.8718 122.25946 304.8338 125.04688 302.35547 L 126.36914 301.19336 z M 176.57812 301.19336 L 182.86914 301.19336 L 184.36914 302.58789 C 186.94214 304.95005 186.94336 304.91188 186.94336 316.72266 L 186.94336 327.29297 L 186.01367 328.72656 C 185.51336 329.53976 184.4776 330.62388 183.69141 331.16602 C 182.36917 332.13412 182.15353 332.17383 176.54297 332.17383 C 169.96754 332.17383 169.21743 331.90199 167.25195 328.95898 L 166.21484 327.41016 L 166.21484 316.49023 L 166.21484 305.60742 L 167.07422 304.33008 C 167.53879 303.63305 168.46614 302.62646 169.10938 302.12305 C 170.25293 301.2324 170.46726 301.19336 176.57812 301.19336 z M 220.96289 301.19336 L 227.32422 301.19336 L 228.78906 302.62695 C 231.25485 305.06655 231.25586 304.98932 231.25586 316.72266 C 231.25586 326.79086 231.21867 327.29438 230.50391 328.57227 C 230.07508 329.30802 229.07525 330.4312 228.28906 331.05078 L 226.85938 332.17383 L 220.96289 332.17383 C 214.28025 332.17383 213.52993 331.94072 211.56445 328.95898 L 210.52734 327.41016 L 210.52734 316.60547 L 210.52734 305.76367 L 211.49414 304.33008 C 213.49536 301.30962 213.85141 301.19336 220.96289 301.19336 z M 259.27148 301.19336 L 265.5625 301.19336 C 271.67337 301.19336 271.88769 301.23237 273.03125 302.12305 C 273.6745 302.62646 274.6038 303.63305 275.06836 304.33008 L 275.92578 305.60742 L 275.92578 316.45117 C 275.92578 328.76536 275.92587 328.72702 273.03125 331.01172 L 271.5293 332.17383 L 265.77539 332.17383 C 260.16483 332.17383 259.95172 332.13414 258.59375 331.16602 C 257.80755 330.62388 256.73526 329.5007 256.19922 328.6875 L 255.19922 327.2168 L 255.19922 316.68359 C 255.19922 304.91154 255.19848 304.95005 257.77148 302.58789 L 259.27148 301.19336 z M 302.54883 301.19336 L 308.80273 301.19336 C 314.87786 301.19336 315.09239 301.23271 316.37891 302.16211 C 317.09361 302.66552 317.9872 303.71117 318.41602 304.4082 C 319.13076 305.68608 319.16602 306.22883 319.16602 316.76172 L 319.16602 327.75781 L 317.87891 329.38477 C 315.80625 332.01799 315.30552 332.17383 308.87305 332.17383 C 303.3697 332.17383 303.19116 332.13414 301.76172 331.16602 C 300.97552 330.58516 299.90323 329.4242 299.36719 328.57227 L 298.43945 326.98438 L 298.43945 316.56641 C 298.43945 304.8718 298.43915 304.8338 301.22656 302.35547 L 302.54883 301.19336 z "
     style="fill:#ffffff;fill-opacity:1;stroke:none;stroke-width:0.0372"
     id="path1357" /><g
     display="none"
     id="g6"><rect
       x="109"
       y="-15"
       width="420"
       height="384.5"
       display="inline"
       fill="#D81350"
       id="rect4" /></g><g
     display="none"
     id="g38"><g
       display="inline"
       id="g36"><path
         d="m253.83 82.534c-2.288 0-4.143 1.855-4.143 4.143v61.138c0 0.339-8e-3 0.671-0.024 1.011h-8.263v-62.149c0-2.288-1.856-4.143-4.143-4.143s-4.143 1.855-4.143 4.143v62.149h-8.287v-62.149c0-2.288-1.856-4.143-4.143-4.143-2.288 0-4.144 1.855-4.144 4.143v62.149h-8.262c-0.017-0.34-0.025-0.671-0.025-1.011v-61.138c0-2.288-1.856-4.143-4.143-4.143-2.288 0-4.144 1.855-4.144 4.143v61.138c0 1.898 0.191 3.771 0.406 5.635v9e-3c0.903 7.68 3.58 15.039 7.748 21.279 5.502 8.263 8.419 17.883 8.419 27.811v66.434c0 6.853 5.577 12.429 12.43 12.429s12.429-5.576 12.429-12.429v-66.434c0-9.928 2.917-19.548 8.428-27.811 4.16-6.248 6.836-13.607 7.74-21.279 0.215-1.866 0.406-3.738 0.406-5.636v-61.146c1e-3 -2.287-1.855-4.143-4.142-4.143z"
         id="path22" /><path
         d="m256.56 147.82v-35.184c-0.431 0.226-0.974 0.465-1.746 0.983-0.924-1.558-0.781-2.536-3.706-2.712v36.905c0 0.363-8e-3 0.717-0.026 1.08l-0.065 1.348h-11.03v-31.125c-0.37 2.337-0.642 4.768-1.724 6.686-0.976 1.729-2.25 3.17-3.727 4.4v20.04h-11.122v-14.821c-1.793 0.476-3.625 0.868-5.452 1.202v13.619h-2.832c8.257 9.204 19.788 18.012 31.613 26.805 0.599-1.05 1.234-2.084 1.909-3.097 4.037-6.063 6.634-13.207 7.511-20.658 0.201-1.735 0.397-3.589 0.397-5.471z"
         id="path24" /><path
         d="m206.84 138.03l-0.395-0.079c0.126 0.251 0.263 0.502 0.395 0.752v-0.673z"
         id="path26" /><path
         d="m209.67 137.95v5.428c0.929 1.355 1.943 2.699 3.029 4.035h2.423v-10.302c-1.876 0.299-3.714 0.569-5.452 0.839z"
         id="path28" /><path
         d="M231.7,132.16c-1.682,0.973-3.518,1.766-5.452,2.415v12.833h5.452V132.16z"
         id="path30" /><path
         d="m438.19 150.37c-0.779-6.657-12.238-15.608-16.59-20.203-11.535-12.147-27.861-20.559-40.427-31.813-5.978-5.355-9.597-12.55-18.313-14.363-8.692-1.815-17.788-1.065-26.657-1.065-3.904 0-6.374 3.688-10.53 4.798-7.466 1.988-3.389-1.847-9.176-4.798-1.352-0.689-9.856-0.633-10.676 0.49-2.376 3.272-4.089 6.809-5.952 10.399-1.489-2.763-3.091-3.969-5.642-5.668-2.837-1.885-3.324 0.499-5.423 2.896-3.254 3.704-7.504 6.208-10.816 10.224-2.16-2.396-12.367-5.196-16.065-5.365-0.735-0.034-1.71 0.265-2.532 0.711v51.209c0 2.032-0.214 4.059-0.415 5.799-0.93 7.896-3.685 15.468-7.968 21.902-0.703 1.054-1.359 2.131-1.975 3.228 16.7 12.391 33.591 24.802 42.311 38.303 18 27.873 33.495 48.056 67.41 62.59 15.402 6.605 7.544-6.738 12.591-8.254 2.519-0.755 13.695-3.736 11.298-6.563-1.561-1.839-4.142-3.248-6.067-4.679-2.63-1.959-0.195-3.307 1.465-5.776 3.649-5.42 6.267-4.774 4.028-11.575-1.726-5.289-3.468-7.743-7.107-11.993 5.806 0 9.865 0.035 5.443-8.599-2.291-4.479 2.236-3.729 5.274-4.299 3.035-0.574-2.619-5.04-3.993-7.025-4.272-6.19-5.592-1.29-1.006-7.591 4.596-6.308 2.557-5.671-1.703-8.929-4.176-3.199-6.602-3.383-5.574-8.546 0.794-3.979 8.438-3.529 12.066-4.068 4.336-0.642 7.468-3.103 10.947-5.724 3.013-2.287 7.162-1.427 9.685 0.634 4.177 3.421 5.221 3.026 10.72 2.597 2.997-0.227 7.003-2.839 8.636-5.293 2.926-4.382 1.206-4.816-1.782-9.072 6.307 0.844 7.77 2.047 12.039-2.583 4.132-4.464 3.206-5.78 2.476-11.936zm-73.542-23.886c-5.382 0-9.742-4.36-9.742-9.739 0-5.383 4.36-9.746 9.742-9.746 5.38 0 9.734 4.363 9.734 9.746 3e-3 5.382-4.354 9.739-9.734 9.739z"
         id="path32" /><path
         d="m242.82 147.41h5.452v-36.475c-0.29 0.015-0.579 0.029-0.9 0.051-2.066 0.136-3.513 0.696-4.552 1.538v34.886z"
         id="path34" /></g></g><g
     display="none"
     id="g42"><path
       d="m412.71 278.19c-2.11-15.284-8.02-41.303-13.066-45.74-0.3-0.263-65.797-29.795-65.797-29.795 7.623-9.399 12.812-20.387 14.987-28.426 5.68-3.813 7.999-16.228 6.377-24.758l48.978-4.832c1.842-0.181 3.283-1.666 3.412-3.512 0.13-1.847-1.094-3.518-2.893-3.952l-48.121-11.678c-0.299-8.633-2.568-33.202-18.26-49.292-9.316-9.552-21.69-14.396-36.776-14.396-15.097 0-27.342 4.851-36.395 14.419-15.157 16.024-16.752 40.44-16.808 49.224l-53.043 11.706c-1.824 0.402-3.083 2.073-2.97 3.937 0.113 1.865 1.565 3.37 3.425 3.548l53.171 5.125c-1.339 9.207 1.663 21.243 6.547 24.53 1.522 5.666 5.56 18.105 13.899 28.951 0 0-66.613 28.881-66.944 29.205-4.691 4.568-10.724 33.363-13.103 45.528-0.216 1.113 0.078 2.264 0.796 3.141 0.721 0.877 1.796 1.382 2.93 1.382h215.89c1.098 0 2.141-0.475 2.862-1.302 0.72-0.828 1.047-1.925 0.899-3.013zm-51.681-24.658h9.692v23.216h-137.8v-23.216h10.603c1.188 0 2.15-0.965 2.15-2.15v-29.619l14.829-6.41v36.029c0 1.188 0.962 2.15 2.151 2.15h79.25c1.188 0 2.15-0.965 2.15-2.15v-36.071l14.828 6.382v29.689c-1e-3 1.188 0.959 2.15 2.147 2.15zm-83.451-45.636c7.206 6.442 15.288 9.713 24.092 9.713 8.11 0 16.279-3.567 23.853-10.356 0.177 0.113 4.998 2.233 4.998 2.233-1.611 9.104-9.791 16.06-19.635 16.06h-19.095c-10.12 0-17.952-6.449-19.28-15.381-6e-3 2e-3 4.899-2.161 5.067-2.269zm-15.158-37.097c-0.316-1.321-1.316-2.374-2.623-2.756-0.216-0.065-1.03-0.724-1.875-2.846-2.098-5.277-0.138-16.58 0.139-17.239 16.703 0.947 71.424 0.923 87.905-0.072 0.322 0.666 2.485 11.195 0.574 16.675-0.871 2.505-1.767 3.319-2.006 3.407-1.334 0.382-2.352 1.459-2.658 2.812-1.809 7.982-16.447 42.534-40.207 42.534-25.649-4e-3 -38.181-38.068-39.249-42.515zm-8.422 85.871c-4.032 0-7.311 3.281-7.311 7.313s3.279 7.313 7.311 7.313 7.311-3.281 7.311-7.313-3.279-7.313-7.311-7.313zm97.466 0c-4.03 0-7.309 3.281-7.309 7.313s3.278 7.313 7.309 7.313c4.032 0 7.312-3.281 7.312-7.313s-3.28-7.313-7.312-7.313z"
       display="inline"
       id="path40" /></g><g
     display="none"
     id="g46"><path
       d="m403.97 222.96c-3.972-3.973-63.995-19.358-66.341-21.509-1.185-1.384-1.917-8.54-1.644-15.505 44.261-44.708 45.203-74.4 38.129-91.478-8.953-21.615-38.236-35.89-72.352-35.89-35.289 0-62.656 14.833-71.971 37.317-7.034 16.981-6.377 46.231 36.355 89.386 0.684 7.407 0.298 15.097-0.854 16.561-2.477 2.321-63.296 17.445-66.965 21.114-5.583 5.581-8.893 40.587-10.055 55.382-0.084 1.072 0.283 2.131 1.011 2.922 0.73 0.789 1.757 1.238 2.833 1.238h219.21c1.088 0 2.129-0.46 2.861-1.269 0.73-0.807 1.085-1.888 0.98-2.971-1.452-14.711-5.456-49.56-11.195-55.298zm-51.892-9.073l0.086 16.102-26.709 18.286c-0.199 0.135-10.322 32.044-10.322 32.044l-10.785-18.01c0.158-0.144 30.645-53.997 30.645-53.997 3.494 1.389 9.77 3.373 17.085 5.575zm-50.316-15.502c-26.335 0-43.145-38.735-43.145-65.403 0-16.587 7.958-22.339 11.306-22.801 1.747 4.145 8.272 13.356 31.801 13.356 23.549 0 30.146-9.229 31.915-13.359 3.175 0.439 10.633 6.217 10.633 21.718 1e-3 26.469-16.955 66.489-42.51 66.489zm-27.622-9.642c7.434 8.459 16.751 14.01 27.625 14.01 10.267 0 19.19-5.416 26.429-13.675-0.023 5.629 0.513 13.017 3.148 16.814l-29.58 51.633-30.26-51.137c2.702-3.86 2.939-11.631 2.638-17.645zm-6.308 20.051l36.446 71.583h-7.396s-18.546-31.941-18.753-32.087l-25.777-18.105 0.601-16.518c6.341-1.89 11.71-3.601 14.879-4.873z"
       display="inline"
       id="path44" /></g><g
     display="none"
     id="g64"><g
       transform="translate(0 -952.36)"
       display="inline"
       id="g62"><path
         d="m200.7 1014.8c-2.47 0.233-4.564 2.543-4.554 5.024v20.103c-0.028 1.81 1.007 3.598 2.59 4.474 0.224 18.726 1.43 36.184-4.945 48.211-8.892 14.988-12.433 30.313-13.661 43.42-1.776 20.152-1.584 47.884-1.57 89.904 0.527 5.493 5.119 9.891 9.892 9.973h80.708c5.524-0.516 9.813-5.105 9.893-9.893-2e-3 -42.067-0.079-69.896-2.041-90.061-1.921-19.74-5.868-32.446-13.582-43.031-6.053-12.107-4.784-29.708-4.554-48.524 1.584-0.877 2.619-2.666 2.59-4.475v-20.102c0-2.631-2.393-5.025-5.025-5.025-19.403 1e-3 -39.11 1e-3 -55.741 2e-3zm8.087 30.152h40.039c-0.084 4.174-0.291 8.373-0.392 12.563h-39.254c-0.096-4.199-0.31-8.385-0.393-12.563zm0.314 22.613h39.333c0.202 10.549 1.468 20.759 6.045 29.915 8.427 13.904 11.354 27.592 12.563 39.417 1.871 19.24 1.959 46.985 1.96 88.885v0.077h-0.077-80.315c0.951-29.687-0.807-60.415 1.571-88.962 1.979-14.333 4.968-29.377 12.404-39.337 4.915-9.147 6.265-19.423 6.516-29.995z"
         id="path48" /><path
         d="m263.64 1124.4c-7.207 14.504-16.837 25.487-30.733 35.358 12.664 5.82 24.125 10.186 34.471 17.57-0.231-16.698-0.719-29.685-1.746-40.235-0.368-3.607-0.937-7.919-1.992-12.693z"
         id="path50" /><path
         d="m250.2 1046.3c-0.046 1.806-0.101 3.614-0.166 5.425-0.069 1.943-0.139 3.888-0.186 5.831l-0.033 1.383h-16.143c-2.758 2.344-5.402 4.793-7.628 7.215h22.72c3.429-2.349 6.417-4.433 8.434-5.736 0.02-2.909 0.078-5.872 0.136-8.865 0.046-2.361 0.093-4.752 0.123-7.163l0.01-0.823 0.721-0.399c1.133-0.627 1.88-1.918 1.859-3.212v-0.252c-2.698 1.44-5.362 3.139-8.012 5.221-0.463 0.363-1.095 0.832-1.835 1.375z"
         id="path52" /><path
         d="m220.34 1079.3c1.719 4.018 13.858-3.358 24.242-10.318h-20.955c-2.971 3.835-4.513 7.462-3.287 10.318z"
         id="path54" /><path
         d="m247.2 1051.7c0.038-1.075 0.07-2.147 0.105-3.22-2.866 2.081-6.503 4.748-10.192 7.701h9.937c0.043-1.493 0.096-2.988 0.15-4.481z"
         id="path56" /><path
         d="m441.14 1108.1c-20.929-20.917-43.684-39.743-65.698-59.461-12.563-11.251-23.415-9.524-38.819-12.728-12.728-2.65-29.591-9.125-42.178-6.221-11.715 2.702-21.908 4.177-31.566 8.648v1.638c0.033 2.04-0.966 4.024-2.6 5.248-0.029 2.162-0.071 4.307-0.112 6.428-0.047 2.415-0.091 4.804-0.118 7.164 12.712-6.327 29.335-3.415 40.961 2.404-12.787 14.028-21.774 27.61-29.16 44.068 3.289 8.146 5.331 17.866 6.568 30.581 1.315 13.519 1.787 30.387 1.955 53.145 15.07 15.649 30.141 31.297 45.207 46.946 6.588-17.83 10.162-31.908 12.22-50.769 0.666-6.084 11.508-14.203 14.717-19.725 3.626-6.255-0.419-15.744 10.908-16.688 8.691-0.723 15.487-0.602 24.121 0.599 6.292 0.873 20.438 0.453 25.128 3.952 14.065 10.483 4.09 35.618 17.397 45.113 0.789-10.858 2.076-21.688 3.692-32.43 0.536-3.52 5.822-14.505 4.248-17.396-2.888-5.315-12.936-2.692-15.693-10.027 10.195 2.757 18.954 9.571 24.206-1.559 4.531-9.608-1.938-20.332-5.384-28.93zm-79.175-21.044s-9.171-20.658 0-20.658c15.286-1e-3 15.286 20.658 0 20.658z"
         id="path58" /><path
         d="m270.23 1109c-0.795 1.878-1.579 3.783-2.341 5.743-0.743 1.908-1.523 3.744-2.326 5.542 1.638 6.292 2.422 11.947 2.889 16.508 1.08 11.101 1.567 24.838 1.788 42.662 2.493 1.964 4.919 4.135 7.279 6.581-0.187-21.17-0.67-37.078-1.918-49.902-1.077-11.068-2.765-19.785-5.371-27.134z"
         id="path60" /></g></g></svg>
