<?xml version="1.0" encoding="UTF-8" standalone="no"?>
<svg
   xmlns:dc="http://purl.org/dc/elements/1.1/"
   xmlns:cc="http://creativecommons.org/ns#"
   xmlns:rdf="http://www.w3.org/1999/02/22-rdf-syntax-ns#"
   xmlns:svg="http://www.w3.org/2000/svg"
   xmlns="http://www.w3.org/2000/svg"
   xmlns:sodipodi="http://sodipodi.sourceforge.net/DTD/sodipodi-0.dtd"
   xmlns:inkscape="http://www.inkscape.org/namespaces/inkscape"
   width="352px"
   height="352px"
   enable-background="new 122.5 0 352 352"
   version="1.1"
   viewBox="122.5 0 352 352"
   xml:space="preserve"
   id="svg66"
   sodipodi:docname="dairy-cows.svg"
   inkscape:version="0.92.2 2405546, 2018-03-11"><defs
     id="defs70" /><sodipodi:namedview
     pagecolor="#ffffff"
     bordercolor="#666666"
     borderopacity="1"
     objecttolerance="10"
     gridtolerance="10"
     guidetolerance="10"
     inkscape:pageopacity="0"
     inkscape:pageshadow="2"
     inkscape:window-width="1680"
     inkscape:window-height="1050"
     id="namedview68"
     showgrid="false"
     inkscape:zoom="0.67045455"
     inkscape:cx="-80.542373"
     inkscape:cy="176"
     inkscape:window-x="1366"
     inkscape:window-y="0"
     inkscape:window-maximized="0"
     inkscape:current-layer="svg66" /><metadata
     id="metadata2"><rdf:RDF><cc:Work
         rdf:about=""><dc:format>image/svg+xml</dc:format><dc:type
           rdf:resource="http://purl.org/dc/dcmitype/StillImage" /></cc:Work></rdf:RDF></metadata><g
     display="none"
     id="g6"><rect
       x="109"
       y="-15"
       width="420"
       height="384.5"
       display="inline"
       fill="#D81350"
       id="rect4" /></g><g
     transform="matrix(1.3517 0 0 1.3517 -117.29 -57.362)"
     fill="#4b4869"
     id="g20"
     style="fill:#ffffff;fill-opacity:1"><g
       transform="translate(0 -952.36)"
       fill="#4b4869"
       id="g18"
       style="fill:#ffffff;fill-opacity:1"><g
         fill="#4b4869"
         id="g16"
         style="fill:#ffffff;fill-opacity:1"><path
           d="m199.55 1014.7c-2.47 0.233-4.564 2.543-4.554 5.024v20.103c-0.028 1.81 1.007 3.598 2.59 4.474 0.224 18.726 1.43 36.184-4.945 48.211-8.892 14.988-12.433 30.313-13.661 43.42-1.776 20.152-1.584 47.884-1.57 89.904 0.527 5.493 5.119 9.891 9.892 9.973h80.708c5.524-0.516 9.813-5.105 9.893-9.893-2e-3 -42.067-0.08-69.896-2.041-90.061-1.92-19.74-5.868-32.446-13.582-43.031-6.053-12.107-4.784-29.708-4.554-48.524 1.583-0.877 2.619-2.666 2.59-4.475v-20.102c0-2.631-2.393-5.025-5.025-5.025h-55.741zm8.087 30.151h40.039c-0.084 4.174-0.291 8.373-0.392 12.563h-39.254c-0.096-4.199-0.31-8.385-0.393-12.563zm0.314 22.613h39.333c0.202 10.549 1.468 20.759 6.045 29.915 8.427 13.904 11.354 27.592 12.563 39.417 1.871 19.24 1.959 46.985 1.96 88.885v0.077h-0.077-80.316c0.951-29.687-0.807-60.415 1.571-88.962 1.979-14.333 4.968-29.377 12.404-39.337 4.916-9.147 6.266-19.423 6.517-29.995z"
           id="path8"
           style="fill:#ffffff;fill-opacity:1" /><path
           d="m424.16 1118.9c-7.786-13.136-17.977-25.149-26.97-37.471-5.005-6.853-10.017-13.713-15.021-20.569-2.579-3.535-11.705-5.086-15.787-6.691 23.95-4.547 48.183-5.901 59.815-30.601-8.568 2.598-23.021 10.504-31.799 9.075-13.716-2.236-27.433-4.472-41.15-6.71-8.004-1.304-23.602-14.075-30.994-11.252-7.547 2.878-8.477 2.401-10.528 9.938-1.723 6.297-3.434 12.592-5.15 18.889-9.965-4.47-22.757-15.222-32.001-8.149-4.923 3.763 4.087 22.806 5.571 29.942-2.533 0.717-11.276 2.649-21.107 4.999 0.372 8.311 1.5 15.818 4.455 21.787 7.817 10.769 11.811 23.422 13.776 43.631 1.599 16.438 1.952 37.817 2.027 68.718 3.872 6.34 7.749 12.676 11.658 18.993 1.455 2.36 7.735 9.307 7.735 12.104 0-3.543 6.614-10.383 8.474-13.133 4.874-7.198 9.806-14.361 14.745-21.518 5.474-7.918 9.775-17.939 18.627-22.111 12.143-5.726 21.617-13.713 34.693-10.057 14.202 3.97 20.14 5.752 34.269 2.298-7.379-7.561-8.749-10.226-16.137-17.788 7.912 4.859 9.794 4.817 17.705 9.674 7.593 4.666 11.304-0.271 19.062-4.453 17.673-9.533 0.142-29.239-5.968-39.545zm-54.067-14.183c-12.412 0-12.404-19.24 0-19.24 12.405 0 12.405 19.238 0 19.24z"
           id="path10"
           style="fill:#ffffff;fill-opacity:1" /><path
           d="m252.12 1098.1-0.056-0.101c-4.054-8.11-5.453-16.865-5.95-24.5-11.518 3.006-21.492 6.114-21.647 8.037-0.476 6.065-5.225 23.827-2.222 28.8 2.932 4.864 5.875 9.729 8.813 14.592 11.729 19.393 23.47 38.774 35.243 58.139-0.197-19.591-0.672-34.38-1.816-46.147-0.973-9.509-3.314-23.887-12.365-38.82z"
           id="path12"
           style="fill:#ffffff;fill-opacity:1" /><path
           d="m261.14 1093.6-0.122-0.201c-3.142-6.285-4.363-14-4.778-22.483-2.428 0.588-4.891 1.197-7.317 1.814 0.609 9.851 2.4 17.376 5.654 23.905 9.322 15.404 11.73 30.18 12.731 39.958 1.246 12.808 1.704 29.115 1.872 51.164 1.085 1.783 2.166 3.569 3.251 5.353 1.342 2.2 2.685 4.398 4.026 6.599-0.101-28.315-0.493-48.286-2-63.774-1.919-19.725-5.777-31.99-13.317-42.335z"
           id="path14"
           style="fill:#ffffff;fill-opacity:1" /></g></g></g><g
     display="none"
     id="g38"><g
       display="inline"
       id="g36"><path
         d="m253.83 82.534c-2.288 0-4.143 1.855-4.143 4.143v61.138c0 0.339-8e-3 0.671-0.024 1.011h-8.263v-62.149c0-2.288-1.856-4.143-4.143-4.143s-4.143 1.855-4.143 4.143v62.149h-8.287v-62.149c0-2.288-1.856-4.143-4.143-4.143-2.288 0-4.144 1.855-4.144 4.143v62.149h-8.262c-0.017-0.34-0.025-0.671-0.025-1.011v-61.138c0-2.288-1.856-4.143-4.143-4.143-2.288 0-4.144 1.855-4.144 4.143v61.138c0 1.898 0.191 3.771 0.406 5.635v9e-3c0.903 7.68 3.58 15.039 7.748 21.279 5.502 8.263 8.419 17.883 8.419 27.811v66.434c0 6.853 5.577 12.429 12.43 12.429s12.429-5.576 12.429-12.429v-66.434c0-9.928 2.917-19.548 8.428-27.811 4.16-6.248 6.836-13.607 7.74-21.279 0.215-1.866 0.406-3.738 0.406-5.636v-61.146c1e-3 -2.287-1.855-4.143-4.142-4.143z"
         id="path22" /><path
         d="m256.56 147.82v-35.184c-0.431 0.226-0.974 0.465-1.746 0.983-0.924-1.558-0.781-2.536-3.706-2.712v36.905c0 0.363-8e-3 0.717-0.026 1.08l-0.065 1.348h-11.03v-31.125c-0.37 2.337-0.642 4.768-1.724 6.686-0.976 1.729-2.25 3.17-3.727 4.4v20.04h-11.122v-14.821c-1.793 0.476-3.625 0.868-5.452 1.202v13.619h-2.832c8.257 9.204 19.788 18.012 31.613 26.805 0.599-1.05 1.234-2.084 1.909-3.097 4.037-6.063 6.634-13.207 7.511-20.658 0.201-1.735 0.397-3.589 0.397-5.471z"
         id="path24" /><path
         d="m206.84 138.03l-0.395-0.079c0.126 0.251 0.263 0.502 0.395 0.752v-0.673z"
         id="path26" /><path
         d="m209.67 137.95v5.428c0.929 1.355 1.943 2.699 3.029 4.035h2.423v-10.302c-1.876 0.299-3.714 0.569-5.452 0.839z"
         id="path28" /><path
         d="M231.7,132.16c-1.682,0.973-3.518,1.766-5.452,2.415v12.833h5.452V132.16z"
         id="path30" /><path
         d="m438.19 150.37c-0.779-6.657-12.238-15.608-16.59-20.203-11.535-12.147-27.861-20.559-40.427-31.813-5.978-5.355-9.597-12.55-18.313-14.363-8.692-1.815-17.788-1.065-26.657-1.065-3.904 0-6.374 3.688-10.53 4.798-7.466 1.988-3.389-1.847-9.176-4.798-1.352-0.689-9.856-0.633-10.676 0.49-2.376 3.272-4.089 6.809-5.952 10.399-1.489-2.763-3.091-3.969-5.642-5.668-2.837-1.885-3.324 0.499-5.423 2.896-3.254 3.704-7.504 6.208-10.816 10.224-2.16-2.396-12.367-5.196-16.065-5.365-0.735-0.034-1.71 0.265-2.532 0.711v51.209c0 2.032-0.214 4.059-0.415 5.799-0.93 7.896-3.685 15.468-7.968 21.902-0.703 1.054-1.359 2.131-1.975 3.228 16.7 12.391 33.591 24.802 42.311 38.303 18 27.873 33.495 48.056 67.41 62.59 15.402 6.605 7.544-6.738 12.591-8.254 2.519-0.755 13.695-3.736 11.298-6.563-1.561-1.839-4.142-3.248-6.067-4.679-2.63-1.959-0.195-3.307 1.465-5.776 3.649-5.42 6.267-4.774 4.028-11.575-1.726-5.289-3.468-7.743-7.107-11.993 5.806 0 9.865 0.035 5.443-8.599-2.291-4.479 2.236-3.729 5.274-4.299 3.035-0.574-2.619-5.04-3.993-7.025-4.272-6.19-5.592-1.29-1.006-7.591 4.596-6.308 2.557-5.671-1.703-8.929-4.176-3.199-6.602-3.383-5.574-8.546 0.794-3.979 8.438-3.529 12.066-4.068 4.336-0.642 7.468-3.103 10.947-5.724 3.013-2.287 7.162-1.427 9.685 0.634 4.177 3.421 5.221 3.026 10.72 2.597 2.997-0.227 7.003-2.839 8.636-5.293 2.926-4.382 1.206-4.816-1.782-9.072 6.307 0.844 7.77 2.047 12.039-2.583 4.132-4.464 3.206-5.78 2.476-11.936zm-73.542-23.886c-5.382 0-9.742-4.36-9.742-9.739 0-5.383 4.36-9.746 9.742-9.746 5.38 0 9.734 4.363 9.734 9.746 3e-3 5.382-4.354 9.739-9.734 9.739z"
         id="path32" /><path
         d="m242.82 147.41h5.452v-36.475c-0.29 0.015-0.579 0.029-0.9 0.051-2.066 0.136-3.513 0.696-4.552 1.538v34.886z"
         id="path34" /></g></g><g
     display="none"
     id="g42"><path
       d="m412.71 278.19c-2.11-15.284-8.02-41.303-13.066-45.74-0.3-0.263-65.797-29.795-65.797-29.795 7.623-9.399 12.812-20.387 14.987-28.426 5.68-3.813 7.999-16.228 6.377-24.758l48.978-4.832c1.842-0.181 3.283-1.666 3.412-3.512 0.13-1.847-1.094-3.518-2.893-3.952l-48.121-11.678c-0.299-8.633-2.568-33.202-18.26-49.292-9.316-9.552-21.69-14.396-36.776-14.396-15.097 0-27.342 4.851-36.395 14.419-15.157 16.024-16.752 40.44-16.808 49.224l-53.043 11.706c-1.824 0.402-3.083 2.073-2.97 3.937 0.113 1.865 1.565 3.37 3.425 3.548l53.171 5.125c-1.339 9.207 1.663 21.243 6.547 24.53 1.522 5.666 5.56 18.105 13.899 28.951 0 0-66.613 28.881-66.944 29.205-4.691 4.568-10.724 33.363-13.103 45.528-0.216 1.113 0.078 2.264 0.796 3.141 0.721 0.877 1.796 1.382 2.93 1.382h215.89c1.098 0 2.141-0.475 2.862-1.302 0.72-0.828 1.047-1.925 0.899-3.013zm-51.681-24.658h9.692v23.216h-137.8v-23.216h10.603c1.188 0 2.15-0.965 2.15-2.15v-29.619l14.829-6.41v36.029c0 1.188 0.962 2.15 2.151 2.15h79.25c1.188 0 2.15-0.965 2.15-2.15v-36.071l14.828 6.382v29.689c-1e-3 1.188 0.959 2.15 2.147 2.15zm-83.451-45.636c7.206 6.442 15.288 9.713 24.092 9.713 8.11 0 16.279-3.567 23.853-10.356 0.177 0.113 4.998 2.233 4.998 2.233-1.611 9.104-9.791 16.06-19.635 16.06h-19.095c-10.12 0-17.952-6.449-19.28-15.381-6e-3 2e-3 4.899-2.161 5.067-2.269zm-15.158-37.097c-0.316-1.321-1.316-2.374-2.623-2.756-0.216-0.065-1.03-0.724-1.875-2.846-2.098-5.277-0.138-16.58 0.139-17.239 16.703 0.947 71.424 0.923 87.905-0.072 0.322 0.666 2.485 11.195 0.574 16.675-0.871 2.505-1.767 3.319-2.006 3.407-1.334 0.382-2.352 1.459-2.658 2.812-1.809 7.982-16.447 42.534-40.207 42.534-25.649-4e-3 -38.181-38.068-39.249-42.515zm-8.422 85.871c-4.032 0-7.311 3.281-7.311 7.313s3.279 7.313 7.311 7.313 7.311-3.281 7.311-7.313-3.279-7.313-7.311-7.313zm97.466 0c-4.03 0-7.309 3.281-7.309 7.313s3.278 7.313 7.309 7.313c4.032 0 7.312-3.281 7.312-7.313s-3.28-7.313-7.312-7.313z"
       display="inline"
       id="path40" /></g><g
     display="none"
     id="g46"><path
       d="m403.97 222.96c-3.972-3.973-63.995-19.358-66.341-21.509-1.185-1.384-1.917-8.54-1.644-15.505 44.261-44.708 45.203-74.4 38.129-91.478-8.953-21.615-38.236-35.89-72.352-35.89-35.289 0-62.656 14.833-71.971 37.317-7.034 16.981-6.377 46.231 36.355 89.386 0.684 7.407 0.298 15.097-0.854 16.561-2.477 2.321-63.296 17.445-66.965 21.114-5.583 5.581-8.893 40.587-10.055 55.382-0.084 1.072 0.283 2.131 1.011 2.922 0.73 0.789 1.757 1.238 2.833 1.238h219.21c1.088 0 2.129-0.46 2.861-1.269 0.73-0.807 1.085-1.888 0.98-2.971-1.452-14.711-5.456-49.56-11.195-55.298zm-51.892-9.073l0.086 16.102-26.709 18.286c-0.199 0.135-10.322 32.044-10.322 32.044l-10.785-18.01c0.158-0.144 30.645-53.997 30.645-53.997 3.494 1.389 9.77 3.373 17.085 5.575zm-50.316-15.502c-26.335 0-43.145-38.735-43.145-65.403 0-16.587 7.958-22.339 11.306-22.801 1.747 4.145 8.272 13.356 31.801 13.356 23.549 0 30.146-9.229 31.915-13.359 3.175 0.439 10.633 6.217 10.633 21.718 1e-3 26.469-16.955 66.489-42.51 66.489zm-27.622-9.642c7.434 8.459 16.751 14.01 27.625 14.01 10.267 0 19.19-5.416 26.429-13.675-0.023 5.629 0.513 13.017 3.148 16.814l-29.58 51.633-30.26-51.137c2.702-3.86 2.939-11.631 2.638-17.645zm-6.308 20.051l36.446 71.583h-7.396s-18.546-31.941-18.753-32.087l-25.777-18.105 0.601-16.518c6.341-1.89 11.71-3.601 14.879-4.873z"
       display="inline"
       id="path44" /></g><g
     display="none"
     id="g64"><g
       transform="translate(0 -952.36)"
       display="inline"
       id="g62"><path
         d="m200.7 1014.8c-2.47 0.233-4.564 2.543-4.554 5.024v20.103c-0.028 1.81 1.007 3.598 2.59 4.474 0.224 18.726 1.43 36.184-4.945 48.211-8.892 14.988-12.433 30.313-13.661 43.42-1.776 20.152-1.584 47.884-1.57 89.904 0.527 5.493 5.119 9.891 9.892 9.973h80.708c5.524-0.516 9.813-5.105 9.893-9.893-2e-3 -42.067-0.079-69.896-2.041-90.061-1.921-19.74-5.868-32.446-13.582-43.031-6.053-12.107-4.784-29.708-4.554-48.524 1.584-0.877 2.619-2.666 2.59-4.475v-20.102c0-2.631-2.393-5.025-5.025-5.025-19.403 1e-3 -39.11 1e-3 -55.741 2e-3zm8.087 30.152h40.039c-0.084 4.174-0.291 8.373-0.392 12.563h-39.254c-0.096-4.199-0.31-8.385-0.393-12.563zm0.314 22.613h39.333c0.202 10.549 1.468 20.759 6.045 29.915 8.427 13.904 11.354 27.592 12.563 39.417 1.871 19.24 1.959 46.985 1.96 88.885v0.077h-0.077-80.315c0.951-29.687-0.807-60.415 1.571-88.962 1.979-14.333 4.968-29.377 12.404-39.337 4.915-9.147 6.265-19.423 6.516-29.995z"
         id="path48" /><path
         d="m263.64 1124.4c-7.207 14.504-16.837 25.487-30.733 35.358 12.664 5.82 24.125 10.186 34.471 17.57-0.231-16.698-0.719-29.685-1.746-40.235-0.368-3.607-0.937-7.919-1.992-12.693z"
         id="path50" /><path
         d="m250.2 1046.3c-0.046 1.806-0.101 3.614-0.166 5.425-0.069 1.943-0.139 3.888-0.186 5.831l-0.033 1.383h-16.143c-2.758 2.344-5.402 4.793-7.628 7.215h22.72c3.429-2.349 6.417-4.433 8.434-5.736 0.02-2.909 0.078-5.872 0.136-8.865 0.046-2.361 0.093-4.752 0.123-7.163l0.01-0.823 0.721-0.399c1.133-0.627 1.88-1.918 1.859-3.212v-0.252c-2.698 1.44-5.362 3.139-8.012 5.221-0.463 0.363-1.095 0.832-1.835 1.375z"
         id="path52" /><path
         d="m220.34 1079.3c1.719 4.018 13.858-3.358 24.242-10.318h-20.955c-2.971 3.835-4.513 7.462-3.287 10.318z"
         id="path54" /><path
         d="m247.2 1051.7c0.038-1.075 0.07-2.147 0.105-3.22-2.866 2.081-6.503 4.748-10.192 7.701h9.937c0.043-1.493 0.096-2.988 0.15-4.481z"
         id="path56" /><path
         d="m441.14 1108.1c-20.929-20.917-43.684-39.743-65.698-59.461-12.563-11.251-23.415-9.524-38.819-12.728-12.728-2.65-29.591-9.125-42.178-6.221-11.715 2.702-21.908 4.177-31.566 8.648v1.638c0.033 2.04-0.966 4.024-2.6 5.248-0.029 2.162-0.071 4.307-0.112 6.428-0.047 2.415-0.091 4.804-0.118 7.164 12.712-6.327 29.335-3.415 40.961 2.404-12.787 14.028-21.774 27.61-29.16 44.068 3.289 8.146 5.331 17.866 6.568 30.581 1.315 13.519 1.787 30.387 1.955 53.145 15.07 15.649 30.141 31.297 45.207 46.946 6.588-17.83 10.162-31.908 12.22-50.769 0.666-6.084 11.508-14.203 14.717-19.725 3.626-6.255-0.419-15.744 10.908-16.688 8.691-0.723 15.487-0.602 24.121 0.599 6.292 0.873 20.438 0.453 25.128 3.952 14.065 10.483 4.09 35.618 17.397 45.113 0.789-10.858 2.076-21.688 3.692-32.43 0.536-3.52 5.822-14.505 4.248-17.396-2.888-5.315-12.936-2.692-15.693-10.027 10.195 2.757 18.954 9.571 24.206-1.559 4.531-9.608-1.938-20.332-5.384-28.93zm-79.175-21.044s-9.171-20.658 0-20.658c15.286-1e-3 15.286 20.658 0 20.658z"
         id="path58" /><path
         d="m270.23 1109c-0.795 1.878-1.579 3.783-2.341 5.743-0.743 1.908-1.523 3.744-2.326 5.542 1.638 6.292 2.422 11.947 2.889 16.508 1.08 11.101 1.567 24.838 1.788 42.662 2.493 1.964 4.919 4.135 7.279 6.581-0.187-21.17-0.67-37.078-1.918-49.902-1.077-11.068-2.765-19.785-5.371-27.134z"
         id="path60" /></g></g></svg>