<svg id="Calque_1" data-name="Calque 1" xmlns="http://www.w3.org/2000/svg" viewBox="0 0 257.963 112.472">
  <defs>
    <style>
      .cls-1 {
        fill: #315aa6;
      }
    </style>
  </defs>
  <title>6c9d128f-9d32-452a-b768-f7db1929437b</title>
  <g>
    <path class="cls-1" d="M80.49.124c1.8,0,3.606,0,5.412.01,0,6.485.005,12.971,0,19.461.774,0,1.548.01,2.327.02V22.7h3.849c.01-.355.031-1.063.041-1.419,1.068,0,2.136,0,3.2,0V0h3.1V13.672q4.906,0,9.8,0,0-4.187,0-8.374c.413-.005,1.249-.01,1.667-.015q.007,4.194,0,8.389c1.249,0,2.492,0,3.741.01v7.6q1.478,0,2.966,0V8.77h10.963V21.54h2.322q.007-9.225,0-18.444h2.064q0,9.224,0,18.444c.81,0,1.625,0,2.445,0,0-5.722,0-11.438,0-17.16h2.7c0-.861,0-1.718.01-2.575q2.7-.007,5.412,0V15.57c.309.016.934.037,1.249.052.351.279.7.562,1.052.846a30.637,30.637,0,0,0,.295,5.283c.464-.624.929-1.248,1.393-1.868,0-2.048.016-4.092.016-6.139,2.445-.17,4.886-.475,7.347-.516a43.432,43.432,0,0,1,.247-6.811c1.373,2.028.625,4.582.774,6.867q3.429,0,6.852-.005c-.01-3.008,0-6.011,0-9.019.6,0,1.2-.01,1.795-.02q.016,4.527.011,9.044,1.872,0,3.745,0c.006,1.93-.1,3.87.016,5.8a1.958,1.958,0,0,0,.893,1.579c.108-1.517.129-3.034.135-4.551h6.547c0-.449.025-1.357.031-1.806h3.967c.011.454.026,1.357.031,1.806.682,0,1.362,0,2.048,0V5.422c.815,0,1.631,0,2.451-.005.016,2.317-.016,4.628-.02,6.944-.042,2.734.685,5.413.588,8.152q2.94-.007,5.882,0V11.092q1.478,0,2.972,0c.263,3.282-.635,6.749.557,9.9.454-4.664.1-9.353.217-14.028H200.7V20.121c3.353,0,6.707,0,10.065,0q-.007-5.023,0-10.051c2.739-.02,5.479-.046,8.219.1.061,3.312.036,6.63.031,9.947q3.034.007,6.067,0c0-2.229,0-4.452-.011-6.681.609-.016,1.213-.036,1.821-.052,0-2.229,0-4.452,0-6.681h3.74V20.343c1.5.14,3.008.248,4.515.356q0-5.9,0-11.8h2.574V23.732q3.545,0,7.095.005,0,4.055-.006,8.116,6.579.015,13.161,0v2.884c-4.514-.021-9.033-.15-13.543.051,4.5.351,9.029.057,13.543.207v2.915c-4.514.113-9.028-.175-13.538-.046,1.73.175,3.468.237,5.207.284.046,1.383.077,2.766.1,4.153h4.746q0,4.658,0,9.312c-1.259.062-2.518.124-3.766.3,2.409.237,4.833.186,7.253.2v5.293q-3.1-.007-6.185-.1c-.01-.965-.01-1.924-.016-2.884q-4.9.007-9.792,0v-9.8h-6.062v9.8q-4.9.007-9.8,0-.009,2.964-.011,5.938h9.808v9.8q3.026.009,6.062.006v-9.8h9.8c0-.9,0-1.791.01-2.683.9.037,1.8.067,2.7.1V69.134c-1.589,0-3.172,0-4.756,0-.011,1.718-.037,3.441-.088,5.164-1.75.063-3.5.119-5.232.351,4.519.011,9.04-.175,13.558-.1v3c-4.514-.026-9.028-.129-13.543.052,4.5.372,9.029.051,13.543.206v2.8q-6.577,0-13.161,0,.009,4.055.006,8.116-3.545.007-7.095,0v14.833c-.861,0-1.723,0-2.574,0q-.015-5.9,0-11.8c-1.507.1-3.013.212-4.515.357v13.636c-1.248,0-2.5,0-3.74,0q0-3.343,0-6.682c-.608-.02-1.212-.035-1.815-.051q.007-3.344,0-6.682-3.034,0-6.067,0c0,3.317.03,6.64-.041,9.958-2.734.134-5.47.108-8.209.093q0-5.03,0-10.051c-3.358-.01-6.712,0-10.065,0v13.156q-3.552,0-7.1,0c-.1-4.7.258-9.406-.223-14.086-1.062,3.215-.355,6.645-.541,9.958q-1.487,0-2.972,0V91.964q-2.941,0-5.877,0a33.815,33.815,0,0,1-.423,5.2c-.351,3.286-.062,6.6-.154,9.9-.815,0-1.631,0-2.446,0v-10.7c-.686,0-1.366,0-2.048,0,0,.454-.02,1.352-.031,1.806h-3.967c-.006-.448-.026-1.352-.031-1.806h-6.558q-.007-2.065-.011-4.127h-1.026q0,3.482,0,6.96c-1.243,0-2.492,0-3.735,0q0,4.519-.011,9.044c-.6-.01-1.2-.02-1.795-.025q0-4.512,0-9.019H154.9c-.134,2.29.578,4.829-.769,6.877a42.876,42.876,0,0,1-.258-6.82c-2.456-.047-4.9-.346-7.342-.516,0-2.048-.011-4.1-.016-6.14-.464-.624-.929-1.249-1.388-1.868A29.526,29.526,0,0,0,144.831,96c-.352.284-.7.562-1.042.846-.315.016-.949.042-1.265.058v13.76q-2.709.007-5.412,0c0-.861-.01-1.719-.01-2.575-.9,0-1.806,0-2.7,0V90.932c-.815,0-1.635,0-2.445,0q-.015,9.217,0,18.444c-.686,0-1.378,0-2.064,0q-.007-9.224,0-18.444h-2.322V103.7H116.6V91.19q-1.486,0-2.966,0v7.6q-1.873,0-3.741.01,0,4.194,0,8.389c-.418,0-1.249-.01-1.667-.01q-.007-4.2-.01-8.389c-3.266,0-6.532,0-9.8,0v13.672q-1.548-.007-3.1,0V91.195q-1.6-.007-3.2,0c-.015-.355-.036-1.062-.046-1.419H88.224v3.086c-.779,0-1.553.015-2.327.025.015,6.48-.005,12.966.01,19.451l-5.417.015q-.007-3.684,0-7.356H78.168q-.007,1.608,0,3.224c-.691,0-1.377,0-2.064,0,0-1.073,0-2.141,0-3.209-.645-.015-1.289-.025-1.93-.036V93c-1.011,0-2.028-.01-3.039-.01-.077-.732-.154-1.46-.232-2.187-1.749,0-3.493,0-5.242,0,0,.9,0,1.8,0,2.7-1.8,0-3.606.006-5.407.006q-.008,2.708-.005,5.417-1.408-.007-2.817,0a31.432,31.432,0,0,0-.346-5.871c-.145,3.457-.026,6.924-.067,10.386-5.335-.155-10.659.211-15.994.272,0,1.543,0,3.086,0,4.629q-1.873-.009-3.74-.006,0-7.414,0-14.827H34.18q0,5.03,0,10.06c-.856,0-1.718,0-2.575,0q0-5.03,0-10.056c-.9,0-1.8-.011-2.7-.011,0-.9,0-1.806-.01-2.7h-1.93q0,2.779,0,5.546H16.773c-.01,3.353-.005,6.707-.01,10.06q-6.764,0-13.538,0,0-5.023,0-10.051-1.61-.007-3.22,0V88.611H7.992Q8,84.423,8,80.227H0v-3.1H5.675V71.843H0V60.622H5.675V51.851H0V40.629H5.675V35.341H0v-3.1H7.992c.01-2.8.005-5.593,0-8.384H0V16.122c1.073,0,2.146,0,3.225,0V6.067q6.771-.015,13.538,0c0,3.353,0,6.707.01,10.06H26.952q.007,2.771,0,5.546h1.93c.005-.9.005-1.806.01-2.7.9,0,1.8,0,2.7-.01q.007-5.022,0-10.055h2.575q.007,5.03,0,10.06h3.091q.007-7.414,0-14.833h3.74c0,1.542,0,3.085,0,4.628,5.334.057,10.659.423,16,.278.041,3.462-.1,6.929.077,10.386a34.5,34.5,0,0,0,.335-5.882c.934,0,1.873,0,2.811,0q0,2.709.005,5.417h5.407c0,.9,0,1.806,0,2.708H70.9c.072-.727.149-1.46.227-2.187,1.011-.005,2.022-.005,3.039-.01V7.5c.645-.016,1.285-.025,1.935-.036V4.256h2.064q0,1.61,0,3.225h2.317Q80.485,3.8,80.49.124Zm47.068,23.485c0,.686,0,1.372.01,2.059,2.281,0,4.561,0,6.841-.01-.006-.511-.016-1.538-.016-2.054C132.113,23.6,129.833,23.6,127.558,23.609Zm-70.548.382v2.321h1.935V23.991ZM8.9,37.023c-.01,13.362.016,26.726-.016,40.093,8.678.057,17.356-.036,26.034.047.057-2.462.041-4.923.031-7.384H17.288c-.01-3.054,0-6.1,0-9.157,5.242,0,10.489,0,15.731,0q0-3.614-.005-7.223-7.863.007-15.73,0c0-2.972-.005-5.938,0-8.9q8.575.007,17.149,0V37.023Q21.669,37.008,8.9,37.023ZM40.892,49.286q-.007,13.923.005,27.85,3.986-.015,7.971,0c.041-7.476-.005-14.946.026-22.416a18.988,18.988,0,0,1,10.189.253c-.015-2.544-.01-5.087-.01-7.631A27.51,27.51,0,0,0,40.892,49.286Zm22.623-.629c-.082,2.306-.062,4.623-.062,6.934,3.627-1.93,8.141-3.266,12.109-1.636,2.1.913,2.1,3.421,2.146,5.371-4.659-.01-9.777-.243-13.786,2.538C60.559,64.2,59.9,69.062,61.576,72.6c1.326,2.719,4.323,4.069,7.145,4.658,5.562,1.068,11.268.3,16.788-.655.016-6.454,0-12.908.016-19.358a11.473,11.473,0,0,0-1.6-6.5,9.741,9.741,0,0,0-6.412-3.983A22.97,22.97,0,0,0,63.516,48.657Zm27.943,3.064c-1.651,3.7-1.244,8.884,2.342,11.325,2.9,2.167,6.769,1.888,9.921,3.457a2.525,2.525,0,0,1-.614,4.551c-4.221,1.026-8.539-.635-12.078-2.874.041,2.434.036,4.87.02,7.306a21.35,21.35,0,0,0,13.13,2.078c3.312-.448,6.7-2.306,7.945-5.556,1.259-3.622.82-8.415-2.559-10.757-2.869-2.219-6.686-2.126-9.875-3.587-1.971-.825-1.641-4.013.407-4.514,3.777-.98,7.672.475,10.83,2.528-.01-2.368-.005-4.736-.01-7.1a18.572,18.572,0,0,0-9.823-2.141C97.319,46.511,93.177,48.136,91.458,51.722Zm26.555-2.688q.015,14.046.005,28.093,4,.015,8,0c0-7.651.011-15.3,0-22.949,2.549-.552,5.34-1.28,7.857-.211,1.78.888,2.09,3.07,2.084,4.855,0,6.1-.016,12.207,0,18.311h7.992c.011-6.119-.02-12.238.016-18.352a16.505,16.505,0,0,0-.526-4.262c2.668-.9,5.726-1.672,8.431-.516,1.789.867,2,3.07,2.012,4.824.016,6.1-.016,12.207.011,18.31,2.667,0,5.334,0,8-.025-.031-6.438-.016-12.878,0-19.317a13.028,13.028,0,0,0-1.812-7.362,8.7,8.7,0,0,0-5.308-3.534,23.389,23.389,0,0,0-14.73,1.826,14.247,14.247,0,0,0-6.893-2.259A38.014,38.014,0,0,0,118.013,49.034Zm87.141-1.223c-5.8,2.636-6.7,12.114-1.187,15.5,2.8,1.848,6.32,1.7,9.308,3.075,2.018.768,1.785,4.1-.283,4.659-4.241,1.037-8.647-.562-12.182-2.895.021,2.461,0,4.928.041,7.394a22.042,22.042,0,0,0,12.419,2.136c3.6-.367,7.43-2.244,8.693-5.856,1.177-3.58.718-8.26-2.61-10.561-2.844-2.213-6.63-2.151-9.813-3.544a2.463,2.463,0,0,1,.031-4.448c3.833-1.217,7.889.331,11.134,2.394-.026-2.358-.02-4.716-.011-7.069A17.775,17.775,0,0,0,205.154,47.811Zm-37.085-.733q-.009,9.48-.006,18.96c.026,2.822.532,5.841,2.451,8.033,2.095,2.42,5.376,3.292,8.445,3.606a52.215,52.215,0,0,0,15.8-1.377c.016-9.741,0-19.476.011-29.218-2.709-.01-5.418-.005-8.126-.005-.016,7.94,0,15.88,0,23.821-2.652.227-5.5.773-8.028-.279-1.955-.835-2.466-3.172-2.43-5.087q.023-9.224.01-18.455ZM57.01,86.16v2.322h1.935V86.164C58.46,86.16,57.5,86.16,57.01,86.16Zm70.553.646c0,.685,0,1.372,0,2.058,2.28,0,4.555,0,6.836,0,0-.516.01-1.543.016-2.054C132.129,86.8,129.843,86.8,127.563,86.805Z"/>
    <path class="cls-1" d="M70.352,65.244c2.265-1.072,4.855-.814,7.29-.9.01,2.45.021,4.9-.026,7.347-2.42.232-5.077.65-7.311-.562A3.46,3.46,0,0,1,70.352,65.244Z"/>
  </g>
</svg>