<?xml version="1.0" encoding="UTF-8" standalone="no"?>
<svg
   xmlns:dc="http://purl.org/dc/elements/1.1/"
   xmlns:cc="http://creativecommons.org/ns#"
   xmlns:rdf="http://www.w3.org/1999/02/22-rdf-syntax-ns#"
   xmlns:svg="http://www.w3.org/2000/svg"
   xmlns="http://www.w3.org/2000/svg"
   xmlns:sodipodi="http://sodipodi.sourceforge.net/DTD/sodipodi-0.dtd"
   xmlns:inkscape="http://www.inkscape.org/namespaces/inkscape"
   inkscape:version="1.0 (4035a4fb49, 2020-05-01)"
   sodipodi:docname="farmer.svg"
   id="svg1105"
   xml:space="preserve"
   viewBox="122.5 0 352 352"
   version="1.1"
   enable-background="new 122.5 0 352 352"
   height="352px"
   width="352px"><defs
     id="defs1109" /><sodipodi:namedview
     inkscape:current-layer="svg1105"
     inkscape:window-maximized="0"
     inkscape:window-y="31"
     inkscape:window-x="1920"
     inkscape:cy="757.16945"
     inkscape:cx="-2.0910474"
     inkscape:zoom="0.44344836"
     inkscape:pagecheckerboard="true"
     showgrid="false"
     id="namedview1107"
     inkscape:window-height="1049"
     inkscape:window-width="1920"
     inkscape:pageshadow="2"
     inkscape:pageopacity="0"
     guidetolerance="10"
     gridtolerance="10"
     objecttolerance="10"
     borderopacity="1"
     bordercolor="#666666"
     pagecolor="#ffffff"
     inkscape:document-rotation="0" /><metadata
     id="metadata1063"><rdf:RDF><cc:Work
         rdf:about=""><dc:format>image/svg+xml</dc:format><dc:type
           rdf:resource="http://purl.org/dc/dcmitype/StillImage" /><dc:title /></cc:Work></rdf:RDF></metadata><g
     id="g1071"
     display="none"><path
       id="path1065"
       display="inline"
       d="m280.15 112.9c-1.483-7.136-10.494-26.179-5.571-29.942 9.244-7.073 22.036 3.679 32.001 8.149 1.717-6.297 3.428-12.592 5.15-18.889 2.051-7.536 2.981-7.06 10.528-9.938 7.392-2.823 22.99 9.948 30.994 11.252 13.718 2.239 27.435 4.475 41.15 6.71 8.778 1.429 23.23-6.477 31.799-9.075-11.633 24.7-35.865 26.054-59.815 30.601 4.082 1.605 13.208 3.157 15.787 6.691 5.005 6.856 10.017 13.716 15.021 20.569 8.993 12.321 19.184 24.334 26.97 37.471 6.11 10.306 23.641 30.012 5.967 39.544-7.758 4.182-11.469 9.119-19.062 4.453-7.911-4.856-9.793-4.814-17.705-9.674 7.388 7.563 8.758 10.228 16.137 17.788-14.129 3.454-20.066 1.672-34.269-2.298-13.076-3.656-22.551 4.331-34.693 10.057-8.852 4.172-13.153 14.193-18.627 22.111-4.939 7.156-9.871 14.319-14.745 21.518-1.859 2.75-8.474 9.59-8.474 13.133 0-2.798-6.28-9.744-7.735-12.104-6.224-10.058-12.373-20.158-18.533-30.26-13.833-22.716-27.605-45.467-41.37-68.227-2.938-4.863-5.881-9.729-8.813-14.592-3.003-4.973 1.746-22.734 2.222-28.8 0.346-4.269 49.089-14.38 55.686-16.248zm89.948 20.176c-12.404 0-12.412 19.24 0 19.24 12.405-1e-3 12.405-19.24 0-19.24-5.314 0 5.318 0 0 0z" /><g
       id="g1069"
       display="inline"
       transform="translate(0 -952.36)"><path
         id="path1067"
         stroke-width="2.8346"
         stroke-miterlimit="10"
         stroke="#fff"
         d="m199.55 1014.7c-2.47 0.233-4.564 2.543-4.554 5.024v20.103c-0.028 1.81 1.007 3.598 2.59 4.474 0.224 18.726 1.43 36.184-4.945 48.211-8.892 14.988-12.433 30.313-13.661 43.42-1.776 20.152-1.584 47.884-1.57 89.904 0.527 5.493 5.119 9.891 9.892 9.973h80.708c5.524-0.516 9.813-5.105 9.893-9.893-2e-3 -42.067-0.08-69.896-2.041-90.061-1.92-19.74-5.868-32.446-13.582-43.031-6.053-12.107-4.784-29.708-4.554-48.524 1.583-0.877 2.619-2.666 2.59-4.475v-20.102c0-2.631-2.393-5.025-5.025-5.025-19.403 0-39.11 0-55.741 2e-3zm8.087 30.151h40.039c-0.084 4.174-0.291 8.373-0.392 12.563h-39.254c-0.096-4.199-0.31-8.385-0.393-12.563zm0.314 22.613h39.333c0.202 10.549 1.468 20.759 6.045 29.915 8.427 13.904 11.354 27.592 12.563 39.417 1.871 19.24 1.959 46.985 1.96 88.885v0.077h-0.077-80.316c0.951-29.687-0.807-60.415 1.571-88.962 1.979-14.333 4.968-29.377 12.404-39.337 4.916-9.147 6.266-19.423 6.517-29.995z" /></g></g><g
     id="g1091"
     display="none"><g
       id="g1077"
       display="inline"><path
         id="path1073"
         d="m368.9-180.67l0.118-0.181c-5.808-6.692-16.565-29.229-18.013-34.513-0.899-3.285 0.441-5.514 1.423-7.14 0.96-1.596 1.358-2.354 0.723-3.626-0.698-1.396-2.64-2.304-4.516-3.182-2.747-1.288-5.863-2.745-5.863-6.225 0-3.033 1.564-4.276 2.707-5.181 0.988-0.782 1.485-1.178 1.39-2.612-0.106-1.559-1.692-2.507-3.926-3.68-1.843-0.968-3.749-1.969-3.959-3.879-0.217-1.972 0.943-3.167 1.876-4.128 0.817-0.839 1.52-1.566 1.627-2.844 0.068-0.832-0.221-1.084-1.141-1.765-1.108-0.816-2.785-2.049-2.357-5.042 0.099-0.681 0.232-1.284 0.358-1.846 0.544-2.428 0.817-3.649-5.378-8.515-6.086-4.783-8.954-14.808-8.563-21.814 0.239-4.264 1.665-7.415 4.017-8.87 3.693-2.289 8.156-2.607 12.898-0.925 7.357 2.604 14.324 9.659 16.941 17.155 2.872 8.211 3.666 8.176 5.394 8.11 0.464-0.017 0.97-0.032 1.535-0.01 2.304 0.129 3.813-0.655 5.274-1.409 1.696-0.87 3.626-1.859 5.936-0.384 2.837 1.803 2.609 3.795 2.458 5.111-0.118 1.059-0.172 1.498 0.99 2.302 1.31 0.902 2.668 0.418 4.754-0.474 1.771-0.756 3.976-1.704 5.735-0.094 2.776 2.549 0.958 4.889 0.083 6.016-0.214 0.278-0.532 0.684-0.614 0.893 0.042 0.015 0.145 0.119 0.36 0.262 1.188 0.792 3.31 1.155 4.026 1.228l0.756 0.076 0.36 0.668c1.471 2.728 0.354 4.495-0.241 5.444-0.089 0.134-0.197 0.305-0.257 0.423 0.035 0.025 0.093 0.085 0.178 0.162 0.477 0.416 0.661 0.486 0.668 0.489 0.694-0.363 1.729-0.603 3.752 0.502 2.504 1.367 2.429 3.646 2.376 5.156-0.038 1.17-0.016 1.752 0.367 2.188 0.108-0.162 0.23-0.353 0.331-0.512 0.832-1.311 2.216-3.502 5.3-3.502 1.744 0 2.697 0.747 3.271 1.192 0.068 0.054 0.158 0.122 0.224 0.169 0.038-0.058 0.234-0.177 0.56-0.443 1.044-0.873 0.898-1.188 0.419-2.237-0.43-0.936-1.321-2.876 0.781-4.521 1.757-1.375 3.994-0.761 5.87 0.27-0.011-5.801-0.144-17.145-0.28-23.092-0.255-11.077-15.198-34.583-42.864-40.014-3.344-0.659-6.76-0.991-10.153-0.991-23.803 0-45.849 16.15-63.781 35.61 9.736 13.998 15.223 31.444 18.23 47.609 4.352 23.379 4.332 47.687-0.888 70.93-3.38 15.047-9.007 32.391-18.54 45.876 11.383 9.847 21.703 17.117 26.303 20.232 1.153-2.08 3.104-5.174 6.266-9.128 2.129-2.662 4.713-4.197 7.207-5.685 5.103-3.041 10.38-6.185 13.96-20.179 2.939-11.513 10.008-16.948 15.165-20.919 2.61-2.01 4.867-3.745 4.867-5.144 0-5.622-5.152-11.78-5.204-11.84l-1.296-1.527z" /><path
         id="path1075"
         d="m454.21-207.04l-0.776-0.788 0.018-2.383c0.056-2.942 0.137-6.971-2.004-10.479-1.41-2.309-18.628-23.271-30.264-37.292-1.747-1.576-4.393-3.194-5.368-2.443-0.182 0.142-0.249 0.237-0.26 0.263-5e-3 0.119 0.187 0.534 0.313 0.81 0.538 1.17 1.537 3.351-1.188 5.625-1.932 1.606-3.144 1.288-4.372 0.331-0.437-0.338-0.749-0.585-1.51-0.585-1.41 0-2.027 0.819-2.882 2.171-0.559 0.879-1.188 1.875-2.346 2.042-0.726 0.102-1.446-0.156-2.146-0.766-1.591-1.389-1.53-3.229-1.484-4.574 0.051-1.533-8e-3 -2.07-0.891-2.551-1.031-0.565-1.255-0.479-1.475-0.394-1.208 0.466-2.115 0.22-3.456-0.956-2.032-1.775-0.971-3.458-0.465-4.264 0.419-0.661 0.7-1.109 0.426-1.934-1.108-0.184-3.061-0.625-4.49-1.578-0.948-0.633-1.478-1.352-1.616-2.199-0.206-1.275 0.575-2.281 1.2-3.088 0.999-1.284 1.019-1.445 0.244-2.154-0.367-0.337-1.301 0.023-2.677 0.616-2.032 0.87-4.812 2.068-7.509 0.197-2.571-1.778-2.35-3.704-2.204-4.977 0.127-1.082 0.177-1.531-1.149-2.373-0.845-0.537-1.341-0.388-3.097 0.515-1.545 0.794-3.632 1.896-6.73 1.721-0.475-0.025-0.889-5e-3 -1.267 0.011-3.644 0.156-5.083-1.077-8.212-10.025-2.314-6.626-8.703-13.105-15.193-15.402-2.721-0.963-6.745-1.631-10.44 0.66-1.516 0.938-2.486 3.344-2.67 6.601-0.353 6.375 2.342 15.375 7.476 19.407 6.888 5.416 7.24 7.63 6.399 11.389-0.112 0.495-0.232 1.027-0.315 1.626-0.19 1.301 0.252 1.624 1.218 2.335 0.993 0.731 2.499 1.84 2.296 4.304-0.19 2.299-1.482 3.628-2.426 4.599-0.856 0.882-1.148 1.245-1.086 1.825 0.046 0.401 1.609 1.221 2.448 1.662 2.206 1.157 5.228 2.746 5.446 6.021 0.197 2.932-1.344 4.152-2.466 5.042-0.978 0.776-1.624 1.288-1.624 2.942 0 1.581 1.601 2.411 4.215 3.633 2.213 1.036 4.719 2.209 5.86 4.496 1.367 2.729 0.148 4.75-0.829 6.376-0.908 1.506-1.692 2.807-1.115 4.912 1.413 5.161 11.589 26.105 16.894 32.77l2.899-4.423c4.77-4.765 12.326-6.07 19.3-3.219 4.887 1.999 16.145 2.642 20.07 2.723l0.946 0.02 0.726 0.604c3.403 2.818 13.749 10.133 20.693 10.133 0.895 0 1.698-0.126 2.407-0.386 11.668-4.147 14.441-14.271 14.47-14.374l0.303-1.154 1.059-0.556c0.028-0.015 4.16-2.273 4.16-5.799 0-3.611-3.449-7.23-3.484-7.266zm-66.928-46.701c0.533-0.581 1.44-0.615 2.019-0.079l7.89 7.305c0.582 0.537 0.615 1.439 0.078 2.02-0.28 0.305-0.666 0.458-1.049 0.458-0.348 0-0.698-0.126-0.971-0.38l-7.89-7.305c-0.579-0.537-0.615-1.439-0.077-2.019zm-23.953-9.79c-0.673-0.414-0.883-1.294-0.469-1.967 0.116-0.191 2.919-4.619 10.238-3.291 6.987 1.269 11.591 8.825 11.782 9.145 0.406 0.676 0.189 1.553-0.488 1.959-0.23 0.138-0.484 0.204-0.734 0.204-0.484 2e-3 -0.958-0.245-1.226-0.691-0.04-0.068-4.139-6.767-9.844-7.806-5.41-0.981-7.272 1.944-7.294 1.974-0.41 0.674-1.289 0.886-1.965 0.473zm1.771 10.44c0-3.039 3.198-5.5 7.142-5.5 3.94 0 7.138 2.461 7.138 5.5 0 3.035-3.197 5.491-7.138 5.491-3.946 0-7.142-2.453-7.142-5.491zm32.519 16.691c-0.043 0.204-1.163 5.02-8.994 6.654-6.452 1.341-12.778 8.524-12.838 8.598-0.285 0.323-0.682 0.489-1.079 0.489-0.333 0-0.668-0.116-0.938-0.353-0.598-0.517-0.657-1.419-0.142-2.015 0.283-0.325 7.013-7.979 14.413-9.521 5.892-1.228 6.752-4.344 6.787-4.478 0.191-0.752 0.971-1.221 1.715-1.052 0.758 0.18 1.24 0.917 1.076 1.678zm47.55 43.24c-5.652-1.65-3.654-9.736-3.654-9.736l7.597 2.433c-1e-3 -1e-3 2.047 9.056-3.943 7.303z" /></g><g
       id="g1081"
       display="inline"><path
         id="path1079"
         d="m432.41 153.62c-0.767-6.544-12.032-15.344-16.311-19.861-11.34-11.941-27.39-20.21-39.741-31.274-5.877-5.265-9.435-12.337-18.004-14.12-8.545-1.784-17.485-1.046-26.204-1.046-3.839 0-6.267 3.626-10.353 4.716-7.339 1.954-3.331-1.816-9.02-4.716-1.33-0.677-9.69-0.623-10.496 0.481-2.336 3.217-4.02 6.694-5.851 10.223-1.463-2.716-3.038-3.901-5.546-5.572-2.789-1.853-3.268 0.49-5.332 2.847-3.199 3.641-7.376 6.103-10.633 10.051-2.124-2.355-12.157-5.107-15.792-5.273-1.535-0.072-4.143 1.325-4.08 2.477 6e-3 0.113 0.018 0.217 0.025 0.327 12.007 2.119 24.001 6.986 33.157 13.967 16.109 12.282 23.836 33.652 27.411 52.863 3.66 19.662 3.644 40.104-0.746 59.652-1.369 6.097-3.189 12.64-5.591 19.055 11.435 13.066 24.94 23.685 45.013 32.286 15.142 6.494 7.417-6.624 12.377-8.112 2.476-0.742 13.463-3.674 11.107-6.454-1.534-1.807-4.072-3.191-5.965-4.599-2.585-1.924-0.193-3.249 1.441-5.677 3.586-5.33 6.158-4.695 3.958-11.379-1.695-5.201-3.409-7.612-6.987-11.792 5.707 0 9.699 0.036 5.351-8.451-2.25-4.404 2.2-3.668 5.187-4.227 2.983-0.565-2.574-4.956-3.926-6.906-4.199-6.086-5.496-1.27-0.989-7.462 4.52-6.201 2.514-5.576-1.674-8.778-4.105-3.144-6.489-3.325-5.479-8.4 0.78-3.912 8.295-3.47 11.86-4 4.264-0.63 7.341-3.05 10.762-5.627 2.962-2.249 7.041-1.402 9.521 0.623 4.105 3.362 5.133 2.975 10.539 2.553 2.946-0.223 6.884-2.79 8.49-5.204 2.875-4.307 1.184-4.733-1.753-8.917 6.2 0.83 7.638 2.012 11.834-2.539 4.065-4.39 3.156-5.683 2.44-11.735zm-72.296-23.482c-5.292 0-9.578-4.286-9.578-9.574 0-5.292 4.286-9.581 9.578-9.581 5.287 0 9.568 4.289 9.568 9.581 3e-3 5.291-4.281 9.574-9.568 9.574z" /></g><g
       id="g1089"
       display="inline"><path
         id="path1083"
         stroke-miterlimit="10"
         stroke="#fff"
         d="m313.74 170.67c-3.574-19.211-11.302-40.582-27.41-52.863-13.125-10.007-32.082-15.689-48.548-15.123-31.18 0.418-75.306 20.85-72.473 58.103 3.052 40.176 58.096 28.463 76.195 55.251 6.728 9.951 7.553 23.729 7.934 35.372 0.273 8.317-1.635 18.19 2.977 25.684 7.52 12.225 24.951 10.409 34.853 2.663 14.463-11.303 21.85-32.172 25.728-49.436 4.387-19.547 4.404-39.99 0.744-59.651zm-16.952 94.688c-4.753 7.647-11.446 15.278-20.479 17.696-7.839 2.093-18.284-0.047-22.381-7.73-4.462-8.382-1.952-20.523-2.645-29.738-0.634-8.481-1.577-17.498-5.038-25.34-12.688-28.777-52.6-20.854-71.66-42.104-13.418-14.96-6.827-37.997 6.056-50.971 14.662-14.771 36.704-21.981 57.143-22.57 14.303 0.591 29.349 4.327 41.764 11.563 15.158 8.838 23.905 25.391 28.763 41.73 10.297 34.671 7.868 76.29-11.523 107.46z" /><path
         id="path1085"
         stroke-miterlimit="10"
         stroke="#fff"
         d="m280.74 122.77c-12.691-9.039-49.711-19.889-76.92-5.758-27.209 14.129-31.566 32.458-30.614 45.265 1.711 23.039 49.83 28.593 62.147 35.623 16.207 9.247 23.649 35.558 22.021 51.858-1.621 16.203 2.955 27.262 12.582 27.644 7.868 0.311 13.728 0.881 24.404-19.064 2.581-4.818 5.285-11.746 8.008-19.258 18.877-52.051-3.785-103.61-21.628-116.31zm-62.973 47.197c-7.818 0-14.157-6.339-14.157-14.158s6.336-14.154 14.157-14.154c7.82 0 14.157 6.337 14.157 14.158 0 7.817-6.34 14.154-14.157 14.154z" /><path
         id="path1087"
         stroke-miterlimit="10"
         stroke="#fff"
         d="m217.76 143.23c-6.951 0-12.583 5.633-12.583 12.584 0 6.95 5.632 12.583 12.583 12.583 6.95 0 12.583-5.633 12.583-12.583 0-6.951-5.636-12.584-12.583-12.584zm0 24.308c-6.477 0-11.725-5.25-11.725-11.728 0-6.475 5.248-11.724 11.725-11.724s11.725 5.25 11.725 11.724c0 6.479-5.251 11.728-11.725 11.728z" /></g></g><g
     id="g1103"
     display="none"><path
       id="path1097"
       display="inline"
       d="m441.14 155.73c-20.929-20.917-43.684-39.743-65.698-59.461-12.563-11.251-23.415-9.524-38.819-12.728-12.728-2.65-29.591-9.125-42.178-6.221-16.172 3.73-29.449 5.09-42.412 15.278-5.829 4.585-36.023 24.294-31.691 34.383 2.768 6.469 32.551-16.598 38.519-19.912 12.849-7.132 30.158-4.222 42.149 1.78-15.159 16.63-24.987 32.617-33.125 53.534-7.583 19.486-18.164 33.048-34.983 44.996 16.979 7.804 31.797 12.983 44.663 26.347 16.007 16.622 32.014 33.241 48.016 49.863 6.588-17.83 10.162-31.908 12.22-50.769 0.666-6.084 11.508-14.203 14.717-19.725 3.626-6.255-0.419-15.744 10.908-16.688 8.691-0.723 15.487-0.602 24.121 0.599 6.292 0.873 20.438 0.453 25.128 3.952 14.065 10.483 4.09 35.618 17.397 45.113 0.789-10.858 2.076-21.688 3.692-32.43 0.536-3.52 5.822-14.505 4.248-17.396-2.888-5.315-12.936-2.692-15.693-10.027 10.195 2.757 18.954 9.571 24.206-1.559 4.53-9.607-1.939-20.332-5.385-28.929zm-79.175-21.045s-9.171-20.658 0-20.658c15.286 0 15.286 20.658 0 20.658 0 0 15.286 0 0 0z" /><g
       id="g1101"
       display="inline"
       transform="translate(0 -952.36)"><path
         id="path1099"
         stroke-width="2.8346"
         stroke-miterlimit="10"
         stroke="#fff"
         d="m200.7 1014.8c-2.47 0.233-4.564 2.543-4.554 5.024v20.103c-0.028 1.81 1.007 3.598 2.59 4.474 0.224 18.726 1.43 36.184-4.945 48.211-8.892 14.988-12.433 30.313-13.661 43.42-1.776 20.152-1.584 47.884-1.57 89.904 0.527 5.493 5.119 9.891 9.892 9.973h80.708c5.524-0.516 9.813-5.105 9.893-9.893-2e-3 -42.067-0.079-69.896-2.041-90.061-1.921-19.74-5.868-32.446-13.582-43.031-6.053-12.107-4.784-29.708-4.554-48.524 1.584-0.877 2.619-2.666 2.59-4.475v-20.102c0-2.631-2.393-5.025-5.025-5.025-19.403 1e-3 -39.11 1e-3 -55.741 2e-3zm8.087 30.152h40.039c-0.084 4.174-0.291 8.373-0.392 12.563h-39.254c-0.096-4.199-0.31-8.385-0.393-12.563zm0.314 22.613h39.333c0.202 10.549 1.468 20.759 6.045 29.915 8.427 13.904 11.354 27.592 12.563 39.417 1.871 19.24 1.959 46.985 1.96 88.885v0.077h-0.077-80.315c0.951-29.687-0.807-60.415 1.571-88.962 1.979-14.333 4.968-29.377 12.404-39.337 4.915-9.147 6.265-19.423 6.516-29.995z" /></g></g><path
     transform="translate(122.5)"
     d="M 225.67188 0 L 124.64453 0.033203125 C 69.061822 0.066552245 22.532092 0.20058788 21.232422 0.33398438 C 13.564342 1.1343633 6.5469419 4.9359174 2.9511719 10.205078 C -0.25468815 14.873955 0.005859375 -0.63299813 0.005859375 176.08398 C 0.005859375 352.80097 -0.25468815 337.29207 2.9511719 341.96094 C 5.8971019 346.32968 11.009091 349.53161 17.550781 351.23242 L 20.583984 352 L 175.89453 352 L 331.20508 352 L 334.23828 351.23242 C 340.77997 349.53161 345.89197 346.32968 348.83789 341.96094 C 352.04376 337.29207 351.7832 348.36495 351.7832 216.36914 L 351.7832 97.412109 L 303.60938 97.3125 L 255.39062 97.179688 L 251.70898 96.412109 C 241.39824 94.244417 233.08012 89.309281 229.00781 82.90625 C 225.75862 77.803834 225.97567 80.905478 225.8457 38.251953 L 225.67188 0 z M 243.39062 0.40039062 C 243.17401 0.36704152 243.04492 16.808304 243.04492 36.951172 C 243.04492 77.136862 242.91326 75.269333 245.64258 78.4375 C 247.20219 80.271701 250.66861 82.171547 254.17773 83.138672 C 256.69043 83.872352 256.95094 83.872608 304.3457 83.972656 L 352 84.072266 L 297.84766 42.253906 C 268.08514 19.243014 243.56391 0.43373976 243.39062 0.40039062 z M 176.61523 52.558594 C 193.49136 52.558594 207.33441 57.976654 217.75586 68.662109 C 235.3099 86.661374 237.84716 114.14532 238.18164 123.80273 L 292.01367 136.86719 C 294.02614 137.35269 295.39543 139.22094 295.25 141.28711 C 295.1057 143.35216 293.49222 145.01432 291.43164 145.2168 L 236.64258 150.62109 C 238.45705 160.16328 235.86181 174.0529 229.50781 178.31836 C 227.07472 187.31128 221.27169 199.60289 212.74414 210.11719 C 212.74414 210.11719 286.01207 243.15307 286.34766 243.44727 C 291.99243 248.41078 298.60446 277.5176 300.96484 294.61523 L 300.96094 294.61523 C 301.1265 295.83233 300.76052 297.06008 299.95508 297.98633 C 299.14853 298.91147 297.98221 299.44141 296.75391 299.44141 L 55.246094 299.44141 C 53.977534 299.44141 52.77531 298.87755 51.96875 297.89648 C 51.1656 296.91541 50.836495 295.62788 51.078125 294.38281 C 53.739415 280.7743 60.488688 248.56121 65.736328 243.45117 C 66.106608 243.08872 140.62305 210.78125 140.62305 210.78125 C 131.29453 198.64824 126.77682 184.73287 125.07422 178.39453 C 119.61067 174.71749 116.25406 161.25459 117.75195 150.95508 L 58.271484 145.2207 C 56.190774 145.02158 54.565863 143.33826 54.439453 141.25195 C 54.313043 139.16677 55.721279 137.29736 57.761719 136.84766 L 117.09961 123.75195 C 117.16225 113.92563 118.94484 86.612934 135.90039 68.6875 C 146.02764 57.984146 159.7268 52.558594 176.61523 52.558594 z M 226.30078 148.84961 C 207.86412 149.96263 146.64984 149.98906 127.96484 148.92969 C 127.65497 149.66689 125.46163 162.31166 127.80859 168.21484 C 128.75385 170.58864 129.66461 171.32574 129.90625 171.39844 C 131.36834 171.82576 132.48634 173.00272 132.83984 174.48047 C 134.03457 179.45516 148.05354 222.03702 176.74609 222.04102 C 203.32549 222.04102 219.70095 183.38814 221.72461 174.45898 C 222.06692 172.94543 223.20693 171.74178 224.69922 171.31445 C 224.96658 171.216 225.969 170.30419 226.94336 167.50195 C 229.08112 161.37168 226.66099 149.59464 226.30078 148.84961 z M 203.43164 215.25977 C 194.9589 222.85436 185.8204 226.8457 176.74805 226.8457 C 166.89936 226.8457 157.85794 223.18689 149.79688 215.98047 C 149.60894 216.10128 144.12191 218.51958 144.12891 218.51758 C 145.61449 228.50947 154.37642 235.72461 165.69727 235.72461 L 187.05859 235.72461 C 198.07069 235.72461 207.22127 227.9421 209.02344 217.75781 C 209.02344 217.75781 203.62964 215.38618 203.43164 215.25977 z M 224.16211 224.27539 L 224.16211 264.625 C 224.16211 265.95061 223.08483 267.03125 221.75586 267.03125 L 133.10156 267.03125 C 131.77147 267.03125 130.69531 265.95397 130.69531 264.625 L 130.69531 224.32227 L 114.10742 231.49219 L 114.10742 264.625 C 114.10742 265.95061 113.03209 267.03125 111.70312 267.03125 L 99.841797 267.03125 L 99.841797 293.00195 L 253.99219 293.00195 L 253.99219 267.03125 L 243.15039 267.03125 C 241.82142 267.03125 240.74705 265.95397 240.74805 264.625 L 240.74805 231.41406 L 224.16211 224.27539 z M 123.41992 270.54102 C 127.93036 270.54102 131.59766 274.21222 131.59766 278.72266 C 131.59766 283.2331 127.93036 286.90234 123.41992 286.90234 C 118.90947 286.90234 115.24023 283.2331 115.24023 278.72266 C 115.24023 274.21222 118.90947 270.54102 123.41992 270.54102 z M 232.45117 270.54102 C 236.96161 270.54102 240.63086 274.21222 240.63086 278.72266 C 240.63086 283.2331 236.96161 286.90234 232.45117 286.90234 C 227.94184 286.90234 224.27539 283.2331 224.27539 278.72266 C 224.27539 274.21222 227.94296 270.54102 232.45117 270.54102 z "
     style="fill:#ffffff;fill-opacity:1;stroke:none;stroke-width:0.0380101"
     id="path4911" /></svg>
