<?xml version="1.0" encoding="UTF-8" standalone="no"?>
<!-- Generator: Adobe Illustrator 15.0.0, SVG Export Plug-In . SVG Version: 6.00 Build 0)  -->

<svg
   xmlns:dc="http://purl.org/dc/elements/1.1/"
   xmlns:cc="http://creativecommons.org/ns#"
   xmlns:rdf="http://www.w3.org/1999/02/22-rdf-syntax-ns#"
   xmlns:svg="http://www.w3.org/2000/svg"
   xmlns="http://www.w3.org/2000/svg"
   xmlns:sodipodi="http://sodipodi.sourceforge.net/DTD/sodipodi-0.dtd"
   xmlns:inkscape="http://www.inkscape.org/namespaces/inkscape"
   version="1.1"
   x="0px"
   y="0px"
   width="352px"
   height="352px"
   viewBox="122.5 0 352 352"
   enable-background="new 122.5 0 352 352"
   xml:space="preserve"
   id="svg6028"
   sodipodi:docname="farmer.svg"
   inkscape:version="0.92.2 (5c3e80d, 2017-08-06)"><metadata
     id="metadata6034"><rdf:RDF><cc:Work
         rdf:about=""><dc:format>image/svg+xml</dc:format><dc:type
           rdf:resource="http://purl.org/dc/dcmitype/StillImage" /></cc:Work></rdf:RDF></metadata><defs
     id="defs6032" /><sodipodi:namedview
     pagecolor="#ffffff"
     bordercolor="#666666"
     borderopacity="1"
     objecttolerance="10"
     gridtolerance="10"
     guidetolerance="10"
     inkscape:pageopacity="0"
     inkscape:pageshadow="2"
     inkscape:window-width="1680"
     inkscape:window-height="986"
     id="namedview6030"
     showgrid="false"
     inkscape:zoom="0.67045455"
     inkscape:cx="278.91525"
     inkscape:cy="-12.677966"
     inkscape:window-x="0"
     inkscape:window-y="27"
     inkscape:window-maximized="1"
     inkscape:current-layer="svg6028" /><g
     id="Calque_1"
     display="none"><path
       display="inline"
       d="M280.149,112.903c-1.483-7.136-10.494-26.179-5.571-29.942c9.244-7.073,22.036,3.679,32.001,8.149   c1.717-6.297,3.428-12.592,5.15-18.889c2.051-7.536,2.981-7.06,10.528-9.938c7.392-2.823,22.99,9.948,30.994,11.252   c13.718,2.239,27.435,4.475,41.15,6.71c8.778,1.429,23.23-6.477,31.799-9.075c-11.633,24.7-35.865,26.054-59.815,30.601   c4.082,1.605,13.208,3.157,15.787,6.691c5.005,6.856,10.017,13.716,15.021,20.569c8.993,12.321,19.184,24.334,26.97,37.471   c6.11,10.306,23.641,30.012,5.967,39.544c-7.758,4.182-11.469,9.119-19.062,4.453c-7.911-4.856-9.793-4.814-17.705-9.674   c7.388,7.563,8.758,10.228,16.137,17.788c-14.129,3.454-20.066,1.672-34.269-2.298c-13.076-3.656-22.551,4.331-34.693,10.057   c-8.852,4.172-13.153,14.193-18.627,22.111c-4.939,7.156-9.871,14.319-14.745,21.518c-1.859,2.75-8.474,9.59-8.474,13.133   c0-2.798-6.28-9.744-7.735-12.104c-6.224-10.058-12.373-20.158-18.533-30.26c-13.833-22.716-27.605-45.467-41.37-68.227   c-2.938-4.863-5.881-9.729-8.813-14.592c-3.003-4.973,1.746-22.734,2.222-28.8C224.809,124.882,273.552,114.771,280.149,112.903   L280.149,112.903z M370.097,133.079c-12.404,0-12.412,19.24,0,19.24C382.502,152.318,382.502,133.079,370.097,133.079   C364.783,133.079,375.415,133.079,370.097,133.079z"
       id="path5987" /><g
       transform="translate(0,-952.36218)"
       display="inline"
       id="g5991"><path
         stroke="#FFFFFF"
         stroke-width="2.8346"
         stroke-miterlimit="10"
         d="M199.55,1014.664c-2.47,0.233-4.564,2.543-4.554,5.024    v20.103c-0.028,1.81,1.007,3.598,2.59,4.474c0.224,18.726,1.43,36.184-4.945,48.211c-8.892,14.988-12.433,30.313-13.661,43.42    c-1.776,20.152-1.584,47.884-1.57,89.904c0.527,5.493,5.119,9.891,9.892,9.973c24.573,0,47.856,0,80.708,0    c5.524-0.516,9.813-5.105,9.893-9.893c-0.002-42.067-0.08-69.896-2.041-90.061c-1.92-19.74-5.868-32.446-13.582-43.031    c-6.053-12.107-4.784-29.708-4.554-48.524c1.583-0.877,2.619-2.666,2.59-4.475v-20.102c0-2.631-2.393-5.025-5.025-5.025    C235.888,1014.662,216.181,1014.662,199.55,1014.664L199.55,1014.664z M207.637,1044.815h40.039    c-0.084,4.174-0.291,8.373-0.392,12.563H208.03C207.934,1053.179,207.72,1048.993,207.637,1044.815z M207.951,1067.428h39.333    c0.202,10.549,1.468,20.759,6.045,29.915c8.427,13.904,11.354,27.592,12.563,39.417c1.871,19.24,1.959,46.985,1.96,88.885v0.077    h-0.077c-32.637,0-55.869,0-80.316,0c0.951-29.687-0.807-60.415,1.571-88.962c1.979-14.333,4.968-29.377,12.404-39.337    C206.35,1088.276,207.7,1078,207.951,1067.428L207.951,1067.428z"
         id="path5989" /></g></g><g
     id="Calque_2"
     display="none"><g
       display="inline"
       id="g5998"><path
         d="M368.905-180.667l0.118-0.181c-5.808-6.692-16.565-29.229-18.013-34.513c-0.899-3.285,0.441-5.514,1.423-7.14    c0.96-1.596,1.358-2.354,0.723-3.626c-0.698-1.396-2.64-2.304-4.516-3.182c-2.747-1.288-5.863-2.745-5.863-6.225    c0-3.033,1.564-4.276,2.707-5.181c0.988-0.782,1.485-1.178,1.39-2.612c-0.106-1.559-1.692-2.507-3.926-3.68    c-1.843-0.968-3.749-1.969-3.959-3.879c-0.217-1.972,0.943-3.167,1.876-4.128c0.817-0.839,1.52-1.566,1.627-2.844    c0.068-0.832-0.221-1.084-1.141-1.765c-1.108-0.816-2.785-2.049-2.357-5.042c0.099-0.681,0.232-1.284,0.358-1.846    c0.544-2.428,0.817-3.649-5.378-8.515c-6.086-4.783-8.954-14.808-8.563-21.814c0.239-4.264,1.665-7.415,4.017-8.87    c3.693-2.289,8.156-2.607,12.898-0.925c7.357,2.604,14.324,9.659,16.941,17.155c2.872,8.211,3.666,8.176,5.394,8.11    c0.464-0.017,0.97-0.032,1.535-0.01c2.304,0.129,3.813-0.655,5.274-1.409c1.696-0.87,3.626-1.859,5.936-0.384    c2.837,1.803,2.609,3.795,2.458,5.111c-0.118,1.059-0.172,1.498,0.99,2.302c1.31,0.902,2.668,0.418,4.754-0.474    c1.771-0.756,3.976-1.704,5.735-0.094c2.776,2.549,0.958,4.889,0.083,6.016c-0.214,0.278-0.532,0.684-0.614,0.893    c0.042,0.015,0.145,0.119,0.36,0.262c1.188,0.792,3.31,1.155,4.026,1.228l0.756,0.076l0.36,0.668    c1.471,2.728,0.354,4.495-0.241,5.444c-0.089,0.134-0.197,0.305-0.257,0.423c0.035,0.025,0.093,0.085,0.178,0.162    c0.477,0.416,0.661,0.486,0.668,0.489c0.694-0.363,1.729-0.603,3.752,0.502c2.504,1.367,2.429,3.646,2.376,5.156    c-0.038,1.17-0.016,1.752,0.367,2.188c0.108-0.162,0.23-0.353,0.331-0.512c0.832-1.311,2.216-3.502,5.3-3.502    c1.744,0,2.697,0.747,3.271,1.192c0.068,0.054,0.158,0.122,0.224,0.169c0.038-0.058,0.234-0.177,0.56-0.443    c1.044-0.873,0.898-1.188,0.419-2.237c-0.43-0.936-1.321-2.876,0.781-4.521c1.757-1.375,3.994-0.761,5.87,0.27    c-0.011-5.801-0.144-17.145-0.28-23.092c-0.255-11.077-15.198-34.583-42.864-40.014c-3.344-0.659-6.76-0.991-10.153-0.991    c-23.803,0-45.849,16.15-63.781,35.61c9.736,13.998,15.223,31.444,18.23,47.609c4.352,23.379,4.332,47.687-0.888,70.93    c-3.38,15.047-9.007,32.391-18.54,45.876c11.383,9.847,21.703,17.117,26.303,20.232c1.153-2.08,3.104-5.174,6.266-9.128    c2.129-2.662,4.713-4.197,7.207-5.685c5.103-3.041,10.38-6.185,13.96-20.179c2.939-11.513,10.008-16.948,15.165-20.919    c2.61-2.01,4.867-3.745,4.867-5.144c0-5.622-5.152-11.78-5.204-11.84L368.905-180.667z"
         id="path5994" /><path
         d="M454.214-207.043l-0.776-0.788l0.018-2.383c0.056-2.942,0.137-6.971-2.004-10.479    c-1.41-2.309-18.628-23.271-30.264-37.292c-1.747-1.576-4.393-3.194-5.368-2.443c-0.182,0.142-0.249,0.237-0.26,0.263    c-0.005,0.119,0.187,0.534,0.313,0.81c0.538,1.17,1.537,3.351-1.188,5.625c-1.932,1.606-3.144,1.288-4.372,0.331    c-0.437-0.338-0.749-0.585-1.51-0.585c-1.41,0-2.027,0.819-2.882,2.171c-0.559,0.879-1.188,1.875-2.346,2.042    c-0.726,0.102-1.446-0.156-2.146-0.766c-1.591-1.389-1.53-3.229-1.484-4.574c0.051-1.533-0.008-2.07-0.891-2.551    c-1.031-0.565-1.255-0.479-1.475-0.394c-1.208,0.466-2.115,0.22-3.456-0.956c-2.032-1.775-0.971-3.458-0.465-4.264    c0.419-0.661,0.7-1.109,0.426-1.934c-1.108-0.184-3.061-0.625-4.49-1.578c-0.948-0.633-1.478-1.352-1.616-2.199    c-0.206-1.275,0.575-2.281,1.2-3.088c0.999-1.284,1.019-1.445,0.244-2.154c-0.367-0.337-1.301,0.023-2.677,0.616    c-2.032,0.87-4.812,2.068-7.509,0.197c-2.571-1.778-2.35-3.704-2.204-4.977c0.127-1.082,0.177-1.531-1.149-2.373    c-0.845-0.537-1.341-0.388-3.097,0.515c-1.545,0.794-3.632,1.896-6.73,1.721c-0.475-0.025-0.889-0.005-1.267,0.011    c-3.644,0.156-5.083-1.077-8.212-10.025c-2.314-6.626-8.703-13.105-15.193-15.402c-2.721-0.963-6.745-1.631-10.44,0.66    c-1.516,0.938-2.486,3.344-2.67,6.601c-0.353,6.375,2.342,15.375,7.476,19.407c6.888,5.416,7.24,7.63,6.399,11.389    c-0.112,0.495-0.232,1.027-0.315,1.626c-0.19,1.301,0.252,1.624,1.218,2.335c0.993,0.731,2.499,1.84,2.296,4.304    c-0.19,2.299-1.482,3.628-2.426,4.599c-0.856,0.882-1.148,1.245-1.086,1.825c0.046,0.401,1.609,1.221,2.448,1.662    c2.206,1.157,5.228,2.746,5.446,6.021c0.197,2.932-1.344,4.152-2.466,5.042c-0.978,0.776-1.624,1.288-1.624,2.942    c0,1.581,1.601,2.411,4.215,3.633c2.213,1.036,4.719,2.209,5.86,4.496c1.367,2.729,0.148,4.75-0.829,6.376    c-0.908,1.506-1.692,2.807-1.115,4.912c1.413,5.161,11.589,26.105,16.894,32.77l2.899-4.423c4.77-4.765,12.326-6.07,19.3-3.219    c4.887,1.999,16.145,2.642,20.07,2.723l0.946,0.02l0.726,0.604c3.403,2.818,13.749,10.133,20.693,10.133    c0.895,0,1.698-0.126,2.407-0.386c11.668-4.147,14.441-14.271,14.47-14.374l0.303-1.154l1.059-0.556    c0.028-0.015,4.16-2.273,4.16-5.799C457.698-203.388,454.249-207.007,454.214-207.043z M387.286-253.744    c0.533-0.581,1.44-0.615,2.019-0.079l7.89,7.305c0.582,0.537,0.615,1.439,0.078,2.02c-0.28,0.305-0.666,0.458-1.049,0.458    c-0.348,0-0.698-0.126-0.971-0.38l-7.89-7.305C386.784-252.262,386.748-253.164,387.286-253.744z M363.333-263.534    c-0.673-0.414-0.883-1.294-0.469-1.967c0.116-0.191,2.919-4.619,10.238-3.291c6.987,1.269,11.591,8.825,11.782,9.145    c0.406,0.676,0.189,1.553-0.488,1.959c-0.23,0.138-0.484,0.204-0.734,0.204c-0.484,0.002-0.958-0.245-1.226-0.691    c-0.04-0.068-4.139-6.767-9.844-7.806c-5.41-0.981-7.272,1.944-7.294,1.974C364.888-263.333,364.009-263.121,363.333-263.534z     M365.104-253.094c0-3.039,3.198-5.5,7.142-5.5c3.94,0,7.138,2.461,7.138,5.5c0,3.035-3.197,5.491-7.138,5.491    C368.3-247.603,365.104-250.056,365.104-253.094z M397.623-236.403c-0.043,0.204-1.163,5.02-8.994,6.654    c-6.452,1.341-12.778,8.524-12.838,8.598c-0.285,0.323-0.682,0.489-1.079,0.489c-0.333,0-0.668-0.116-0.938-0.353    c-0.598-0.517-0.657-1.419-0.142-2.015c0.283-0.325,7.013-7.979,14.413-9.521c5.892-1.228,6.752-4.344,6.787-4.478    c0.191-0.752,0.971-1.221,1.715-1.052C397.305-237.901,397.787-237.164,397.623-236.403z M445.173-193.163    c-5.652-1.65-3.654-9.736-3.654-9.736l7.597,2.433C449.115-200.467,451.163-191.41,445.173-193.163z"
         id="path5996" /></g><g
       display="inline"
       id="g6002"><path
         d="M432.413,153.625c-0.767-6.544-12.032-15.344-16.311-19.861c-11.34-11.941-27.39-20.21-39.741-31.274    c-5.877-5.265-9.435-12.337-18.004-14.12c-8.545-1.784-17.485-1.046-26.204-1.046c-3.839,0-6.267,3.626-10.353,4.716    c-7.339,1.954-3.331-1.816-9.02-4.716c-1.33-0.677-9.69-0.623-10.496,0.481c-2.336,3.217-4.02,6.694-5.851,10.223    c-1.463-2.716-3.038-3.901-5.546-5.572c-2.789-1.853-3.268,0.49-5.332,2.847c-3.199,3.641-7.376,6.103-10.633,10.051    c-2.124-2.355-12.157-5.107-15.792-5.273c-1.535-0.072-4.143,1.325-4.08,2.477c0.006,0.113,0.018,0.217,0.025,0.327    c12.007,2.119,24.001,6.986,33.157,13.967c16.109,12.282,23.836,33.652,27.411,52.863c3.66,19.662,3.644,40.104-0.746,59.652    c-1.369,6.097-3.189,12.64-5.591,19.055c11.435,13.066,24.94,23.685,45.013,32.286c15.142,6.494,7.417-6.624,12.377-8.112    c2.476-0.742,13.463-3.674,11.107-6.454c-1.534-1.807-4.072-3.191-5.965-4.599c-2.585-1.924-0.193-3.249,1.441-5.677    c3.586-5.33,6.158-4.695,3.958-11.379c-1.695-5.201-3.409-7.612-6.987-11.792c5.707,0,9.699,0.036,5.351-8.451    c-2.25-4.404,2.2-3.668,5.187-4.227c2.983-0.565-2.574-4.956-3.926-6.906c-4.199-6.086-5.496-1.27-0.989-7.462    c4.52-6.201,2.514-5.576-1.674-8.778c-4.105-3.144-6.489-3.325-5.479-8.4c0.78-3.912,8.295-3.47,11.86-4    c4.264-0.63,7.341-3.05,10.762-5.627c2.962-2.249,7.041-1.402,9.521,0.623c4.105,3.362,5.133,2.975,10.539,2.553    c2.946-0.223,6.884-2.79,8.49-5.204c2.875-4.307,1.184-4.733-1.753-8.917c6.2,0.83,7.638,2.012,11.834-2.539    C434.038,160.97,433.129,159.677,432.413,153.625z M360.117,130.143c-5.292,0-9.578-4.286-9.578-9.574    c0-5.292,4.286-9.581,9.578-9.581c5.287,0,9.568,4.289,9.568,9.581C369.688,125.86,365.404,130.143,360.117,130.143z"
         id="path6000" /></g><g
       display="inline"
       id="g6014"><path
         stroke="#FFFFFF"
         stroke-miterlimit="10"
         d="M313.738,170.666c-3.574-19.211-11.302-40.582-27.41-52.863    c-13.125-10.007-32.082-15.689-48.548-15.123c-31.18,0.418-75.306,20.85-72.473,58.103c3.052,40.176,58.096,28.463,76.195,55.251    c6.728,9.951,7.553,23.729,7.934,35.372c0.273,8.317-1.635,18.19,2.977,25.684c7.52,12.225,24.951,10.409,34.853,2.663    c14.463-11.303,21.85-32.172,25.728-49.436C317.381,210.77,317.398,190.327,313.738,170.666z M296.786,265.354    c-4.753,7.647-11.446,15.278-20.479,17.696c-7.839,2.093-18.284-0.047-22.381-7.73c-4.462-8.382-1.952-20.523-2.645-29.738    c-0.634-8.481-1.577-17.498-5.038-25.34c-12.688-28.777-52.6-20.854-71.66-42.104c-13.418-14.96-6.827-37.997,6.056-50.971    c14.662-14.771,36.704-21.981,57.143-22.57c14.303,0.591,29.349,4.327,41.764,11.563c15.158,8.838,23.905,25.391,28.763,41.73    C318.606,192.561,316.177,234.18,296.786,265.354z"
         id="path6004" /><g
         id="g6012"><path
           stroke="#FFFFFF"
           stroke-miterlimit="10"
           d="M280.736,122.772c-12.691-9.039-49.711-19.889-76.92-5.758     c-27.209,14.129-31.566,32.458-30.614,45.265c1.711,23.039,49.83,28.593,62.147,35.623c16.207,9.247,23.649,35.558,22.021,51.858     c-1.621,16.203,2.955,27.262,12.582,27.644c7.868,0.311,13.728,0.881,24.404-19.064c2.581-4.818,5.285-11.746,8.008-19.258     C321.241,187.031,298.579,135.476,280.736,122.772z M217.763,169.969c-7.818,0-14.157-6.339-14.157-14.158     c0-7.819,6.336-14.154,14.157-14.154c7.82,0,14.157,6.337,14.157,14.158C231.92,163.632,225.58,169.969,217.763,169.969z"
           id="path6006" /><g
           id="g6010"><path
             stroke="#FFFFFF"
             stroke-miterlimit="10"
             d="M217.763,143.23c-6.951,0-12.583,5.633-12.583,12.584      c0,6.95,5.632,12.583,12.583,12.583c6.95,0,12.583-5.633,12.583-12.583C230.346,148.863,224.71,143.23,217.763,143.23z       M217.763,167.538c-6.477,0-11.725-5.25-11.725-11.728c0-6.475,5.248-11.724,11.725-11.724c6.477,0,11.725,5.25,11.725,11.724      C229.488,162.289,224.237,167.538,217.763,167.538z"
             id="path6008" /></g></g></g></g><g
     id="Calque_4"
     transform="matrix(1.5750543,0,0,1.5750543,-175.59091,-95.151898)"
     style="fill:#e2be3a;fill-opacity:1"><path
       d="m 412.707,278.187 c -2.11,-15.284 -8.02,-41.303 -13.066,-45.74 -0.3,-0.263 -65.797,-29.795 -65.797,-29.795 7.623,-9.399 12.812,-20.387 14.987,-28.426 5.68,-3.813 7.999,-16.228 6.377,-24.758 l 48.978,-4.832 c 1.842,-0.181 3.283,-1.666 3.412,-3.512 0.13,-1.847 -1.094,-3.518 -2.893,-3.952 l -48.121,-11.678 c -0.299,-8.633 -2.568,-33.202 -18.26,-49.292 -9.316,-9.552 -21.69,-14.396 -36.776,-14.396 -15.097,0 -27.342,4.851 -36.395,14.419 -15.157,16.024 -16.752,40.44 -16.808,49.224 l -53.043,11.706 c -1.824,0.402 -3.083,2.073 -2.97,3.937 0.113,1.865 1.565,3.37 3.425,3.548 l 53.171,5.125 c -1.339,9.207 1.663,21.243 6.547,24.53 1.522,5.666 5.56,18.105 13.899,28.951 0,0 -66.613,28.881 -66.944,29.205 -4.691,4.568 -10.724,33.363 -13.103,45.528 -0.216,1.113 0.078,2.264 0.796,3.141 0.721,0.877 1.796,1.382 2.93,1.382 h 215.893 c 1.098,0 2.141,-0.475 2.862,-1.302 0.72,-0.828 1.047,-1.925 0.899,-3.013 z m -51.681,-24.658 h 9.692 v 23.216 h -137.8 v -23.216 h 10.603 c 1.188,0 2.15,-0.965 2.15,-2.15 V 221.76 l 14.829,-6.41 v 36.029 c 0,1.188 0.962,2.15 2.151,2.15 h 79.25 c 1.188,0 2.15,-0.965 2.15,-2.15 v -36.071 l 14.828,6.382 v 29.689 c -0.001,1.188 0.959,2.15 2.147,2.15 z m -83.451,-45.636 c 7.206,6.442 15.288,9.713 24.092,9.713 8.11,0 16.279,-3.567 23.853,-10.356 0.177,0.113 4.998,2.233 4.998,2.233 -1.611,9.104 -9.791,16.06 -19.635,16.06 h -19.095 c -10.12,0 -17.952,-6.449 -19.28,-15.381 -0.006,0.002 4.899,-2.161 5.067,-2.269 z m -15.158,-37.097 c -0.316,-1.321 -1.316,-2.374 -2.623,-2.756 -0.216,-0.065 -1.03,-0.724 -1.875,-2.846 -2.098,-5.277 -0.138,-16.58 0.139,-17.239 16.703,0.947 71.424,0.923 87.905,-0.072 0.322,0.666 2.485,11.195 0.574,16.675 -0.871,2.505 -1.767,3.319 -2.006,3.407 -1.334,0.382 -2.352,1.459 -2.658,2.812 -1.809,7.982 -16.447,42.534 -40.207,42.534 -25.649,-0.004 -38.181,-38.068 -39.249,-42.515 z m -8.422,85.871 c -4.032,0 -7.311,3.281 -7.311,7.313 0,4.032 3.279,7.313 7.311,7.313 4.032,0 7.311,-3.281 7.311,-7.313 0,-4.032 -3.279,-7.313 -7.311,-7.313 z m 97.466,0 c -4.03,0 -7.309,3.281 -7.309,7.313 0,4.032 3.278,7.313 7.309,7.313 4.032,0 7.312,-3.281 7.312,-7.313 0,-4.032 -3.28,-7.313 -7.312,-7.313 z"
       id="path6017"
       inkscape:connector-curvature="0"
       style="fill:#e2be3a;fill-opacity:1" /></g><g
     id="Calque_5"
     display="none" /><g
     id="Calque_3"
     display="none"><path
       display="inline"
       d="M441.142,155.729c-20.929-20.917-43.684-39.743-65.698-59.461c-12.563-11.251-23.415-9.524-38.819-12.728   c-12.728-2.65-29.591-9.125-42.178-6.221c-16.172,3.73-29.449,5.09-42.412,15.278c-5.829,4.585-36.023,24.294-31.691,34.383   c2.768,6.469,32.551-16.598,38.519-19.912c12.849-7.132,30.158-4.222,42.149,1.78c-15.159,16.63-24.987,32.617-33.125,53.534   c-7.583,19.486-18.164,33.048-34.983,44.996c16.979,7.804,31.797,12.983,44.663,26.347c16.007,16.622,32.014,33.241,48.016,49.863   c6.588-17.83,10.162-31.908,12.22-50.769c0.666-6.084,11.508-14.203,14.717-19.725c3.626-6.255-0.419-15.744,10.908-16.688   c8.691-0.723,15.487-0.602,24.121,0.599c6.292,0.873,20.438,0.453,25.128,3.952c14.065,10.483,4.09,35.618,17.397,45.113   c0.789-10.858,2.076-21.688,3.692-32.43c0.536-3.52,5.822-14.505,4.248-17.396c-2.888-5.315-12.936-2.692-15.693-10.027   c10.195,2.757,18.954,9.571,24.206-1.559C451.057,175.051,444.588,164.326,441.142,155.729L441.142,155.729z M361.967,134.684   c0,0-9.171-20.658,0-20.658C377.253,114.026,377.253,134.684,361.967,134.684C361.967,134.684,377.253,134.684,361.967,134.684z"
       id="path6021" /><g
       transform="translate(0,-952.36218)"
       display="inline"
       id="g6025"><path
         stroke="#FFFFFF"
         stroke-width="2.8346"
         stroke-miterlimit="10"
         d="M200.696,1014.841c-2.47,0.233-4.564,2.543-4.554,5.024    v20.103c-0.028,1.81,1.007,3.598,2.59,4.474c0.224,18.726,1.43,36.184-4.945,48.211c-8.892,14.988-12.433,30.313-13.661,43.42    c-1.776,20.152-1.584,47.884-1.57,89.904c0.527,5.493,5.119,9.891,9.892,9.973c24.573,0,47.856,0,80.708,0    c5.524-0.516,9.813-5.105,9.893-9.893c-0.002-42.067-0.079-69.896-2.041-90.061c-1.921-19.74-5.868-32.446-13.582-43.031    c-6.053-12.107-4.784-29.708-4.554-48.524c1.584-0.877,2.619-2.666,2.59-4.475v-20.102c0-2.631-2.393-5.025-5.025-5.025    C237.034,1014.84,217.327,1014.84,200.696,1014.841L200.696,1014.841z M208.783,1044.993h40.039    c-0.084,4.174-0.291,8.373-0.392,12.563h-39.254C209.08,1053.357,208.866,1049.171,208.783,1044.993z M209.097,1067.606h39.333    c0.202,10.549,1.468,20.759,6.045,29.915c8.427,13.904,11.354,27.592,12.563,39.417c1.871,19.24,1.959,46.985,1.96,88.885v0.077    h-0.077c-32.637,0-55.868,0-80.315,0c0.951-29.687-0.807-60.415,1.571-88.962c1.979-14.333,4.968-29.377,12.404-39.337    C207.496,1088.454,208.846,1078.178,209.097,1067.606L209.097,1067.606z"
         id="path6023" /></g></g></svg>