<?xml version="1.0" encoding="UTF-8" standalone="no"?>
<svg
   xmlns:dc="http://purl.org/dc/elements/1.1/"
   xmlns:cc="http://creativecommons.org/ns#"
   xmlns:rdf="http://www.w3.org/1999/02/22-rdf-syntax-ns#"
   xmlns:svg="http://www.w3.org/2000/svg"
   xmlns="http://www.w3.org/2000/svg"
   xmlns:sodipodi="http://sodipodi.sourceforge.net/DTD/sodipodi-0.dtd"
   xmlns:inkscape="http://www.inkscape.org/namespaces/inkscape"
   inkscape:version="1.0 (4035a4fb49, 2020-05-01)"
   sodipodi:docname="former.svg"
   id="svg1057"
   xml:space="preserve"
   viewBox="122.5 0 352 352"
   version="1.1"
   enable-background="new 122.5 0 352 352"
   height="352px"
   width="352px"><defs
     id="defs1061" /><sodipodi:namedview
     inkscape:current-layer="svg1057"
     inkscape:window-maximized="1"
     inkscape:window-y="41"
     inkscape:window-x="2885"
     inkscape:cy="440.20359"
     inkscape:cx="198.51165"
     inkscape:zoom="0.60511364"
     inkscape:pagecheckerboard="true"
     showgrid="false"
     id="namedview1059"
     inkscape:window-height="1025"
     inkscape:window-width="941"
     inkscape:pageshadow="2"
     inkscape:pageopacity="0"
     guidetolerance="10"
     gridtolerance="10"
     objecttolerance="10"
     borderopacity="1"
     bordercolor="#666666"
     pagecolor="#ffffff"
     inkscape:document-rotation="0" /><metadata
     id="metadata1009"><rdf:RDF><cc:Work
         rdf:about=""><dc:format>image/svg+xml</dc:format><dc:type
           rdf:resource="http://purl.org/dc/dcmitype/StillImage" /><dc:title /></cc:Work></rdf:RDF></metadata><path
     transform="translate(122.5)"
     d="M 224.01562 -3.3046875 L 122.98828 -3.2714844 C 67.405582 -3.2381354 20.875852 -3.1040997 19.576172 -2.9707031 C 11.908102 -2.1703242 4.8906819 1.6312297 1.2949219 6.9003906 C -1.9109381 11.569268 -1.6503906 -3.9396395 -1.6503906 172.77734 C -1.6503906 349.49433 -1.9109381 333.98738 1.2949219 338.65625 C 4.2408519 343.02499 9.3528415 346.22692 15.894531 347.92773 L 18.927734 348.69531 L 174.23828 348.69531 L 329.54883 348.69531 L 332.58203 347.92773 C 339.12372 346.22692 344.23571 343.02499 347.18164 338.65625 C 350.3875 333.98738 350.12695 345.06026 350.12695 213.06445 L 350.12695 94.107422 L 301.95312 94.007812 L 256.41016 93.882812 C 263.4424 112.93823 261.08276 145.15989 213.74609 192.97461 C 213.44533 200.64785 214.25114 208.53191 215.55664 210.05664 C 218.14119 212.42637 284.26863 229.37496 288.64453 233.75195 L 288.64648 233.75195 C 294.96906 240.07343 299.38083 278.46692 300.98047 294.67383 C 301.09615 295.86695 300.70462 297.0582 299.90039 297.94727 C 299.09396 298.83853 297.94668 299.3457 296.74805 299.3457 L 55.248047 299.3457 C 54.062637 299.3457 52.931183 298.8497 52.126953 297.98047 C 51.324933 297.10903 50.921172 295.94273 51.013672 294.76172 C 52.293832 278.46228 55.939134 239.89656 62.089844 233.74805 C 66.131934 229.70596 133.13635 213.04334 135.86523 210.48633 C 137.13437 208.87346 137.56019 200.40237 136.80664 192.24219 C 89.729392 144.69893 89.004646 112.47531 96.753906 93.767578 C 107.01612 68.99727 137.16558 52.654297 176.04297 52.654297 C 193.97091 52.654297 210.67992 56.238854 224.33203 62.566406 C 224.24655 56.533843 224.22946 48.077486 224.18945 34.947266 L 224.01562 -3.3046875 z M 241.73438 -2.9042969 C 241.51776 -2.9376459 241.38867 13.503616 241.38867 33.646484 C 241.38867 73.832174 241.25701 71.964647 243.98633 75.132812 C 245.54593 76.967013 249.01236 78.866859 252.52148 79.833984 C 255.03418 80.567664 255.29468 80.567921 302.68945 80.667969 L 350.34375 80.767578 L 296.19141 38.947266 C 266.42888 15.936374 241.90766 -2.8709477 241.73438 -2.9042969 z M 211.16211 109.50195 C 209.21323 114.05192 201.94555 124.21875 176.00195 124.21875 C 150.08038 124.21875 142.89145 114.07235 140.9668 109.50586 C 137.27836 110.01484 128.51172 116.35133 128.51172 134.625 C 128.51172 164.00476 147.03007 206.67773 176.04297 206.67773 C 204.19656 206.67773 222.87795 162.58826 222.87695 133.42773 C 222.87695 116.35049 214.65996 109.98559 211.16211 109.50195 z M 145.61328 196.05664 C 145.94489 202.68218 145.68378 211.24359 142.70703 215.49609 L 176.04297 271.83203 L 208.63086 214.94922 C 205.72791 210.76612 205.13876 202.62717 205.16406 196.42578 C 197.18895 205.5246 187.35789 211.49023 176.04688 211.49023 C 164.06713 211.49023 153.80322 205.37581 145.61328 196.05664 z M 212.6543 217.61523 C 212.6543 217.61523 179.06665 276.94487 178.89258 277.10352 L 190.77344 296.94336 C 190.77344 296.94336 201.92724 261.79131 202.14648 261.64258 L 231.57031 241.49609 L 231.47656 223.75781 C 223.41772 221.33189 216.50359 219.14547 212.6543 217.61523 z M 138.66406 218.14648 C 135.17281 219.54782 129.25727 221.43148 122.27148 223.51367 L 121.60938 241.71289 L 150.00781 261.6582 C 150.23586 261.81905 170.66797 297.00781 170.66797 297.00781 L 178.81445 297.00781 L 138.66406 218.14648 z M 258.85352 253.27344 C 258.16649 253.26993 257.47271 253.32112 256.77148 253.42578 C 253.94786 253.84552 251.55245 255.04942 249.58594 257.03906 C 246.60698 260.05438 245.38755 263.84324 246.49805 268.12109 C 247.73524 272.89249 250.8367 275.76396 255.23242 277.02539 C 255.61801 277.15208 256.0135 277.25988 256.42773 277.35352 C 256.63485 277.40092 256.8367 277.42809 257.04492 277.43359 C 257.70813 277.52719 258.349 277.55603 258.96484 277.52734 C 259.0695 277.51834 259.1798 277.50903 259.31641 277.49023 C 259.60946 277.45823 259.8957 277.41147 260.17773 277.33984 C 260.23503 277.32114 260.28517 277.30847 260.32812 277.29297 C 260.7699 277.1795 261.18883 277.02643 261.58984 276.82812 C 261.94679 276.65408 262.30155 276.45011 262.63867 276.21875 C 263.3779 275.72079 263.9232 275.35476 264.28125 275.12891 C 264.94006 274.73341 265.81037 274.40769 266.88672 274.1543 C 266.90212 273.98905 266.86846 273.8424 266.78906 273.7168 C 266.70866 273.59452 266.55883 273.52834 266.3418 273.51953 C 265.62239 273.44903 264.94001 273.61271 264.29883 274.02148 L 262.49609 275.15234 C 262.10059 275.40132 261.65517 275.57483 261.16602 275.66406 C 260.67247 275.75326 260.27682 275.77344 259.98047 275.73047 C 259.40649 275.64127 258.8362 275.52212 258.30078 275.29297 C 258.1212 275.21807 257.85712 275.12459 257.79102 274.92188 C 257.71612 274.70594 257.91888 274.51292 258.07422 274.39062 C 258.47964 274.20775 258.77059 274.04727 258.95898 273.90625 C 259.18923 273.73769 260.16955 273.04114 259.86328 272.64453 C 259.75421 272.50792 259.48636 272.50728 259.33984 272.55469 C 259.29244 272.54569 259.12363 272.6301 258.82617 272.80859 C 258.7138 272.86589 258.56374 272.95549 258.38086 273.07227 C 258.18256 273.15267 258.02558 273.21254 257.91211 273.25 C 257.55075 273.2875 256.99284 273.34461 256.23047 273.41406 C 255.59039 273.49446 255.04384 273.49446 254.59766 273.41406 C 254.09419 273.35236 253.61706 273.19359 253.17969 272.93359 C 252.58699 272.59978 252.13259 272.26135 251.81641 271.91211 C 251.2281 271.23017 250.87635 270.77517 250.74414 270.54492 C 249.85949 269.0334 249.33698 267.89482 249.18164 267.12695 C 248.94037 265.94153 248.90778 264.79734 249.0918 263.70117 C 249.25264 262.68431 249.58492 261.70271 250.08398 260.75195 C 250.47398 260.02263 250.95437 259.35799 251.51953 258.75977 C 251.57573 258.70357 251.54394 258.74137 251.43164 258.86914 C 253.74738 256.66687 256.2729 255.57396 258.625 255.49023 C 260.99804 255.41533 262.68707 255.65564 264.4707 256.31445 C 266.25323 256.97326 267.86155 258.07943 268.92578 259.63281 C 269.31578 260.18696 269.6127 260.60228 269.82422 260.87109 C 270.05448 261.15312 270.29398 261.35492 270.54297 261.46289 C 270.36449 260.90764 270.14867 260.35784 269.88867 259.8125 C 268.80131 257.61905 267.12239 255.93916 264.84961 254.76367 C 262.91202 253.78206 260.91458 253.28397 258.85352 253.27344 z M 259.89453 257.49414 C 259.68328 257.48822 259.47104 257.4978 259.26172 257.5 L 259.16211 257.5 C 258.62559 257.5705 258.35803 257.80466 258.36133 258.20898 C 258.17845 258.21998 257.88088 258.27194 257.47656 258.37109 C 257.07224 258.46919 256.3009 258.58019 255.15625 258.7168 C 254.55913 258.7873 253.91999 259.17321 253.45508 259.53125 C 252.90865 259.9543 252.46972 260.49568 252.11719 261.08398 C 251.87702 261.4883 251.6604 261.91304 251.5293 262.36914 C 251.2704 263.26811 251.02489 264.29744 251.11523 265.23828 C 251.11923 265.48836 251.14304 265.72713 251.18164 265.96289 L 251.19531 265.95312 C 251.24711 265.90132 251.30428 265.85832 251.35938 265.81641 C 251.42547 265.78891 251.49736 265.77539 251.57227 265.77539 C 251.63287 265.77539 251.69382 265.79294 251.75 265.83594 C 251.8205 265.88224 251.86724 265.93941 251.89258 266 C 251.90578 266.0419 251.92442 266.0419 251.95312 266 L 252.05664 265.85352 C 252.15144 265.72242 252.23513 265.67544 252.31445 265.71289 C 252.35635 265.72719 252.39552 265.7747 252.42969 265.84961 C 252.45719 265.93881 252.48521 265.98458 252.50391 266 C 252.55131 265.89094 252.60673 265.7858 252.68164 265.68555 C 252.72904 265.61945 252.78225 265.5677 252.83398 265.53906 C 252.89568 265.50596 252.95068 265.50268 252.99805 265.52148 C 253.01785 265.53048 253.03453 265.53516 253.04883 265.53516 C 253.06313 265.53916 253.0758 265.53916 253.0957 265.53516 C 253.11 265.53516 253.1289 265.52138 253.1543 265.48828 C 253.2061 265.43208 253.251 265.38737 253.30273 265.35547 C 253.36443 265.31247 253.43195 265.30492 253.49805 265.32812 L 253.57227 265.37109 C 253.60867 265.40299 253.63842 265.43148 253.66602 265.45898 C 253.68032 265.41158 253.69956 265.37488 253.72266 265.3418 L 253.77539 265.28125 C 253.81729 265.24385 253.87821 265.23388 253.95312 265.23828 C 254.01483 265.25808 254.06229 265.30024 254.08984 265.36523 C 254.09984 265.38833 254.11095 265.4027 254.12305 265.4082 C 254.13735 265.4122 254.1829 265.38493 254.25781 265.33203 C 254.33271 265.27583 254.41482 265.25743 254.49414 265.26953 C 254.56354 265.27553 254.64088 265.29893 254.72461 265.33203 C 254.78191 265.27583 254.85788 265.21129 254.95703 265.13086 C 254.92843 265.10226 254.87667 265.06025 254.81055 264.99414 C 254.75875 264.95674 254.69565 264.90887 254.61523 264.85156 C 254.52713 264.79976 254.4432 264.75871 254.36719 264.7168 C 254.36319 264.7168 254.35586 264.71103 254.35156 264.70703 L 254.3418 264.70703 L 254.30469 264.68555 C 254.28599 264.67655 254.26138 264.6675 254.23828 264.6543 C 254.17218 264.6268 254.07456 264.59219 253.95117 264.55469 C 253.87627 264.52719 253.79952 264.50357 253.72461 264.48047 C 253.23987 264.3714 252.94816 264.16455 252.8457 263.85938 C 253.46595 263.94858 253.86805 264.01903 254.04102 264.06641 C 254.39356 264.14571 254.62821 264.22305 254.74609 264.29688 C 254.66679 264.12831 254.60973 263.98376 254.57227 263.85156 L 253.86719 263.62109 C 253.95979 263.54619 254.01643 263.50391 254.03516 263.50391 C 254.09136 263.49891 254.153 263.5 254.22461 263.5 C 254.31821 263.5 254.39729 263.50014 254.45898 263.49414 C 254.44998 263.44344 254.43068 263.33768 254.39648 263.19336 C 254.36008 263.01378 254.35107 262.89637 254.35547 262.8457 C 254.36547 262.7895 254.38377 262.72951 254.41797 262.67773 C 254.47967 262.54553 254.60603 262.46469 254.79883 262.43164 C 254.96849 262.40854 255.14739 262.42698 255.3457 262.48828 L 256.48633 262.93945 C 256.51943 262.95925 256.55713 262.97593 256.5957 262.99023 L 256.68555 263.04883 L 256.88867 263.25195 L 256.93555 263.20898 C 257.12835 263.08229 257.33533 262.96974 257.54688 262.875 C 257.71654 262.7913 257.90521 262.73783 258.10352 262.72461 C 258.14982 262.71861 258.19658 262.71338 258.25391 262.70898 C 258.71001 262.67708 259.06242 262.71925 259.3125 262.83594 C 259.43479 262.90314 259.53967 262.95218 259.62891 262.98633 C 259.78976 263.02933 259.91613 263.06164 260.00977 263.08594 C 260.14087 263.13774 260.25547 263.1886 260.35352 263.23047 C 260.44822 263.26907 260.54587 263.33244 260.64062 263.40625 C 260.69793 263.44485 260.78626 263.51022 260.91406 263.60938 C 261.12999 263.77241 261.38494 263.93886 261.67578 264.10742 C 261.90714 264.23962 262.14105 264.4011 262.38672 264.58398 C 262.72163 264.83407 263.03207 265.11901 263.35156 265.38672 C 263.6391 265.63129 263.99666 265.83451 264.23242 266.13086 C 264.30622 266.21016 264.35712 266.30985 264.37695 266.42773 C 264.38095 266.47513 264.39159 266.54928 264.40039 266.64844 C 264.40039 266.73764 264.40522 266.81331 264.41992 266.875 C 264.41992 266.879 264.42529 266.92265 264.43359 267.00195 C 264.43759 267.05815 264.44283 267.09501 264.45703 267.10938 C 264.51873 267.18866 264.53154 267.26117 264.49414 267.32617 C 264.47984 267.37797 264.43643 267.41613 264.37695 267.44922 C 264.31965 267.47672 264.28405 267.51477 264.25977 267.55664 L 264.05859 267.56055 C 263.91207 267.58365 263.58259 267.58374 263.07031 267.55664 C 263.35234 267.8574 263.63058 267.98016 263.9082 267.91406 C 264.18583 267.85676 264.25235 267.89101 264.11133 268.00781 C 263.96481 268.13891 263.86427 268.21941 263.8125 268.24805 L 263.72852 268.30078 C 263.63042 268.33828 263.55569 268.35756 263.50391 268.34766 C 263.45211 268.34166 263.4133 268.33789 263.39453 268.33789 C 263.37473 268.33789 263.35257 268.32916 263.32617 268.31836 C 263.29747 268.30936 263.25506 268.29883 263.19336 268.29883 L 263.1875 268.29883 C 263.04648 268.29883 262.87169 268.30917 262.66016 268.32227 L 262.66016 268.32812 C 262.60286 268.56277 262.48722 268.75642 262.29883 268.90625 C 262.25693 268.94925 262.20422 268.99036 262.14258 269.02344 L 261.97266 269.09766 C 261.79419 269.17366 261.60701 269.21469 261.4043 269.22461 L 260.00195 269.25195 C 260.00195 269.24795 260.00423 269.23732 260.01562 269.22852 L 260.88086 269.13477 L 260.91797 269.13477 L 261.21094 269.09766 C 261.26714 269.09366 261.32418 269.08362 261.38477 269.07812 C 261.59189 269.05503 261.81367 268.98451 262.05273 268.86328 C 262.09573 268.83578 262.13779 268.80007 262.17969 268.76367 C 262.37358 268.52791 262.47752 268.32952 262.48633 268.17969 L 262.5 268.14258 L 262.50391 268.12305 C 262.51391 268.07565 262.51758 268.03019 262.51758 267.98828 C 262.52158 267.89358 262.51821 267.80894 262.50391 267.72852 C 262.49991 267.67232 262.48976 267.62921 262.47656 267.5918 C 262.44346 267.45519 262.40105 267.35662 262.34375 267.29492 C 261.61994 266.33976 260.88014 265.42303 259.90625 264.69922 C 259.0921 264.11973 258.15117 263.63501 257.16406 263.50391 L 256.83984 263.46484 L 256.76367 263.4375 L 256.74609 263.42383 C 256.66569 263.34893 256.61398 263.29588 256.58203 263.26172 L 256.50977 263.20703 L 255.24023 262.60742 L 255.11719 262.58008 C 254.91448 262.52828 254.73787 262.53802 254.57812 262.60742 C 254.55943 262.62172 254.54516 262.63037 254.53516 262.63477 C 254.52616 262.63877 254.50224 262.67807 254.46484 262.74414 C 254.42734 262.81024 254.42357 262.91938 254.45117 263.07031 L 254.52734 263.48828 L 254.53906 263.48828 C 254.68008 263.48828 254.88875 263.52189 255.17188 263.58789 C 255.4539 263.68269 255.62736 263.75521 255.70117 263.8125 C 255.90829 263.96343 256.07968 264.10183 256.2207 264.22852 C 256.40358 264.42572 256.54939 264.64214 256.65625 264.88672 C 256.78405 265.15002 256.93856 265.43216 257.12695 265.72852 C 257.26796 265.94445 257.4327 266.1755 257.62109 266.41016 C 257.77202 266.58423 257.95629 266.79414 258.17773 267.0332 C 258.25153 267.1081 258.35558 267.22031 258.49219 267.36133 C 258.61448 267.49243 258.89756 267.90254 259.34375 268.58008 C 259.53654 268.87753 259.70454 269.18296 259.85547 269.49805 C 260.08572 269.57735 260.34903 269.67704 260.64648 269.79492 C 260.77318 269.84672 260.93903 269.91322 261.14062 269.99805 C 261.34334 270.09725 261.50176 270.16552 261.61523 270.21289 C 261.96887 270.36933 262.32324 270.47166 262.67578 270.52344 C 263.04704 270.56644 263.1971 270.4495 263.12109 270.17188 C 263.89778 270.28092 264.45431 270.20426 264.7793 269.94531 C 264.99523 269.78116 265.18762 269.58912 265.36719 269.36328 C 265.46089 269.2465 265.54908 269.11757 265.63281 268.97656 C 265.8873 268.37393 265.71538 267.82233 265.11719 267.31445 C 265.32431 266.83412 265.32053 266.39651 265.10352 265.99219 C 264.85784 265.57355 264.66821 265.24357 264.53711 265.00781 C 263.60949 263.33655 262.61282 261.69034 261.67969 260.00586 C 261.66099 259.96396 261.66099 259.93885 261.67969 259.93555 C 261.67969 259.92125 261.70199 259.91797 261.74609 259.91797 C 261.86728 259.89817 262.00677 259.87516 262.16211 259.84766 C 262.26131 259.82786 262.40486 259.79115 262.59766 259.73828 C 262.89732 259.67218 263.22403 259.5702 263.56445 259.43359 C 263.99742 259.25512 264.38189 259.03299 264.7168 258.75977 C 264.8479 258.66617 264.95619 258.57071 265.04102 258.47266 C 265.15339 258.3636 265.2441 258.25605 265.30469 258.14258 C 265.36639 258.05448 265.38443 257.97821 265.36133 257.91211 C 265.32383 257.85041 265.24714 257.82276 265.13477 257.81836 C 265.07087 257.82536 264.99609 257.82693 264.91016 257.83203 L 264.91211 257.83008 C 264.84271 257.83908 264.76647 257.85008 264.68164 257.86328 C 264.24427 257.91948 263.81673 258.0922 263.39258 258.20898 C 262.91225 258.34118 262.42765 258.45022 261.92969 258.48438 C 261.7358 258.49757 261.52073 258.48841 261.39844 258.33789 C 261.35214 258.28059 261.32213 258.20918 261.28906 258.13867 C 261.13813 257.84673 260.83156 257.6599 260.51758 257.57617 C 260.31487 257.52164 260.10578 257.50006 259.89453 257.49414 z M 261.55664 262.11719 C 261.63594 262.11719 261.70698 262.15415 261.76758 262.22461 C 261.80948 262.27641 261.84263 262.33805 261.86133 262.41406 C 261.86533 262.48346 261.85748 262.55499 261.83398 262.62109 C 261.79648 262.68719 261.74958 262.73403 261.69336 262.77148 C 261.63166 262.81338 261.56174 262.83398 261.48242 262.83398 C 261.40312 262.82398 261.32963 262.79118 261.27344 262.73828 C 261.21614 262.68648 261.17943 262.61864 261.15625 262.53711 C 261.15225 262.46661 261.15659 262.40058 261.17969 262.33008 C 261.20719 262.25958 261.25405 262.20262 261.33008 262.16406 C 261.40058 262.12216 261.47622 262.10729 261.55664 262.11719 z M 260.33398 263.82422 C 260.26458 263.80442 260.1921 263.81733 260.11719 263.86523 C 260.04229 263.91813 259.99069 263.96871 259.96094 264.0293 C 259.94334 264.0921 259.93693 264.16873 259.95703 264.24805 C 259.97133 264.32845 260.00374 264.39514 260.05664 264.44141 C 260.11834 264.49321 260.19251 264.52148 260.27734 264.52148 C 260.35664 264.53578 260.43305 264.52237 260.49805 264.48047 C 260.55535 264.44187 260.5975 264.38951 260.625 264.32227 C 260.6448 264.26167 260.65284 264.1971 260.64844 264.12109 C 260.62974 264.04179 260.59073 263.97415 260.53125 263.91797 C 260.48385 263.85517 260.41771 263.82862 260.33398 263.82422 z M 254.63867 263.88672 L 254.79492 264.30078 L 255.72656 264.87109 C 255.42029 264.30593 255.05842 263.98146 254.63867 263.88672 z M 258.08789 264.79688 C 258.17269 264.80486 258.23874 264.83723 258.29492 264.89453 C 258.35112 264.95073 258.38427 265.01528 258.38867 265.0957 C 258.40407 265.1662 258.39332 265.23177 258.35742 265.28906 C 258.33762 265.35956 258.29582 265.41176 258.23633 265.44922 C 258.17463 265.48232 258.09901 265.49609 258.00977 265.49609 C 257.93047 265.49609 257.86378 265.47453 257.81641 265.42383 C 257.76021 265.37093 257.7168 265.30468 257.69922 265.21875 C 257.67942 265.14935 257.69447 265.07882 257.73047 265.00391 C 257.75027 264.92901 257.79703 264.87729 257.87305 264.83984 C 257.94245 264.79684 258.01407 264.78368 258.08789 264.79688 z M 254.42969 265.49023 C 254.38616 265.49726 254.3458 265.51487 254.31055 265.54297 C 254.28745 265.55727 254.2542 265.58405 254.2168 265.62695 C 254.165 265.66885 254.11894 265.68898 254.08594 265.67578 C 254.05834 265.66978 254.01843 265.64581 253.97656 265.59961 L 253.88867 265.49609 C 253.85557 265.49609 253.82619 265.51851 253.80859 265.57031 C 253.77999 265.62211 253.75698 265.65026 253.73828 265.66016 C 253.70078 265.68656 253.64382 265.67498 253.56445 265.61328 C 253.47415 265.56588 253.41261 265.54845 253.36523 265.56055 C 253.32883 265.57055 253.29885 265.60665 253.28125 265.67383 C 253.24825 265.74763 253.22268 265.79086 253.20508 265.80078 C 253.16208 265.82828 253.11532 265.81964 253.05469 265.77344 C 252.99299 265.72604 252.95483 265.70312 252.93945 265.70312 C 252.92625 265.70312 252.90893 265.71246 252.89453 265.72656 C 252.88023 265.74086 252.86063 265.76302 252.83203 265.79492 C 252.81223 265.81802 252.77153 265.88953 252.71094 266.00195 C 252.64924 266.11432 252.59656 266.18084 252.55469 266.20508 C 252.51279 266.22818 252.46977 266.23234 252.41797 266.21484 C 252.37167 266.19504 252.33276 266.15824 252.31836 266.09766 C 252.29526 265.98088 252.2637 265.92964 252.2207 265.94727 C 252.1888 265.96707 252.14664 266.01768 252.09375 266.11133 C 252.04195 266.18623 251.98477 266.23859 251.92969 266.26172 C 251.90659 266.26772 251.88102 266.27158 251.85352 266.26758 C 251.81162 266.25758 251.76941 266.20656 251.73633 266.10742 C 251.71763 266.07552 251.6906 266.04458 251.6543 266.02148 C 251.6157 266.00278 251.57704 265.99365 251.53516 265.99805 C 251.47896 266.00405 251.42628 266.02745 251.37891 266.06055 C 251.33151 266.09365 251.28995 266.15536 251.24805 266.24023 C 251.36593 266.85717 251.5541 267.43404 251.80859 267.98047 C 252.27571 268.13141 252.91011 267.86699 253.71875 267.18945 C 254.0162 266.59124 254.22147 266.14987 254.34375 265.85352 C 254.39555 265.73123 254.47116 265.61432 254.57031 265.50195 C 254.52076 265.48765 254.47321 265.48321 254.42969 265.49023 z M 256.15039 266.43555 C 256.07549 266.42125 256.00264 266.43552 255.92773 266.47852 C 255.85723 266.51492 255.81074 266.56873 255.7832 266.64258 C 255.7501 266.70428 255.73951 266.77505 255.75391 266.85547 C 255.77371 266.93477 255.81041 267.00486 255.86328 267.05664 C 255.91948 267.09524 255.98988 267.11815 256.07031 267.12695 C 256.15511 267.13695 256.23553 267.11615 256.30273 267.06445 C 256.36333 267.03695 256.40039 266.99095 256.41797 266.91602 C 256.46097 266.86532 256.46987 266.80376 256.45117 266.73438 C 256.43687 266.64958 256.40472 266.58218 256.35742 266.5293 C 256.30122 266.4676 256.23081 266.44105 256.15039 266.43555 z M 256.48047 269.4668 C 256.42427 269.491 256.3477 269.52831 256.24414 269.58008 C 255.93787 269.74864 255.6703 269.94568 255.44336 270.16602 C 255.31666 270.29271 255.13324 270.61843 254.88867 271.14062 C 254.86887 271.19683 254.84487 271.25847 254.82617 271.33008 C 255.27236 271.6022 255.74883 271.83259 256.25781 272.02539 L 256.32812 272.04883 C 256.35122 272.05883 256.37448 272.06897 256.39648 272.07227 L 256.41211 272.07227 C 256.42211 272.07227 256.43482 272.07564 256.44922 272.08594 C 256.45822 272.08994 256.46826 272.09726 256.47266 272.10156 L 256.47266 272.10742 C 256.47666 272.11142 256.48815 272.11119 256.49805 272.11719 C 256.63356 272.16349 256.70818 272.19127 256.73242 272.20117 C 256.87784 272.27607 257.024 272.29545 257.17383 272.24805 C 257.22123 272.22825 257.25893 272.20425 257.2832 272.18555 C 257.3295 272.14255 257.36265 272.07266 257.37695 271.97461 C 257.47615 271.93711 257.54398 271.90415 257.57812 271.87109 C 257.60563 271.85129 257.62633 271.81865 257.64062 271.78125 C 257.65933 271.74385 257.65918 271.71229 257.64648 271.68359 C 257.78639 271.65609 257.88717 271.61248 257.94336 271.55078 C 258.01826 271.48908 258.04756 271.40108 258.0332 271.2832 C 258.0272 271.1896 257.99004 271.10472 257.91406 271.02539 C 257.97686 270.97799 258.02323 270.92207 258.05078 270.85156 L 258.05078 270.75195 C 258.41874 270.63847 258.88466 270.33305 259.45312 269.83398 C 259.42563 269.83998 259.39128 269.84813 259.35938 269.86133 C 259.31637 269.88003 259.27527 269.90012 259.24219 269.91992 C 259.15299 269.94742 259.07767 269.9624 259.02148 269.9668 L 258.15039 270.25781 L 258.01953 270.16406 C 257.95343 270.28194 257.84855 270.38001 257.70312 270.46484 C 257.5621 270.54964 257.45527 270.65686 257.38477 270.78906 C 257.30877 270.92127 257.26578 270.98879 257.25586 270.98438 C 257.22836 270.62192 257.28132 270.23815 257.41797 269.84375 C 257.39037 269.83975 257.36113 269.82385 257.32812 269.81055 C 257.17279 269.73125 256.93923 269.61442 256.62305 269.4668 C 256.57125 269.4404 256.52339 269.4404 256.48047 269.4668 z M 264.95898 272.57422 C 264.86625 272.57243 264.77303 272.59438 264.67773 272.64258 C 263.82943 273.06673 263.04753 273.71765 262.32812 274.5957 L 261.45312 275.4707 L 264.13086 273.77148 C 264.90314 273.28674 265.44373 273.11715 265.75 273.26367 C 265.50295 272.8084 265.23718 272.57959 264.95898 272.57422 z M 263.50586 273.01562 C 262.69612 272.92533 262.11121 273.23082 261.75977 273.94141 C 261.74437 273.97001 261.52376 274.47338 261.09961 275.44727 C 261.66918 274.88762 262.14481 274.37848 262.5293 273.91797 C 262.91599 273.45196 263.24146 273.15223 263.50586 273.01562 z M 255.69727 279.05273 C 255.65537 279.05273 255.61755 279.05611 255.58008 279.06641 C 255.49638 279.08951 255.43554 279.13722 255.39258 279.21875 C 255.40258 279.36968 255.341 279.47518 255.4082 279.66797 C 255.4082 279.67397 255.48202 279.75758 255.62305 279.91406 L 255.65039 279.94141 C 255.80573 280.10556 255.9033 280.16686 255.95508 280.125 C 256.09279 279.99831 256.17644 279.82351 256.20508 279.59766 L 256.20703 279.59766 C 256.23453 279.37182 256.18301 279.21218 256.05078 279.11523 C 255.95158 279.09103 255.87745 279.07521 255.83008 279.06641 C 255.78818 279.05641 255.74028 279.05273 255.69727 279.05273 z M 270.32422 279.875 C 270.28122 279.875 270.24451 279.88122 270.20703 279.89062 C 269.925 279.96553 269.63229 280.04031 269.33594 280.11523 C 269.00213 280.20443 268.72374 280.309 268.50781 280.42578 C 268.31501 280.50178 268.12333 280.57548 267.93164 280.65039 C 267.72782 280.74959 267.62481 280.88614 267.60938 281.05469 C 267.60938 281.24308 267.77412 281.3714 268.10352 281.4375 C 268.06602 281.9641 268.04261 282.26042 268.03711 282.33203 C 268.00401 282.33603 267.94314 282.36968 267.85938 282.42578 C 267.78337 282.47318 267.74549 282.51994 267.74219 282.57617 C 267.72239 282.68524 267.79826 282.79313 267.9668 282.91211 C 267.915 283.32084 267.915 283.7914 267.9668 284.3125 C 267.9866 284.48657 268.06656 284.64755 268.20312 284.79297 C 268.33975 284.93509 268.49015 285.02455 268.6543 285.06641 C 269.19083 285.21294 269.81771 285.27032 270.53711 285.24609 C 270.63181 285.24209 270.70603 285.19699 270.75781 285.11328 C 270.80961 285.03288 270.82339 284.94471 270.80469 284.85547 C 270.74739 284.56903 270.63611 284.44266 270.46094 284.47461 C 270.42894 284.47461 270.38688 284.49752 270.33398 284.54492 C 270.27778 284.58682 270.2251 284.61133 270.17773 284.61133 C 269.48146 284.63893 268.99687 284.55266 268.71484 284.35547 C 268.66744 284.26297 268.64453 284.12608 268.64453 283.95312 C 268.64453 283.69424 268.70159 283.34463 268.81836 282.89844 C 268.98691 282.83674 269.2087 282.80038 269.48633 282.79492 C 269.82565 282.79092 270.05544 282.77089 270.17773 282.74219 C 270.25263 282.74619 270.31541 282.72453 270.36719 282.67383 C 270.42889 282.59453 270.47115 282.55093 270.48438 282.54102 C 270.52627 282.51792 270.54492 282.48467 270.54492 282.44727 C 270.54492 282.40977 270.50422 282.33323 270.42383 282.21094 C 270.30705 282.14044 270.15989 282.10742 269.99023 282.10742 C 269.90103 282.10742 269.7592 282.1212 269.56641 282.1543 C 269.37361 282.1774 269.23622 282.19336 269.14258 282.19336 C 269.02029 282.19336 268.91201 282.17763 268.81836 282.14453 C 268.83816 281.60801 268.87436 281.26131 268.93164 281.10156 C 269.15197 281.01676 269.47684 280.9172 269.9043 280.79492 C 270.3604 280.65059 270.68726 280.54822 270.9043 280.45898 C 270.9462 280.43588 270.96875 280.39747 270.96875 280.3457 C 270.96875 280.3182 270.95374 280.26729 270.93164 280.20117 C 270.91184 280.13507 270.89857 280.08758 270.88867 280.06445 C 270.66834 279.93775 270.47846 279.875 270.32422 279.875 z M 259.14258 279.91211 C 258.75699 279.91211 258.38063 280.12418 258.02148 280.55273 C 257.40564 281.29086 257.09961 282.19078 257.09961 283.25391 C 257.09961 283.45221 257.10945 283.65224 257.12695 283.85938 C 257.20735 284.5369 257.26042 284.91893 257.28906 285.01367 C 257.32656 285.14477 257.39173 285.28622 257.47656 285.43164 C 257.57016 285.57817 257.65591 285.72472 257.73633 285.86133 C 258.06574 286.40776 258.37492 286.76017 258.66797 286.91992 C 258.82771 286.99042 258.94462 287.0283 259.01953 287.03711 C 259.09333 287.05581 259.16486 287.02828 259.22656 286.95898 C 259.29266 286.87858 259.32227 286.78825 259.32227 286.68359 C 259.32227 286.58549 259.27441 286.51467 259.17969 286.46289 C 259.09049 286.42539 259.00184 286.38954 258.9082 286.34766 C 258.69667 286.22537 258.51702 286.01656 258.36719 285.72461 C 258.30549 285.60343 258.20692 285.35349 258.07031 284.9668 C 257.90616 284.5063 257.82031 284.01243 257.82031 283.49023 C 257.82031 282.36982 258.15514 281.45813 258.81836 280.75195 C 258.88886 280.68255 259.05832 280.61979 259.33594 280.5625 C 259.55738 280.5195 259.66602 280.42036 259.66602 280.26172 C 259.66602 280.16147 259.64261 280.0975 259.59961 280.06445 C 259.4619 279.96525 259.31224 279.91211 259.14258 279.91211 z M 249.16992 279.92188 C 249.12572 279.93304 249.08864 279.95925 249.06055 280 C 248.76309 280.36135 248.3921 280.89273 247.94922 281.58789 C 247.43142 282.38882 247.06469 282.93933 246.84766 283.25 C 246.82016 283.254 246.78275 283.25337 246.72656 283.26367 C 246.54809 283.28237 246.4393 283.30148 246.40625 283.33008 C 246.35885 283.35758 246.33181 283.38706 246.31641 283.41016 C 246.31241 283.44646 246.34015 283.51863 246.40625 283.62109 C 246.47675 283.71579 246.50996 283.76692 246.5 283.78125 C 246.39644 284.02692 246.17526 284.35674 245.83594 284.77539 C 245.544 285.13674 245.37159 285.43852 245.32422 285.6875 C 245.29562 285.8142 245.37608 285.94106 245.56445 286.06445 C 245.70987 286.15805 245.82763 286.15805 245.91797 286.06445 C 246.09644 285.84301 246.31192 285.51354 246.56641 285.07617 C 246.85395 284.59473 247.05485 284.27283 247.17383 284.09766 C 247.3523 284.00846 247.57213 283.9796 247.83984 284.02148 C 248.05136 284.05898 248.27415 284.09679 248.5 284.13867 C 248.504 284.49121 248.48539 284.92947 248.43359 285.44727 C 248.36749 285.91769 248.48101 286.22406 248.77734 286.375 C 248.81924 286.3893 248.90406 286.36152 249.03516 286.29102 C 249.17177 286.22932 249.26818 286.13075 249.31445 285.99414 C 249.33425 285.91814 249.34154 285.82491 249.33594 285.70703 C 249.29844 284.62958 249.3661 283.2868 249.52148 281.68164 C 249.57328 281.40953 249.62435 281.14126 249.68164 280.86914 C 249.71354 280.54414 249.67103 280.28475 249.54883 280.08203 C 249.48713 280.00713 249.41346 279.95588 249.32422 279.93164 C 249.26583 279.91344 249.21413 279.91071 249.16992 279.92188 z M 261.79688 280.05469 C 261.6834 280.05469 261.60762 280.09258 261.58008 280.17188 C 261.42474 280.54864 261.24493 281.09459 261.04883 281.80078 C 260.82045 282.60717 260.65252 283.1492 260.53906 283.44727 C 260.47774 283.46703 260.40939 283.49415 260.33398 283.53125 C 260.25798 283.56875 260.20553 283.60206 260.17578 283.64062 C 260.14938 283.67372 260.13477 283.70713 260.13477 283.74023 C 260.13477 283.76773 260.17728 283.81899 260.26758 283.89062 C 260.35128 283.95673 260.39779 284.00846 260.41211 284.03711 C 260.37461 284.24863 260.2616 284.56849 260.08203 285.00586 C 259.92669 285.38814 259.86323 285.69322 259.88086 285.91797 C 259.89086 286.02703 259.99651 286.11699 260.19922 286.1875 C 260.35015 286.2349 260.45178 286.20116 260.49805 286.09766 C 260.59165 285.86741 260.69197 285.53343 260.79883 285.10156 C 260.9068 284.63114 261.00076 284.27763 261.08008 284.04297 L 261.55078 283.86914 C 261.83832 283.80304 262.0595 283.7983 262.21484 283.8457 C 262.32391 284.15087 262.42139 284.52683 262.51172 284.97852 C 262.59102 285.39716 262.77447 285.63277 263.06641 285.69336 C 263.10391 285.69936 263.17624 285.65525 263.27539 285.56055 C 263.37349 285.47685 263.42578 285.37705 263.42578 285.25586 C 263.42578 285.18096 263.40469 285.09169 263.36719 284.99805 C 263.0466 284.08475 262.73887 282.92833 262.44141 281.52148 C 262.40951 281.26478 262.37626 281.0152 262.34766 280.76953 C 262.29586 280.48749 262.19259 280.27628 262.02734 280.13086 C 261.96124 280.07906 261.88171 280.05469 261.79688 280.05469 z M 253.69141 280.27148 C 253.54048 280.27148 253.45622 280.33814 253.4375 280.46484 C 253.2436 282.06559 253.10682 283.26478 253.01758 284.05469 C 252.79174 283.65148 252.5431 283.05684 252.27539 282.28125 C 251.99225 281.45829 251.76066 280.86526 251.57227 280.50391 C 251.37397 280.34747 251.22465 280.27293 251.12109 280.27734 C 250.90957 280.27734 250.79737 280.34776 250.79297 280.48438 C 250.77867 280.63531 250.71261 281.43385 250.60352 282.88477 C 250.53302 283.83883 250.5 284.6312 250.5 285.25586 C 250.5 285.62272 250.50483 285.97368 250.51953 286.30859 C 250.52553 286.40779 250.5289 286.50632 250.5332 286.60547 C 250.5519 286.72335 250.59841 286.79328 250.67773 286.81641 C 250.70633 286.83071 250.76374 286.86481 250.85742 286.91211 C 250.91912 286.93961 250.9718 286.95313 251.01367 286.95312 C 251.06107 286.95313 251.10799 286.93448 251.1543 286.89258 C 251.25896 286.82648 251.31105 286.70761 251.30664 286.53906 C 251.27804 286.06423 251.26367 285.59963 251.26367 285.15234 C 251.26367 284.20269 251.31579 283.30277 251.41602 282.45117 C 251.42502 282.40487 251.43787 282.36556 251.45117 282.3457 C 252.09125 283.98281 252.59603 285.16571 252.96289 285.89062 C 253.09068 286.14402 253.2441 286.27148 253.43359 286.27148 C 253.53169 286.27148 253.61699 286.23368 253.6875 286.16211 C 253.7624 286.08721 253.80043 286.00346 253.79492 285.9043 C 253.78062 285.7027 253.77734 285.50008 253.77734 285.29297 C 253.77734 284.65289 253.82384 283.85214 253.92188 282.89258 C 254.00886 282.07733 254.08839 281.27783 254.16992 280.48242 C 254.15562 280.42072 254.11771 280.37826 254.05273 280.34961 C 254.03293 280.34561 253.97757 280.33229 253.88281 280.30469 C 253.81341 280.28489 253.75311 280.27148 253.69141 280.27148 z M 265.47266 280.40234 C 264.83809 280.37594 264.48883 280.54525 264.42383 280.91211 C 264.33463 281.46736 264.29102 282.14338 264.29102 282.95312 L 264.29102 283.93359 C 264.28702 284.41392 264.2732 284.82289 264.25 285.16992 C 264.24 285.21292 264.22547 285.31617 264.20117 285.49023 C 264.17367 285.64557 264.16016 285.76378 264.16016 285.85742 C 264.16016 286.15818 264.29139 286.33895 264.55469 286.39844 C 264.59769 286.41934 264.6492 286.40861 264.71094 286.37891 C 264.77154 286.35141 264.81054 286.33203 264.82812 286.33203 C 264.90303 286.03567 264.95914 285.64164 264.99219 285.14258 C 265.03959 284.48818 265.07164 284.08257 265.08594 283.93164 C 265.34484 284.15307 265.73512 284.5453 266.26172 285.10938 C 266.73765 285.61174 267.13254 285.98735 267.45312 286.23633 C 267.73957 286.16143 267.88086 286.05373 267.88086 285.91602 C 267.88086 285.89292 267.87212 285.8693 267.85352 285.8418 C 267.67945 285.54875 267.3869 285.22248 266.97266 284.8457 C 266.32267 284.2574 265.99414 283.96109 265.99414 283.95117 C 265.89494 283.87077 265.80033 283.79367 265.70117 283.71875 C 265.57999 283.61079 265.51367 283.51682 265.51367 283.4375 C 265.51367 283.367 265.56529 283.29997 265.66992 283.23828 C 265.93213 283.09175 266.15746 282.89546 266.33594 282.64648 C 266.53975 282.37877 266.64453 282.1015 266.64453 281.81836 C 266.64453 281.47904 266.53624 281.16985 266.32031 280.88672 C 266.08014 280.57604 265.79766 280.41667 265.47266 280.40234 z M 255.69336 280.74219 C 255.54794 280.74219 255.44926 280.79815 255.38867 280.91602 C 255.39767 281.06585 255.40234 281.21575 255.40234 281.37109 L 255.40234 281.6543 C 255.38364 282.04099 255.33663 282.55122 255.26172 283.18359 C 255.16252 283.98342 255.11523 284.58967 255.11523 285.00391 C 255.11523 285.23526 255.12593 285.45059 255.14453 285.66211 C 255.17203 285.87474 255.30851 285.98423 255.55859 285.99414 C 255.74147 285.99814 255.85677 285.91808 255.91406 285.75391 C 255.91006 285.60298 255.9043 285.44635 255.9043 285.29102 C 255.9043 284.87238 255.94755 284.25665 256.03125 283.44141 C 256.11605 282.6559 256.1543 282.06413 256.1543 281.6543 L 256.1543 281.5957 C 256.1543 281.41282 256.14897 281.23462 256.13867 281.06055 C 256.13067 280.90632 256.11096 280.82227 256.09766 280.82227 C 256.08424 280.82274 256.06154 280.83053 256.03906 280.84961 C 255.92558 280.77911 255.80683 280.74219 255.69336 280.74219 z M 265.40625 281.04883 C 265.58913 281.04883 265.73107 281.10009 265.82031 281.19922 C 265.90951 281.29842 265.96174 281.41077 265.98047 281.54297 C 265.99047 281.62777 265.98159 281.72101 265.96289 281.83008 C 265.89679 282.1738 265.61429 282.53158 265.11523 282.89844 C 265.12953 282.7376 265.12953 282.53559 265.11523 282.29102 C 265.09653 281.96932 265.08594 281.77268 265.08594 281.69336 C 265.08594 281.50497 265.10277 281.34003 265.13477 281.18359 C 265.17217 281.09549 265.25973 281.04883 265.40625 281.04883 z M 261.7793 281.82422 C 261.8355 282.06439 261.89534 282.3039 261.95703 282.54297 C 262.01433 282.81619 262.05053 283.06677 262.07031 283.28711 C 261.66048 283.28711 261.41115 283.29645 261.31641 283.31055 C 261.45301 282.8159 261.60524 282.32328 261.7793 281.82422 z M 248.7168 281.83398 C 248.697 282.1028 248.67459 282.37506 248.65039 282.6582 C 248.61729 282.96777 248.57803 283.24115 248.52734 283.48242 C 248.09328 283.36784 247.82817 283.30788 247.72461 283.29688 C 248.02978 282.80331 248.36426 282.31322 248.7168 281.83398 z "
     style="fill:#ffffff;fill-opacity:1;stroke:none;stroke-width:0.0380101"
     id="path4911" /><g
     id="g1017"
     display="none"><path
       id="path1011"
       display="inline"
       d="m280.15 112.9c-1.483-7.136-10.494-26.179-5.571-29.942 9.244-7.073 22.036 3.679 32.001 8.149 1.717-6.297 3.428-12.592 5.15-18.889 2.051-7.536 2.981-7.06 10.528-9.938 7.392-2.823 22.99 9.948 30.994 11.252 13.718 2.239 27.435 4.475 41.15 6.71 8.778 1.429 23.23-6.477 31.799-9.075-11.633 24.7-35.865 26.054-59.815 30.601 4.082 1.605 13.208 3.157 15.787 6.691 5.005 6.856 10.017 13.716 15.021 20.569 8.993 12.321 19.184 24.334 26.97 37.471 6.11 10.306 23.641 30.012 5.967 39.544-7.758 4.182-11.469 9.119-19.062 4.453-7.911-4.856-9.793-4.814-17.705-9.674 7.388 7.563 8.758 10.228 16.137 17.788-14.129 3.454-20.066 1.672-34.269-2.298-13.076-3.656-22.551 4.331-34.693 10.057-8.852 4.172-13.153 14.193-18.627 22.111-4.939 7.156-9.871 14.319-14.745 21.518-1.859 2.75-8.474 9.59-8.474 13.133 0-2.798-6.28-9.744-7.735-12.104-6.224-10.058-12.373-20.158-18.533-30.26-13.833-22.716-27.605-45.467-41.37-68.227-2.938-4.863-5.881-9.729-8.813-14.592-3.003-4.973 1.746-22.734 2.222-28.8 0.346-4.269 49.089-14.38 55.686-16.248zm89.948 20.176c-12.404 0-12.412 19.24 0 19.24 12.405-1e-3 12.405-19.24 0-19.24-5.314 0 5.318 0 0 0z" /><g
       id="g1015"
       display="inline"
       transform="translate(0 -952.36)"><path
         id="path1013"
         stroke-width="2.8346"
         stroke-miterlimit="10"
         stroke="#fff"
         d="m199.55 1014.7c-2.47 0.233-4.564 2.543-4.554 5.024v20.103c-0.028 1.81 1.007 3.598 2.59 4.474 0.224 18.726 1.43 36.184-4.945 48.211-8.892 14.988-12.433 30.313-13.661 43.42-1.776 20.152-1.584 47.884-1.57 89.904 0.527 5.493 5.119 9.891 9.892 9.973h80.708c5.524-0.516 9.813-5.105 9.893-9.893-2e-3 -42.067-0.08-69.896-2.041-90.061-1.92-19.74-5.868-32.446-13.582-43.031-6.053-12.107-4.784-29.708-4.554-48.524 1.583-0.877 2.619-2.666 2.59-4.475v-20.102c0-2.631-2.393-5.025-5.025-5.025-19.403 0-39.11 0-55.741 2e-3zm8.087 30.151h40.039c-0.084 4.174-0.291 8.373-0.392 12.563h-39.254c-0.096-4.199-0.31-8.385-0.393-12.563zm0.314 22.613h39.333c0.202 10.549 1.468 20.759 6.045 29.915 8.427 13.904 11.354 27.592 12.563 39.417 1.871 19.24 1.959 46.985 1.96 88.885v0.077h-0.077-80.316c0.951-29.687-0.807-60.415 1.571-88.962 1.979-14.333 4.968-29.377 12.404-39.337 4.916-9.147 6.266-19.423 6.517-29.995z" /></g></g><g
     id="g1037"
     display="none"><g
       id="g1023"
       display="inline"><path
         id="path1019"
         d="m368.9-180.67l0.118-0.181c-5.808-6.692-16.565-29.229-18.013-34.513-0.899-3.285 0.441-5.514 1.423-7.14 0.96-1.596 1.358-2.354 0.723-3.626-0.698-1.396-2.64-2.304-4.516-3.182-2.747-1.288-5.863-2.745-5.863-6.225 0-3.033 1.564-4.276 2.707-5.181 0.988-0.782 1.485-1.178 1.39-2.612-0.106-1.559-1.692-2.507-3.926-3.68-1.843-0.968-3.749-1.969-3.959-3.879-0.217-1.972 0.943-3.167 1.876-4.128 0.817-0.839 1.52-1.566 1.627-2.844 0.068-0.832-0.221-1.084-1.141-1.765-1.108-0.816-2.785-2.049-2.357-5.042 0.099-0.681 0.232-1.284 0.358-1.846 0.544-2.428 0.817-3.649-5.378-8.515-6.086-4.783-8.954-14.808-8.563-21.814 0.239-4.264 1.665-7.415 4.017-8.87 3.693-2.289 8.156-2.607 12.898-0.925 7.357 2.604 14.324 9.659 16.941 17.155 2.872 8.211 3.666 8.176 5.394 8.11 0.464-0.017 0.97-0.032 1.535-0.01 2.304 0.129 3.813-0.655 5.274-1.409 1.696-0.87 3.626-1.859 5.936-0.384 2.837 1.803 2.609 3.795 2.458 5.111-0.118 1.059-0.172 1.498 0.99 2.302 1.31 0.902 2.668 0.418 4.754-0.474 1.771-0.756 3.976-1.704 5.735-0.094 2.776 2.549 0.958 4.889 0.083 6.016-0.214 0.278-0.532 0.684-0.614 0.893 0.042 0.015 0.145 0.119 0.36 0.262 1.188 0.792 3.31 1.155 4.026 1.228l0.756 0.076 0.36 0.668c1.471 2.728 0.354 4.495-0.241 5.444-0.089 0.134-0.197 0.305-0.257 0.423 0.035 0.025 0.093 0.085 0.178 0.162 0.477 0.416 0.661 0.486 0.668 0.489 0.694-0.363 1.729-0.603 3.752 0.502 2.504 1.367 2.429 3.646 2.376 5.156-0.038 1.17-0.016 1.752 0.367 2.188 0.108-0.162 0.23-0.353 0.331-0.512 0.832-1.311 2.216-3.502 5.3-3.502 1.744 0 2.697 0.747 3.271 1.192 0.068 0.054 0.158 0.122 0.224 0.169 0.038-0.058 0.234-0.177 0.56-0.443 1.044-0.873 0.898-1.188 0.419-2.237-0.43-0.936-1.321-2.876 0.781-4.521 1.757-1.375 3.994-0.761 5.87 0.27-0.011-5.801-0.144-17.145-0.28-23.092-0.255-11.077-15.198-34.583-42.864-40.014-3.344-0.659-6.76-0.991-10.153-0.991-23.803 0-45.849 16.15-63.781 35.61 9.736 13.998 15.223 31.444 18.23 47.609 4.352 23.379 4.332 47.687-0.888 70.93-3.38 15.047-9.007 32.391-18.54 45.876 11.383 9.847 21.703 17.117 26.303 20.232 1.153-2.08 3.104-5.174 6.266-9.128 2.129-2.662 4.713-4.197 7.207-5.685 5.103-3.041 10.38-6.185 13.96-20.179 2.939-11.513 10.008-16.948 15.165-20.919 2.61-2.01 4.867-3.745 4.867-5.144 0-5.622-5.152-11.78-5.204-11.84l-1.296-1.527z" /><path
         id="path1021"
         d="m454.21-207.04l-0.776-0.788 0.018-2.383c0.056-2.942 0.137-6.971-2.004-10.479-1.41-2.309-18.628-23.271-30.264-37.292-1.747-1.576-4.393-3.194-5.368-2.443-0.182 0.142-0.249 0.237-0.26 0.263-5e-3 0.119 0.187 0.534 0.313 0.81 0.538 1.17 1.537 3.351-1.188 5.625-1.932 1.606-3.144 1.288-4.372 0.331-0.437-0.338-0.749-0.585-1.51-0.585-1.41 0-2.027 0.819-2.882 2.171-0.559 0.879-1.188 1.875-2.346 2.042-0.726 0.102-1.446-0.156-2.146-0.766-1.591-1.389-1.53-3.229-1.484-4.574 0.051-1.533-8e-3 -2.07-0.891-2.551-1.031-0.565-1.255-0.479-1.475-0.394-1.208 0.466-2.115 0.22-3.456-0.956-2.032-1.775-0.971-3.458-0.465-4.264 0.419-0.661 0.7-1.109 0.426-1.934-1.108-0.184-3.061-0.625-4.49-1.578-0.948-0.633-1.478-1.352-1.616-2.199-0.206-1.275 0.575-2.281 1.2-3.088 0.999-1.284 1.019-1.445 0.244-2.154-0.367-0.337-1.301 0.023-2.677 0.616-2.032 0.87-4.812 2.068-7.509 0.197-2.571-1.778-2.35-3.704-2.204-4.977 0.127-1.082 0.177-1.531-1.149-2.373-0.845-0.537-1.341-0.388-3.097 0.515-1.545 0.794-3.632 1.896-6.73 1.721-0.475-0.025-0.889-5e-3 -1.267 0.011-3.644 0.156-5.083-1.077-8.212-10.025-2.314-6.626-8.703-13.105-15.193-15.402-2.721-0.963-6.745-1.631-10.44 0.66-1.516 0.938-2.486 3.344-2.67 6.601-0.353 6.375 2.342 15.375 7.476 19.407 6.888 5.416 7.24 7.63 6.399 11.389-0.112 0.495-0.232 1.027-0.315 1.626-0.19 1.301 0.252 1.624 1.218 2.335 0.993 0.731 2.499 1.84 2.296 4.304-0.19 2.299-1.482 3.628-2.426 4.599-0.856 0.882-1.148 1.245-1.086 1.825 0.046 0.401 1.609 1.221 2.448 1.662 2.206 1.157 5.228 2.746 5.446 6.021 0.197 2.932-1.344 4.152-2.466 5.042-0.978 0.776-1.624 1.288-1.624 2.942 0 1.581 1.601 2.411 4.215 3.633 2.213 1.036 4.719 2.209 5.86 4.496 1.367 2.729 0.148 4.75-0.829 6.376-0.908 1.506-1.692 2.807-1.115 4.912 1.413 5.161 11.589 26.105 16.894 32.77l2.899-4.423c4.77-4.765 12.326-6.07 19.3-3.219 4.887 1.999 16.145 2.642 20.07 2.723l0.946 0.02 0.726 0.604c3.403 2.818 13.749 10.133 20.693 10.133 0.895 0 1.698-0.126 2.407-0.386 11.668-4.147 14.441-14.271 14.47-14.374l0.303-1.154 1.059-0.556c0.028-0.015 4.16-2.273 4.16-5.799 0-3.611-3.449-7.23-3.484-7.266zm-66.928-46.701c0.533-0.581 1.44-0.615 2.019-0.079l7.89 7.305c0.582 0.537 0.615 1.439 0.078 2.02-0.28 0.305-0.666 0.458-1.049 0.458-0.348 0-0.698-0.126-0.971-0.38l-7.89-7.305c-0.579-0.537-0.615-1.439-0.077-2.019zm-23.953-9.79c-0.673-0.414-0.883-1.294-0.469-1.967 0.116-0.191 2.919-4.619 10.238-3.291 6.987 1.269 11.591 8.825 11.782 9.145 0.406 0.676 0.189 1.553-0.488 1.959-0.23 0.138-0.484 0.204-0.734 0.204-0.484 2e-3 -0.958-0.245-1.226-0.691-0.04-0.068-4.139-6.767-9.844-7.806-5.41-0.981-7.272 1.944-7.294 1.974-0.41 0.674-1.289 0.886-1.965 0.473zm1.771 10.44c0-3.039 3.198-5.5 7.142-5.5 3.94 0 7.138 2.461 7.138 5.5 0 3.035-3.197 5.491-7.138 5.491-3.946 0-7.142-2.453-7.142-5.491zm32.519 16.691c-0.043 0.204-1.163 5.02-8.994 6.654-6.452 1.341-12.778 8.524-12.838 8.598-0.285 0.323-0.682 0.489-1.079 0.489-0.333 0-0.668-0.116-0.938-0.353-0.598-0.517-0.657-1.419-0.142-2.015 0.283-0.325 7.013-7.979 14.413-9.521 5.892-1.228 6.752-4.344 6.787-4.478 0.191-0.752 0.971-1.221 1.715-1.052 0.758 0.18 1.24 0.917 1.076 1.678zm47.55 43.24c-5.652-1.65-3.654-9.736-3.654-9.736l7.597 2.433c-1e-3 -1e-3 2.047 9.056-3.943 7.303z" /></g><g
       id="g1027"
       display="inline"><path
         id="path1025"
         d="m432.41 153.62c-0.767-6.544-12.032-15.344-16.311-19.861-11.34-11.941-27.39-20.21-39.741-31.274-5.877-5.265-9.435-12.337-18.004-14.12-8.545-1.784-17.485-1.046-26.204-1.046-3.839 0-6.267 3.626-10.353 4.716-7.339 1.954-3.331-1.816-9.02-4.716-1.33-0.677-9.69-0.623-10.496 0.481-2.336 3.217-4.02 6.694-5.851 10.223-1.463-2.716-3.038-3.901-5.546-5.572-2.789-1.853-3.268 0.49-5.332 2.847-3.199 3.641-7.376 6.103-10.633 10.051-2.124-2.355-12.157-5.107-15.792-5.273-1.535-0.072-4.143 1.325-4.08 2.477 6e-3 0.113 0.018 0.217 0.025 0.327 12.007 2.119 24.001 6.986 33.157 13.967 16.109 12.282 23.836 33.652 27.411 52.863 3.66 19.662 3.644 40.104-0.746 59.652-1.369 6.097-3.189 12.64-5.591 19.055 11.435 13.066 24.94 23.685 45.013 32.286 15.142 6.494 7.417-6.624 12.377-8.112 2.476-0.742 13.463-3.674 11.107-6.454-1.534-1.807-4.072-3.191-5.965-4.599-2.585-1.924-0.193-3.249 1.441-5.677 3.586-5.33 6.158-4.695 3.958-11.379-1.695-5.201-3.409-7.612-6.987-11.792 5.707 0 9.699 0.036 5.351-8.451-2.25-4.404 2.2-3.668 5.187-4.227 2.983-0.565-2.574-4.956-3.926-6.906-4.199-6.086-5.496-1.27-0.989-7.462 4.52-6.201 2.514-5.576-1.674-8.778-4.105-3.144-6.489-3.325-5.479-8.4 0.78-3.912 8.295-3.47 11.86-4 4.264-0.63 7.341-3.05 10.762-5.627 2.962-2.249 7.041-1.402 9.521 0.623 4.105 3.362 5.133 2.975 10.539 2.553 2.946-0.223 6.884-2.79 8.49-5.204 2.875-4.307 1.184-4.733-1.753-8.917 6.2 0.83 7.638 2.012 11.834-2.539 4.065-4.39 3.156-5.683 2.44-11.735zm-72.296-23.482c-5.292 0-9.578-4.286-9.578-9.574 0-5.292 4.286-9.581 9.578-9.581 5.287 0 9.568 4.289 9.568 9.581 3e-3 5.291-4.281 9.574-9.568 9.574z" /></g><g
       id="g1035"
       display="inline"><path
         id="path1029"
         stroke-miterlimit="10"
         stroke="#fff"
         d="m313.74 170.67c-3.574-19.211-11.302-40.582-27.41-52.863-13.125-10.007-32.082-15.689-48.548-15.123-31.18 0.418-75.306 20.85-72.473 58.103 3.052 40.176 58.096 28.463 76.195 55.251 6.728 9.951 7.553 23.729 7.934 35.372 0.273 8.317-1.635 18.19 2.977 25.684 7.52 12.225 24.951 10.409 34.853 2.663 14.463-11.303 21.85-32.172 25.728-49.436 4.387-19.547 4.404-39.99 0.744-59.651zm-16.952 94.688c-4.753 7.647-11.446 15.278-20.479 17.696-7.839 2.093-18.284-0.047-22.381-7.73-4.462-8.382-1.952-20.523-2.645-29.738-0.634-8.481-1.577-17.498-5.038-25.34-12.688-28.777-52.6-20.854-71.66-42.104-13.418-14.96-6.827-37.997 6.056-50.971 14.662-14.771 36.704-21.981 57.143-22.57 14.303 0.591 29.349 4.327 41.764 11.563 15.158 8.838 23.905 25.391 28.763 41.73 10.297 34.671 7.868 76.29-11.523 107.46z" /><path
         id="path1031"
         stroke-miterlimit="10"
         stroke="#fff"
         d="m280.74 122.77c-12.691-9.039-49.711-19.889-76.92-5.758-27.209 14.129-31.566 32.458-30.614 45.265 1.711 23.039 49.83 28.593 62.147 35.623 16.207 9.247 23.649 35.558 22.021 51.858-1.621 16.203 2.955 27.262 12.582 27.644 7.868 0.311 13.728 0.881 24.404-19.064 2.581-4.818 5.285-11.746 8.008-19.258 18.877-52.051-3.785-103.61-21.628-116.31zm-62.973 47.197c-7.818 0-14.157-6.339-14.157-14.158s6.336-14.154 14.157-14.154c7.82 0 14.157 6.337 14.157 14.158 0 7.817-6.34 14.154-14.157 14.154z" /><path
         id="path1033"
         stroke-miterlimit="10"
         stroke="#fff"
         d="m217.76 143.23c-6.951 0-12.583 5.633-12.583 12.584 0 6.95 5.632 12.583 12.583 12.583 6.95 0 12.583-5.633 12.583-12.583 0-6.951-5.636-12.584-12.583-12.584zm0 24.308c-6.477 0-11.725-5.25-11.725-11.728 0-6.475 5.248-11.724 11.725-11.724s11.725 5.25 11.725 11.724c0 6.479-5.251 11.728-11.725 11.728z" /></g></g><g
     id="g1041"
     display="none"><path
       id="path1039"
       display="inline"
       d="m412.71 278.19c-2.11-15.284-8.02-41.303-13.066-45.74-0.3-0.263-65.797-29.795-65.797-29.795 7.623-9.399 12.812-20.387 14.987-28.426 5.68-3.813 7.999-16.228 6.377-24.758l48.978-4.832c1.842-0.181 3.283-1.666 3.412-3.512 0.13-1.847-1.094-3.518-2.893-3.952l-48.121-11.678c-0.299-8.633-2.568-33.202-18.26-49.292-9.316-9.552-21.69-14.396-36.776-14.396-15.097 0-27.342 4.851-36.395 14.419-15.157 16.024-16.752 40.44-16.808 49.224l-53.043 11.706c-1.824 0.402-3.083 2.073-2.97 3.937 0.113 1.865 1.565 3.37 3.425 3.548l53.171 5.125c-1.339 9.207 1.663 21.243 6.547 24.53 1.522 5.666 5.56 18.105 13.899 28.951 0 0-66.613 28.881-66.944 29.205-4.691 4.568-10.724 33.363-13.103 45.528-0.216 1.113 0.078 2.264 0.796 3.141 0.721 0.877 1.796 1.382 2.93 1.382h215.89c1.098 0 2.141-0.475 2.862-1.302 0.72-0.828 1.047-1.925 0.899-3.013zm-51.681-24.658h9.692v23.216h-137.8v-23.216h10.603c1.188 0 2.15-0.965 2.15-2.15v-29.619l14.829-6.41v36.029c0 1.188 0.962 2.15 2.151 2.15h79.25c1.188 0 2.15-0.965 2.15-2.15v-36.071l14.828 6.382v29.689c-1e-3 1.188 0.959 2.15 2.147 2.15zm-83.451-45.636c7.206 6.442 15.288 9.713 24.092 9.713 8.11 0 16.279-3.567 23.853-10.356 0.177 0.113 4.998 2.233 4.998 2.233-1.611 9.104-9.791 16.06-19.635 16.06h-19.095c-10.12 0-17.952-6.449-19.28-15.381-6e-3 2e-3 4.899-2.161 5.067-2.269zm-15.158-37.097c-0.316-1.321-1.316-2.374-2.623-2.756-0.216-0.065-1.03-0.724-1.875-2.846-2.098-5.277-0.138-16.58 0.139-17.239 16.703 0.947 71.424 0.923 87.905-0.072 0.322 0.666 2.485 11.195 0.574 16.675-0.871 2.505-1.767 3.319-2.006 3.407-1.334 0.382-2.352 1.459-2.658 2.812-1.809 7.982-16.447 42.534-40.207 42.534-25.649-4e-3 -38.181-38.068-39.249-42.515zm-8.422 85.871c-4.032 0-7.311 3.281-7.311 7.313s3.279 7.313 7.311 7.313 7.311-3.281 7.311-7.313-3.279-7.313-7.311-7.313zm97.466 0c-4.03 0-7.309 3.281-7.309 7.313s3.278 7.313 7.309 7.313c4.032 0 7.312-3.281 7.312-7.313s-3.28-7.313-7.312-7.313z" /></g><g
     id="g1055"
     display="none"><path
       id="path1049"
       display="inline"
       d="m441.14 155.73c-20.929-20.917-43.684-39.743-65.698-59.461-12.563-11.251-23.415-9.524-38.819-12.728-12.728-2.65-29.591-9.125-42.178-6.221-16.172 3.73-29.449 5.09-42.412 15.278-5.829 4.585-36.023 24.294-31.691 34.383 2.768 6.469 32.551-16.598 38.519-19.912 12.849-7.132 30.158-4.222 42.149 1.78-15.159 16.63-24.987 32.617-33.125 53.534-7.583 19.486-18.164 33.048-34.983 44.996 16.979 7.804 31.797 12.983 44.663 26.347 16.007 16.622 32.014 33.241 48.016 49.863 6.588-17.83 10.162-31.908 12.22-50.769 0.666-6.084 11.508-14.203 14.717-19.725 3.626-6.255-0.419-15.744 10.908-16.688 8.691-0.723 15.487-0.602 24.121 0.599 6.292 0.873 20.438 0.453 25.128 3.952 14.065 10.483 4.09 35.618 17.397 45.113 0.789-10.858 2.076-21.688 3.692-32.43 0.536-3.52 5.822-14.505 4.248-17.396-2.888-5.315-12.936-2.692-15.693-10.027 10.195 2.757 18.954 9.571 24.206-1.559 4.53-9.607-1.939-20.332-5.385-28.929zm-79.175-21.045s-9.171-20.658 0-20.658c15.286 0 15.286 20.658 0 20.658 0 0 15.286 0 0 0z" /><g
       id="g1053"
       display="inline"
       transform="translate(0 -952.36)"><path
         id="path1051"
         stroke-width="2.8346"
         stroke-miterlimit="10"
         stroke="#fff"
         d="m200.7 1014.8c-2.47 0.233-4.564 2.543-4.554 5.024v20.103c-0.028 1.81 1.007 3.598 2.59 4.474 0.224 18.726 1.43 36.184-4.945 48.211-8.892 14.988-12.433 30.313-13.661 43.42-1.776 20.152-1.584 47.884-1.57 89.904 0.527 5.493 5.119 9.891 9.892 9.973h80.708c5.524-0.516 9.813-5.105 9.893-9.893-2e-3 -42.067-0.079-69.896-2.041-90.061-1.921-19.74-5.868-32.446-13.582-43.031-6.053-12.107-4.784-29.708-4.554-48.524 1.584-0.877 2.619-2.666 2.59-4.475v-20.102c0-2.631-2.393-5.025-5.025-5.025-19.403 1e-3 -39.11 1e-3 -55.741 2e-3zm8.087 30.152h40.039c-0.084 4.174-0.291 8.373-0.392 12.563h-39.254c-0.096-4.199-0.31-8.385-0.393-12.563zm0.314 22.613h39.333c0.202 10.549 1.468 20.759 6.045 29.915 8.427 13.904 11.354 27.592 12.563 39.417 1.871 19.24 1.959 46.985 1.96 88.885v0.077h-0.077-80.315c0.951-29.687-0.807-60.415 1.571-88.962 1.979-14.333 4.968-29.377 12.404-39.337 4.915-9.147 6.265-19.423 6.516-29.995z" /></g></g></svg>
