<?xml version="1.0" encoding="UTF-8" standalone="no"?>
<svg
   xmlns:dc="http://purl.org/dc/elements/1.1/"
   xmlns:cc="http://creativecommons.org/ns#"
   xmlns:rdf="http://www.w3.org/1999/02/22-rdf-syntax-ns#"
   xmlns:svg="http://www.w3.org/2000/svg"
   xmlns="http://www.w3.org/2000/svg"
   xmlns:sodipodi="http://sodipodi.sourceforge.net/DTD/sodipodi-0.dtd"
   xmlns:inkscape="http://www.inkscape.org/namespaces/inkscape"
   width="352px"
   height="352px"
   enable-background="new 122.5 0 352 352"
   version="1.1"
   viewBox="122.5 0 352 352"
   xml:space="preserve"
   id="svg2853"
   sodipodi:docname="meat-sheep.svg"
   inkscape:version="1.0 (4035a4fb49, 2020-05-01)"><defs
     id="defs2857" /><sodipodi:namedview
     inkscape:document-rotation="0"
     pagecolor="#ffffff"
     bordercolor="#666666"
     borderopacity="1"
     objecttolerance="10"
     gridtolerance="10"
     guidetolerance="10"
     inkscape:pageopacity="0"
     inkscape:pageshadow="2"
     inkscape:window-width="1920"
     inkscape:window-height="1049"
     id="namedview2855"
     showgrid="false"
     inkscape:pagecheckerboard="true"
     inkscape:zoom="1.7737934"
     inkscape:cx="260.86893"
     inkscape:cy="164.13999"
     inkscape:window-x="1920"
     inkscape:window-y="31"
     inkscape:window-maximized="0"
     inkscape:current-layer="svg2853" /><metadata
     id="metadata2805"><rdf:RDF><cc:Work
         rdf:about=""><dc:format>image/svg+xml</dc:format><dc:type
           rdf:resource="http://purl.org/dc/dcmitype/StillImage" /><dc:title /></cc:Work></rdf:RDF></metadata><g
     display="none"
     id="g2813"><path
       d="m280.15 112.9c-1.483-7.136-10.494-26.179-5.571-29.942 9.244-7.073 22.036 3.679 32.001 8.149 1.717-6.297 3.428-12.592 5.15-18.889 2.051-7.536 2.981-7.06 10.528-9.938 7.392-2.823 22.99 9.948 30.994 11.252 13.718 2.239 27.435 4.475 41.15 6.71 8.778 1.429 23.23-6.477 31.799-9.075-11.633 24.7-35.865 26.054-59.815 30.601 4.082 1.605 13.208 3.157 15.787 6.691 5.005 6.856 10.017 13.716 15.021 20.569 8.993 12.321 19.184 24.334 26.97 37.471 6.11 10.306 23.641 30.012 5.967 39.544-7.758 4.182-11.469 9.119-19.062 4.453-7.911-4.856-9.793-4.814-17.705-9.674 7.388 7.563 8.758 10.228 16.137 17.788-14.129 3.454-20.066 1.672-34.269-2.298-13.076-3.656-22.551 4.331-34.693 10.057-8.852 4.172-13.153 14.193-18.627 22.111-4.939 7.156-9.871 14.319-14.745 21.518-1.859 2.75-8.474 9.59-8.474 13.133 0-2.798-6.28-9.744-7.735-12.104-6.224-10.058-12.373-20.158-18.533-30.26-13.833-22.716-27.605-45.467-41.37-68.227-2.938-4.863-5.881-9.729-8.813-14.592-3.003-4.973 1.746-22.734 2.222-28.8 0.346-4.269 49.089-14.38 55.686-16.248zm89.948 20.176c-12.404 0-12.412 19.24 0 19.24 12.405-1e-3 12.405-19.24 0-19.24-5.314 0 5.318 0 0 0z"
       display="inline"
       id="path2807" /><g
       transform="translate(0 -952.36)"
       display="inline"
       id="g2811"><path
         d="m199.55 1014.7c-2.47 0.233-4.564 2.543-4.554 5.024v20.103c-0.028 1.81 1.007 3.598 2.59 4.474 0.224 18.726 1.43 36.184-4.945 48.211-8.892 14.988-12.433 30.313-13.661 43.42-1.776 20.152-1.584 47.884-1.57 89.904 0.527 5.493 5.119 9.891 9.892 9.973h80.708c5.524-0.516 9.813-5.105 9.893-9.893-2e-3 -42.067-0.08-69.896-2.041-90.061-1.92-19.74-5.868-32.446-13.582-43.031-6.053-12.107-4.784-29.708-4.554-48.524 1.583-0.877 2.619-2.666 2.59-4.475v-20.102c0-2.631-2.393-5.025-5.025-5.025-19.403 0-39.11 0-55.741 2e-3zm8.087 30.151h40.039c-0.084 4.174-0.291 8.373-0.392 12.563h-39.254c-0.096-4.199-0.31-8.385-0.393-12.563zm0.314 22.613h39.333c0.202 10.549 1.468 20.759 6.045 29.915 8.427 13.904 11.354 27.592 12.563 39.417 1.871 19.24 1.959 46.985 1.96 88.885v0.077h-0.077-80.316c0.951-29.687-0.807-60.415 1.571-88.962 1.979-14.333 4.968-29.377 12.404-39.337 4.916-9.147 6.266-19.423 6.517-29.995z"
         stroke="#fff"
         stroke-miterlimit="10"
         stroke-width="2.8347"
         id="path2809" /></g></g><g
     display="none"
     id="g2839"><path
       d="m412.71 278.19c-2.11-15.284-8.02-41.303-13.066-45.74-0.3-0.263-65.797-29.795-65.797-29.795 7.623-9.399 12.812-20.387 14.987-28.426 5.68-3.813 7.999-16.228 6.377-24.758l48.978-4.832c1.842-0.181 3.283-1.666 3.412-3.512 0.13-1.847-1.094-3.518-2.893-3.952l-48.121-11.678c-0.299-8.633-2.568-33.202-18.26-49.292-9.316-9.552-21.69-14.396-36.776-14.396-15.097 0-27.342 4.851-36.395 14.419-15.157 16.024-16.752 40.44-16.808 49.224l-53.043 11.706c-1.824 0.402-3.083 2.073-2.97 3.937 0.113 1.865 1.565 3.37 3.425 3.548l53.171 5.125c-1.339 9.207 1.663 21.243 6.547 24.53 1.522 5.666 5.56 18.105 13.899 28.951 0 0-66.613 28.881-66.944 29.205-4.691 4.568-10.724 33.363-13.103 45.528-0.216 1.113 0.078 2.264 0.796 3.141 0.721 0.877 1.796 1.382 2.93 1.382h215.89c1.098 0 2.141-0.475 2.862-1.302 0.72-0.828 1.047-1.925 0.899-3.013zm-51.681-24.658h9.692v23.216h-137.8v-23.216h10.603c1.188 0 2.15-0.965 2.15-2.15v-29.619l14.829-6.41v36.029c0 1.188 0.962 2.15 2.151 2.15h79.25c1.188 0 2.15-0.965 2.15-2.15v-36.071l14.828 6.382v29.689c-1e-3 1.188 0.959 2.15 2.147 2.15zm-83.451-45.636c7.206 6.442 15.288 9.713 24.092 9.713 8.11 0 16.279-3.567 23.853-10.356 0.177 0.113 4.998 2.233 4.998 2.233-1.611 9.104-9.791 16.06-19.635 16.06h-19.095c-10.12 0-17.952-6.449-19.28-15.381-6e-3 2e-3 4.899-2.161 5.067-2.269zm-15.158-37.097c-0.316-1.321-1.316-2.374-2.623-2.756-0.216-0.065-1.03-0.724-1.875-2.846-2.098-5.277-0.138-16.58 0.139-17.239 16.703 0.947 71.424 0.923 87.905-0.072 0.322 0.666 2.485 11.195 0.574 16.675-0.871 2.505-1.767 3.319-2.006 3.407-1.334 0.382-2.352 1.459-2.658 2.812-1.809 7.982-16.447 42.534-40.207 42.534-25.649-4e-3 -38.181-38.068-39.249-42.515zm-8.422 85.871c-4.032 0-7.311 3.281-7.311 7.313s3.279 7.313 7.311 7.313 7.311-3.281 7.311-7.313-3.279-7.313-7.311-7.313zm97.466 0c-4.03 0-7.309 3.281-7.309 7.313s3.278 7.313 7.309 7.313c4.032 0 7.312-3.281 7.312-7.313s-3.28-7.313-7.312-7.313z"
       display="inline"
       id="path2837" /></g><g
     display="none"
     id="g2843"><path
       d="m403.97 222.96c-3.972-3.973-63.995-19.358-66.341-21.509-1.185-1.384-1.917-8.54-1.644-15.505 44.261-44.708 45.203-74.4 38.129-91.478-8.953-21.615-38.236-35.89-72.352-35.89-35.289 0-62.656 14.833-71.971 37.317-7.034 16.981-6.377 46.231 36.355 89.386 0.684 7.407 0.298 15.097-0.854 16.561-2.477 2.321-63.296 17.445-66.965 21.114-5.583 5.581-8.893 40.587-10.055 55.382-0.084 1.072 0.283 2.131 1.011 2.922 0.73 0.789 1.757 1.238 2.833 1.238h219.21c1.088 0 2.129-0.46 2.861-1.269 0.73-0.807 1.085-1.888 0.98-2.971-1.452-14.711-5.456-49.56-11.195-55.298zm-51.892-9.073l0.086 16.102-26.709 18.286c-0.199 0.135-10.322 32.044-10.322 32.044l-10.785-18.01c0.158-0.144 30.645-53.997 30.645-53.997 3.494 1.389 9.77 3.373 17.085 5.575zm-50.316-15.502c-26.335 0-43.145-38.735-43.145-65.403 0-16.587 7.958-22.339 11.306-22.801 1.747 4.145 8.272 13.356 31.801 13.356 23.549 0 30.146-9.229 31.915-13.359 3.175 0.439 10.633 6.217 10.633 21.718 1e-3 26.469-16.955 66.489-42.51 66.489zm-27.622-9.642c7.434 8.459 16.751 14.01 27.625 14.01 10.267 0 19.19-5.416 26.429-13.675-0.023 5.629 0.513 13.017 3.148 16.814l-29.58 51.633-30.26-51.137c2.702-3.86 2.939-11.631 2.638-17.645zm-6.308 20.051l36.446 71.583h-7.396s-18.546-31.941-18.753-32.087l-25.777-18.105 0.601-16.518c6.341-1.89 11.71-3.601 14.879-4.873z"
       display="inline"
       id="path2841" /></g><g
     display="none"
     id="g2851"><path
       d="m441.14 155.73c-20.929-20.917-43.684-39.743-65.698-59.461-12.563-11.251-23.415-9.524-38.819-12.728-12.728-2.65-29.591-9.125-42.178-6.221-16.172 3.73-29.449 5.09-42.412 15.278-5.829 4.585-36.023 24.294-31.691 34.383 2.768 6.469 32.551-16.598 38.519-19.912 12.849-7.132 30.158-4.222 42.149 1.78-15.159 16.63-24.987 32.617-33.125 53.534-7.583 19.486-18.164 33.048-34.983 44.996 16.979 7.804 31.797 12.983 44.663 26.347 16.007 16.622 32.014 33.241 48.016 49.863 6.588-17.83 10.162-31.908 12.22-50.769 0.666-6.084 11.508-14.203 14.717-19.725 3.626-6.255-0.419-15.744 10.908-16.688 8.691-0.723 15.487-0.602 24.121 0.599 6.292 0.873 20.438 0.453 25.128 3.952 14.065 10.483 4.09 35.618 17.397 45.113 0.789-10.858 2.076-21.688 3.692-32.43 0.536-3.52 5.822-14.505 4.248-17.396-2.888-5.315-12.936-2.692-15.693-10.027 10.195 2.757 18.954 9.571 24.206-1.559 4.53-9.607-1.939-20.332-5.385-28.929zm-79.175-21.045s-9.171-20.658 0-20.658c15.286 0 15.286 20.658 0 20.658 0 0 15.286 0 0 0z"
       display="inline"
       id="path2845" /><g
       transform="translate(0 -952.36)"
       display="inline"
       id="g2849"><path
         d="m200.7 1014.8c-2.47 0.233-4.564 2.543-4.554 5.024v20.103c-0.028 1.81 1.007 3.598 2.59 4.474 0.224 18.726 1.43 36.184-4.945 48.211-8.892 14.988-12.433 30.313-13.661 43.42-1.776 20.152-1.584 47.884-1.57 89.904 0.527 5.493 5.119 9.891 9.892 9.973h80.708c5.524-0.516 9.813-5.105 9.893-9.893-2e-3 -42.067-0.079-69.896-2.041-90.061-1.921-19.74-5.868-32.446-13.582-43.031-6.053-12.107-4.784-29.708-4.554-48.524 1.584-0.877 2.619-2.666 2.59-4.475v-20.102c0-2.631-2.393-5.025-5.025-5.025-19.403 1e-3 -39.11 1e-3 -55.741 2e-3zm8.087 30.152h40.039c-0.084 4.174-0.291 8.373-0.392 12.563h-39.254c-0.096-4.199-0.31-8.385-0.393-12.563zm0.314 22.613h39.333c0.202 10.549 1.468 20.759 6.045 29.915 8.427 13.904 11.354 27.592 12.563 39.417 1.871 19.24 1.959 46.985 1.96 88.885v0.077h-0.077-80.315c0.951-29.687-0.807-60.415 1.571-88.962 1.979-14.333 4.968-29.377 12.404-39.337 4.915-9.147 6.265-19.423 6.516-29.995z"
         stroke="#fff"
         stroke-miterlimit="10"
         stroke-width="2.8347"
         id="path2847" /></g></g><path
     transform="translate(122.5)"
     d="M 0 0 L 0 9.6816406 L 0 19.361328 L 2.9667969 19.361328 C 5.7184669 19.361328 6.0742444 19.477555 7.3964844 20.484375 C 8.1826744 21.103957 9.1844512 22.227138 9.6132812 22.962891 C 10.328001 24.240779 10.363281 24.743774 10.363281 35.199219 L 10.363281 46.082031 L 8.46875 48.210938 L 6.5761719 50.341797 L 3.2871094 50.341797 L 0 50.341797 L 0 175.80664 L 0 301.27148 L 3.109375 301.27148 C 6.575775 301.27148 7.5759075 301.73719 9.3984375 304.29297 L 10.363281 305.64844 L 10.363281 316.49023 C 10.363281 326.86823 10.328041 327.3725 9.6132812 328.65039 C 9.1844512 329.38614 8.1826744 330.50737 7.3964844 331.12695 C 6.0742444 332.13377 5.7184669 332.25 2.9667969 332.25 L 0 332.25 L 0 342.125 L 0 352 L 176 352 L 352 352 L 352 341.93164 L 352 331.86328 L 349.17773 331.86328 C 346.53326 331.86328 346.24585 331.78676 344.81641 330.625 C 342.02897 328.30157 341.99414 328.03089 341.99414 316.375 L 341.99414 306.07422 L 342.92383 304.48633 C 343.45988 303.6344 344.53023 302.47147 345.31641 301.89062 C 346.56717 301.0387 347.175 300.88477 349.39062 300.88477 L 352 300.88477 L 352 175.61328 L 352 50.341797 L 349.49805 50.341797 C 347.99713 50.341797 346.56787 50.108619 345.99609 49.798828 C 344.8883 49.179246 342.99426 47.049711 342.38672 45.810547 C 342.13659 45.268413 341.99414 41.472589 341.99414 34.541016 L 341.99414 24.125 L 343.06641 22.498047 C 344.74602 19.980995 345.99607 19.361328 349.24805 19.361328 L 352 19.361328 L 352 9.6816406 L 352 0 L 176 0 L 0 0 z M 43.169922 19.361328 C 48.994902 19.361328 49.030702 19.362658 50.388672 20.408203 C 51.139132 21.027785 52.175481 22.189091 52.675781 23.041016 L 53.603516 24.550781 L 53.603516 35.083984 L 53.603516 45.578125 L 52.53125 47.205078 C 50.56577 50.148092 49.958181 50.341797 43.025391 50.341797 C 37.164681 50.341797 36.915044 50.302762 35.771484 49.412109 C 35.128234 48.908699 34.198945 47.902107 33.734375 47.205078 L 32.876953 45.925781 L 32.876953 34.851562 L 32.876953 23.814453 L 34.021484 22.304688 C 36.129904 19.516569 36.630232 19.361328 43.169922 19.361328 z M 88.554688 19.361328 C 94.165247 19.361328 94.415246 19.400701 95.666016 20.330078 C 96.416466 20.833488 97.452241 21.99607 97.988281 22.886719 L 98.988281 24.511719 L 98.988281 35.044922 L 98.988281 45.578125 L 97.916016 47.205078 C 95.950536 50.148092 95.342946 50.341797 88.410156 50.341797 C 82.549446 50.341797 82.29981 50.302762 81.15625 49.412109 C 80.51301 48.908699 79.583711 47.902107 79.119141 47.205078 L 78.261719 45.925781 L 78.261719 34.851562 L 78.261719 23.814453 L 79.40625 22.304688 C 81.51467 19.516569 82.014998 19.361328 88.554688 19.361328 z M 132.15234 19.361328 C 136.61935 19.361328 138.2261 19.478673 138.97656 19.943359 C 139.54834 20.25315 140.58606 21.221018 141.30078 22.150391 L 142.58594 23.777344 L 142.58594 34.851562 L 142.58594 45.925781 L 141.72852 47.205078 C 141.26395 47.902107 140.33466 48.908699 139.69141 49.412109 C 138.54786 50.302758 138.29821 50.341797 132.4375 50.341797 C 125.50471 50.341797 124.89712 50.148092 122.93164 47.205078 L 121.85938 45.578125 L 121.85938 35.044922 L 121.85938 24.511719 L 122.86133 22.886719 C 123.39738 21.99607 124.39718 20.872212 125.07617 20.330078 C 126.29119 19.439429 126.57752 19.400052 132.15234 19.361328 z M 170.21094 19.361328 L 176.17773 19.361328 L 182.14648 19.361328 L 183.57617 20.484375 C 184.36236 21.103957 185.36219 22.227138 185.79102 22.962891 C 186.50574 24.240779 186.54297 24.744294 186.54297 34.8125 C 186.54297 46.623281 186.54175 46.58511 183.96875 48.947266 L 182.46875 50.341797 L 176.03516 50.341797 L 169.60352 50.341797 L 167.70898 48.210938 L 165.81445 46.082031 L 165.81445 35.162109 C 165.81445 22.770471 165.81436 22.808147 168.70898 20.523438 L 170.21094 19.361328 z M 214.52344 19.361328 L 220.49219 19.361328 L 226.45898 19.361328 L 227.88867 20.484375 C 228.67486 21.103957 229.67469 22.227138 230.10352 22.962891 C 230.81824 24.240779 230.85547 24.744294 230.85547 34.8125 C 230.85547 46.623281 230.85425 46.58511 228.28125 48.947266 L 226.78125 50.341797 L 220.34766 50.341797 L 213.91602 50.341797 L 212.02148 48.210938 L 210.12695 46.082031 L 210.12695 35.199219 C 210.12695 24.743774 210.16415 24.240779 210.87891 22.962891 C 211.30774 22.227138 212.30755 21.103957 213.09375 20.484375 L 214.52344 19.361328 z M 265.05469 19.361328 C 269.5217 19.361328 271.16556 19.517397 271.91602 19.943359 C 272.48779 20.25315 273.52356 21.221018 274.23828 22.150391 L 275.52539 23.777344 L 275.52539 34.851562 L 275.52539 45.925781 L 274.66797 47.205078 C 274.2034 47.902107 273.27411 48.908699 272.63086 49.412109 C 271.48731 50.302758 271.23571 50.341797 265.375 50.341797 C 258.44221 50.341797 257.83462 50.148092 255.86914 47.205078 L 254.79883 45.578125 L 254.79883 34.966797 L 254.79883 24.357422 L 255.69141 22.923828 C 256.19171 22.149351 257.19153 21.027785 257.90625 20.408203 C 259.19275 19.362658 259.22972 19.361328 265.05469 19.361328 z M 308.33008 19.361328 C 312.79709 19.361328 314.40579 19.478673 315.15625 19.943359 C 315.72802 20.25315 316.76381 21.221018 317.47852 22.150391 L 318.76562 23.777344 L 318.76562 34.851562 L 318.76562 45.925781 L 317.9082 47.205078 C 317.44362 47.902107 316.51431 48.908699 315.87109 49.412109 C 314.7275 50.302758 314.47791 50.341797 308.61719 50.341797 C 301.6844 50.341797 301.07681 50.148092 299.11133 47.205078 L 298.03906 45.578125 L 298.03906 35.083984 L 298.03906 24.550781 L 298.9668 23.041016 C 299.46711 22.189091 300.46887 21.026171 301.18359 20.445312 C 302.50582 19.399767 302.57658 19.400052 308.33008 19.361328 z M 169.03516 71.869141 C 170.85227 71.90249 172.43615 72.063558 172.9668 72.333984 C 179.02373 75.42263 174.75607 79.436197 182.57031 77.355469 C 186.92016 76.193694 189.5057 72.333984 193.5918 72.333984 C 202.87449 72.333984 212.39476 71.54956 221.49219 73.449219 C 230.61474 75.346784 234.40332 82.877643 240.66016 88.482422 C 253.81229 100.26136 270.89962 109.06572 282.97266 121.7793 C 287.52765 126.58863 299.52061 135.95632 300.33594 142.92383 C 301.09999 149.36697 302.06888 150.7438 297.74414 155.41602 C 293.27602 160.26198 291.74571 159.00446 285.14453 158.12109 C 288.2719 162.57561 290.07226 163.02884 287.00977 167.61523 C 285.30061 170.1837 281.10749 172.91671 277.9707 173.1543 C 272.2152 173.60331 271.12183 174.01807 266.75 170.4375 C 264.10932 168.28036 259.76682 167.37977 256.61328 169.77344 C 252.97201 172.5167 249.6945 175.09172 245.15625 175.76367 C 241.35903 176.32781 233.35838 175.85689 232.52734 180.02148 C 231.45139 185.42531 233.99054 185.61859 238.36133 188.9668 C 242.82003 192.37677 244.95296 191.71027 240.14258 198.3125 C 235.34267 204.9074 236.72404 199.77909 241.19531 206.25781 C 242.63339 208.3354 248.55156 213.0086 245.375 213.60938 C 242.19529 214.20597 237.45761 213.42146 239.85547 218.10938 C 244.48374 227.14606 240.23502 227.10938 234.1582 227.10938 C 237.96694 231.55761 239.79115 234.12641 241.59766 239.66211 C 243.9411 246.78033 241.20006 246.10453 237.38086 251.77734 C 235.64343 254.36151 233.09499 255.77189 235.84766 257.82227 C 237.86245 259.32002 240.56346 260.79397 242.19727 262.71875 C 244.70608 265.67761 233.00955 268.79768 230.37305 269.58789 C 225.09064 271.1746 233.31573 285.14161 217.19531 278.22852 C 181.69838 263.0166 165.48023 241.89186 146.64062 212.71875 C 137.5139 198.58801 119.83442 185.59788 102.35547 172.62891 C 103.0002 171.48074 103.68608 170.35317 104.42188 169.25 C 108.90465 162.51589 111.78834 154.59048 112.76172 146.32617 C 112.97209 144.50501 113.19727 142.38459 113.19727 140.25781 L 113.19727 86.660156 C 114.05761 86.193353 115.07838 85.880436 115.84766 85.916016 C 119.71815 86.092899 130.40135 89.023491 132.66211 91.53125 C 136.12859 87.327927 140.57664 84.706848 143.98242 80.830078 C 146.17932 78.321272 146.68887 75.825904 149.6582 77.798828 C 152.32819 79.577077 154.00404 80.838592 155.5625 83.730469 C 157.51239 79.973017 159.30614 76.272276 161.79297 72.847656 C 162.32937 72.113043 166.00664 71.813558 169.03516 71.869141 z M 55.337891 71.923828 C 57.731571 71.923828 59.673828 73.865044 59.673828 76.259766 L 59.673828 140.25 C 59.673828 140.60586 59.681419 140.95274 59.699219 141.30859 L 68.347656 141.30859 L 68.347656 76.259766 C 68.347656 73.865044 70.288874 71.923828 72.683594 71.923828 C 75.077274 71.923828 77.021484 73.865044 77.021484 76.259766 L 77.021484 141.30859 L 85.693359 141.30859 L 85.693359 76.259766 C 85.693359 73.865044 87.63757 71.923828 90.03125 71.923828 C 92.42492 71.923828 94.367188 73.865044 94.367188 76.259766 L 94.367188 141.30859 L 103.01562 141.30859 C 103.03274 140.95274 103.04102 140.60481 103.04102 140.25 L 103.04102 76.259766 C 103.04102 73.865044 104.98223 71.923828 107.37695 71.923828 C 109.77062 71.923828 111.71194 73.866091 111.71094 76.259766 L 111.71094 140.25781 C 111.71094 142.24434 111.51214 144.20321 111.28711 146.15625 C 110.34094 154.1861 107.53959 161.88829 103.18555 168.42773 C 97.417494 177.07615 94.365234 187.14602 94.365234 197.53711 L 94.365234 267.06836 C 94.365234 274.24101 88.528119 280.07812 81.355469 280.07812 C 74.182819 280.07812 68.345703 274.24101 68.345703 267.06836 L 68.345703 197.53711 C 68.345703 187.14602 65.293786 177.07615 59.535156 168.42773 C 55.172736 161.89667 52.370901 154.19447 51.425781 146.15625 L 51.425781 146.14844 C 51.200751 144.19749 51 142.23653 51 140.25 L 51 76.259766 C 51 73.865044 52.943171 71.923828 55.337891 71.923828 z M 223.36328 97.529297 C 217.73025 97.529297 213.16797 102.09638 213.16797 107.73047 C 213.16797 113.36036 217.73025 117.92383 223.36328 117.92383 C 228.99423 117.92383 233.55378 113.3635 233.55078 107.73047 C 233.55078 102.09638 228.99423 97.529297 223.36328 97.529297 z M 101.55859 101.65039 L 101.55859 139.82617 L 95.853516 139.82617 L 95.853516 103.3125 C 96.940976 102.43123 98.454815 101.84548 100.61719 101.70312 C 100.95316 101.68013 101.25506 101.66609 101.55859 101.65039 z M 84.214844 123.86523 L 84.214844 139.82422 L 78.507812 139.82422 L 78.507812 126.39258 C 80.532023 125.71331 82.454394 124.88362 84.214844 123.86523 z M 66.863281 129.04688 L 66.863281 139.82812 L 64.326172 139.82812 C 63.189512 138.42982 62.12859 137.02367 61.15625 135.60547 L 61.15625 129.92383 C 62.97532 129.64124 64.899771 129.35983 66.863281 129.04688 z M 43.169922 301.27148 C 48.923432 301.27148 49.458384 301.34817 50.458984 302.08398 C 51.030764 302.54866 51.996589 303.6344 52.568359 304.48633 L 53.603516 306.03516 L 53.603516 316.5293 L 53.603516 327.0625 L 52.675781 328.65039 C 52.139741 329.50232 51.06744 330.66328 50.28125 331.24414 C 48.8518 332.21224 48.671681 332.25 43.025391 332.25 L 37.273438 332.25 L 35.84375 331.12695 C 32.80619 328.76479 32.876953 329.07591 32.876953 316.76172 C 32.876953 306.30628 32.912193 305.76421 33.626953 304.48633 C 34.055783 303.7893 34.949343 302.74364 35.664062 302.24023 C 36.914832 301.31086 37.166272 301.27148 43.169922 301.27148 z M 88.554688 301.27148 C 94.308198 301.27148 94.84314 301.34817 95.84375 302.08398 C 96.41552 302.54866 97.381355 303.6344 97.953125 304.48633 L 98.988281 306.03516 L 98.988281 316.5293 L 98.988281 327.0625 L 98.060547 328.65039 C 97.524507 329.50232 96.452206 330.66328 95.666016 331.24414 C 94.236566 332.21224 94.056456 332.25 88.410156 332.25 L 82.658203 332.25 L 81.228516 331.12695 C 78.190946 328.76479 78.261719 329.07591 78.261719 316.76172 C 78.261719 306.30628 78.296959 305.76421 79.011719 304.48633 C 79.440549 303.7893 80.334108 302.74364 81.048828 302.24023 C 82.299588 301.31086 82.551037 301.27148 88.554688 301.27148 z M 125.96875 301.27148 L 132.22266 301.27148 C 138.29778 301.27148 138.51233 301.31083 139.79883 302.24023 C 140.51355 302.74364 141.40711 303.7893 141.83594 304.48633 C 142.55066 305.76421 142.58594 306.30628 142.58594 316.76172 C 142.58594 329.07591 142.65868 328.76479 139.62109 331.12695 L 138.19141 332.25 L 132.4375 332.25 C 126.79121 332.25 126.61303 332.21226 125.18359 331.24414 C 124.39739 330.66328 123.3251 329.50232 122.78906 328.65039 L 121.85938 327.0625 L 121.85938 316.64453 C 121.85938 304.94992 121.85907 304.91192 124.64648 302.43359 L 125.96875 301.27148 z M 176.17773 301.27148 L 182.46875 301.27148 L 183.96875 302.66602 C 186.54175 305.02818 186.54297 304.99 186.54297 316.80078 L 186.54297 327.37109 L 185.61328 328.80469 C 185.11297 329.61789 184.07721 330.702 183.29102 331.24414 C 181.96879 332.21224 181.75314 332.25 176.14258 332.25 C 169.56715 332.25 168.81704 331.98012 166.85156 329.03711 L 165.81445 327.48828 L 165.81445 316.56836 L 165.81445 305.68555 L 166.67383 304.4082 C 167.1384 303.71117 168.06574 302.70458 168.70898 302.20117 C 169.85254 301.31052 170.06686 301.27148 176.17773 301.27148 z M 220.5625 301.27148 L 226.92383 301.27148 L 228.38867 302.70508 C 230.85446 305.14468 230.85547 305.06744 230.85547 316.80078 C 230.85547 326.86898 230.81828 327.3725 230.10352 328.65039 C 229.67469 329.38614 228.67486 330.50737 227.88867 331.12695 L 226.45898 332.25 L 220.5625 332.25 C 213.87986 332.25 213.12954 332.01885 211.16406 329.03711 L 210.12695 327.48828 L 210.12695 316.68359 L 210.12695 305.8418 L 211.09375 304.4082 C 213.09497 301.38774 213.45102 301.27148 220.5625 301.27148 z M 258.87109 301.27148 L 265.16211 301.27148 C 271.27297 301.27148 271.48731 301.31049 272.63086 302.20117 C 273.27411 302.70458 274.2034 303.71117 274.66797 304.4082 L 275.52539 305.68555 L 275.52539 316.5293 C 275.52539 328.84349 275.52548 328.80514 272.63086 331.08984 L 271.12891 332.25 L 265.375 332.25 C 259.76444 332.25 259.55133 332.21226 258.19336 331.24414 C 257.40717 330.702 256.33487 329.57883 255.79883 328.76562 L 254.79883 327.29492 L 254.79883 316.76172 C 254.79883 304.98967 254.7981 305.02818 257.37109 302.66602 L 258.87109 301.27148 z M 302.14844 301.27148 L 308.40234 301.27148 C 314.47747 301.27148 314.69201 301.31083 315.97852 302.24023 C 316.69322 302.74364 317.58682 303.7893 318.01562 304.48633 C 318.73037 305.76421 318.76562 306.305 318.76562 316.83789 L 318.76562 327.83594 L 317.47852 329.46289 C 315.40585 332.09611 314.90513 332.25 308.47266 332.25 C 302.96931 332.25 302.79077 332.21226 301.36133 331.24414 C 300.57513 330.66328 299.50284 329.50232 298.9668 328.65039 L 298.03906 327.0625 L 298.03906 316.64453 C 298.03906 304.94992 298.03876 304.91192 300.82617 302.43359 L 302.14844 301.27148 z "
     style="fill:#ffffff;fill-opacity:1;stroke:none;stroke-width:0.0372"
     id="path1357" /><rect
     style="fill:#dc921b;fill-opacity:1;stroke-width:1.04664"
     id="rect2815"
     display="none"
     height="402.43466"
     width="439.59052"
     y="-30.159561"
     x="78.29097" /></svg>
