<?xml version="1.0" encoding="UTF-8" standalone="no"?>
<svg
   xmlns:dc="http://purl.org/dc/elements/1.1/"
   xmlns:cc="http://creativecommons.org/ns#"
   xmlns:rdf="http://www.w3.org/1999/02/22-rdf-syntax-ns#"
   xmlns:svg="http://www.w3.org/2000/svg"
   xmlns="http://www.w3.org/2000/svg"
   xmlns:sodipodi="http://sodipodi.sourceforge.net/DTD/sodipodi-0.dtd"
   xmlns:inkscape="http://www.inkscape.org/namespaces/inkscape"
   inkscape:version="1.0 (4035a4fb49, 2020-05-01)"
   sodipodi:docname="meat-reindeer.svg"
   id="svg1063"
   xml:space="preserve"
   enable-background="new 122.5 0 352 352"
   viewBox="122.5 0 352 352"
   y="0px"
   x="0px"
   version="1.1"><metadata
   id="metadata1069"><rdf:RDF><cc:Work
       rdf:about=""><dc:format>image/svg+xml</dc:format><dc:type
         rdf:resource="http://purl.org/dc/dcmitype/StillImage" /><dc:title></dc:title></cc:Work></rdf:RDF></metadata><defs
   id="defs1067" /><sodipodi:namedview
   inkscape:current-layer="svg1063"
   inkscape:window-maximized="1"
   inkscape:window-y="31"
   inkscape:window-x="3286"
   inkscape:cy="324.75155"
   inkscape:cx="251.0385"
   inkscape:zoom="1.2585227"
   inkscape:pagecheckerboard="true"
   showgrid="false"
   id="namedview1065"
   inkscape:window-height="1049"
   inkscape:window-width="1920"
   inkscape:pageshadow="2"
   inkscape:pageopacity="0"
   guidetolerance="10"
   gridtolerance="10"
   objecttolerance="10"
   borderopacity="1"
   bordercolor="#666666"
   pagecolor="#ffffff" />
<path
   d="M 122.5,-4.9999999e-6 V 9.681645 v 9.67968 h 2.9668 c 2.75166,0 3.10744,0.11623 4.42968,1.12305 0.78619,0.61958 1.78797,1.74276 2.2168,2.47852 0.71472,1.27789 0.75,1.78087 0.75,12.23632 v 10.88282 l -1.89453,2.1289 -1.89258,2.13086 H 125.78711 122.5 V 175.80664 301.27148 h 3.10937 c 3.46638,0 4.46654,0.46571 6.28907,3.02149 l 0.96484,1.35547 v 10.84179 c 0,10.378 -0.0352,10.88227 -0.75,12.16016 -0.42883,0.73575 -1.43061,1.85698 -2.2168,2.47656 -1.32224,1.00682 -1.67802,1.12305 -4.42968,1.12305 H 122.5 v 9.875 9.875 h 176 176 v -10.06836 -10.06836 h -2.82227 c -2.64447,0 -2.93188,-0.0765 -4.36132,-1.23828 -2.78744,-2.32343 -2.82227,-2.59411 -2.82227,-14.25 v -10.30078 l 0.92969,-1.58789 c 0.53604,-0.85193 1.6064,-2.01485 2.39258,-2.59571 1.25076,-0.85192 1.8586,-1.00585 4.07421,-1.00585 H 474.5 V 175.61329 50.341795 h -2.50195 c -1.50092,0 -2.93018,-0.23317 -3.50196,-0.54297 -1.10779,-0.61958 -3.00183,-2.74911 -3.60937,-3.98828 -0.25013,-0.54213 -0.39258,-4.33795 -0.39258,-11.26953 v -10.41602 l 1.07227,-1.62695 c 1.67961,-2.51705 2.92966,-3.13672 6.18164,-3.13672 H 474.5 V 9.681645 -4.9999999e-6 h -176 z M 165.66992,19.361325 c 5.82499,0 5.86078,10e-4 7.21875,1.04688 0.75046,0.61958 1.7868,1.78089 2.28711,2.63281 l 0.92774,1.50977 v 10.5332 10.49414 l -1.07227,1.62695 c -1.96549,2.94302 -2.57306,3.13672 -9.50586,3.13672 -5.86071,0 -6.11036,-0.039 -7.25391,-0.92969 -0.64325,-0.50341 -1.57254,-1.51 -2.03711,-2.20703 l -0.85742,-1.27929 v -11.07422 -11.03711 l 1.14453,-1.50977 c 2.10841,-2.78811 2.60875,-2.94336 9.14844,-2.94336 z m 45.38477,0 c 5.61056,0 5.86055,0.0394 7.11133,0.96875 0.75045,0.50341 1.78621,1.66599 2.32226,2.55664 l 1,1.625 v 10.53321 10.5332 l -1.07226,1.62695 c -1.96549,2.94302 -2.57306,3.13672 -9.50586,3.13672 -5.86071,0 -6.11036,-0.039 -7.25391,-0.92969 -0.64324,-0.50341 -1.57254,-1.51 -2.03711,-2.20703 l -0.85742,-1.27929 v -11.07422 -11.03711 l 1.14453,-1.50977 c 2.10841,-2.78811 2.60875,-2.94336 9.14844,-2.94336 z m 43.59765,0 c 4.46701,0 6.07375,0.11734 6.82422,0.58203 0.57177,0.30979 1.6095,1.27766 2.32422,2.20704 l 1.28516,1.62695 v 11.07422 11.07422 l -0.85742,1.27929 c -0.46457,0.69703 -1.39386,1.70362 -2.03711,2.20703 -1.14355,0.89064 -1.3932,0.92969 -7.25391,0.92969 -6.93279,0 -7.54038,-0.1937 -9.50586,-3.13672 l -1.07226,-1.62695 v -10.5332 -10.53321 l 1.00195,-1.625 c 0.53605,-0.89065 1.53585,-2.0145 2.21484,-2.55664 1.21502,-0.89064 1.50136,-0.93002 7.07617,-0.96875 z m 38.0586,0 h 5.96679 5.96875 l 1.42969,1.12305 c 0.78619,0.61958 1.78601,1.74276 2.21485,2.47852 0.71472,1.27789 0.75195,1.78139 0.75195,11.8496 0,11.81078 -0.001,11.77262 -2.57422,14.13477 l -1.5,1.39453 h -6.43359 -6.43164 l -1.89454,-2.13086 -1.89453,-2.1289 v -10.91993 c 0,-12.39164 -8e-5,-12.35396 2.89453,-14.63867 z m 44.3125,0 h 5.96875 5.96679 l 1.42969,1.12305 c 0.78619,0.61958 1.78601,1.74276 2.21485,2.47852 0.71472,1.27789 0.75195,1.78139 0.75195,11.8496 0,11.81078 -0.001,11.77262 -2.57422,14.13477 l -1.5,1.39453 h -6.43359 -6.43164 l -1.89454,-2.13086 -1.89453,-2.1289 v -10.88282 c 0,-10.45545 0.0372,-10.95843 0.75196,-12.23632 0.42883,-0.73576 1.42863,-1.85894 2.21484,-2.47852 z m 50.53125,0 c 4.46702,0 6.11086,0.15606 6.86133,0.58203 0.57177,0.30979 1.60754,1.27766 2.32226,2.20704 l 1.28711,1.62695 v 11.07422 11.07422 l -0.85742,1.27929 c -0.46457,0.69703 -1.39386,1.70362 -2.03711,2.20703 -1.14355,0.89064 -1.39516,0.92969 -7.25586,0.92969 -6.9328,0 -7.54039,-0.1937 -9.50586,-3.13672 l -1.07031,-1.62695 v -10.61133 -10.60937 l 0.89258,-1.4336 c 0.5003,-0.77447 1.50012,-1.89604 2.21484,-2.51562 1.28649,-1.04555 1.32347,-1.04688 7.14844,-1.04688 z m 43.27539,0 c 4.46701,0 6.07571,0.11734 6.82617,0.58203 0.57177,0.30979 1.60755,1.27766 2.32227,2.20704 l 1.2871,1.62695 v 11.07422 11.07422 l -0.85742,1.27929 c -0.46458,0.69703 -1.39389,1.70362 -2.03711,2.20703 -1.14359,0.89064 -1.39318,0.92969 -7.2539,0.92969 -6.93279,0 -7.54038,-0.1937 -9.50586,-3.13672 l -1.07227,-1.62695 v -10.49414 -10.5332 l 0.92774,-1.50977 c 0.50031,-0.85192 1.50207,-2.01484 2.21679,-2.5957 1.32223,-1.04555 1.39299,-1.04526 7.14649,-1.08399 z m -191.27149,40.45899 c 2.54455,0.0484 4.93479,1.59233 5.94141,4.10351 l 6.68359,16.70703 26.30469,-18.74218 c 2.93987,-2.08649 7.01703,-1.40862 9.10352,1.53125 2.08648,2.9327 1.40145,7.01117 -1.53125,9.09765 l -28.88282,20.58203 3.47461,8.679695 13.55469,7.5293 6.24414,-13.066415 c 1.55392,-3.24635 5.44896,-4.62618 8.69531,-3.07226 3.24636,1.54675 4.61902,5.44375 3.07227,8.697265 l -7.82031,16.3418 14.53906,27.28321 c 1.80149,-0.41556 3.61762,-0.67725 5.44141,-0.8086 2.5681,-0.17513 5.14428,-0.0749 7.69726,0.27539 l 14.25391,-26.75 -7.82031,-16.3418 c -1.54676,-3.246355 -0.17409,-7.150515 3.07226,-8.697265 3.24635,-1.54676 7.14856,-0.17409 8.69531,3.07226 l 6.25196,13.066415 13.54687,-7.5293 3.47461,-8.679695 -28.88281,-20.58203 c -2.9327,-2.08648 -3.61774,-6.16495 -1.53125,-9.09765 2.08648,-2.93271 6.15779,-3.61774 9.09766,-1.53125 l 26.29882,18.74218 6.69141,-16.70703 c 1.335,-3.34904 5.13417,-4.97302 8.48242,-3.63086 3.34108,1.34217 4.96781,5.14915 3.63281,8.49024 l -16.01172,40.000005 c -0.53256,1.34217 -1.52356,2.5187 -2.88085,3.27735 l -19.96875,11.08007 -13.58399,25.49024 c 2.24729,0.9704 4.442,2.07239 6.57227,3.2832 6.50783,3.70568 12.27179,8.01095 18.19531,12.43946 8.41918,6.28811 17.21061,12.84458 28.24805,17.73242 4.20959,1.8604 6.53594,5.66149 7.375,10.22851 0.62013,3.4 0.40156,7.24357 -0.45899,10.88477 -0.86054,3.60378 -2.37804,7.14265 -4.35547,9.95117 -2.84513,4.03446 -6.70283,6.69776 -11.18945,6.56641 l -41.23437,-1.23242 c -3.67703,-0.11703 -5.98304,1.55297 -7.39844,4.14257 -1.83812,3.35621 -2.56037,8.20656 -2.80078,13.26953 -1.84528,12.9058 -2.16028,21.80082 -5.19727,32 -2.01564,6.76735 -4.56251,11.93957 -5.86328,14.49414 -2.05146,4.0273 -4.10618,7.3149 -5.78906,9.78907 -24.58806,-19.21621 -42.56121,-34.25009 -55.47657,-46 v -47.43555 c 0,-1.19808 0.0609,-2.38931 0.16993,-3.57226 2.29983,-2.16769 6.4372,-7.21775 14.09375,-15.98243 6.7554,-7.73297 13.3785,-15.31112 21.43945,-23.44531 1.8819,-1.88906 3.80788,-3.51705 5.77734,-4.88867 l -14.76562,-27.71485 -13.51953,-7.50781 v -9.13087 c 0,-2.47735 -2.01679,-4.49218 -4.49414,-4.49218 -2.47736,0 -4.49219,2.01483 -4.49219,4.49218 v 2.96681 c -0.1226,-0.22529 -0.24786,-0.44832 -0.3418,-0.68555 L 233.375,68.783205 c -1.335,-3.34825 0.29173,-7.15719 3.63281,-8.49219 0.83706,-0.33554 1.7026,-0.48678 2.55078,-0.4707 z M 214.6582,103.41797 c 1.8206,0 3.29883,1.47743 3.29883,3.29884 v 48.66992 c 0,0.27066 0.006,0.53402 0.0195,0.80469 h 6.57813 v -49.47461 c 0,-1.82141 1.47743,-3.29884 3.29883,-3.29884 1.8206,0 3.29687,1.47743 3.29687,3.29884 v 49.47461 h 6.59766 v -49.47461 c 0,-1.82141 1.47627,-3.29884 3.29687,-3.29884 1.8206,0 3.29883,1.47743 3.29883,3.29884 v 49.47461 h 6.57813 c 0.0128,-0.27067 0.0195,-0.53483 0.0195,-0.80469 v -48.66992 c 0,-1.82141 1.47743,-3.29884 3.29882,-3.29884 1.8206,0 3.29652,1.47823 3.29493,3.29884 v 48.67578 c 0,1.51093 -0.15112,3.00087 -0.32227,4.48632 -0.71964,6.1074 -2.85048,11.96759 -6.16211,16.94141 -4.38711,6.57788 -6.70898,14.23533 -6.70898,22.13867 v 52.88477 c 0,5.45543 -4.4391,9.89453 -9.89453,9.89453 -5.45544,-1e-5 -9.89454,-4.4391 -9.89454,-9.89453 v -52.88477 c 0,-7.90333 -2.32042,-15.56079 -6.70117,-22.13867 -3.3172,-4.96744 -5.44912,-10.82763 -6.16797,-16.94141 v -0.008 c -0.17115,-1.48386 -0.32422,-2.97344 -0.32422,-4.48437 v -48.67188 c 0,-1.8214 1.47744,-3.29688 3.29883,-3.29688 z m 113.67383,64.33399 c -3.9031,0 -7.07031,3.16526 -7.07031,7.06836 0,3.90311 3.17437,7.06836 7.07031,7.06836 3.90231,0 7.06836,-3.16525 7.06836,-7.06836 0,-3.91027 -3.16525,-7.06836 -7.06836,-7.06836 z M 165.66992,301.27149 c 5.75351,0 6.28845,0.0767 7.28906,0.8125 0.57177,0.46468 1.53762,1.55042 2.10938,2.40235 l 1.03516,1.54882 v 10.49415 10.53319 l -0.92774,1.58789 c -0.53604,0.85194 -1.60834,2.01289 -2.39453,2.59375 -1.42945,0.96811 -1.60957,1.00586 -7.25586,1.00586 h -5.75195 l -1.42969,-1.12305 c -3.03756,-2.36216 -2.9668,-2.05104 -2.9668,-14.36523 0,-10.45544 0.0352,-10.99751 0.75,-12.27539 0.42883,-0.69703 1.32239,-1.74269 2.03711,-2.2461 1.25077,-0.92936 1.50221,-0.96875 7.50586,-0.96874 z m 45.38477,0 c 5.75352,0 6.28845,0.0767 7.28906,0.8125 0.57176,0.46468 1.5376,1.55042 2.10937,2.40235 l 1.03516,1.54882 v 10.49415 10.53319 l -0.92773,1.58789 c -0.53605,0.85194 -1.60834,2.01289 -2.39453,2.59375 -1.42945,0.96811 -1.60955,1.00586 -7.25586,1.00586 h -5.75196 l -1.42968,-1.12305 c -3.03757,-2.36216 -2.9668,-2.05104 -2.9668,-14.36523 0,-10.45544 0.0352,-10.99751 0.75,-12.27539 0.42883,-0.69703 1.32239,-1.74269 2.03711,-2.2461 1.25076,-0.92936 1.50222,-0.96875 7.50586,-0.96874 z m 37.41406,0 h 6.25391 c 6.07512,0 6.28966,0.0394 7.57617,0.96875 0.71472,0.50341 1.60828,1.54907 2.03711,2.2461 0.71472,1.27788 0.75,1.81994 0.75,12.27539 0,12.31419 0.0727,12.00307 -2.96485,14.36523 l -1.42968,1.12305 h -5.75391 c -5.64629,0 -5.82447,-0.0377 -7.25391,-1.00586 -0.7862,-0.58086 -1.85849,-1.74182 -2.39453,-2.59375 l -0.92968,-1.58789 v -10.41797 c 0,-11.69461 -3.1e-4,-11.73261 2.7871,-14.21094 z m 50.20898,0 h 6.29102 l 1.5,1.39454 c 2.57299,2.36216 2.57422,2.32398 2.57422,14.13476 v 10.57031 l -0.92969,1.4336 c -0.50031,0.8132 -1.53607,1.8973 -2.32226,2.43944 -1.32223,0.96811 -1.53788,1.00586 -7.14844,1.00586 -6.57543,0 -7.32554,-0.26987 -9.29102,-3.21289 l -1.03711,-1.54882 v -10.91993 -10.8828 l 0.85938,-1.27735 c 0.46457,-0.69703 1.39191,-1.70362 2.03515,-2.20703 1.14356,-0.89066 1.35789,-0.9297 7.46875,-0.92969 z m 44.38477,0 h 6.36133 l 1.46484,1.4336 c 2.4658,2.4396 2.4668,2.36236 2.4668,14.0957 0,10.0682 -0.0372,10.57172 -0.75195,11.8496 -0.42883,0.73576 -1.42866,1.85699 -2.21485,2.47656 l -1.42969,1.12305 h -5.89648 c -6.68264,0 -7.43296,-0.23114 -9.39844,-3.21289 l -1.03711,-1.54882 V 316.6836 305.84181 l 0.9668,-1.4336 c 2.00122,-3.02046 2.35726,-3.13672 9.46875,-3.13672 z m 38.30859,0 h 6.29102 c 6.11086,0 6.3252,0.039 7.46875,0.92969 0.64326,0.50341 1.57254,1.51 2.03711,2.20703 l 0.85742,1.27735 v 10.84375 c 0,12.31419 9e-5,12.27584 -2.89453,14.56054 l -1.50195,1.16016 H 387.875 c -5.61056,0 -5.82367,-0.0377 -7.18164,-1.00586 -0.78619,-0.54214 -1.85849,-1.6653 -2.39453,-2.47852 l -1,-1.4707 v -10.5332 c 0,-11.77205 -7.3e-4,-11.73354 2.57226,-14.0957 z m 43.27735,0 h 6.2539 c 6.07513,0 6.28966,0.0394 7.57618,0.96875 0.71469,0.50341 1.6083,1.54907 2.0371,2.2461 0.71475,1.27788 0.75,1.81867 0.75,12.35155 v 10.99806 l -1.2871,1.62694 c -2.07268,2.63323 -2.5734,2.78711 -9.00586,2.78711 -5.50335,0 -5.68189,-0.0377 -7.11133,-1.00586 -0.7862,-0.58086 -1.8585,-1.74181 -2.39453,-2.59375 l -0.92774,-1.58789 v -10.41796 c 0,-11.69462 -2.9e-4,-11.73262 2.78711,-14.21095 z"
   style="fill:#ffffff;fill-opacity:1;stroke:none;stroke-width:0.0372"
   id="path1357" /><g
   id="Calque_6">
	<rect
   id="rect976"
   height="384.5"
   width="420"
   fill="#D81350"
   display="none"
   y="-15"
   x="109" />
</g>
<g
   display="none"
   id="Calque_1">
	<g
   id="g991"
   display="inline"
   transform="translate(0,-952.36218)">
		<g
   id="g989">
			<path
   id="path979"
   d="M199.55,1014.664c-2.47,0.233-4.564,2.543-4.554,5.024v20.103c-0.028,1.81,1.007,3.598,2.59,4.474     c0.224,18.726,1.43,36.184-4.945,48.211c-8.892,14.988-12.433,30.313-13.661,43.42c-1.776,20.152-1.585,47.884-1.57,89.904     c0.527,5.493,5.119,9.891,9.892,9.973c24.573,0,47.857,0,80.708,0c5.524-0.516,9.813-5.105,9.893-9.893     c-0.002-42.067-0.08-69.896-2.041-90.061c-1.92-19.74-5.868-32.446-13.582-43.031c-6.053-12.107-4.784-29.708-4.554-48.524     c1.583-0.877,2.619-2.666,2.59-4.475v-20.102c0-2.631-2.393-5.025-5.025-5.025     C235.888,1014.662,216.181,1014.662,199.55,1014.664L199.55,1014.664z M207.637,1044.815h40.039     c-0.085,4.174-0.291,8.373-0.392,12.563H208.03C207.934,1053.179,207.72,1048.993,207.637,1044.815z M207.951,1067.428h39.333     c0.202,10.549,1.468,20.759,6.045,29.915c8.427,13.904,11.354,27.592,12.563,39.417c1.871,19.24,1.96,46.985,1.96,88.885v0.077     h-0.077c-32.637,0-55.869,0-80.316,0c0.951-29.687-0.807-60.415,1.571-88.962c1.979-14.333,4.968-29.377,12.404-39.337     C206.35,1088.276,207.7,1078,207.951,1067.428L207.951,1067.428z" />
			<g
   id="g987">
				<path
   id="path981"
   d="M424.164,1118.865c-7.786-13.136-17.977-25.149-26.97-37.471c-5.005-6.853-10.017-13.713-15.021-20.569      c-2.579-3.535-11.705-5.086-15.787-6.691c23.95-4.547,48.183-5.901,59.816-30.601c-8.568,2.598-23.021,10.504-31.799,9.075      c-13.716-2.236-27.433-4.472-41.15-6.71c-8.004-1.304-23.602-14.075-30.994-11.252c-7.547,2.878-8.477,2.401-10.528,9.938      c-1.723,6.297-3.434,12.592-5.15,18.889c-9.965-4.47-22.757-15.222-32.001-8.149c-4.923,3.763,4.087,22.806,5.571,29.942      c-2.533,0.717-11.276,2.649-21.107,4.999c0.372,8.311,1.5,15.818,4.455,21.787c7.817,10.769,11.811,23.422,13.776,43.631      c1.599,16.438,1.952,37.817,2.027,68.718c3.872,6.34,7.749,12.676,11.658,18.993c1.455,2.36,7.735,9.307,7.735,12.104      c0-3.543,6.614-10.383,8.474-13.133c4.874-7.198,9.806-14.361,14.745-21.518c5.474-7.918,9.775-17.939,18.627-22.111      c12.142-5.726,21.617-13.713,34.693-10.057c14.202,3.97,20.14,5.752,34.269,2.298c-7.379-7.561-8.749-10.226-16.137-17.788      c7.912,4.859,9.794,4.817,17.705,9.674c7.593,4.666,11.304-0.271,19.062-4.453      C447.805,1148.877,430.274,1129.171,424.164,1118.865z M370.097,1104.682c-12.412,0-12.404-19.24,0-19.24      C382.502,1085.442,382.502,1104.68,370.097,1104.682z" />
				<path
   id="path983"
   d="M252.117,1098.078l-0.056-0.101c-4.054-8.11-5.453-16.865-5.95-24.5c-11.518,3.006-21.492,6.114-21.647,8.037      c-0.476,6.065-5.225,23.827-2.222,28.8c2.932,4.864,5.876,9.729,8.813,14.592c11.729,19.393,23.47,38.774,35.243,58.139      c-0.197-19.591-0.672-34.38-1.816-46.147C263.509,1127.389,261.168,1113.011,252.117,1098.078z" />
				<path
   id="path985"
   d="M261.135,1093.624l-0.122-0.201c-3.142-6.285-4.363-14-4.778-22.483c-2.428,0.588-4.891,1.197-7.317,1.814      c0.609,9.851,2.4,17.376,5.654,23.905c9.322,15.404,11.73,30.18,12.731,39.958c1.246,12.808,1.704,29.115,1.872,51.164      c1.086,1.783,2.166,3.569,3.251,5.353c1.342,2.2,2.685,4.398,4.026,6.599c-0.101-28.315-0.493-48.286-2-63.774      C272.533,1116.234,268.675,1103.969,261.135,1093.624z" />
			</g>
		</g>
	</g>
</g>
<g
   display="none"
   id="Calque_2">
	<g
   id="g1014"
   display="inline">
		<g
   id="g1012">
			<g
   id="g1010">
				<path
   id="path994"
   d="M253.833,82.534c-2.288,0-4.143,1.855-4.143,4.143v61.138c0,0.339-0.008,0.671-0.024,1.011h-8.263V86.677      c0-2.288-1.856-4.143-4.143-4.143c-2.287,0-4.143,1.855-4.143,4.143v62.149h-8.287V86.677c0-2.288-1.857-4.143-4.143-4.143      c-2.288,0-4.144,1.855-4.144,4.143v62.149h-8.262c-0.017-0.34-0.025-0.671-0.025-1.011V86.677c0-2.288-1.856-4.143-4.143-4.143      c-2.288,0-4.144,1.855-4.144,4.143v61.138c0,1.898,0.191,3.771,0.406,5.635c0,0,0,0,0,0.009      c0.903,7.68,3.58,15.039,7.747,21.279c5.503,8.263,8.419,17.883,8.419,27.81v66.434c0,6.853,5.577,12.429,12.43,12.429      c6.853,0,12.429-5.576,12.429-12.429v-66.434c0-9.928,2.917-19.548,8.428-27.81c4.16-6.248,6.836-13.607,7.74-21.279      c0.215-1.866,0.406-3.738,0.406-5.636V86.677C257.976,84.39,256.12,82.534,253.833,82.534z" />
				<g
   id="g1008">
					<path
   id="path996"
   d="M256.559,147.823v-35.184c-0.431,0.226-0.974,0.465-1.746,0.983c-0.924-1.558-0.781-2.536-3.706-2.712v36.905       c0,0.363-0.008,0.717-0.026,1.08l-0.066,1.348h-11.03v-31.125c-0.37,2.337-0.642,4.768-1.724,6.686       c-0.976,1.729-2.251,3.17-3.727,4.4v20.04h-11.122v-14.821c-1.794,0.475-3.624,0.868-5.452,1.202v13.619h-2.832       c8.257,9.204,19.788,18.012,31.613,26.805c0.599-1.05,1.234-2.084,1.909-3.097c4.037-6.063,6.634-13.207,7.511-20.658       C256.363,151.559,256.559,149.705,256.559,147.823z" />
					<path
   id="path998"
   d="M206.839,138.031l-0.395-0.079c0.127,0.251,0.263,0.502,0.395,0.753V138.031z" />
					<path
   id="path1000"
   d="M209.674,137.947v5.428c0.929,1.355,1.943,2.699,3.029,4.035h2.423v-10.302       C213.249,137.407,211.412,137.677,209.674,137.947z" />
					<path
   id="path1002"
   d="M231.7,132.16c-1.682,0.973-3.518,1.766-5.452,2.415v12.833h5.452V132.16z" />
					<path
   id="path1004"
   d="M438.193,150.371c-0.779-6.657-12.238-15.608-16.59-20.203c-11.535-12.147-27.861-20.559-40.427-31.813       c-5.978-5.356-9.597-12.55-18.314-14.363c-8.692-1.815-17.788-1.065-26.657-1.065c-3.904,0-6.374,3.688-10.53,4.798       c-7.466,1.988-3.389-1.847-9.176-4.798c-1.352-0.689-9.856-0.633-10.676,0.49c-2.376,3.273-4.089,6.809-5.952,10.399       c-1.489-2.763-3.091-3.969-5.642-5.668c-2.837-1.885-3.324,0.499-5.423,2.896c-3.254,3.704-7.504,6.207-10.816,10.224       c-2.16-2.396-12.367-5.196-16.065-5.365c-0.735-0.034-1.71,0.265-2.532,0.711v51.209c0,2.032-0.214,4.059-0.415,5.799       c-0.93,7.896-3.685,15.468-7.968,21.902c-0.703,1.054-1.359,2.131-1.975,3.228c16.7,12.391,33.591,24.802,42.311,38.303       c18,27.873,33.495,48.056,67.41,62.59c15.402,6.605,7.544-6.738,12.591-8.254c2.519-0.755,13.695-3.736,11.298-6.564       c-1.56-1.839-4.142-3.248-6.067-4.679c-2.63-1.959-0.195-3.307,1.465-5.776c3.649-5.42,6.267-4.774,4.028-11.575       c-1.726-5.289-3.468-7.743-7.107-11.993c5.806,0,9.865,0.035,5.443-8.599c-2.291-4.48,2.236-3.73,5.274-4.299       c3.035-0.574-2.619-5.04-3.993-7.025c-4.272-6.191-5.592-1.29-1.006-7.591c4.596-6.308,2.557-5.671-1.703-8.929       c-4.176-3.199-6.601-3.383-5.574-8.546c0.794-3.979,8.438-3.529,12.066-4.068c4.336-0.642,7.468-3.103,10.947-5.724       c3.013-2.287,7.162-1.427,9.684,0.634c4.177,3.421,5.221,3.026,10.72,2.597c2.997-0.227,7.003-2.839,8.636-5.294       c2.926-4.382,1.206-4.816-1.782-9.072c6.307,0.844,7.77,2.047,12.039-2.583C439.849,157.843,438.923,156.527,438.193,150.371z        M364.651,126.485c-5.382,0-9.742-4.36-9.742-9.739c0-5.383,4.36-9.746,9.742-9.746c5.38,0,9.734,4.363,9.734,9.746       C374.388,122.128,370.031,126.485,364.651,126.485z" />
					<path
   id="path1006"
   d="M242.82,147.409h5.452v-36.475c-0.29,0.015-0.579,0.029-0.9,0.051c-2.066,0.136-3.513,0.696-4.552,1.538V147.409z" />
				</g>
			</g>
		</g>
	</g>
</g>

<g
   display="none"
   id="Calque_4">
	<path
   id="path1036"
   d="M412.707,278.187c-2.11-15.284-8.02-41.303-13.066-45.74c-0.3-0.263-65.797-29.795-65.797-29.795   c7.623-9.399,12.812-20.387,14.987-28.426c5.68-3.813,7.999-16.228,6.377-24.758l48.977-4.832c1.842-0.181,3.283-1.666,3.412-3.512   c0.13-1.847-1.094-3.518-2.893-3.952l-48.121-11.678c-0.299-8.633-2.568-33.202-18.26-49.292   c-9.316-9.552-21.69-14.396-36.776-14.396c-15.097,0-27.342,4.851-36.395,14.419c-15.157,16.024-16.752,40.44-16.808,49.224   l-53.043,11.706c-1.824,0.402-3.083,2.073-2.97,3.936c0.113,1.865,1.566,3.37,3.425,3.548l53.171,5.125   c-1.339,9.206,1.663,21.243,6.547,24.53c1.522,5.665,5.56,18.105,13.899,28.951c0,0-66.613,28.881-66.944,29.205   c-4.691,4.568-10.724,33.363-13.103,45.528c-0.216,1.113,0.078,2.264,0.796,3.141c0.721,0.877,1.796,1.382,2.93,1.382h215.893   c1.098,0,2.141-0.475,2.862-1.302C412.528,280.372,412.855,279.275,412.707,278.187z M361.026,253.529h9.692v23.216H232.918   v-23.216h10.603c1.188,0,2.15-0.965,2.15-2.15v-29.619l14.829-6.41v36.029c0,1.189,0.962,2.15,2.151,2.15h79.251   c1.188,0,2.15-0.965,2.15-2.15v-36.071l14.828,6.382v29.689C358.878,252.567,359.838,253.529,361.026,253.529z M277.575,207.893   c7.206,6.442,15.288,9.713,24.092,9.713c8.11,0,16.279-3.567,23.853-10.357c0.177,0.113,4.998,2.233,4.998,2.233   c-1.611,9.104-9.791,16.06-19.635,16.06h-19.095c-10.12,0-17.952-6.449-19.28-15.381   C272.502,210.164,277.407,208.001,277.575,207.893z M262.417,170.796c-0.316-1.321-1.316-2.374-2.623-2.756   c-0.216-0.065-1.03-0.724-1.874-2.846c-2.098-5.277-0.138-16.58,0.139-17.239c16.703,0.947,71.424,0.923,87.905-0.072   c0.322,0.665,2.485,11.195,0.574,16.675c-0.871,2.505-1.767,3.319-2.006,3.407c-1.334,0.382-2.352,1.459-2.658,2.812   c-1.809,7.982-16.447,42.534-40.206,42.534C276.017,213.307,263.485,175.243,262.417,170.796z M253.995,256.667   c-4.032,0-7.311,3.281-7.311,7.314c0,4.032,3.279,7.313,7.311,7.313s7.311-3.281,7.311-7.313   C261.306,259.948,258.027,256.667,253.995,256.667z M351.461,256.667c-4.03,0-7.309,3.281-7.309,7.314   c0,4.032,3.278,7.313,7.309,7.313c4.032,0,7.312-3.281,7.312-7.313C358.772,259.948,355.493,256.667,351.461,256.667z"
   display="inline" />
</g>
<g
   display="none"
   id="Calque_5">
	<path
   id="path1039"
   d="M403.967,222.961c-3.972-3.973-63.995-19.358-66.341-21.509c-1.185-1.384-1.917-8.54-1.644-15.505   c44.261-44.708,45.203-74.4,38.129-91.478c-8.953-21.615-38.236-35.89-72.352-35.89c-35.289,0-62.656,14.833-71.971,37.317   c-7.034,16.981-6.377,46.231,36.355,89.386c0.684,7.407,0.298,15.097-0.854,16.561c-2.477,2.321-63.296,17.445-66.965,21.114   c-5.583,5.581-8.893,40.587-10.055,55.382c-0.084,1.072,0.283,2.131,1.011,2.922c0.73,0.789,1.757,1.238,2.833,1.238h219.207   c1.088,0,2.129-0.46,2.861-1.269c0.73-0.807,1.085-1.888,0.98-2.971C413.71,263.548,409.706,228.699,403.967,222.961z    M352.075,213.888l0.086,16.102l-26.709,18.286c-0.199,0.135-10.322,32.044-10.322,32.044l-10.785-18.01   c0.158-0.144,30.645-53.997,30.645-53.997C338.484,209.702,344.76,211.686,352.075,213.888z M301.759,198.386   c-26.335,0-43.145-38.735-43.145-65.403c0-16.587,7.958-22.339,11.306-22.801c1.747,4.145,8.272,13.356,31.801,13.356   c23.549,0,30.147-9.229,31.915-13.359c3.175,0.439,10.633,6.217,10.633,21.718C344.27,158.366,327.314,198.386,301.759,198.386z    M274.137,188.744c7.434,8.459,16.751,14.01,27.626,14.01c10.267,0,19.19-5.416,26.429-13.675   c-0.023,5.629,0.513,13.017,3.148,16.814l-29.58,51.633l-30.26-51.137C274.201,202.529,274.438,194.758,274.137,188.744z    M267.829,208.795l36.446,71.583h-7.396c0,0-18.546-31.941-18.753-32.087l-25.777-18.105l0.601-16.518   C259.291,211.778,264.66,210.067,267.829,208.795z"
   display="inline" />
</g>
<g
   display="none"
   id="Calque_3">
	<g
   id="g1060"
   display="inline"
   transform="translate(0,-952.36218)">
		<g
   id="g1058">
			<path
   id="path1042"
   d="M200.696,1014.841c-2.47,0.233-4.564,2.544-4.554,5.024v20.103c-0.028,1.81,1.007,3.598,2.59,4.474     c0.224,18.726,1.43,36.184-4.945,48.211c-8.892,14.988-12.433,30.313-13.661,43.42c-1.776,20.152-1.585,47.884-1.57,89.904     c0.527,5.493,5.119,9.891,9.892,9.973c24.573,0,47.856,0,80.708,0c5.524-0.516,9.813-5.105,9.893-9.893     c-0.002-42.067-0.079-69.896-2.041-90.061c-1.921-19.74-5.868-32.446-13.582-43.031c-6.053-12.107-4.784-29.708-4.554-48.524     c1.584-0.877,2.619-2.666,2.59-4.475v-20.102c0-2.631-2.393-5.025-5.025-5.025C237.034,1014.84,217.327,1014.84,200.696,1014.841     L200.696,1014.841z M208.783,1044.993h40.039c-0.084,4.174-0.291,8.373-0.392,12.563h-39.254     C209.08,1053.357,208.866,1049.171,208.783,1044.993z M209.097,1067.606h39.333c0.202,10.549,1.468,20.759,6.045,29.915     c8.427,13.904,11.353,27.592,12.564,39.417c1.871,19.24,1.959,46.985,1.96,88.885v0.077h-0.077c-32.637,0-55.868,0-80.315,0     c0.951-29.687-0.807-60.415,1.571-88.962c1.979-14.333,4.968-29.377,12.404-39.337     C207.496,1088.454,208.846,1078.178,209.097,1067.606L209.097,1067.606z" />
			<g
   id="g1056">
				<path
   id="path1044"
   d="M263.635,1124.382c-7.207,14.504-16.837,25.487-30.733,35.358c12.664,5.82,24.125,10.186,34.471,17.57      c-0.231-16.698-0.719-29.685-1.746-40.235C265.259,1133.468,264.69,1129.156,263.635,1124.382z" />
				<path
   id="path1046"
   d="M250.199,1046.335c-0.046,1.806-0.101,3.614-0.166,5.425c-0.069,1.943-0.139,3.888-0.186,5.831l-0.033,1.383h-16.143      c-2.758,2.344-5.402,4.793-7.628,7.215h22.72c3.429-2.349,6.417-4.433,8.434-5.736c0.02-2.909,0.078-5.872,0.136-8.865      c0.046-2.361,0.093-4.752,0.123-7.163l0.01-0.823l0.721-0.399c1.133-0.627,1.88-1.918,1.859-3.212v-0.252      c-2.698,1.44-5.362,3.139-8.012,5.221C251.571,1045.323,250.939,1045.792,250.199,1046.335z" />
				<path
   id="path1048"
   d="M220.343,1079.342c1.719,4.018,13.858-3.358,24.242-10.318H223.63C220.659,1072.859,219.117,1076.486,220.343,1079.342z      " />
				<path
   id="path1050"
   d="M247.2,1051.658c0.038-1.075,0.07-2.147,0.105-3.22c-2.866,2.081-6.503,4.748-10.192,7.701h9.937      C247.093,1054.646,247.146,1053.151,247.2,1051.658z" />
				<path
   id="path1052"
   d="M441.142,1108.091c-20.929-20.917-43.684-39.743-65.698-59.461c-12.563-11.251-23.415-9.524-38.819-12.728      c-12.728-2.65-29.591-9.125-42.178-6.221c-11.715,2.702-21.908,4.177-31.566,8.648v1.638c0.033,2.04-0.966,4.024-2.6,5.248      c-0.029,2.162-0.071,4.307-0.112,6.428c-0.047,2.415-0.091,4.804-0.118,7.164c12.712-6.327,29.335-3.415,40.961,2.404      c-12.787,14.028-21.774,27.61-29.16,44.068c3.289,8.146,5.331,17.866,6.568,30.581c1.316,13.519,1.787,30.387,1.955,53.145      c15.07,15.649,30.141,31.297,45.207,46.946c6.588-17.83,10.162-31.908,12.22-50.769c0.666-6.084,11.508-14.203,14.717-19.725      c3.626-6.255-0.419-15.744,10.908-16.688c8.691-0.723,15.487-0.602,24.121,0.599c6.292,0.873,20.438,0.453,25.128,3.952      c14.065,10.483,4.09,35.618,17.397,45.113c0.789-10.858,2.076-21.688,3.692-32.43c0.536-3.52,5.822-14.505,4.248-17.396      c-2.888-5.315-12.936-2.692-15.693-10.027c10.195,2.757,18.954,9.571,24.206-1.559      C451.057,1127.413,444.588,1116.689,441.142,1108.091z M361.967,1087.047c0,0-9.171-20.658,0-20.658      C377.253,1066.388,377.253,1087.047,361.967,1087.047z" />
				<path
   id="path1054"
   d="M270.227,1109.002c-0.796,1.878-1.579,3.783-2.341,5.743c-0.743,1.908-1.523,3.744-2.326,5.542      c1.638,6.292,2.422,11.947,2.889,16.508c1.08,11.101,1.567,24.838,1.788,42.662c2.493,1.964,4.919,4.135,7.279,6.581      c-0.187-21.17-0.67-37.078-1.918-49.902C274.521,1125.068,272.832,1116.351,270.227,1109.002z" />
			</g>
		</g>
	</g>
</g>
</svg>
