<?xml version="1.0" encoding="UTF-8" standalone="no"?>
<!-- Generator: Adobe Illustrator 15.0.0, SVG Export Plug-In . SVG Version: 6.00 Build 0)  -->

<svg
   xmlns:dc="http://purl.org/dc/elements/1.1/"
   xmlns:cc="http://creativecommons.org/ns#"
   xmlns:rdf="http://www.w3.org/1999/02/22-rdf-syntax-ns#"
   xmlns:svg="http://www.w3.org/2000/svg"
   xmlns="http://www.w3.org/2000/svg"
   xmlns:sodipodi="http://sodipodi.sourceforge.net/DTD/sodipodi-0.dtd"
   xmlns:inkscape="http://www.inkscape.org/namespaces/inkscape"
   version="1.1"
   x="0px"
   y="0px"
   width="352px"
   height="352px"
   viewBox="122.5 0 352 352"
   enable-background="new 122.5 0 352 352"
   xml:space="preserve"
   id="svg47"
   sodipodi:docname="sheep-meat.svg"
   inkscape:version="0.92.2 (5c3e80d, 2017-08-06)"><metadata
     id="metadata53"><rdf:RDF><cc:Work
         rdf:about=""><dc:format>image/svg+xml</dc:format><dc:type
           rdf:resource="http://purl.org/dc/dcmitype/StillImage" /></cc:Work></rdf:RDF></metadata><defs
     id="defs51" /><sodipodi:namedview
     pagecolor="#ffffff"
     bordercolor="#666666"
     borderopacity="1"
     objecttolerance="10"
     gridtolerance="10"
     guidetolerance="10"
     inkscape:pageopacity="0"
     inkscape:pageshadow="2"
     inkscape:window-width="1680"
     inkscape:window-height="986"
     id="namedview49"
     showgrid="false"
     inkscape:zoom="0.67045455"
     inkscape:cx="178.98305"
     inkscape:cy="116.33898"
     inkscape:window-x="0"
     inkscape:window-y="27"
     inkscape:window-maximized="1"
     inkscape:current-layer="svg47" /><g
     id="Calque_1"
     display="none"><path
       display="inline"
       d="M280.149,112.903c-1.483-7.136-10.494-26.179-5.571-29.942c9.244-7.073,22.036,3.679,32.001,8.149   c1.717-6.297,3.428-12.592,5.15-18.889c2.051-7.536,2.981-7.06,10.528-9.938c7.392-2.823,22.99,9.948,30.994,11.252   c13.718,2.239,27.435,4.475,41.15,6.71c8.778,1.429,23.23-6.477,31.799-9.075c-11.633,24.7-35.865,26.054-59.815,30.601   c4.082,1.605,13.208,3.157,15.787,6.691c5.005,6.856,10.017,13.716,15.021,20.569c8.993,12.321,19.184,24.334,26.97,37.471   c6.11,10.306,23.641,30.012,5.967,39.544c-7.758,4.182-11.469,9.119-19.062,4.453c-7.911-4.856-9.793-4.814-17.705-9.674   c7.388,7.563,8.758,10.228,16.137,17.788c-14.129,3.454-20.066,1.672-34.269-2.298c-13.076-3.656-22.551,4.331-34.693,10.057   c-8.852,4.172-13.153,14.193-18.627,22.111c-4.939,7.156-9.871,14.319-14.745,21.518c-1.859,2.75-8.474,9.59-8.474,13.133   c0-2.798-6.28-9.744-7.735-12.104c-6.224-10.058-12.373-20.158-18.533-30.26c-13.833-22.716-27.605-45.467-41.37-68.227   c-2.938-4.863-5.881-9.729-8.813-14.592c-3.003-4.973,1.746-22.734,2.222-28.8C224.809,124.882,273.552,114.771,280.149,112.903   L280.149,112.903z M370.097,133.079c-12.404,0-12.412,19.24,0,19.24C382.502,152.318,382.502,133.079,370.097,133.079   C364.783,133.079,375.415,133.079,370.097,133.079z"
       id="path2" /><g
       transform="translate(0,-952.36218)"
       display="inline"
       id="g6"><path
         stroke="#FFFFFF"
         stroke-width="2.8347"
         stroke-miterlimit="10"
         d="M199.55,1014.664c-2.47,0.233-4.564,2.543-4.554,5.024    v20.103c-0.028,1.81,1.007,3.598,2.59,4.474c0.224,18.726,1.43,36.184-4.945,48.211c-8.892,14.988-12.433,30.313-13.661,43.42    c-1.776,20.152-1.584,47.884-1.57,89.904c0.527,5.493,5.119,9.891,9.892,9.973c24.573,0,47.856,0,80.708,0    c5.524-0.516,9.813-5.105,9.893-9.893c-0.002-42.067-0.08-69.896-2.041-90.061c-1.92-19.74-5.868-32.446-13.582-43.031    c-6.053-12.107-4.784-29.708-4.554-48.524c1.583-0.877,2.619-2.666,2.59-4.475v-20.102c0-2.631-2.393-5.025-5.025-5.025    C235.888,1014.662,216.181,1014.662,199.55,1014.664L199.55,1014.664z M207.637,1044.815h40.039    c-0.084,4.174-0.291,8.373-0.392,12.563H208.03C207.934,1053.179,207.72,1048.993,207.637,1044.815z M207.951,1067.428h39.333    c0.202,10.549,1.468,20.759,6.045,29.915c8.427,13.904,11.354,27.592,12.563,39.417c1.871,19.24,1.959,46.985,1.96,88.885v0.077    h-0.077c-32.637,0-55.869,0-80.316,0c0.951-29.687-0.807-60.415,1.571-88.962c1.979-14.333,4.968-29.377,12.404-39.337    C206.35,1088.276,207.7,1078,207.951,1067.428L207.951,1067.428z"
         id="path4" /></g></g><g
     id="Calque_2"
     transform="matrix(1.4736749,0,0,1.4736749,-172.1893,-92.169014)"
     style="fill:#ffffff;fill-opacity:1"><rect
       x="109"
       y="-15"
       display="none"
       width="420"
       height="384.5"
       id="rect9"
       style="display:none;fill:#ffffff;fill-opacity:1" /><g
       id="g31"
       style="fill:#ffffff;fill-opacity:1"><g
         id="g29"
         style="fill:#ffffff;fill-opacity:1"><g
           id="g27"
           style="fill:#ffffff;fill-opacity:1"><path
             d="m 253.833,82.534 c -2.288,0 -4.143,1.855 -4.143,4.143 v 61.138 c 0,0.339 -0.008,0.671 -0.024,1.011 h -8.263 V 86.677 c 0,-2.288 -1.856,-4.143 -4.143,-4.143 -2.287,0 -4.143,1.855 -4.143,4.143 v 62.149 H 224.83 V 86.677 c 0,-2.288 -1.856,-4.143 -4.143,-4.143 -2.288,0 -4.144,1.855 -4.144,4.143 v 62.149 h -8.262 c -0.017,-0.34 -0.025,-0.671 -0.025,-1.011 V 86.677 c 0,-2.288 -1.856,-4.143 -4.143,-4.143 -2.288,0 -4.144,1.855 -4.144,4.143 v 61.138 c 0,1.898 0.191,3.771 0.406,5.635 0,0 0,0 0,0.009 0.903,7.68 3.58,15.039 7.748,21.279 5.502,8.263 8.419,17.883 8.419,27.811 v 66.434 c 0,6.853 5.577,12.429 12.43,12.429 6.853,0 12.429,-5.576 12.429,-12.429 v -66.434 c 0,-9.928 2.917,-19.548 8.428,-27.811 4.16,-6.248 6.836,-13.607 7.74,-21.279 0.215,-1.866 0.406,-3.738 0.406,-5.636 V 86.677 c 10e-4,-2.287 -1.855,-4.143 -4.142,-4.143 z"
             id="path11"
             inkscape:connector-curvature="0"
             style="fill:#ffffff;fill-opacity:1" /><g
             id="g25"
             style="fill:#ffffff;fill-opacity:1"><path
               d="m 256.559,147.823 v -35.184 c -0.431,0.226 -0.974,0.465 -1.746,0.983 -0.924,-1.558 -0.781,-2.536 -3.706,-2.712 v 36.905 c 0,0.363 -0.008,0.717 -0.026,1.08 l -0.065,1.348 h -11.03 v -31.125 c -0.37,2.337 -0.642,4.768 -1.724,6.686 -0.976,1.729 -2.25,3.17 -3.727,4.4 v 20.04 h -11.122 v -14.821 c -1.793,0.476 -3.625,0.868 -5.452,1.202 v 13.619 h -2.832 c 8.257,9.204 19.788,18.012 31.613,26.805 0.599,-1.05 1.234,-2.084 1.909,-3.097 4.037,-6.063 6.634,-13.207 7.511,-20.658 0.201,-1.735 0.397,-3.589 0.397,-5.471 z"
               id="path13"
               inkscape:connector-curvature="0"
               style="fill:#ffffff;fill-opacity:1" /><path
               d="m 206.839,138.031 -0.395,-0.079 c 0.126,0.251 0.263,0.502 0.395,0.752 z"
               id="path15"
               inkscape:connector-curvature="0"
               style="fill:#ffffff;fill-opacity:1" /><path
               d="m 209.674,137.947 v 5.428 c 0.929,1.355 1.943,2.699 3.029,4.035 h 2.423 v -10.302 c -1.876,0.299 -3.714,0.569 -5.452,0.839 z"
               id="path17"
               inkscape:connector-curvature="0"
               style="fill:#ffffff;fill-opacity:1" /><path
               d="m 231.7,132.16 c -1.682,0.973 -3.518,1.766 -5.452,2.415 v 12.833 h 5.452 z"
               id="path19"
               inkscape:connector-curvature="0"
               style="fill:#ffffff;fill-opacity:1" /><path
               d="m 438.193,150.371 c -0.779,-6.657 -12.238,-15.608 -16.59,-20.203 -11.535,-12.147 -27.861,-20.559 -40.427,-31.813 -5.978,-5.355 -9.597,-12.55 -18.313,-14.363 -8.692,-1.815 -17.788,-1.065 -26.657,-1.065 -3.904,0 -6.374,3.688 -10.53,4.798 -7.466,1.988 -3.389,-1.847 -9.176,-4.798 -1.352,-0.689 -9.856,-0.633 -10.676,0.49 -2.376,3.272 -4.089,6.809 -5.952,10.399 -1.489,-2.763 -3.091,-3.969 -5.642,-5.668 -2.837,-1.885 -3.324,0.499 -5.423,2.896 -3.254,3.704 -7.504,6.208 -10.816,10.224 -2.16,-2.396 -12.367,-5.196 -16.065,-5.365 -0.735,-0.034 -1.71,0.265 -2.532,0.711 v 51.209 c 0,2.032 -0.214,4.059 -0.415,5.799 -0.93,7.896 -3.685,15.468 -7.968,21.902 -0.703,1.054 -1.359,2.131 -1.975,3.228 16.7,12.391 33.591,24.802 42.311,38.303 18,27.873 33.495,48.056 67.41,62.59 15.402,6.605 7.544,-6.738 12.591,-8.254 2.519,-0.755 13.695,-3.736 11.298,-6.563 -1.561,-1.839 -4.142,-3.248 -6.067,-4.679 -2.63,-1.959 -0.195,-3.307 1.465,-5.776 3.649,-5.42 6.267,-4.774 4.028,-11.575 -1.726,-5.289 -3.468,-7.743 -7.107,-11.993 5.806,0 9.865,0.035 5.443,-8.599 -2.291,-4.479 2.236,-3.729 5.274,-4.299 3.035,-0.574 -2.619,-5.04 -3.993,-7.025 -4.272,-6.19 -5.592,-1.29 -1.006,-7.591 4.596,-6.308 2.557,-5.671 -1.703,-8.929 -4.176,-3.199 -6.602,-3.383 -5.574,-8.546 0.794,-3.979 8.438,-3.529 12.066,-4.068 4.336,-0.642 7.468,-3.103 10.947,-5.724 3.013,-2.287 7.162,-1.427 9.685,0.634 4.177,3.421 5.221,3.026 10.72,2.597 2.997,-0.227 7.003,-2.839 8.636,-5.293 2.926,-4.382 1.206,-4.816 -1.782,-9.072 6.307,0.844 7.77,2.047 12.039,-2.583 4.132,-4.464 3.206,-5.78 2.476,-11.936 z m -73.542,-23.886 c -5.382,0 -9.742,-4.36 -9.742,-9.739 0,-5.383 4.36,-9.746 9.742,-9.746 5.38,0 9.734,4.363 9.734,9.746 0.003,5.382 -4.354,9.739 -9.734,9.739 z"
               id="path21"
               inkscape:connector-curvature="0"
               style="fill:#ffffff;fill-opacity:1" /><path
               d="m 242.82,147.409 h 5.452 v -36.475 c -0.29,0.015 -0.579,0.029 -0.9,0.051 -2.066,0.136 -3.513,0.696 -4.552,1.538 z"
               id="path23"
               inkscape:connector-curvature="0"
               style="fill:#ffffff;fill-opacity:1" /></g></g></g></g></g><g
     id="Calque_4"
     display="none"><path
       display="inline"
       d="M412.707,278.187c-2.11-15.284-8.02-41.303-13.066-45.74c-0.3-0.263-65.797-29.795-65.797-29.795   c7.623-9.399,12.812-20.387,14.987-28.426c5.68-3.813,7.999-16.228,6.377-24.758l48.978-4.832c1.842-0.181,3.283-1.666,3.412-3.512   c0.13-1.847-1.094-3.518-2.893-3.952l-48.121-11.678c-0.299-8.633-2.568-33.202-18.26-49.292   c-9.316-9.552-21.69-14.396-36.776-14.396c-15.097,0-27.342,4.851-36.395,14.419c-15.157,16.024-16.752,40.44-16.808,49.224   l-53.043,11.706c-1.824,0.402-3.083,2.073-2.97,3.937c0.113,1.865,1.565,3.37,3.425,3.548l53.171,5.125   c-1.339,9.207,1.663,21.243,6.547,24.53c1.522,5.666,5.56,18.105,13.899,28.951c0,0-66.613,28.881-66.944,29.205   c-4.691,4.568-10.724,33.363-13.103,45.528c-0.216,1.113,0.078,2.264,0.796,3.141c0.721,0.877,1.796,1.382,2.93,1.382h215.893   c1.098,0,2.141-0.475,2.862-1.302C412.528,280.372,412.855,279.275,412.707,278.187z M361.026,253.529h9.692v23.216H232.918   v-23.216h10.603c1.188,0,2.15-0.965,2.15-2.15v-29.619l14.829-6.41v36.029c0,1.188,0.962,2.15,2.151,2.15h79.25   c1.188,0,2.15-0.965,2.15-2.15v-36.071l14.828,6.382v29.689C358.878,252.567,359.838,253.529,361.026,253.529z M277.575,207.893   c7.206,6.442,15.288,9.713,24.092,9.713c8.11,0,16.279-3.567,23.853-10.356c0.177,0.113,4.998,2.233,4.998,2.233   c-1.611,9.104-9.791,16.06-19.635,16.06h-19.095c-10.12,0-17.952-6.449-19.28-15.381   C272.502,210.164,277.407,208.001,277.575,207.893z M262.417,170.796c-0.316-1.321-1.316-2.374-2.623-2.756   c-0.216-0.065-1.03-0.724-1.875-2.846c-2.098-5.277-0.138-16.58,0.139-17.239c16.703,0.947,71.424,0.923,87.905-0.072   c0.322,0.666,2.485,11.195,0.574,16.675c-0.871,2.505-1.767,3.319-2.006,3.407c-1.334,0.382-2.352,1.459-2.658,2.812   c-1.809,7.982-16.447,42.534-40.207,42.534C276.017,213.307,263.485,175.243,262.417,170.796z M253.995,256.667   c-4.032,0-7.311,3.281-7.311,7.313s3.279,7.313,7.311,7.313s7.311-3.281,7.311-7.313S258.027,256.667,253.995,256.667z    M351.461,256.667c-4.03,0-7.309,3.281-7.309,7.313s3.278,7.313,7.309,7.313c4.032,0,7.312-3.281,7.312-7.313   S355.493,256.667,351.461,256.667z"
       id="path34" /></g><g
     id="Calque_5"
     display="none"><path
       display="inline"
       d="M403.967,222.961c-3.972-3.973-63.995-19.358-66.341-21.509c-1.185-1.384-1.917-8.54-1.644-15.505   c44.261-44.708,45.203-74.4,38.129-91.478c-8.953-21.615-38.236-35.89-72.352-35.89c-35.289,0-62.656,14.833-71.971,37.317   c-7.034,16.981-6.377,46.231,36.355,89.386c0.684,7.407,0.298,15.097-0.854,16.561c-2.477,2.321-63.296,17.445-66.965,21.114   c-5.583,5.581-8.893,40.587-10.055,55.382c-0.084,1.072,0.283,2.131,1.011,2.922c0.73,0.789,1.757,1.238,2.833,1.238h219.208   c1.088,0,2.129-0.46,2.861-1.269c0.73-0.807,1.085-1.888,0.98-2.971C413.71,263.548,409.706,228.699,403.967,222.961z    M352.075,213.888l0.086,16.102l-26.709,18.286c-0.199,0.135-10.322,32.044-10.322,32.044l-10.785-18.01   c0.158-0.144,30.645-53.997,30.645-53.997C338.484,209.702,344.76,211.686,352.075,213.888z M301.759,198.386   c-26.335,0-43.145-38.735-43.145-65.403c0-16.587,7.958-22.339,11.306-22.801c1.747,4.145,8.272,13.356,31.801,13.356   c23.549,0,30.146-9.229,31.915-13.359c3.175,0.439,10.633,6.217,10.633,21.718C344.27,158.366,327.314,198.386,301.759,198.386z    M274.137,188.744c7.434,8.459,16.751,14.01,27.625,14.01c10.267,0,19.19-5.416,26.429-13.675   c-0.023,5.629,0.513,13.017,3.148,16.814l-29.58,51.633l-30.26-51.137C274.201,202.529,274.438,194.758,274.137,188.744z    M267.829,208.795l36.446,71.583h-7.396c0,0-18.546-31.941-18.753-32.087l-25.777-18.105l0.601-16.518   C259.291,211.778,264.66,210.067,267.829,208.795z"
       id="path37" /></g><g
     id="Calque_3"
     display="none"><path
       display="inline"
       d="M441.142,155.729c-20.929-20.917-43.684-39.743-65.698-59.461c-12.563-11.251-23.415-9.524-38.819-12.728   c-12.728-2.65-29.591-9.125-42.178-6.221c-16.172,3.73-29.449,5.09-42.412,15.278c-5.829,4.585-36.023,24.294-31.691,34.383   c2.768,6.469,32.551-16.598,38.519-19.912c12.849-7.132,30.158-4.222,42.149,1.78c-15.159,16.63-24.987,32.617-33.125,53.534   c-7.583,19.486-18.164,33.048-34.983,44.996c16.979,7.804,31.797,12.983,44.663,26.347c16.007,16.622,32.014,33.241,48.016,49.863   c6.588-17.83,10.162-31.908,12.22-50.769c0.666-6.084,11.508-14.203,14.717-19.725c3.626-6.255-0.419-15.744,10.908-16.688   c8.691-0.723,15.487-0.602,24.121,0.599c6.292,0.873,20.438,0.453,25.128,3.952c14.065,10.483,4.09,35.618,17.397,45.113   c0.789-10.858,2.076-21.688,3.692-32.43c0.536-3.52,5.822-14.505,4.248-17.396c-2.888-5.315-12.936-2.692-15.693-10.027   c10.195,2.757,18.954,9.571,24.206-1.559C451.057,175.051,444.588,164.326,441.142,155.729L441.142,155.729z M361.967,134.684   c0,0-9.171-20.658,0-20.658C377.253,114.026,377.253,134.684,361.967,134.684C361.967,134.684,377.253,134.684,361.967,134.684z"
       id="path40" /><g
       transform="translate(0,-952.36218)"
       display="inline"
       id="g44"><path
         stroke="#FFFFFF"
         stroke-width="2.8347"
         stroke-miterlimit="10"
         d="M200.696,1014.841c-2.47,0.233-4.564,2.543-4.554,5.024    v20.103c-0.028,1.81,1.007,3.598,2.59,4.474c0.224,18.726,1.43,36.184-4.945,48.211c-8.892,14.988-12.433,30.313-13.661,43.42    c-1.776,20.152-1.584,47.884-1.57,89.904c0.527,5.493,5.119,9.891,9.892,9.973c24.573,0,47.856,0,80.708,0    c5.524-0.516,9.813-5.105,9.893-9.893c-0.002-42.067-0.079-69.896-2.041-90.061c-1.921-19.74-5.868-32.446-13.582-43.031    c-6.053-12.107-4.784-29.708-4.554-48.524c1.584-0.877,2.619-2.666,2.59-4.475v-20.102c0-2.631-2.393-5.025-5.025-5.025    C237.034,1014.84,217.327,1014.84,200.696,1014.841L200.696,1014.841z M208.783,1044.993h40.039    c-0.084,4.174-0.291,8.373-0.392,12.563h-39.254C209.08,1053.357,208.866,1049.171,208.783,1044.993z M209.097,1067.606h39.333    c0.202,10.549,1.468,20.759,6.045,29.915c8.427,13.904,11.354,27.592,12.563,39.417c1.871,19.24,1.959,46.985,1.96,88.885v0.077    h-0.077c-32.637,0-55.868,0-80.315,0c0.951-29.687-0.807-60.415,1.571-88.962c1.979-14.333,4.968-29.377,12.404-39.337    C207.496,1088.454,208.846,1078.178,209.097,1067.606L209.097,1067.606z"
         id="path42" /></g></g></svg>