<?xml version="1.0" encoding="UTF-8"?>
<svg width="352px" height="352px" enable-background="new 122.5 0 352 352" version="1.1" viewBox="122.5 0 352 352" xml:space="preserve" xmlns="http://www.w3.org/2000/svg" xmlns:cc="http://creativecommons.org/ns#" xmlns:dc="http://purl.org/dc/elements/1.1/" xmlns:rdf="http://www.w3.org/1999/02/22-rdf-syntax-ns#"><metadata><rdf:RDF><cc:Work rdf:about=""><dc:format>image/svg+xml</dc:format><dc:type rdf:resource="http://purl.org/dc/dcmitype/StillImage"/></cc:Work></rdf:RDF></metadata><g display="none"><path d="m280.15 112.9c-1.483-7.136-10.494-26.179-5.571-29.942 9.244-7.073 22.036 3.679 32.001 8.149 1.717-6.297 3.428-12.592 5.15-18.889 2.051-7.536 2.981-7.06 10.528-9.938 7.392-2.823 22.99 9.948 30.994 11.252 13.718 2.239 27.435 4.475 41.15 6.71 8.778 1.429 23.23-6.477 31.799-9.075-11.633 24.7-35.865 26.054-59.815 30.601 4.082 1.605 13.208 3.157 15.787 6.691 5.005 6.856 10.017 13.716 15.021 20.569 8.993 12.321 19.184 24.334 26.97 37.471 6.11 10.306 23.641 30.012 5.967 39.544-7.758 4.182-11.469 9.119-19.062 4.453-7.911-4.856-9.793-4.814-17.705-9.674 7.388 7.563 8.758 10.228 16.137 17.788-14.129 3.454-20.066 1.672-34.269-2.298-13.076-3.656-22.551 4.331-34.693 10.057-8.852 4.172-13.153 14.193-18.627 22.111-4.939 7.156-9.871 14.319-14.745 21.518-1.859 2.75-8.474 9.59-8.474 13.133 0-2.798-6.28-9.744-7.735-12.104-6.224-10.058-12.373-20.158-18.533-30.26-13.833-22.716-27.605-45.467-41.37-68.227-2.938-4.863-5.881-9.729-8.813-14.592-3.003-4.973 1.746-22.734 2.222-28.8 0.346-4.269 49.089-14.38 55.686-16.248zm89.948 20.176c-12.404 0-12.412 19.24 0 19.24 12.405-1e-3 12.405-19.24 0-19.24-5.314 0 5.318 0 0 0z" display="inline"/><g transform="translate(0 -952.36)" display="inline"><path d="m199.55 1014.7c-2.47 0.233-4.564 2.543-4.554 5.024v20.103c-0.028 1.81 1.007 3.598 2.59 4.474 0.224 18.726 1.43 36.184-4.945 48.211-8.892 14.988-12.433 30.313-13.661 43.42-1.776 20.152-1.584 47.884-1.57 89.904 0.527 5.493 5.119 9.891 9.892 9.973h80.708c5.524-0.516 9.813-5.105 9.893-9.893-2e-3 -42.067-0.08-69.896-2.041-90.061-1.92-19.74-5.868-32.446-13.582-43.031-6.053-12.107-4.784-29.708-4.554-48.524 1.583-0.877 2.619-2.666 2.59-4.475v-20.102c0-2.631-2.393-5.025-5.025-5.025-19.403 0-39.11 0-55.741 2e-3zm8.087 30.151h40.039c-0.084 4.174-0.291 8.373-0.392 12.563h-39.254c-0.096-4.199-0.31-8.385-0.393-12.563zm0.314 22.613h39.333c0.202 10.549 1.468 20.759 6.045 29.915 8.427 13.904 11.354 27.592 12.563 39.417 1.871 19.24 1.959 46.985 1.96 88.885v0.077h-0.077-80.316c0.951-29.687-0.807-60.415 1.571-88.962 1.979-14.333 4.968-29.377 12.404-39.337 4.916-9.147 6.266-19.423 6.517-29.995z" stroke="#fff" stroke-miterlimit="10" stroke-width="2.8347"/></g></g><g transform="matrix(1.4737 0 0 1.4737 -172.19 -92.169)" fill="#fff"><rect x="109" y="-15" width="420" height="384.5" display="none"/><g fill="#fff"><g fill="#fff"><path d="m253.83 82.534c-2.288 0-4.143 1.855-4.143 4.143v61.138c0 0.339-8e-3 0.671-0.024 1.011h-8.263v-62.149c0-2.288-1.856-4.143-4.143-4.143s-4.143 1.855-4.143 4.143v62.149h-8.287v-62.149c0-2.288-1.856-4.143-4.143-4.143-2.288 0-4.144 1.855-4.144 4.143v62.149h-8.262c-0.017-0.34-0.025-0.671-0.025-1.011v-61.138c0-2.288-1.856-4.143-4.143-4.143-2.288 0-4.144 1.855-4.144 4.143v61.138c0 1.898 0.191 3.771 0.406 5.635v9e-3c0.903 7.68 3.58 15.039 7.748 21.279 5.502 8.263 8.419 17.883 8.419 27.811v66.434c0 6.853 5.577 12.429 12.43 12.429s12.429-5.576 12.429-12.429v-66.434c0-9.928 2.917-19.548 8.428-27.811 4.16-6.248 6.836-13.607 7.74-21.279 0.215-1.866 0.406-3.738 0.406-5.636v-61.146c1e-3 -2.287-1.855-4.143-4.142-4.143z"/><path d="m256.56 147.82v-35.184c-0.431 0.226-0.974 0.465-1.746 0.983-0.924-1.558-0.781-2.536-3.706-2.712v36.905c0 0.363-8e-3 0.717-0.026 1.08l-0.065 1.348h-11.03v-31.125c-0.37 2.337-0.642 4.768-1.724 6.686-0.976 1.729-2.25 3.17-3.727 4.4v20.04h-11.122v-14.821c-1.793 0.476-3.625 0.868-5.452 1.202v13.619h-2.832c8.257 9.204 19.788 18.012 31.613 26.805 0.599-1.05 1.234-2.084 1.909-3.097 4.037-6.063 6.634-13.207 7.511-20.658 0.201-1.735 0.397-3.589 0.397-5.471z"/><path d="m206.84 138.03-0.395-0.079c0.126 0.251 0.263 0.502 0.395 0.752z"/><path d="m209.67 137.95v5.428c0.929 1.355 1.943 2.699 3.029 4.035h2.423v-10.302c-1.876 0.299-3.714 0.569-5.452 0.839z"/><path d="m231.7 132.16c-1.682 0.973-3.518 1.766-5.452 2.415v12.833h5.452z"/><path d="m438.19 150.37c-0.779-6.657-12.238-15.608-16.59-20.203-11.535-12.147-27.861-20.559-40.427-31.813-5.978-5.355-9.597-12.55-18.313-14.363-8.692-1.815-17.788-1.065-26.657-1.065-3.904 0-6.374 3.688-10.53 4.798-7.466 1.988-3.389-1.847-9.176-4.798-1.352-0.689-9.856-0.633-10.676 0.49-2.376 3.272-4.089 6.809-5.952 10.399-1.489-2.763-3.091-3.969-5.642-5.668-2.837-1.885-3.324 0.499-5.423 2.896-3.254 3.704-7.504 6.208-10.816 10.224-2.16-2.396-12.367-5.196-16.065-5.365-0.735-0.034-1.71 0.265-2.532 0.711v51.209c0 2.032-0.214 4.059-0.415 5.799-0.93 7.896-3.685 15.468-7.968 21.902-0.703 1.054-1.359 2.131-1.975 3.228 16.7 12.391 33.591 24.802 42.311 38.303 18 27.873 33.495 48.056 67.41 62.59 15.402 6.605 7.544-6.738 12.591-8.254 2.519-0.755 13.695-3.736 11.298-6.563-1.561-1.839-4.142-3.248-6.067-4.679-2.63-1.959-0.195-3.307 1.465-5.776 3.649-5.42 6.267-4.774 4.028-11.575-1.726-5.289-3.468-7.743-7.107-11.993 5.806 0 9.865 0.035 5.443-8.599-2.291-4.479 2.236-3.729 5.274-4.299 3.035-0.574-2.619-5.04-3.993-7.025-4.272-6.19-5.592-1.29-1.006-7.591 4.596-6.308 2.557-5.671-1.703-8.929-4.176-3.199-6.602-3.383-5.574-8.546 0.794-3.979 8.438-3.529 12.066-4.068 4.336-0.642 7.468-3.103 10.947-5.724 3.013-2.287 7.162-1.427 9.685 0.634 4.177 3.421 5.221 3.026 10.72 2.597 2.997-0.227 7.003-2.839 8.636-5.293 2.926-4.382 1.206-4.816-1.782-9.072 6.307 0.844 7.77 2.047 12.039-2.583 4.132-4.464 3.206-5.78 2.476-11.936zm-73.542-23.886c-5.382 0-9.742-4.36-9.742-9.739 0-5.383 4.36-9.746 9.742-9.746 5.38 0 9.734 4.363 9.734 9.746 3e-3 5.382-4.354 9.739-9.734 9.739z"/><path d="m242.82 147.41h5.452v-36.475c-0.29 0.015-0.579 0.029-0.9 0.051-2.066 0.136-3.513 0.696-4.552 1.538z"/></g></g></g><g display="none"><path d="m412.71 278.19c-2.11-15.284-8.02-41.303-13.066-45.74-0.3-0.263-65.797-29.795-65.797-29.795 7.623-9.399 12.812-20.387 14.987-28.426 5.68-3.813 7.999-16.228 6.377-24.758l48.978-4.832c1.842-0.181 3.283-1.666 3.412-3.512 0.13-1.847-1.094-3.518-2.893-3.952l-48.121-11.678c-0.299-8.633-2.568-33.202-18.26-49.292-9.316-9.552-21.69-14.396-36.776-14.396-15.097 0-27.342 4.851-36.395 14.419-15.157 16.024-16.752 40.44-16.808 49.224l-53.043 11.706c-1.824 0.402-3.083 2.073-2.97 3.937 0.113 1.865 1.565 3.37 3.425 3.548l53.171 5.125c-1.339 9.207 1.663 21.243 6.547 24.53 1.522 5.666 5.56 18.105 13.899 28.951 0 0-66.613 28.881-66.944 29.205-4.691 4.568-10.724 33.363-13.103 45.528-0.216 1.113 0.078 2.264 0.796 3.141 0.721 0.877 1.796 1.382 2.93 1.382h215.89c1.098 0 2.141-0.475 2.862-1.302 0.72-0.828 1.047-1.925 0.899-3.013zm-51.681-24.658h9.692v23.216h-137.8v-23.216h10.603c1.188 0 2.15-0.965 2.15-2.15v-29.619l14.829-6.41v36.029c0 1.188 0.962 2.15 2.151 2.15h79.25c1.188 0 2.15-0.965 2.15-2.15v-36.071l14.828 6.382v29.689c-1e-3 1.188 0.959 2.15 2.147 2.15zm-83.451-45.636c7.206 6.442 15.288 9.713 24.092 9.713 8.11 0 16.279-3.567 23.853-10.356 0.177 0.113 4.998 2.233 4.998 2.233-1.611 9.104-9.791 16.06-19.635 16.06h-19.095c-10.12 0-17.952-6.449-19.28-15.381-6e-3 2e-3 4.899-2.161 5.067-2.269zm-15.158-37.097c-0.316-1.321-1.316-2.374-2.623-2.756-0.216-0.065-1.03-0.724-1.875-2.846-2.098-5.277-0.138-16.58 0.139-17.239 16.703 0.947 71.424 0.923 87.905-0.072 0.322 0.666 2.485 11.195 0.574 16.675-0.871 2.505-1.767 3.319-2.006 3.407-1.334 0.382-2.352 1.459-2.658 2.812-1.809 7.982-16.447 42.534-40.207 42.534-25.649-4e-3 -38.181-38.068-39.249-42.515zm-8.422 85.871c-4.032 0-7.311 3.281-7.311 7.313s3.279 7.313 7.311 7.313 7.311-3.281 7.311-7.313-3.279-7.313-7.311-7.313zm97.466 0c-4.03 0-7.309 3.281-7.309 7.313s3.278 7.313 7.309 7.313c4.032 0 7.312-3.281 7.312-7.313s-3.28-7.313-7.312-7.313z" display="inline"/></g><g display="none"><path d="m403.97 222.96c-3.972-3.973-63.995-19.358-66.341-21.509-1.185-1.384-1.917-8.54-1.644-15.505 44.261-44.708 45.203-74.4 38.129-91.478-8.953-21.615-38.236-35.89-72.352-35.89-35.289 0-62.656 14.833-71.971 37.317-7.034 16.981-6.377 46.231 36.355 89.386 0.684 7.407 0.298 15.097-0.854 16.561-2.477 2.321-63.296 17.445-66.965 21.114-5.583 5.581-8.893 40.587-10.055 55.382-0.084 1.072 0.283 2.131 1.011 2.922 0.73 0.789 1.757 1.238 2.833 1.238h219.21c1.088 0 2.129-0.46 2.861-1.269 0.73-0.807 1.085-1.888 0.98-2.971-1.452-14.711-5.456-49.56-11.195-55.298zm-51.892-9.073l0.086 16.102-26.709 18.286c-0.199 0.135-10.322 32.044-10.322 32.044l-10.785-18.01c0.158-0.144 30.645-53.997 30.645-53.997 3.494 1.389 9.77 3.373 17.085 5.575zm-50.316-15.502c-26.335 0-43.145-38.735-43.145-65.403 0-16.587 7.958-22.339 11.306-22.801 1.747 4.145 8.272 13.356 31.801 13.356 23.549 0 30.146-9.229 31.915-13.359 3.175 0.439 10.633 6.217 10.633 21.718 1e-3 26.469-16.955 66.489-42.51 66.489zm-27.622-9.642c7.434 8.459 16.751 14.01 27.625 14.01 10.267 0 19.19-5.416 26.429-13.675-0.023 5.629 0.513 13.017 3.148 16.814l-29.58 51.633-30.26-51.137c2.702-3.86 2.939-11.631 2.638-17.645zm-6.308 20.051l36.446 71.583h-7.396s-18.546-31.941-18.753-32.087l-25.777-18.105 0.601-16.518c6.341-1.89 11.71-3.601 14.879-4.873z" display="inline"/></g><g display="none"><path d="m441.14 155.73c-20.929-20.917-43.684-39.743-65.698-59.461-12.563-11.251-23.415-9.524-38.819-12.728-12.728-2.65-29.591-9.125-42.178-6.221-16.172 3.73-29.449 5.09-42.412 15.278-5.829 4.585-36.023 24.294-31.691 34.383 2.768 6.469 32.551-16.598 38.519-19.912 12.849-7.132 30.158-4.222 42.149 1.78-15.159 16.63-24.987 32.617-33.125 53.534-7.583 19.486-18.164 33.048-34.983 44.996 16.979 7.804 31.797 12.983 44.663 26.347 16.007 16.622 32.014 33.241 48.016 49.863 6.588-17.83 10.162-31.908 12.22-50.769 0.666-6.084 11.508-14.203 14.717-19.725 3.626-6.255-0.419-15.744 10.908-16.688 8.691-0.723 15.487-0.602 24.121 0.599 6.292 0.873 20.438 0.453 25.128 3.952 14.065 10.483 4.09 35.618 17.397 45.113 0.789-10.858 2.076-21.688 3.692-32.43 0.536-3.52 5.822-14.505 4.248-17.396-2.888-5.315-12.936-2.692-15.693-10.027 10.195 2.757 18.954 9.571 24.206-1.559 4.53-9.607-1.939-20.332-5.385-28.929zm-79.175-21.045s-9.171-20.658 0-20.658c15.286 0 15.286 20.658 0 20.658 0 0 15.286 0 0 0z" display="inline"/><g transform="translate(0 -952.36)" display="inline"><path d="m200.7 1014.8c-2.47 0.233-4.564 2.543-4.554 5.024v20.103c-0.028 1.81 1.007 3.598 2.59 4.474 0.224 18.726 1.43 36.184-4.945 48.211-8.892 14.988-12.433 30.313-13.661 43.42-1.776 20.152-1.584 47.884-1.57 89.904 0.527 5.493 5.119 9.891 9.892 9.973h80.708c5.524-0.516 9.813-5.105 9.893-9.893-2e-3 -42.067-0.079-69.896-2.041-90.061-1.921-19.74-5.868-32.446-13.582-43.031-6.053-12.107-4.784-29.708-4.554-48.524 1.584-0.877 2.619-2.666 2.59-4.475v-20.102c0-2.631-2.393-5.025-5.025-5.025-19.403 1e-3 -39.11 1e-3 -55.741 2e-3zm8.087 30.152h40.039c-0.084 4.174-0.291 8.373-0.392 12.563h-39.254c-0.096-4.199-0.31-8.385-0.393-12.563zm0.314 22.613h39.333c0.202 10.549 1.468 20.759 6.045 29.915 8.427 13.904 11.354 27.592 12.563 39.417 1.871 19.24 1.959 46.985 1.96 88.885v0.077h-0.077-80.315c0.951-29.687-0.807-60.415 1.571-88.962 1.979-14.333 4.968-29.377 12.404-39.337 4.915-9.147 6.265-19.423 6.516-29.995z" stroke="#fff" stroke-miterlimit="10" stroke-width="2.8347"/></g></g></svg>
